<svg width="283" height="284" fill="none" xmlns="http://www.w3.org/2000/svg"><ellipse cx="141.5" cy="142" rx="141.5" ry="142" fill="url(#paint0_linear)" fill-opacity=".05"/><path d="M252.081 132.61c.982-20.459-13.258-34.032-29.327-43.35l-10.446 61.582c7.232-.406 10.767 2.349 12.053 3.646 1.607 1.62 5.624 6.482.803 14.18 10.044-1.621 25.731-11.344 26.917-36.058z" fill="url(#paint1_linear)"/><path fill-rule="evenodd" clip-rule="evenodd" d="M115.061 60.913l-12.454-12.56c18.748-2.295 68.217.649 116.105 30.791.803 3.242 0 8.103 0 8.103l4.017 2.026c3.482 4.997 9.401 19.204 5.223 36.058s-11.383 24.038-14.463 25.524c-6.428 0-17.355 3.727-20.891 20.257-3.535 16.53-10.311 20.122-13.257 19.852l-70.708.81-46.602-27.549-6.83-57.126L68.46 89.273l23.703-19.447 16.873-6.887 6.026-2.026zm83.509 23.598c-3.118 3.259-6.033 4.823-6.865 5.247-18.207-3.887-24.766-13.34-24.766-13.34 17.173-.105 32.673 3.994 44.013 10.928 0 0-6.138-1.996-12.382-2.835z" fill="url(#paint2_linear)"/><path fill-rule="evenodd" clip-rule="evenodd" d="M191.977 171.117c-12.481 6.147-27.279 9.705-43.145 9.705-44.597 0-80.75-28.115-80.75-62.797 0-25.62 19.727-47.655 48.014-57.422-53.797 3.11-97.028 46.48-97.028 99.995 0 61.761 54.86 112.793 122.533 112.793 50.533 0 92.597-29.402 114.591-68.74-30.263 6.83-66.088-6.155-64.215-33.534z" fill="url(#paint3_linear)"/><defs><linearGradient id="paint0_linear" x1="141.5" y1="99.375" x2="141.5" y2="287.733" gradientUnits="userSpaceOnUse"><stop stop-color="#01E8F8"/><stop offset="1" stop-color="#01E8F8" stop-opacity="0"/></linearGradient><linearGradient id="paint1_linear" x1="232.389" y1="111.72" x2="237.798" y2="181.287" gradientUnits="userSpaceOnUse"><stop stop-color="#01E8F7"/><stop offset="1" stop-color="#00C2FF"/></linearGradient><linearGradient id="paint2_linear" x1="111.561" y1="63.191" x2="184.824" y2="179.059" gradientUnits="userSpaceOnUse"><stop stop-color="#01E8F7"/><stop offset="1" stop-color="#00B3EC"/></linearGradient><linearGradient id="paint3_linear" x1="138.644" y1="120.788" x2="145.198" y2="308.103" gradientUnits="userSpaceOnUse"><stop stop-color="#01E8F7"/><stop offset="1" stop-color="#00C2FF"/></linearGradient></defs></svg>