<svg width="25" height="25" viewBox="0 0 25 25" fill="none" xmlns="http://www.w3.org/2000/svg">
<ellipse cx="12.0125" cy="12.3081" rx="12" ry="12.0029" fill="#F2FEFF"/>
<path d="M21.3893 11.5077C21.4726 9.77829 20.265 8.63104 18.9022 7.84338L18.0164 13.0487C18.6296 13.0145 18.9294 13.2474 19.0385 13.3569C19.1747 13.4939 19.5155 13.9049 19.1066 14.5555C19.9584 14.4186 21.2888 13.5967 21.3893 11.5077Z" fill="url(#paint0_linear)"/>
<path fill-rule="evenodd" clip-rule="evenodd" d="M9.77228 5.44203L8.7161 4.38041C10.306 4.18635 14.5012 4.4352 18.5624 6.98309C18.6306 7.25705 18.5624 7.668 18.5624 7.668L18.9031 7.83923C19.1984 8.26159 19.7004 9.46248 19.346 10.8871C18.9917 12.3117 18.3807 12.919 18.1195 13.0446C17.5744 13.0446 16.6477 13.3596 16.3479 14.7569C16.048 16.1541 15.4734 16.4577 15.2235 16.4349L9.22716 16.5034L5.275 14.1747L4.6958 9.34604L5.82012 7.83923L7.83027 6.19543L9.26123 5.61326L9.77228 5.44203ZM16.8552 7.4364C16.5908 7.71189 16.3436 7.84406 16.273 7.87991C14.729 7.55139 14.1727 6.75242 14.1727 6.75242C15.6291 6.74343 16.9436 7.08992 17.9053 7.67605C17.9053 7.67605 17.3847 7.5073 16.8552 7.4364Z" fill="url(#paint1_linear)"/>
<path fill-rule="evenodd" clip-rule="evenodd" d="M16.2903 14.7622C15.2322 15.2813 13.9779 15.5817 12.6331 15.5817C8.85097 15.5817 5.78495 13.2052 5.78495 10.2737C5.78495 8.10837 7.4576 6.24589 9.856 5.42017C5.29334 5.68268 1.62671 9.34882 1.62671 13.8725C1.62671 19.0931 6.27912 23.4067 12.0182 23.4067C16.3037 23.4067 19.8709 20.9214 21.7361 17.5963C19.1698 18.1736 16.132 17.0762 16.2903 14.7622Z" fill="url(#paint2_linear)"/>
<defs>
<linearGradient id="paint0_linear" x1="19.7193" y1="9.74186" x2="20.175" y2="15.6224" gradientUnits="userSpaceOnUse">
<stop stop-color="#01E8F7"/>
<stop offset="1" stop-color="#00C2FF"/>
</linearGradient>
<linearGradient id="paint1_linear" x1="9.47543" y1="5.63454" x2="15.6594" y2="15.4469" gradientUnits="userSpaceOnUse">
<stop stop-color="#01E8F7"/>
<stop offset="1" stop-color="#00B3EC"/>
</linearGradient>
<linearGradient id="paint2_linear" x1="11.7674" y1="10.5075" x2="12.3196" y2="26.3409" gradientUnits="userSpaceOnUse">
<stop stop-color="#01E8F7"/>
<stop offset="1" stop-color="#00C2FF"/>
</linearGradient>
</defs>
</svg>
