<svg width="782" height="534" viewBox="0 0 782 534" fill="none" xmlns="http://www.w3.org/2000/svg">
<g filter="url(#filter0_d)">
<rect x="17" y="14" width="748" height="500" rx="6" fill="white"/>
</g>
<mask id="mask0" mask-type="alpha" maskUnits="userSpaceOnUse" x="17" y="14" width="748" height="500">
<rect x="17" y="14" width="748" height="500" rx="6" fill="white"/>
</mask>
<g mask="url(#mask0)">
<circle opacity="0.2" cx="391.5" cy="213.5" r="223.216" stroke="#FFA776" stroke-width="1.5"/>
<circle opacity="0.15" cx="391.5" cy="213.5" r="255.045" stroke="#FFA776" stroke-width="1.5"/>
<circle opacity="0.1" cx="391.5" cy="213.5" r="286.098" stroke="#FFA776" stroke-width="1.5"/>
<circle opacity="0.05" cx="391.5" cy="213.5" r="317.75" stroke="#FFA776" stroke-width="1.5"/>
</g>
<rect x="32" y="391" width="718" height="109" rx="4" fill="url(#paint0_linear)"/>
<path d="M57.6 418.52L54.06 412.72H52.34L56.78 419.94V425H58.34V419.94L62.82 412.72H61.14L57.6 418.52ZM70.7233 420.56C70.7233 417.84 69.0633 415.94 66.6433 415.94C64.2033 415.94 62.5633 417.84 62.5633 420.56C62.5633 423.28 64.2033 425.18 66.6433 425.18C69.0633 425.18 70.7233 423.28 70.7233 420.56ZM69.2033 420.56C69.2033 422.5 68.2433 423.86 66.6433 423.86C65.0433 423.86 64.0833 422.5 64.0833 420.56C64.0833 418.62 65.0433 417.26 66.6433 417.26C68.2433 417.26 69.2033 418.62 69.2033 420.56ZM79.8341 416.12H78.3141V422.14C77.9941 423.1 77.1341 423.8 76.0941 423.8C74.7541 423.8 74.1541 422.94 74.1541 421.7V416.12H72.6341V421.94C72.6341 423.88 73.7141 425.18 75.7341 425.18C76.8741 425.18 77.8141 424.58 78.3141 423.88V425H79.8341V416.12ZM93.3542 425V419.08C93.3542 417.14 92.0942 415.94 89.9742 415.94C88.2742 415.94 86.9542 416.96 86.6542 418.46H88.1342C88.4142 417.64 89.0142 417.24 89.9542 417.24C91.2342 417.24 91.9142 418.04 91.9142 419.14V420.26C91.5342 419.92 90.5942 419.54 89.6742 419.54C87.7742 419.54 86.2742 420.66 86.2742 422.32C86.2742 424.08 87.7742 425.16 89.5742 425.16C90.6342 425.16 91.5742 424.7 91.9142 424.34V425H93.3542ZM91.9142 422.8C91.6542 423.46 90.7542 423.9 89.8342 423.9C88.7542 423.9 87.7142 423.4 87.7142 422.32C87.7142 421.26 88.7542 420.78 89.8342 420.78C90.7542 420.78 91.6542 421.22 91.9142 421.88V422.8ZM95.9181 425H97.4181V418.98C97.7381 418.02 98.6381 417.32 99.6781 417.32C101.018 417.32 101.638 418.18 101.638 419.42V425H103.158V419.18C103.158 417.24 102.058 415.94 100.038 415.94C98.8981 415.94 97.9381 416.54 97.4181 417.24V416.12H95.9181V425ZM111.563 425H113.083V412H111.563V417.16C111.123 416.52 110.163 415.94 109.063 415.94C106.463 415.94 105.063 418.06 105.063 420.56C105.063 423.08 106.463 425.18 109.063 425.18C110.163 425.18 111.123 424.6 111.563 423.96V425ZM111.563 422.36C111.103 423.28 110.223 423.82 109.283 423.82C107.583 423.82 106.583 422.44 106.583 420.56C106.583 418.68 107.583 417.3 109.283 417.3C110.223 417.3 111.103 417.84 111.563 418.76V422.36ZM120.576 422.76C120.576 424.4 121.576 425.18 123.016 425.18C123.556 425.18 124.076 425.06 124.416 424.88V423.48C124.116 423.68 123.676 423.84 123.256 423.84C122.496 423.84 122.076 423.46 122.076 422.6V417.4H124.216V416.12H122.076V413.78H120.576V416.12H119.136V417.4H120.576V422.76ZM132.007 416.12H130.667L128.847 422.9L126.887 416.12H125.387L128.007 425H129.467L131.327 418.26L133.167 425H134.627L137.247 416.12H135.787L133.827 422.9L132.007 416.12ZM146.465 420.56C146.465 417.84 144.805 415.94 142.385 415.94C139.945 415.94 138.305 417.84 138.305 420.56C138.305 423.28 139.945 425.18 142.385 425.18C144.805 425.18 146.465 423.28 146.465 420.56ZM144.945 420.56C144.945 422.5 143.985 423.86 142.385 423.86C140.785 423.86 139.825 422.5 139.825 420.56C139.825 418.62 140.785 417.26 142.385 417.26C143.985 417.26 144.945 418.62 144.945 420.56ZM160.43 420.56C160.43 417.84 158.77 415.94 156.35 415.94C153.91 415.94 152.27 417.84 152.27 420.56C152.27 423.28 153.91 425.18 156.35 425.18C158.77 425.18 160.43 423.28 160.43 420.56ZM158.91 420.56C158.91 422.5 157.95 423.86 156.35 423.86C154.75 423.86 153.79 422.5 153.79 420.56C153.79 418.62 154.75 417.26 156.35 417.26C157.95 417.26 158.91 418.62 158.91 420.56ZM162.881 422.76C162.881 424.4 163.881 425.18 165.321 425.18C165.861 425.18 166.381 425.06 166.721 424.88V423.48C166.421 423.68 165.981 423.84 165.561 423.84C164.801 423.84 164.381 423.46 164.381 422.6V417.4H166.521V416.12H164.381V413.78H162.881V416.12H161.441V417.4H162.881V422.76ZM168.809 425H170.309V418.98C170.629 418.02 171.529 417.32 172.569 417.32C173.909 417.32 174.529 418.18 174.529 419.42V425H176.049V419.18C176.049 417.24 174.949 415.94 172.929 415.94C171.789 415.94 170.829 416.54 170.309 417.24V412H168.809V425ZM184.194 422.34C183.954 423.34 183.134 423.9 182.034 423.9C180.534 423.9 179.474 422.74 179.454 420.84H185.734V420.3C185.734 417.72 184.434 415.94 181.994 415.94C179.574 415.94 177.954 417.92 177.954 420.58C177.954 423.32 179.614 425.18 182.034 425.18C184.034 425.18 185.294 424.02 185.614 422.34H184.194ZM182.014 417.22C183.494 417.22 184.194 418.38 184.214 419.7H179.494C179.714 418.14 180.674 417.22 182.014 417.22ZM192.295 416.08C192.135 416 191.815 415.94 191.435 415.94C190.455 415.94 189.615 416.52 189.235 417.28V416.12H187.735V425H189.235V419.04C189.535 418 190.355 417.38 191.295 417.38C191.675 417.38 192.055 417.46 192.295 417.62V416.08ZM200.074 416.12H198.574V425.92C198.574 426.92 198.154 427.28 197.374 427.28C197.194 427.28 196.974 427.24 196.854 427.22V428.5C197.014 428.56 197.314 428.58 197.494 428.58C199.154 428.58 200.074 427.68 200.074 426.02V416.12ZM200.294 413.44C200.294 412.9 199.854 412.48 199.314 412.48C198.794 412.48 198.354 412.9 198.354 413.44C198.354 413.96 198.794 414.4 199.314 414.4C199.854 414.4 200.294 413.96 200.294 413.44ZM209.795 416.12H208.275V422.14C207.955 423.1 207.095 423.8 206.055 423.8C204.715 423.8 204.115 422.94 204.115 421.7V416.12H202.595V421.94C202.595 423.88 203.675 425.18 205.695 425.18C206.835 425.18 207.775 424.58 208.275 423.88V425H209.795V416.12ZM217.021 416.08C216.861 416 216.541 415.94 216.161 415.94C215.181 415.94 214.341 416.52 213.961 417.28V416.12H212.461V425H213.961V419.04C214.261 418 215.081 417.38 216.021 417.38C216.401 417.38 216.781 417.46 217.021 417.62V416.08ZM226.153 420.56C226.153 417.84 224.493 415.94 222.073 415.94C219.633 415.94 217.993 417.84 217.993 420.56C217.993 423.28 219.633 425.18 222.073 425.18C224.493 425.18 226.153 423.28 226.153 420.56ZM224.633 420.56C224.633 422.5 223.673 423.86 222.073 423.86C220.473 423.86 219.513 422.5 219.513 420.56C219.513 418.62 220.473 417.26 222.073 417.26C223.673 417.26 224.633 418.62 224.633 420.56ZM232.744 416.08C232.584 416 232.264 415.94 231.884 415.94C230.904 415.94 230.064 416.52 229.684 417.28V416.12H228.184V425H229.684V419.04C229.984 418 230.804 417.38 231.744 417.38C232.124 417.38 232.504 417.46 232.744 417.62V416.08ZM233.811 422.56C234.091 424.2 235.511 425.18 237.451 425.18C239.351 425.18 240.751 424.18 240.751 422.5C240.751 421.26 240.011 420.42 238.491 420.02L236.771 419.6C235.931 419.36 235.531 419.08 235.531 418.48C235.531 417.62 236.351 417.2 237.231 417.2C238.311 417.2 238.931 417.66 239.191 418.46H240.691C240.371 416.9 239.211 415.94 237.251 415.94C235.451 415.94 234.071 416.98 234.071 418.56C234.071 419.94 234.951 420.58 236.211 420.9L237.971 421.36C238.891 421.6 239.291 421.98 239.291 422.6C239.291 423.5 238.531 423.92 237.471 423.92C236.431 423.92 235.651 423.48 235.371 422.56H233.811ZM253.686 425V419.08C253.686 417.14 252.426 415.94 250.306 415.94C248.606 415.94 247.286 416.96 246.986 418.46H248.466C248.746 417.64 249.346 417.24 250.286 417.24C251.566 417.24 252.246 418.04 252.246 419.14V420.26C251.866 419.92 250.926 419.54 250.006 419.54C248.106 419.54 246.606 420.66 246.606 422.32C246.606 424.08 248.106 425.16 249.906 425.16C250.966 425.16 251.906 424.7 252.246 424.34V425H253.686ZM252.246 422.8C251.986 423.46 251.086 423.9 250.166 423.9C249.086 423.9 248.046 423.4 248.046 422.32C248.046 421.26 249.086 420.78 250.166 420.78C251.086 420.78 251.986 421.22 252.246 421.88V422.8ZM260.81 416.08C260.65 416 260.33 415.94 259.95 415.94C258.97 415.94 258.13 416.52 257.75 417.28V416.12H256.25V425H257.75V419.04C258.05 418 258.87 417.38 259.81 417.38C260.19 417.38 260.57 417.46 260.81 417.62V416.08ZM268.022 422.34C267.782 423.34 266.962 423.9 265.862 423.9C264.362 423.9 263.302 422.74 263.282 420.84H269.562V420.3C269.562 417.72 268.262 415.94 265.822 415.94C263.402 415.94 261.782 417.92 261.782 420.58C261.782 423.32 263.442 425.18 265.862 425.18C267.862 425.18 269.122 424.02 269.442 422.34H268.022ZM265.842 417.22C267.322 417.22 268.022 418.38 268.042 419.7H263.322C263.542 418.14 264.502 417.22 265.842 417.22ZM281.837 425H283.357V412H281.837V417.16C281.397 416.52 280.437 415.94 279.337 415.94C276.737 415.94 275.337 418.06 275.337 420.56C275.337 423.08 276.737 425.18 279.337 425.18C280.437 425.18 281.397 424.6 281.837 423.96V425ZM281.837 422.36C281.377 423.28 280.497 423.82 279.557 423.82C277.857 423.82 276.857 422.44 276.857 420.56C276.857 418.68 277.857 417.3 279.557 417.3C280.497 417.3 281.377 417.84 281.837 418.76V422.36ZM290.576 416.08C290.416 416 290.096 415.94 289.716 415.94C288.736 415.94 287.896 416.52 287.516 417.28V416.12H286.016V425H287.516V419.04C287.816 418 288.636 417.38 289.576 417.38C289.956 417.38 290.336 417.46 290.576 417.62V416.08ZM298.647 425V419.08C298.647 417.14 297.387 415.94 295.267 415.94C293.567 415.94 292.247 416.96 291.947 418.46H293.427C293.707 417.64 294.307 417.24 295.247 417.24C296.527 417.24 297.207 418.04 297.207 419.14V420.26C296.827 419.92 295.887 419.54 294.967 419.54C293.067 419.54 291.567 420.66 291.567 422.32C291.567 424.08 293.067 425.16 294.867 425.16C295.927 425.16 296.867 424.7 297.207 424.34V425H298.647ZM297.207 422.8C296.947 423.46 296.047 423.9 295.127 423.9C294.047 423.9 293.007 423.4 293.007 422.32C293.007 421.26 294.047 420.78 295.127 420.78C296.047 420.78 296.947 421.22 297.207 421.88V422.8ZM305.651 412.02C305.311 411.88 304.971 411.82 304.491 411.82C302.931 411.82 301.771 412.86 301.771 414.64V416.12H300.271V417.4H301.771V425H303.251V417.4H305.251V416.12H303.251V414.76C303.251 413.7 303.831 413.14 304.711 413.14C305.031 413.14 305.371 413.2 305.651 413.38V412.02ZM307.471 422.76C307.471 424.4 308.471 425.18 309.911 425.18C310.451 425.18 310.971 425.06 311.311 424.88V423.48C311.011 423.68 310.571 423.84 310.151 423.84C309.391 423.84 308.971 423.46 308.971 422.6V417.4H311.111V416.12H308.971V413.78H307.471V416.12H306.031V417.4H307.471V422.76ZM318.901 422.34C318.661 423.34 317.841 423.9 316.741 423.9C315.241 423.9 314.181 422.74 314.161 420.84H320.441V420.3C320.441 417.72 319.141 415.94 316.701 415.94C314.281 415.94 312.661 417.92 312.661 420.58C312.661 423.32 314.321 425.18 316.741 425.18C318.741 425.18 320.001 424.02 320.321 422.34H318.901ZM316.721 417.22C318.201 417.22 318.901 418.38 318.921 419.7H314.201C314.421 418.14 315.381 417.22 316.721 417.22ZM328.341 425H329.861V412H328.341V417.16C327.901 416.52 326.941 415.94 325.841 415.94C323.241 415.94 321.841 418.06 321.841 420.56C321.841 423.08 323.241 425.18 325.841 425.18C326.941 425.18 327.901 424.6 328.341 423.96V425ZM328.341 422.36C327.881 423.28 327.001 423.82 326.061 423.82C324.361 423.82 323.361 422.44 323.361 420.56C323.361 418.68 324.361 417.3 326.061 417.3C327.001 417.3 327.881 417.84 328.341 418.76V422.36ZM337.354 422.76C337.354 424.4 338.354 425.18 339.794 425.18C340.334 425.18 340.854 425.06 341.194 424.88V423.48C340.894 423.68 340.454 423.84 340.034 423.84C339.274 423.84 338.854 423.46 338.854 422.6V417.4H340.994V416.12H338.854V413.78H337.354V416.12H335.914V417.4H337.354V422.76ZM350.704 420.56C350.704 417.84 349.044 415.94 346.624 415.94C344.184 415.94 342.544 417.84 342.544 420.56C342.544 423.28 344.184 425.18 346.624 425.18C349.044 425.18 350.704 423.28 350.704 420.56ZM349.184 420.56C349.184 422.5 348.224 423.86 346.624 423.86C345.024 423.86 344.064 422.5 344.064 420.56C344.064 418.62 345.024 417.26 346.624 417.26C348.224 417.26 349.184 418.62 349.184 420.56ZM363.589 425V419.08C363.589 417.14 362.329 415.94 360.209 415.94C358.509 415.94 357.189 416.96 356.889 418.46H358.369C358.649 417.64 359.249 417.24 360.189 417.24C361.469 417.24 362.149 418.04 362.149 419.14V420.26C361.769 419.92 360.829 419.54 359.909 419.54C358.009 419.54 356.509 420.66 356.509 422.32C356.509 424.08 358.009 425.16 359.809 425.16C360.869 425.16 361.809 424.7 362.149 424.34V425H363.589ZM362.149 422.8C361.889 423.46 360.989 423.9 360.069 423.9C358.989 423.9 357.949 423.4 357.949 422.32C357.949 421.26 358.989 420.78 360.069 420.78C360.989 420.78 361.889 421.22 362.149 421.88V422.8ZM372.013 425H373.533V412H372.013V417.16C371.573 416.52 370.613 415.94 369.513 415.94C366.913 415.94 365.513 418.06 365.513 420.56C365.513 423.08 366.913 425.18 369.513 425.18C370.613 425.18 371.573 424.6 372.013 423.96V425ZM372.013 422.36C371.553 423.28 370.673 423.82 369.733 423.82C368.033 423.82 367.033 422.44 367.033 420.56C367.033 418.68 368.033 417.3 369.733 417.3C370.673 417.3 371.553 417.84 372.013 418.76V422.36ZM377.692 416.12H376.192V425.92C376.192 426.92 375.772 427.28 374.992 427.28C374.812 427.28 374.592 427.24 374.472 427.22V428.5C374.632 428.56 374.932 428.58 375.112 428.58C376.772 428.58 377.692 427.68 377.692 426.02V416.12ZM377.912 413.44C377.912 412.9 377.472 412.48 376.932 412.48C376.412 412.48 375.972 412.9 375.972 413.44C375.972 413.96 376.412 414.4 376.932 414.4C377.472 414.4 377.912 413.96 377.912 413.44ZM387.412 416.12H385.892V422.14C385.572 423.1 384.712 423.8 383.672 423.8C382.332 423.8 381.732 422.94 381.732 421.7V416.12H380.212V421.94C380.212 423.88 381.292 425.18 383.312 425.18C384.452 425.18 385.392 424.58 385.892 423.88V425H387.412V416.12ZM395.938 425H397.458V412H395.938V417.16C395.498 416.52 394.538 415.94 393.438 415.94C390.838 415.94 389.438 418.06 389.438 420.56C389.438 423.08 390.838 425.18 393.438 425.18C394.538 425.18 395.498 424.6 395.938 423.96V425ZM395.938 422.36C395.478 423.28 394.598 423.82 393.658 423.82C391.958 423.82 390.958 422.44 390.958 420.56C390.958 418.68 391.958 417.3 393.658 417.3C394.598 417.3 395.478 417.84 395.938 418.76V422.36ZM401.617 416.12H400.117V425H401.617V416.12ZM401.837 413.44C401.837 412.9 401.397 412.48 400.857 412.48C400.337 412.48 399.897 412.9 399.897 413.44C399.897 413.96 400.337 414.4 400.857 414.4C401.397 414.4 401.837 413.96 401.837 413.44ZM403.657 420.56C403.657 423.32 405.317 425.18 407.697 425.18C409.697 425.18 410.957 424.02 411.257 422.32H409.717C409.517 423.28 408.757 423.86 407.697 423.86C406.177 423.86 405.177 422.5 405.177 420.56C405.177 418.62 406.177 417.26 407.697 417.26C408.757 417.26 409.517 417.84 409.717 418.8H411.257C410.957 417.1 409.697 415.94 407.697 415.94C405.317 415.94 403.657 417.8 403.657 420.56ZM419.663 425V419.08C419.663 417.14 418.403 415.94 416.283 415.94C414.583 415.94 413.263 416.96 412.963 418.46H414.443C414.723 417.64 415.323 417.24 416.263 417.24C417.543 417.24 418.223 418.04 418.223 419.14V420.26C417.843 419.92 416.903 419.54 415.983 419.54C414.083 419.54 412.583 420.66 412.583 422.32C412.583 424.08 414.083 425.16 415.883 425.16C416.943 425.16 417.883 424.7 418.223 424.34V425H419.663ZM418.223 422.8C417.963 423.46 417.063 423.9 416.143 423.9C415.063 423.9 414.023 423.4 414.023 422.32C414.023 421.26 415.063 420.78 416.143 420.78C417.063 420.78 417.963 421.22 418.223 421.88V422.8ZM422.588 422.76C422.588 424.4 423.588 425.18 425.028 425.18C425.568 425.18 426.088 425.06 426.428 424.88V423.48C426.128 423.68 425.688 423.84 425.268 423.84C424.508 423.84 424.088 423.46 424.088 422.6V417.4H426.228V416.12H424.088V413.78H422.588V416.12H421.148V417.4H422.588V422.76ZM434.018 422.34C433.778 423.34 432.958 423.9 431.858 423.9C430.358 423.9 429.298 422.74 429.278 420.84H435.558V420.3C435.558 417.72 434.258 415.94 431.818 415.94C429.398 415.94 427.778 417.92 427.778 420.58C427.778 423.32 429.438 425.18 431.858 425.18C433.858 425.18 435.118 424.02 435.438 422.34H434.018ZM431.838 417.22C433.318 417.22 434.018 418.38 434.038 419.7H429.318C429.538 418.14 430.498 417.22 431.838 417.22ZM448.393 418.64C449.353 418.34 450.193 417.44 450.193 415.98C450.193 413.86 448.673 412.72 446.133 412.72H442.093V425H446.533C449.053 425 450.613 423.78 450.613 421.54C450.613 420.16 449.713 418.98 448.393 418.64ZM443.633 418.06V414.1H446.133C447.773 414.1 448.673 414.72 448.673 416.06C448.673 417.4 447.773 418.06 446.133 418.06H443.633ZM443.633 419.38H446.533C448.193 419.38 449.073 420.2 449.073 421.5C449.073 422.78 448.193 423.62 446.533 423.62H443.633V419.38ZM460.313 420.56C460.313 417.84 458.653 415.94 456.233 415.94C453.793 415.94 452.153 417.84 452.153 420.56C452.153 423.28 453.793 425.18 456.233 425.18C458.653 425.18 460.313 423.28 460.313 420.56ZM458.793 420.56C458.793 422.5 457.833 423.86 456.233 423.86C454.633 423.86 453.673 422.5 453.673 420.56C453.673 418.62 454.633 417.26 456.233 417.26C457.833 417.26 458.793 418.62 458.793 420.56ZM463.844 423.96C464.284 424.6 465.244 425.18 466.344 425.18C468.944 425.18 470.344 423.08 470.344 420.56C470.344 418.06 468.944 415.94 466.344 415.94C465.244 415.94 464.284 416.52 463.844 417.16V412H462.324V425H463.844V423.96ZM463.844 418.76C464.304 417.84 465.184 417.3 466.124 417.3C467.824 417.3 468.824 418.68 468.824 420.56C468.824 422.44 467.824 423.82 466.124 423.82C465.184 423.82 464.304 423.28 463.844 422.36V418.76ZM483.237 425V419.08C483.237 417.14 481.977 415.94 479.857 415.94C478.157 415.94 476.837 416.96 476.537 418.46H478.017C478.297 417.64 478.897 417.24 479.837 417.24C481.117 417.24 481.797 418.04 481.797 419.14V420.26C481.417 419.92 480.477 419.54 479.557 419.54C477.657 419.54 476.157 420.66 476.157 422.32C476.157 424.08 477.657 425.16 479.457 425.16C480.517 425.16 481.457 424.7 481.797 424.34V425H483.237ZM481.797 422.8C481.537 423.46 480.637 423.9 479.717 423.9C478.637 423.9 477.597 423.4 477.597 422.32C477.597 421.26 478.637 420.78 479.717 420.78C480.637 420.78 481.537 421.22 481.797 421.88V422.8ZM485.801 425H487.301V418.98C487.621 418.02 488.521 417.32 489.561 417.32C490.901 417.32 491.521 418.18 491.521 419.42V425H493.041V419.18C493.041 417.24 491.941 415.94 489.921 415.94C488.781 415.94 487.821 416.54 487.301 417.24V416.12H485.801V425ZM501.446 425H502.966V412H501.446V417.16C501.006 416.52 500.046 415.94 498.946 415.94C496.346 415.94 494.946 418.06 494.946 420.56C494.946 423.08 496.346 425.18 498.946 425.18C500.046 425.18 501.006 424.6 501.446 423.96V425ZM501.446 422.36C500.986 423.28 500.106 423.82 499.166 423.82C497.466 423.82 496.466 422.44 496.466 420.56C496.466 418.68 497.466 417.3 499.166 417.3C500.106 417.3 500.986 417.84 501.446 418.76V422.36ZM513.919 412.72L509.119 425H510.719L512.119 421.3H517.179L518.599 425H520.199L515.399 412.72H513.919ZM514.639 414.68L516.639 419.92H512.639L514.639 414.68ZM523.453 412H521.953V425H523.453V412ZM527.633 416.12H526.133V425H527.633V416.12ZM527.853 413.44C527.853 412.9 527.413 412.48 526.873 412.48C526.353 412.48 525.913 412.9 525.913 413.44C525.913 413.96 526.353 414.4 526.873 414.4C527.413 414.4 527.853 413.96 527.853 413.44ZM529.673 420.56C529.673 423.32 531.333 425.18 533.713 425.18C535.713 425.18 536.973 424.02 537.273 422.32H535.733C535.533 423.28 534.773 423.86 533.713 423.86C532.193 423.86 531.193 422.5 531.193 420.56C531.193 418.62 532.193 417.26 533.713 417.26C534.773 417.26 535.533 417.84 535.733 418.8H537.273C536.973 417.1 535.713 415.94 533.713 415.94C531.333 415.94 529.673 417.8 529.673 420.56ZM544.799 422.34C544.559 423.34 543.739 423.9 542.639 423.9C541.139 423.9 540.079 422.74 540.059 420.84H546.339V420.3C546.339 417.72 545.039 415.94 542.599 415.94C540.179 415.94 538.559 417.92 538.559 420.58C538.559 423.32 540.219 425.18 542.639 425.18C544.639 425.18 545.899 424.02 546.219 422.34H544.799ZM542.619 417.22C544.099 417.22 544.799 418.38 544.819 419.7H540.099C540.319 418.14 541.279 417.22 542.619 417.22ZM547.282 416.66H548.302L549.322 414.96C549.562 414.56 549.762 414.12 549.762 413.7C549.762 412.96 549.302 412.54 548.702 412.54C548.102 412.54 547.622 412.98 547.622 413.6C547.622 414.16 548.002 414.52 548.502 414.6L547.282 416.66ZM550.1 422.56C550.38 424.2 551.8 425.18 553.74 425.18C555.64 425.18 557.04 424.18 557.04 422.5C557.04 421.26 556.3 420.42 554.78 420.02L553.06 419.6C552.22 419.36 551.82 419.08 551.82 418.48C551.82 417.62 552.64 417.2 553.52 417.2C554.6 417.2 555.22 417.66 555.48 418.46H556.98C556.66 416.9 555.5 415.94 553.54 415.94C551.74 415.94 550.36 416.98 550.36 418.56C550.36 419.94 551.24 420.58 552.5 420.9L554.26 421.36C555.18 421.6 555.58 421.98 555.58 422.6C555.58 423.5 554.82 423.92 553.76 423.92C552.72 423.92 551.94 423.48 551.66 422.56H550.1ZM569.395 425H570.915V412H569.395V417.16C568.955 416.52 567.995 415.94 566.895 415.94C564.295 415.94 562.895 418.06 562.895 420.56C562.895 423.08 564.295 425.18 566.895 425.18C567.995 425.18 568.955 424.6 569.395 423.96V425ZM569.395 422.36C568.935 423.28 568.055 423.82 567.115 423.82C565.415 423.82 564.415 422.44 564.415 420.56C564.415 418.68 565.415 417.3 567.115 417.3C568.055 417.3 568.935 417.84 569.395 418.76V422.36ZM575.074 416.12H573.574V425H575.074V416.12ZM575.294 413.44C575.294 412.9 574.854 412.48 574.314 412.48C573.794 412.48 573.354 412.9 573.354 413.44C573.354 413.96 573.794 414.4 574.314 414.4C574.854 414.4 575.294 413.96 575.294 413.44ZM577.014 422.56C577.294 424.2 578.714 425.18 580.654 425.18C582.554 425.18 583.954 424.18 583.954 422.5C583.954 421.26 583.214 420.42 581.694 420.02L579.974 419.6C579.134 419.36 578.734 419.08 578.734 418.48C578.734 417.62 579.554 417.2 580.434 417.2C581.514 417.2 582.134 417.66 582.394 418.46H583.894C583.574 416.9 582.414 415.94 580.454 415.94C578.654 415.94 577.274 416.98 577.274 418.56C577.274 419.94 578.154 420.58 579.414 420.9L581.174 421.36C582.094 421.6 582.494 421.98 582.494 422.6C582.494 423.5 581.734 423.92 580.674 423.92C579.634 423.92 578.854 423.48 578.574 422.56H577.014ZM587.535 423.96C587.995 424.6 588.935 425.18 590.035 425.18C592.655 425.18 594.035 423.02 594.035 420.56C594.035 418.1 592.655 415.94 590.035 415.94C588.935 415.94 587.995 416.52 587.535 417.16V416.12H586.035V428.4H587.535V423.96ZM587.535 418.76C587.995 417.84 588.875 417.3 589.815 417.3C591.515 417.3 592.515 418.68 592.515 420.56C592.515 422.44 591.515 423.82 589.815 423.82C588.875 423.82 587.995 423.28 587.535 422.36V418.76ZM603.154 416.12H601.634V422.14C601.314 423.1 600.454 423.8 599.414 423.8C598.074 423.8 597.474 422.94 597.474 421.7V416.12H595.954V421.94C595.954 423.88 597.034 425.18 599.054 425.18C600.194 425.18 601.134 424.58 601.634 423.88V425H603.154V416.12ZM606.24 422.76C606.24 424.4 607.24 425.18 608.68 425.18C609.22 425.18 609.74 425.06 610.08 424.88V423.48C609.78 423.68 609.34 423.84 608.92 423.84C608.16 423.84 607.74 423.46 607.74 422.6V417.4H609.88V416.12H607.74V413.78H606.24V416.12H604.8V417.4H606.24V422.76ZM617.67 422.34C617.43 423.34 616.61 423.9 615.51 423.9C614.01 423.9 612.95 422.74 612.93 420.84H619.21V420.3C619.21 417.72 617.91 415.94 615.47 415.94C613.05 415.94 611.43 417.92 611.43 420.58C611.43 423.32 613.09 425.18 615.51 425.18C617.51 425.18 618.77 424.02 619.09 422.34H617.67ZM615.49 417.22C616.97 417.22 617.67 418.38 617.69 419.7H612.97C613.19 418.14 614.15 417.22 615.49 417.22ZM620.131 427.14H621.151L622.211 425.38C622.451 425 622.651 424.54 622.651 424.12C622.651 423.38 622.191 422.96 621.591 422.96C620.991 422.96 620.511 423.4 620.511 424.02C620.511 424.6 620.891 424.94 621.391 425.02L620.131 427.14ZM58.98 443.12H57.64L55.82 449.9L53.86 443.12H52.36L54.98 452H56.44L58.3 445.26L60.14 452H61.6L64.22 443.12H62.76L60.8 449.9L58.98 443.12ZM65.9181 452H67.4181V445.98C67.7381 445.02 68.6381 444.32 69.6781 444.32C71.0181 444.32 71.6381 445.18 71.6381 446.42V452H73.1581V446.18C73.1581 444.24 72.0581 442.94 70.0381 442.94C68.8981 442.94 67.9381 443.54 67.4181 444.24V439H65.9181V452ZM81.3033 449.34C81.0633 450.34 80.2433 450.9 79.1433 450.9C77.6433 450.9 76.5833 449.74 76.5633 447.84H82.8433V447.3C82.8433 444.72 81.5433 442.94 79.1033 442.94C76.6833 442.94 75.0633 444.92 75.0633 447.58C75.0633 450.32 76.7233 452.18 79.1433 452.18C81.1433 452.18 82.4033 451.02 82.7233 449.34H81.3033ZM79.1233 444.22C80.6033 444.22 81.3033 445.38 81.3233 446.7H76.6033C76.8233 445.14 77.7833 444.22 79.1233 444.22ZM89.4039 443.08C89.2439 443 88.9239 442.94 88.5439 442.94C87.5639 442.94 86.7239 443.52 86.3439 444.28V443.12H84.8439V452H86.3439V446.04C86.6439 445 87.4639 444.38 88.4039 444.38C88.7839 444.38 89.1639 444.46 89.4039 444.62V443.08ZM96.6158 449.34C96.3758 450.34 95.5558 450.9 94.4558 450.9C92.9558 450.9 91.8958 449.74 91.8758 447.84H98.1558V447.3C98.1558 444.72 96.8558 442.94 94.4158 442.94C91.9958 442.94 90.3758 444.92 90.3758 447.58C90.3758 450.32 92.0358 452.18 94.4558 452.18C96.4558 452.18 97.7158 451.02 98.0358 449.34H96.6158ZM94.4358 444.22C95.9158 444.22 96.6158 445.38 96.6358 446.7H91.9158C92.1358 445.14 93.0958 444.22 94.4358 444.22ZM104.99 449.76C104.99 451.4 105.99 452.18 107.43 452.18C107.97 452.18 108.49 452.06 108.83 451.88V450.48C108.53 450.68 108.09 450.84 107.67 450.84C106.91 450.84 106.49 450.46 106.49 449.6V444.4H108.63V443.12H106.49V440.78H104.99V443.12H103.55V444.4H104.99V449.76ZM110.918 452H112.418V445.98C112.738 445.02 113.638 444.32 114.678 444.32C116.018 444.32 116.638 445.18 116.638 446.42V452H118.158V446.18C118.158 444.24 117.058 442.94 115.038 442.94C113.898 442.94 112.938 443.54 112.418 444.24V439H110.918V452ZM126.303 449.34C126.063 450.34 125.243 450.9 124.143 450.9C122.643 450.9 121.583 449.74 121.563 447.84H127.843V447.3C127.843 444.72 126.543 442.94 124.103 442.94C121.683 442.94 120.063 444.92 120.063 447.58C120.063 450.32 121.723 452.18 124.143 452.18C126.143 452.18 127.403 451.02 127.723 449.34H126.303ZM124.123 444.22C125.603 444.22 126.303 445.38 126.323 446.7H121.603C121.823 445.14 122.783 444.22 124.123 444.22ZM133.618 447.56C133.618 450.32 135.278 452.18 137.658 452.18C139.658 452.18 140.918 451.02 141.218 449.32H139.678C139.478 450.28 138.718 450.86 137.658 450.86C136.138 450.86 135.138 449.5 135.138 447.56C135.138 445.62 136.138 444.26 137.658 444.26C138.718 444.26 139.478 444.84 139.678 445.8H141.218C140.918 444.1 139.658 442.94 137.658 442.94C135.278 442.94 133.618 444.8 133.618 447.56ZM143.184 452H144.684V445.98C145.004 445.02 145.904 444.32 146.944 444.32C148.284 444.32 148.904 445.18 148.904 446.42V452H150.424V446.18C150.424 444.24 149.324 442.94 147.304 442.94C146.164 442.94 145.204 443.54 144.684 444.24V439H143.184V452ZM159.409 452V446.08C159.409 444.14 158.149 442.94 156.029 442.94C154.329 442.94 153.009 443.96 152.709 445.46H154.189C154.469 444.64 155.069 444.24 156.009 444.24C157.289 444.24 157.969 445.04 157.969 446.14V447.26C157.589 446.92 156.649 446.54 155.729 446.54C153.829 446.54 152.329 447.66 152.329 449.32C152.329 451.08 153.829 452.16 155.629 452.16C156.689 452.16 157.629 451.7 157.969 451.34V452H159.409ZM157.969 449.8C157.709 450.46 156.809 450.9 155.889 450.9C154.809 450.9 153.769 450.4 153.769 449.32C153.769 448.26 154.809 447.78 155.889 447.78C156.809 447.78 157.709 448.22 157.969 448.88V449.8ZM161.973 452H163.473V445.98C163.793 445.02 164.693 444.32 165.733 444.32C167.073 444.32 167.693 445.18 167.693 446.42V452H169.213V446.18C169.213 444.24 168.113 442.94 166.093 442.94C164.953 442.94 163.993 443.54 163.473 444.24V443.12H161.973V452ZM171.118 447.56C171.118 450.32 172.778 452.18 175.158 452.18C177.158 452.18 178.418 451.02 178.718 449.32H177.178C176.978 450.28 176.218 450.86 175.158 450.86C173.638 450.86 172.638 449.5 172.638 447.56C172.638 445.62 173.638 444.26 175.158 444.26C176.218 444.26 176.978 444.84 177.178 445.8H178.718C178.418 444.1 177.158 442.94 175.158 442.94C172.778 442.94 171.118 444.8 171.118 447.56ZM186.245 449.34C186.005 450.34 185.185 450.9 184.085 450.9C182.585 450.9 181.525 449.74 181.505 447.84H187.785V447.3C187.785 444.72 186.485 442.94 184.045 442.94C181.625 442.94 180.005 444.92 180.005 447.58C180.005 450.32 181.665 452.18 184.085 452.18C186.085 452.18 187.345 451.02 187.665 449.34H186.245ZM184.065 444.22C185.545 444.22 186.245 445.38 186.265 446.7H181.545C181.765 445.14 182.725 444.22 184.065 444.22ZM201.719 447.56C201.719 444.84 200.059 442.94 197.639 442.94C195.199 442.94 193.559 444.84 193.559 447.56C193.559 450.28 195.199 452.18 197.639 452.18C200.059 452.18 201.719 450.28 201.719 447.56ZM200.199 447.56C200.199 449.5 199.239 450.86 197.639 450.86C196.039 450.86 195.079 449.5 195.079 447.56C195.079 445.62 196.039 444.26 197.639 444.26C199.239 444.26 200.199 445.62 200.199 447.56ZM208.19 439.02C207.85 438.88 207.51 438.82 207.03 438.82C205.47 438.82 204.31 439.86 204.31 441.64V443.12H202.81V444.4H204.31V452H205.79V444.4H207.79V443.12H205.79V441.76C205.79 440.7 206.37 440.14 207.25 440.14C207.57 440.14 207.91 440.2 208.19 440.38V439.02ZM215.445 450.96C215.885 451.6 216.845 452.18 217.945 452.18C220.545 452.18 221.945 450.08 221.945 447.56C221.945 445.06 220.545 442.94 217.945 442.94C216.845 442.94 215.885 443.52 215.445 444.16V439H213.925V452H215.445V450.96ZM215.445 445.76C215.905 444.84 216.785 444.3 217.725 444.3C219.425 444.3 220.425 445.68 220.425 447.56C220.425 449.44 219.425 450.82 217.725 450.82C216.785 450.82 215.905 450.28 215.445 449.36V445.76ZM229.624 449.34C229.384 450.34 228.564 450.9 227.464 450.9C225.964 450.9 224.904 449.74 224.884 447.84H231.164V447.3C231.164 444.72 229.864 442.94 227.424 442.94C225.004 442.94 223.384 444.92 223.384 447.58C223.384 450.32 225.044 452.18 227.464 452.18C229.464 452.18 230.724 451.02 231.044 449.34H229.624ZM227.444 444.22C228.924 444.22 229.624 445.38 229.644 446.7H224.924C225.144 445.14 226.104 444.22 227.444 444.22ZM234.664 443.12H233.164V452H234.664V443.12ZM234.884 440.44C234.884 439.9 234.444 439.48 233.904 439.48C233.384 439.48 232.944 439.9 232.944 440.44C232.944 440.96 233.384 441.4 233.904 441.4C234.444 441.4 234.884 440.96 234.884 440.44ZM237.344 452H238.844V445.98C239.164 445.02 240.064 444.32 241.104 444.32C242.444 444.32 243.064 445.18 243.064 446.42V452H244.584V446.18C244.584 444.24 243.484 442.94 241.464 442.94C240.324 442.94 239.364 443.54 238.844 444.24V443.12H237.344V452ZM252.949 451.4C252.949 453.32 252.109 454.32 250.509 454.32C249.289 454.32 248.449 453.78 248.189 452.66H246.709C246.989 454.48 248.349 455.6 250.509 455.6C252.789 455.6 254.469 454.22 254.469 451.3V443.12H252.949V444.12C252.509 443.5 251.569 442.94 250.469 442.94C247.869 442.94 246.489 445.08 246.489 447.44C246.489 449.78 247.869 451.94 250.469 451.94C251.569 451.94 252.509 451.36 252.949 450.74V451.4ZM252.949 449.2C252.489 450.04 251.649 450.58 250.689 450.58C249.009 450.58 248.029 449.26 248.029 447.44C248.029 445.6 249.009 444.28 250.689 444.28C251.649 444.28 252.489 444.82 252.949 445.66V449.2ZM267.423 452H268.943V439H267.423V444.16C266.983 443.52 266.023 442.94 264.923 442.94C262.323 442.94 260.923 445.06 260.923 447.56C260.923 450.08 262.323 452.18 264.923 452.18C266.023 452.18 266.983 451.6 267.423 450.96V452ZM267.423 449.36C266.963 450.28 266.083 450.82 265.143 450.82C263.443 450.82 262.443 449.44 262.443 447.56C262.443 445.68 263.443 444.3 265.143 444.3C266.083 444.3 266.963 444.84 267.423 445.76V449.36ZM276.162 443.08C276.002 443 275.682 442.94 275.302 442.94C274.322 442.94 273.482 443.52 273.102 444.28V443.12H271.602V452H273.102V446.04C273.402 445 274.222 444.38 275.162 444.38C275.542 444.38 275.922 444.46 276.162 444.62V443.08ZM284.233 452V446.08C284.233 444.14 282.973 442.94 280.853 442.94C279.153 442.94 277.833 443.96 277.533 445.46H279.013C279.293 444.64 279.893 444.24 280.833 444.24C282.113 444.24 282.793 445.04 282.793 446.14V447.26C282.413 446.92 281.473 446.54 280.553 446.54C278.653 446.54 277.153 447.66 277.153 449.32C277.153 451.08 278.653 452.16 280.453 452.16C281.513 452.16 282.453 451.7 282.793 451.34V452H284.233ZM282.793 449.8C282.533 450.46 281.633 450.9 280.713 450.9C279.633 450.9 278.593 450.4 278.593 449.32C278.593 448.26 279.633 447.78 280.713 447.78C281.633 447.78 282.533 448.22 282.793 448.88V449.8ZM291.237 439.02C290.897 438.88 290.557 438.82 290.077 438.82C288.517 438.82 287.357 439.86 287.357 441.64V443.12H285.857V444.4H287.357V452H288.837V444.4H290.837V443.12H288.837V441.76C288.837 440.7 289.417 440.14 290.297 440.14C290.617 440.14 290.957 440.2 291.237 440.38V439.02ZM293.057 449.76C293.057 451.4 294.057 452.18 295.497 452.18C296.037 452.18 296.557 452.06 296.897 451.88V450.48C296.597 450.68 296.157 450.84 295.737 450.84C294.977 450.84 294.557 450.46 294.557 449.6V444.4H296.697V443.12H294.557V440.78H293.057V443.12H291.617V444.4H293.057V449.76ZM304.487 449.34C304.247 450.34 303.427 450.9 302.327 450.9C300.827 450.9 299.767 449.74 299.747 447.84H306.027V447.3C306.027 444.72 304.727 442.94 302.287 442.94C299.867 442.94 298.247 444.92 298.247 447.58C298.247 450.32 299.907 452.18 302.327 452.18C304.327 452.18 305.587 451.02 305.907 449.34H304.487ZM302.307 444.22C303.787 444.22 304.487 445.38 304.507 446.7H299.787C300.007 445.14 300.967 444.22 302.307 444.22ZM313.927 452H315.447V439H313.927V444.16C313.487 443.52 312.527 442.94 311.427 442.94C308.827 442.94 307.427 445.06 307.427 447.56C307.427 450.08 308.827 452.18 311.427 452.18C312.527 452.18 313.487 451.6 313.927 450.96V452ZM313.927 449.36C313.467 450.28 312.587 450.82 311.647 450.82C309.947 450.82 308.947 449.44 308.947 447.56C308.947 445.68 309.947 444.3 311.647 444.3C312.587 444.3 313.467 444.84 313.927 445.76V449.36ZM324.02 443.12H322.52V452H324.02V443.12ZM324.24 440.44C324.24 439.9 323.8 439.48 323.26 439.48C322.74 439.48 322.3 439.9 322.3 440.44C322.3 440.96 322.74 441.4 323.26 441.4C323.8 441.4 324.24 440.96 324.24 440.44ZM325.959 449.56C326.239 451.2 327.659 452.18 329.599 452.18C331.499 452.18 332.899 451.18 332.899 449.5C332.899 448.26 332.159 447.42 330.639 447.02L328.919 446.6C328.079 446.36 327.679 446.08 327.679 445.48C327.679 444.62 328.499 444.2 329.379 444.2C330.459 444.2 331.079 444.66 331.339 445.46H332.839C332.519 443.9 331.359 442.94 329.399 442.94C327.599 442.94 326.219 443.98 326.219 445.56C326.219 446.94 327.099 447.58 328.359 447.9L330.119 448.36C331.039 448.6 331.439 448.98 331.439 449.6C331.439 450.5 330.679 450.92 329.619 450.92C328.579 450.92 327.799 450.48 327.519 449.56H325.959ZM340.895 450.96C341.355 451.6 342.295 452.18 343.395 452.18C346.015 452.18 347.395 450.02 347.395 447.56C347.395 445.1 346.015 442.94 343.395 442.94C342.295 442.94 341.355 443.52 340.895 444.16V443.12H339.395V455.4H340.895V450.96ZM340.895 445.76C341.355 444.84 342.235 444.3 343.175 444.3C344.875 444.3 345.875 445.68 345.875 447.56C345.875 449.44 344.875 450.82 343.175 450.82C342.235 450.82 341.355 450.28 340.895 449.36V445.76ZM353.994 443.08C353.834 443 353.514 442.94 353.134 442.94C352.154 442.94 351.314 443.52 350.934 444.28V443.12H349.434V452H350.934V446.04C351.234 445 352.054 444.38 352.994 444.38C353.374 444.38 353.754 444.46 353.994 444.62V443.08ZM363.126 447.56C363.126 444.84 361.466 442.94 359.046 442.94C356.606 442.94 354.966 444.84 354.966 447.56C354.966 450.28 356.606 452.18 359.046 452.18C361.466 452.18 363.126 450.28 363.126 447.56ZM361.606 447.56C361.606 449.5 360.646 450.86 359.046 450.86C357.446 450.86 356.486 449.5 356.486 447.56C356.486 445.62 357.446 444.26 359.046 444.26C360.646 444.26 361.606 445.62 361.606 447.56ZM366.656 450.96C367.116 451.6 368.056 452.18 369.156 452.18C371.776 452.18 373.156 450.02 373.156 447.56C373.156 445.1 371.776 442.94 369.156 442.94C368.056 442.94 367.116 443.52 366.656 444.16V443.12H365.156V455.4H366.656V450.96ZM366.656 445.76C367.116 444.84 367.996 444.3 368.936 444.3C370.636 444.3 371.636 445.68 371.636 447.56C371.636 449.44 370.636 450.82 368.936 450.82C367.996 450.82 367.116 450.28 366.656 449.36V445.76ZM382.755 447.56C382.755 444.84 381.095 442.94 378.675 442.94C376.235 442.94 374.595 444.84 374.595 447.56C374.595 450.28 376.235 452.18 378.675 452.18C381.095 452.18 382.755 450.28 382.755 447.56ZM381.235 447.56C381.235 449.5 380.275 450.86 378.675 450.86C377.075 450.86 376.115 449.5 376.115 447.56C376.115 445.62 377.075 444.26 378.675 444.26C380.275 444.26 381.235 445.62 381.235 447.56ZM389.345 443.08C389.185 443 388.865 442.94 388.485 442.94C387.505 442.94 386.665 443.52 386.285 444.28V443.12H384.785V452H386.285V446.04C386.585 445 387.405 444.38 388.345 444.38C388.725 444.38 389.105 444.46 389.345 444.62V443.08ZM391.631 449.76C391.631 451.4 392.631 452.18 394.071 452.18C394.611 452.18 395.131 452.06 395.471 451.88V450.48C395.171 450.68 394.731 450.84 394.311 450.84C393.551 450.84 393.131 450.46 393.131 449.6V444.4H395.271V443.12H393.131V440.78H391.631V443.12H390.191V444.4H391.631V449.76ZM399.059 443.12H397.559V452H399.059V443.12ZM399.279 440.44C399.279 439.9 398.839 439.48 398.299 439.48C397.779 439.48 397.339 439.9 397.339 440.44C397.339 440.96 397.779 441.4 398.299 441.4C398.839 441.4 399.279 440.96 399.279 440.44ZM409.258 447.56C409.258 444.84 407.598 442.94 405.178 442.94C402.738 442.94 401.098 444.84 401.098 447.56C401.098 450.28 402.738 452.18 405.178 452.18C407.598 452.18 409.258 450.28 409.258 447.56ZM407.738 447.56C407.738 449.5 406.778 450.86 405.178 450.86C403.578 450.86 402.618 449.5 402.618 447.56C402.618 445.62 403.578 444.26 405.178 444.26C406.778 444.26 407.738 445.62 407.738 447.56ZM411.289 452H412.789V445.98C413.109 445.02 414.009 444.32 415.049 444.32C416.389 444.32 417.009 445.18 417.009 446.42V452H418.529V446.18C418.529 444.24 417.429 442.94 415.409 442.94C414.269 442.94 413.309 443.54 412.789 444.24V443.12H411.289V452ZM427.514 452V446.08C427.514 444.14 426.254 442.94 424.134 442.94C422.434 442.94 421.114 443.96 420.814 445.46H422.294C422.574 444.64 423.174 444.24 424.114 444.24C425.394 444.24 426.074 445.04 426.074 446.14V447.26C425.694 446.92 424.754 446.54 423.834 446.54C421.934 446.54 420.434 447.66 420.434 449.32C420.434 451.08 421.934 452.16 423.734 452.16C424.794 452.16 425.734 451.7 426.074 451.34V452H427.514ZM426.074 449.8C425.814 450.46 424.914 450.9 423.994 450.9C422.914 450.9 421.874 450.4 421.874 449.32C421.874 448.26 422.914 447.78 423.994 447.78C424.914 447.78 425.814 448.22 426.074 448.88V449.8ZM431.578 439H430.078V452H431.578V439ZM439.092 449.76C439.092 451.4 440.092 452.18 441.532 452.18C442.072 452.18 442.592 452.06 442.932 451.88V450.48C442.632 450.68 442.192 450.84 441.772 450.84C441.012 450.84 440.592 450.46 440.592 449.6V444.4H442.732V443.12H440.592V440.78H439.092V443.12H437.652V444.4H439.092V449.76ZM452.442 447.56C452.442 444.84 450.782 442.94 448.362 442.94C445.922 442.94 444.282 444.84 444.282 447.56C444.282 450.28 445.922 452.18 448.362 452.18C450.782 452.18 452.442 450.28 452.442 447.56ZM450.922 447.56C450.922 449.5 449.962 450.86 448.362 450.86C446.762 450.86 445.802 449.5 445.802 447.56C445.802 445.62 446.762 444.26 448.362 444.26C449.962 444.26 450.922 445.62 450.922 447.56ZM459.307 449.76C459.307 451.4 460.307 452.18 461.747 452.18C462.287 452.18 462.807 452.06 463.147 451.88V450.48C462.847 450.68 462.407 450.84 461.987 450.84C461.227 450.84 460.807 450.46 460.807 449.6V444.4H462.947V443.12H460.807V440.78H459.307V443.12H457.867V444.4H459.307V449.76ZM465.235 452H466.735V445.98C467.055 445.02 467.955 444.32 468.995 444.32C470.335 444.32 470.955 445.18 470.955 446.42V452H472.475V446.18C472.475 444.24 471.375 442.94 469.355 442.94C468.215 442.94 467.255 443.54 466.735 444.24V439H465.235V452ZM480.62 449.34C480.38 450.34 479.56 450.9 478.46 450.9C476.96 450.9 475.9 449.74 475.88 447.84H482.16V447.3C482.16 444.72 480.86 442.94 478.42 442.94C476 442.94 474.38 444.92 474.38 447.58C474.38 450.32 476.04 452.18 478.46 452.18C480.46 452.18 481.72 451.02 482.04 449.34H480.62ZM478.44 444.22C479.92 444.22 480.62 445.38 480.64 446.7H475.92C476.14 445.14 477.1 444.22 478.44 444.22ZM495.014 452V446.08C495.014 444.14 493.754 442.94 491.634 442.94C489.934 442.94 488.614 443.96 488.314 445.46H489.794C490.074 444.64 490.674 444.24 491.614 444.24C492.894 444.24 493.574 445.04 493.574 446.14V447.26C493.194 446.92 492.254 446.54 491.334 446.54C489.434 446.54 487.934 447.66 487.934 449.32C487.934 451.08 489.434 452.16 491.234 452.16C492.294 452.16 493.234 451.7 493.574 451.34V452H495.014ZM493.574 449.8C493.314 450.46 492.414 450.9 491.494 450.9C490.414 450.9 489.374 450.4 489.374 449.32C489.374 448.26 490.414 447.78 491.494 447.78C492.414 447.78 493.314 448.22 493.574 448.88V449.8ZM503.878 444.36C503.458 443.52 502.598 442.94 501.478 442.94C500.378 442.94 499.518 443.46 499.078 444.16V443.12H497.578V452H499.078V445.88C499.358 444.92 500.138 444.3 501.038 444.3C502.178 444.3 502.718 445.12 502.718 446.36V452H504.218V445.88C504.498 444.92 505.278 444.3 506.178 444.3C507.318 444.3 507.858 445.12 507.858 446.36V452H509.378V446.12C509.378 444.2 508.378 442.94 506.578 442.94C505.338 442.94 504.438 443.56 503.878 444.36ZM519.434 447.56C519.434 444.84 517.774 442.94 515.354 442.94C512.914 442.94 511.274 444.84 511.274 447.56C511.274 450.28 512.914 452.18 515.354 452.18C517.774 452.18 519.434 450.28 519.434 447.56ZM517.914 447.56C517.914 449.5 516.954 450.86 515.354 450.86C513.754 450.86 512.794 449.5 512.794 447.56C512.794 445.62 513.754 444.26 515.354 444.26C516.954 444.26 517.914 445.62 517.914 447.56ZM528.545 443.12H527.025V449.14C526.705 450.1 525.845 450.8 524.805 450.8C523.465 450.8 522.865 449.94 522.865 448.7V443.12H521.345V448.94C521.345 450.88 522.425 452.18 524.445 452.18C525.585 452.18 526.525 451.58 527.025 450.88V452H528.545V443.12ZM531.211 452H532.711V445.98C533.031 445.02 533.931 444.32 534.971 444.32C536.311 444.32 536.931 445.18 536.931 446.42V452H538.451V446.18C538.451 444.24 537.351 442.94 535.331 442.94C534.191 442.94 533.231 443.54 532.711 444.24V443.12H531.211V452ZM541.416 449.76C541.416 451.4 542.416 452.18 543.856 452.18C544.396 452.18 544.916 452.06 545.256 451.88V450.48C544.956 450.68 544.516 450.84 544.096 450.84C543.336 450.84 542.916 450.46 542.916 449.6V444.4H545.056V443.12H542.916V440.78H541.416V443.12H539.976V444.4H541.416V449.76ZM559.278 447.56C559.278 444.84 557.618 442.94 555.198 442.94C552.758 442.94 551.118 444.84 551.118 447.56C551.118 450.28 552.758 452.18 555.198 452.18C557.618 452.18 559.278 450.28 559.278 447.56ZM557.758 447.56C557.758 449.5 556.798 450.86 555.198 450.86C553.598 450.86 552.638 449.5 552.638 447.56C552.638 445.62 553.598 444.26 555.198 444.26C556.798 444.26 557.758 445.62 557.758 447.56ZM565.749 439.02C565.409 438.88 565.069 438.82 564.589 438.82C563.029 438.82 561.869 439.86 561.869 441.64V443.12H560.369V444.4H561.869V452H563.349V444.4H565.349V443.12H563.349V441.76C563.349 440.7 563.929 440.14 564.809 440.14C565.129 440.14 565.469 440.2 565.749 440.38V439.02ZM575.384 439.72L570.584 452H572.184L573.584 448.3H578.644L580.064 452H581.664L576.864 439.72H575.384ZM576.104 441.68L578.104 446.92H574.104L576.104 441.68ZM593.078 439.72H591.578V449.06L585.038 439.72H583.538V452H585.058V442.24L591.918 452H593.078V439.72ZM594.879 448.52C595.039 450.68 596.479 452.18 598.899 452.18C601.239 452.18 602.899 450.78 602.899 447.92V439.72H601.319V447.92C601.319 449.9 600.379 450.74 598.879 450.74C597.499 450.74 596.659 449.9 596.499 448.52H594.879ZM612.483 455.4L617.263 443.12H615.703L613.123 450.12L610.503 443.12H608.883L612.343 452.06L611.003 455.4H612.483ZM626.329 447.56C626.329 444.84 624.669 442.94 622.249 442.94C619.809 442.94 618.169 444.84 618.169 447.56C618.169 450.28 619.809 452.18 622.249 452.18C624.669 452.18 626.329 450.28 626.329 447.56ZM624.809 447.56C624.809 449.5 623.849 450.86 622.249 450.86C620.649 450.86 619.689 449.5 619.689 447.56C619.689 445.62 620.649 444.26 622.249 444.26C623.849 444.26 624.809 445.62 624.809 447.56ZM635.44 443.12H633.92V449.14C633.6 450.1 632.74 450.8 631.7 450.8C630.36 450.8 629.76 449.94 629.76 448.7V443.12H628.24V448.94C628.24 450.88 629.32 452.18 631.34 452.18C632.48 452.18 633.42 451.58 633.92 450.88V452H635.44V443.12ZM53.34 479H54.84V472.98C55.16 472.02 56.06 471.32 57.1 471.32C58.44 471.32 59.06 472.18 59.06 473.42V479H60.58V473.18C60.58 471.24 59.48 469.94 57.46 469.94C56.32 469.94 55.36 470.54 54.84 471.24V466H53.34V479ZM69.5652 479V473.08C69.5652 471.14 68.3052 469.94 66.1852 469.94C64.4852 469.94 63.1652 470.96 62.8652 472.46H64.3452C64.6252 471.64 65.2252 471.24 66.1652 471.24C67.4452 471.24 68.1252 472.04 68.1252 473.14V474.26C67.7452 473.92 66.8052 473.54 65.8852 473.54C63.9852 473.54 62.4852 474.66 62.4852 476.32C62.4852 478.08 63.9852 479.16 65.7852 479.16C66.8452 479.16 67.7852 478.7 68.1252 478.34V479H69.5652ZM68.1252 476.8C67.8652 477.46 66.9652 477.9 66.0452 477.9C64.9652 477.9 63.9252 477.4 63.9252 476.32C63.9252 475.26 64.9652 474.78 66.0452 474.78C66.9652 474.78 67.8652 475.22 68.1252 475.88V476.8ZM75.9128 479L79.3728 470.12H77.7928L75.2128 477.1L72.6128 470.12H70.9928L74.4328 479H75.9128ZM86.5181 476.34C86.2781 477.34 85.4581 477.9 84.3581 477.9C82.8581 477.9 81.7981 476.74 81.7781 474.84H88.0581V474.3C88.0581 471.72 86.7581 469.94 84.3181 469.94C81.8981 469.94 80.2781 471.92 80.2781 474.58C80.2781 477.32 81.9381 479.18 84.3581 479.18C86.3581 479.18 87.6181 478.02 87.9381 476.34H86.5181ZM84.3381 471.22C85.8181 471.22 86.5181 472.38 86.5381 473.7H81.8181C82.0381 472.14 82.9981 471.22 84.3381 471.22ZM100.913 479V473.08C100.913 471.14 99.6528 469.94 97.5328 469.94C95.8328 469.94 94.5128 470.96 94.2128 472.46H95.6928C95.9728 471.64 96.5728 471.24 97.5128 471.24C98.7928 471.24 99.4728 472.04 99.4728 473.14V474.26C99.0928 473.92 98.1528 473.54 97.2328 473.54C95.3328 473.54 93.8328 474.66 93.8328 476.32C93.8328 478.08 95.3328 479.16 97.1328 479.16C98.1928 479.16 99.1328 478.7 99.4728 478.34V479H100.913ZM99.4728 476.8C99.2128 477.46 98.3128 477.9 97.3928 477.9C96.3128 477.9 95.2728 477.4 95.2728 476.32C95.2728 475.26 96.3128 474.78 97.3928 474.78C98.3128 474.78 99.2128 475.22 99.4728 475.88V476.8ZM102.837 474.56C102.837 477.32 104.497 479.18 106.877 479.18C108.877 479.18 110.137 478.02 110.437 476.32H108.897C108.697 477.28 107.937 477.86 106.877 477.86C105.357 477.86 104.357 476.5 104.357 474.56C104.357 472.62 105.357 471.26 106.877 471.26C107.937 471.26 108.697 471.84 108.897 472.8H110.437C110.137 471.1 108.877 469.94 106.877 469.94C104.497 469.94 102.837 471.8 102.837 474.56ZM112.881 476.76C112.881 478.4 113.881 479.18 115.321 479.18C115.861 479.18 116.381 479.06 116.721 478.88V477.48C116.421 477.68 115.981 477.84 115.561 477.84C114.801 477.84 114.381 477.46 114.381 476.6V471.4H116.521V470.12H114.381V467.78H112.881V470.12H111.441V471.4H112.881V476.76ZM120.309 470.12H118.809V479H120.309V470.12ZM120.529 467.44C120.529 466.9 120.089 466.48 119.549 466.48C119.029 466.48 118.589 466.9 118.589 467.44C118.589 467.96 119.029 468.4 119.549 468.4C120.089 468.4 120.529 467.96 120.529 467.44ZM126.928 479L130.388 470.12H128.808L126.228 477.1L123.628 470.12H122.008L125.448 479H126.928ZM138.296 479V473.08C138.296 471.14 137.036 469.94 134.916 469.94C133.216 469.94 131.896 470.96 131.596 472.46H133.076C133.356 471.64 133.956 471.24 134.896 471.24C136.176 471.24 136.856 472.04 136.856 473.14V474.26C136.476 473.92 135.536 473.54 134.616 473.54C132.716 473.54 131.216 474.66 131.216 476.32C131.216 478.08 132.716 479.16 134.516 479.16C135.576 479.16 136.516 478.7 136.856 478.34V479H138.296ZM136.856 476.8C136.596 477.46 135.696 477.9 134.776 477.9C133.696 477.9 132.656 477.4 132.656 476.32C132.656 475.26 133.696 474.78 134.776 474.78C135.696 474.78 136.596 475.22 136.856 475.88V476.8ZM141.221 476.76C141.221 478.4 142.221 479.18 143.661 479.18C144.201 479.18 144.721 479.06 145.061 478.88V477.48C144.761 477.68 144.321 477.84 143.901 477.84C143.141 477.84 142.721 477.46 142.721 476.6V471.4H144.861V470.12H142.721V467.78H141.221V470.12H139.781V471.4H141.221V476.76ZM152.651 476.34C152.411 477.34 151.591 477.9 150.491 477.9C148.991 477.9 147.931 476.74 147.911 474.84H154.191V474.3C154.191 471.72 152.891 469.94 150.451 469.94C148.031 469.94 146.411 471.92 146.411 474.58C146.411 477.32 148.071 479.18 150.491 479.18C152.491 479.18 153.751 478.02 154.071 476.34H152.651ZM150.471 471.22C151.951 471.22 152.651 472.38 152.671 473.7H147.951C148.171 472.14 149.131 471.22 150.471 471.22ZM162.091 479H163.611V466H162.091V471.16C161.651 470.52 160.691 469.94 159.591 469.94C156.991 469.94 155.591 472.06 155.591 474.56C155.591 477.08 156.991 479.18 159.591 479.18C160.691 479.18 161.651 478.6 162.091 477.96V479ZM162.091 476.36C161.631 477.28 160.751 477.82 159.811 477.82C158.111 477.82 157.111 476.44 157.111 474.56C157.111 472.68 158.111 471.3 159.811 471.3C160.751 471.3 161.631 471.84 162.091 472.76V476.36ZM165.57 478.02C165.57 478.64 166.05 479.1 166.65 479.1C167.23 479.1 167.71 478.64 167.71 478.02C167.71 477.4 167.23 476.92 166.65 476.92C166.05 476.92 165.57 477.4 165.57 478.02Z" fill="#1C1C1C"/>
<circle cx="391" cy="208" r="39" fill="#FFA776"/>
<rect x="398.108" y="212.748" width="10.4486" height="8.40782" transform="rotate(-45.5209 398.108 212.748)" fill="#F9FAFC"/>
<rect x="394.536" y="209.455" width="10.4486" height="2.88173" transform="rotate(-45.5209 394.536 209.455)" fill="#F9FAFC"/>
<rect x="405.623" y="220.038" width="10.4486" height="2.88173" transform="rotate(-45.5209 405.623 220.038)" fill="#F9FAFC"/>
<rect x="397.542" y="216.868" width="3.58732" height="10.7917" transform="rotate(44.341 397.542 216.868)" fill="#F9FAFC"/>
<path d="M375 223.7C375 214.838 382.184 207.654 391.047 207.654" stroke="#F9FAFC" stroke-width="5"/>
<circle cx="391.047" cy="192.551" r="7.5513" fill="#F9FAFC"/>
<circle cx="249" cy="208" r="39" fill="#FFA776"/>
<rect x="256.108" y="212.748" width="10.4486" height="8.40782" transform="rotate(-45.5209 256.108 212.748)" fill="#F9FAFC"/>
<rect x="252.536" y="209.455" width="10.4486" height="2.88173" transform="rotate(-45.5209 252.536 209.455)" fill="#F9FAFC"/>
<rect x="263.623" y="220.038" width="10.4486" height="2.88173" transform="rotate(-45.5209 263.623 220.038)" fill="#F9FAFC"/>
<rect x="255.542" y="216.868" width="3.58732" height="10.7917" transform="rotate(44.341 255.542 216.868)" fill="#F9FAFC"/>
<path d="M233 223.7C233 214.838 240.184 207.654 249.047 207.654" stroke="#F9FAFC" stroke-width="5"/>
<circle cx="249.047" cy="192.551" r="7.5513" fill="#F9FAFC"/>
<circle cx="533" cy="208" r="39" fill="#FFA776"/>
<rect x="539.108" y="212.748" width="10.4486" height="8.40782" transform="rotate(-45.5209 539.108 212.748)" fill="#F9FAFC"/>
<rect x="535.536" y="209.455" width="10.4486" height="2.88173" transform="rotate(-45.5209 535.536 209.455)" fill="#F9FAFC"/>
<rect x="546.623" y="220.038" width="10.4486" height="2.88173" transform="rotate(-45.5209 546.623 220.038)" fill="#F9FAFC"/>
<rect x="538.542" y="216.868" width="3.58732" height="10.7917" transform="rotate(44.341 538.542 216.868)" fill="#F9FAFC"/>
<path d="M516 223.7C516 214.838 523.184 207.654 532.047 207.654" stroke="#F9FAFC" stroke-width="5"/>
<circle cx="532.047" cy="192.551" r="7.5513" fill="#F9FAFC"/>
<defs>
<filter id="filter0_d" x="0" y="0" width="782" height="534" filterUnits="userSpaceOnUse" color-interpolation-filters="sRGB">
<feFlood flood-opacity="0" result="BackgroundImageFix"/>
<feColorMatrix in="SourceAlpha" type="matrix" values="0 0 0 0 0 0 0 0 0 0 0 0 0 0 0 0 0 0 127 0"/>
<feOffset dy="3"/>
<feGaussianBlur stdDeviation="8.5"/>
<feColorMatrix type="matrix" values="0 0 0 0 0 0 0 0 0 0 0 0 0 0 0 0 0 0 0.1 0"/>
<feBlend mode="normal" in2="BackgroundImageFix" result="effect1_dropShadow"/>
<feBlend mode="normal" in="SourceGraphic" in2="effect1_dropShadow" result="shape"/>
</filter>
<linearGradient id="paint0_linear" x1="750" y1="408.937" x2="687.559" y2="649.81" gradientUnits="userSpaceOnUse">
<stop stop-color="#FFF8F0"/>
<stop offset="1" stop-color="#FFF3F1"/>
</linearGradient>
</defs>
</svg>
