<svg width="782" height="534" viewBox="0 0 782 534" fill="none" xmlns="http://www.w3.org/2000/svg">
<g filter="url(#filter0_d)">
<rect x="17" y="14" width="748" height="500" rx="6" fill="white"/>
</g>
<mask id="mask0" mask-type="alpha" maskUnits="userSpaceOnUse" x="17" y="14" width="748" height="489">
<rect x="17" y="14" width="748" height="489" rx="6" fill="white"/>
</mask>
<g mask="url(#mask0)">
<circle opacity="0.2" cx="391.5" cy="202.5" r="223.216" stroke="#FFA776" stroke-width="1.5"/>
<circle opacity="0.15" cx="391.5" cy="202.5" r="255.045" stroke="#FFA776" stroke-width="1.5"/>
<circle opacity="0.1" cx="391.5" cy="202.5" r="286.098" stroke="#FFA776" stroke-width="1.5"/>
<circle opacity="0.05" cx="391.5" cy="202.5" r="317.75" stroke="#FFA776" stroke-width="1.5"/>
</g>
<rect x="32" y="390" width="718" height="109" rx="4" fill="url(#paint0_linear)"/>
<path d="M57.22 411.72L52.42 424H54.02L55.42 420.3H60.48L61.9 424H63.5L58.7 411.72H57.22ZM57.94 413.68L59.94 418.92H55.94L57.94 413.68ZM69.0281 419.56C69.0281 422.32 70.6881 424.18 73.0681 424.18C75.0681 424.18 76.3281 423.02 76.6281 421.32H75.0881C74.8881 422.28 74.1281 422.86 73.0681 422.86C71.5481 422.86 70.5481 421.5 70.5481 419.56C70.5481 417.62 71.5481 416.26 73.0681 416.26C74.1281 416.26 74.8881 416.84 75.0881 417.8H76.6281C76.3281 416.1 75.0681 414.94 73.0681 414.94C70.6881 414.94 69.0281 416.8 69.0281 419.56ZM86.0748 419.56C86.0748 416.84 84.4148 414.94 81.9948 414.94C79.5548 414.94 77.9148 416.84 77.9148 419.56C77.9148 422.28 79.5548 424.18 81.9948 424.18C84.4148 424.18 86.0748 422.28 86.0748 419.56ZM84.5548 419.56C84.5548 421.5 83.5948 422.86 81.9948 422.86C80.3948 422.86 79.4348 421.5 79.4348 419.56C79.4348 417.62 80.3948 416.26 81.9948 416.26C83.5948 416.26 84.5548 417.62 84.5548 419.56ZM94.4056 416.36C93.9856 415.52 93.1256 414.94 92.0056 414.94C90.9056 414.94 90.0456 415.46 89.6056 416.16V415.12H88.1056V424H89.6056V417.88C89.8856 416.92 90.6656 416.3 91.5656 416.3C92.7056 416.3 93.2456 417.12 93.2456 418.36V424H94.7456V417.88C95.0256 416.92 95.8056 416.3 96.7056 416.3C97.8456 416.3 98.3856 417.12 98.3856 418.36V424H99.9056V418.12C99.9056 416.2 98.9056 414.94 97.1056 414.94C95.8656 414.94 94.9656 415.56 94.4056 416.36ZM103.942 422.96C104.402 423.6 105.342 424.18 106.442 424.18C109.062 424.18 110.442 422.02 110.442 419.56C110.442 417.1 109.062 414.94 106.442 414.94C105.342 414.94 104.402 415.52 103.942 416.16V415.12H102.442V427.4H103.942V422.96ZM103.942 417.76C104.402 416.84 105.282 416.3 106.222 416.3C107.922 416.3 108.922 417.68 108.922 419.56C108.922 421.44 107.922 422.82 106.222 422.82C105.282 422.82 104.402 422.28 103.942 421.36V417.76ZM118.921 424V418.08C118.921 416.14 117.661 414.94 115.541 414.94C113.841 414.94 112.521 415.96 112.221 417.46H113.701C113.981 416.64 114.581 416.24 115.521 416.24C116.801 416.24 117.481 417.04 117.481 418.14V419.26C117.101 418.92 116.161 418.54 115.241 418.54C113.341 418.54 111.841 419.66 111.841 421.32C111.841 423.08 113.341 424.16 115.141 424.16C116.201 424.16 117.141 423.7 117.481 423.34V424H118.921ZM117.481 421.8C117.221 422.46 116.321 422.9 115.401 422.9C114.321 422.9 113.281 422.4 113.281 421.32C113.281 420.26 114.321 419.78 115.401 419.78C116.321 419.78 117.221 420.22 117.481 420.88V421.8ZM121.485 424H122.985V417.98C123.305 417.02 124.205 416.32 125.245 416.32C126.585 416.32 127.205 417.18 127.205 418.42V424H128.725V418.18C128.725 416.24 127.625 414.94 125.605 414.94C124.465 414.94 123.505 415.54 122.985 416.24V415.12H121.485V424ZM133.792 427.4L138.572 415.12H137.012L134.432 422.12L131.812 415.12H130.192L133.652 424.06L132.312 427.4H133.792ZM144.688 424H146.188V417.98C146.508 417.02 147.408 416.32 148.448 416.32C149.788 416.32 150.408 417.18 150.408 418.42V424H151.928V418.18C151.928 416.24 150.828 414.94 148.808 414.94C147.668 414.94 146.708 415.54 146.188 416.24V411H144.688V424ZM160.913 424V418.08C160.913 416.14 159.653 414.94 157.533 414.94C155.833 414.94 154.513 415.96 154.213 417.46H155.693C155.973 416.64 156.573 416.24 157.513 416.24C158.793 416.24 159.473 417.04 159.473 418.14V419.26C159.093 418.92 158.153 418.54 157.233 418.54C155.333 418.54 153.833 419.66 153.833 421.32C153.833 423.08 155.333 424.16 157.133 424.16C158.193 424.16 159.133 423.7 159.473 423.34V424H160.913ZM159.473 421.8C159.213 422.46 158.313 422.9 157.393 422.9C156.313 422.9 155.273 422.4 155.273 421.32C155.273 420.26 156.313 419.78 157.393 419.78C158.313 419.78 159.213 420.22 159.473 420.88V421.8ZM162.737 421.56C163.017 423.2 164.437 424.18 166.377 424.18C168.277 424.18 169.677 423.18 169.677 421.5C169.677 420.26 168.937 419.42 167.417 419.02L165.697 418.6C164.857 418.36 164.457 418.08 164.457 417.48C164.457 416.62 165.277 416.2 166.157 416.2C167.237 416.2 167.857 416.66 168.117 417.46H169.617C169.297 415.9 168.137 414.94 166.177 414.94C164.377 414.94 162.997 415.98 162.997 417.56C162.997 418.94 163.877 419.58 165.137 419.9L166.897 420.36C167.817 420.6 168.217 420.98 168.217 421.6C168.217 422.5 167.457 422.92 166.397 422.92C165.357 422.92 164.577 422.48 164.297 421.56H162.737ZM176.592 421.76C176.592 423.4 177.592 424.18 179.032 424.18C179.572 424.18 180.092 424.06 180.432 423.88V422.48C180.132 422.68 179.692 422.84 179.272 422.84C178.512 422.84 178.092 422.46 178.092 421.6V416.4H180.232V415.12H178.092V412.78H176.592V415.12H175.152V416.4H176.592V421.76ZM188.023 415.12H186.683L184.863 421.9L182.903 415.12H181.403L184.023 424H185.483L187.343 417.26L189.183 424H190.643L193.263 415.12H191.803L189.843 421.9L188.023 415.12ZM202.481 419.56C202.481 416.84 200.821 414.94 198.401 414.94C195.961 414.94 194.321 416.84 194.321 419.56C194.321 422.28 195.961 424.18 198.401 424.18C200.821 424.18 202.481 422.28 202.481 419.56ZM200.961 419.56C200.961 421.5 200.001 422.86 198.401 422.86C196.801 422.86 195.841 421.5 195.841 419.56C195.841 417.62 196.801 416.26 198.401 416.26C200.001 416.26 200.961 417.62 200.961 419.56ZM215.226 416.36C214.806 415.52 213.946 414.94 212.826 414.94C211.726 414.94 210.866 415.46 210.426 416.16V415.12H208.926V424H210.426V417.88C210.706 416.92 211.486 416.3 212.386 416.3C213.526 416.3 214.066 417.12 214.066 418.36V424H215.566V417.88C215.846 416.92 216.626 416.3 217.526 416.3C218.666 416.3 219.206 417.12 219.206 418.36V424H220.726V418.12C220.726 416.2 219.726 414.94 217.926 414.94C216.686 414.94 215.786 415.56 215.226 416.36ZM228.862 421.34C228.622 422.34 227.802 422.9 226.702 422.9C225.202 422.9 224.142 421.74 224.122 419.84H230.402V419.3C230.402 416.72 229.102 414.94 226.662 414.94C224.242 414.94 222.622 416.92 222.622 419.58C222.622 422.32 224.282 424.18 226.702 424.18C228.702 424.18 229.962 423.02 230.282 421.34H228.862ZM226.682 416.22C228.162 416.22 228.862 417.38 228.882 418.7H224.162C224.382 417.14 225.342 416.22 226.682 416.22ZM238.703 416.36C238.283 415.52 237.423 414.94 236.303 414.94C235.203 414.94 234.343 415.46 233.903 416.16V415.12H232.403V424H233.903V417.88C234.183 416.92 234.963 416.3 235.863 416.3C237.003 416.3 237.543 417.12 237.543 418.36V424H239.043V417.88C239.323 416.92 240.103 416.3 241.003 416.3C242.143 416.3 242.683 417.12 242.683 418.36V424H244.203V418.12C244.203 416.2 243.203 414.94 241.403 414.94C240.163 414.94 239.263 415.56 238.703 416.36ZM248.238 422.96C248.678 423.6 249.638 424.18 250.738 424.18C253.338 424.18 254.738 422.08 254.738 419.56C254.738 417.06 253.338 414.94 250.738 414.94C249.638 414.94 248.678 415.52 248.238 416.16V411H246.718V424H248.238V422.96ZM248.238 417.76C248.698 416.84 249.578 416.3 250.518 416.3C252.218 416.3 253.218 417.68 253.218 419.56C253.218 421.44 252.218 422.82 250.518 422.82C249.578 422.82 248.698 422.28 248.238 421.36V417.76ZM262.417 421.34C262.177 422.34 261.357 422.9 260.257 422.9C258.757 422.9 257.697 421.74 257.677 419.84H263.957V419.3C263.957 416.72 262.657 414.94 260.217 414.94C257.797 414.94 256.177 416.92 256.177 419.58C256.177 422.32 257.837 424.18 260.257 424.18C262.257 424.18 263.517 423.02 263.837 421.34H262.417ZM260.237 416.22C261.717 416.22 262.417 417.38 262.437 418.7H257.717C257.937 417.14 258.897 416.22 260.237 416.22ZM270.517 415.08C270.357 415 270.037 414.94 269.657 414.94C268.677 414.94 267.837 415.52 267.457 416.28V415.12H265.957V424H267.457V418.04C267.757 417 268.577 416.38 269.517 416.38C269.897 416.38 270.277 416.46 270.517 416.62V415.08ZM271.584 421.56C271.864 423.2 273.284 424.18 275.224 424.18C277.124 424.18 278.524 423.18 278.524 421.5C278.524 420.26 277.784 419.42 276.264 419.02L274.544 418.6C273.704 418.36 273.304 418.08 273.304 417.48C273.304 416.62 274.124 416.2 275.004 416.2C276.084 416.2 276.704 416.66 276.964 417.46H278.464C278.144 415.9 276.984 414.94 275.024 414.94C273.224 414.94 271.844 415.98 271.844 417.56C271.844 418.94 272.724 419.58 273.984 419.9L275.744 420.36C276.664 420.6 277.064 420.98 277.064 421.6C277.064 422.5 276.304 422.92 275.244 422.92C274.204 422.92 273.424 422.48 273.144 421.56H271.584ZM279.526 426.14H280.546L281.606 424.38C281.846 424 282.046 423.54 282.046 423.12C282.046 422.38 281.586 421.96 280.986 421.96C280.386 421.96 279.906 422.4 279.906 423.02C279.906 423.6 280.286 423.94 280.786 424.02L279.526 426.14ZM294.858 417.64C295.818 417.34 296.658 416.44 296.658 414.98C296.658 412.86 295.138 411.72 292.598 411.72H288.558V424H292.998C295.518 424 297.078 422.78 297.078 420.54C297.078 419.16 296.178 417.98 294.858 417.64ZM290.098 417.06V413.1H292.598C294.238 413.1 295.138 413.72 295.138 415.06C295.138 416.4 294.238 417.06 292.598 417.06H290.098ZM290.098 418.38H292.998C294.658 418.38 295.538 419.2 295.538 420.5C295.538 421.78 294.658 422.62 292.998 422.62H290.098V418.38ZM306.778 419.56C306.778 416.84 305.118 414.94 302.698 414.94C300.258 414.94 298.618 416.84 298.618 419.56C298.618 422.28 300.258 424.18 302.698 424.18C305.118 424.18 306.778 422.28 306.778 419.56ZM305.258 419.56C305.258 421.5 304.298 422.86 302.698 422.86C301.098 422.86 300.138 421.5 300.138 419.56C300.138 417.62 301.098 416.26 302.698 416.26C304.298 416.26 305.258 417.62 305.258 419.56ZM310.309 422.96C310.749 423.6 311.709 424.18 312.809 424.18C315.409 424.18 316.809 422.08 316.809 419.56C316.809 417.06 315.409 414.94 312.809 414.94C311.709 414.94 310.749 415.52 310.309 416.16V411H308.789V424H310.309V422.96ZM310.309 417.76C310.769 416.84 311.649 416.3 312.589 416.3C314.289 416.3 315.289 417.68 315.289 419.56C315.289 421.44 314.289 422.82 312.589 422.82C311.649 422.82 310.769 422.28 310.309 421.36V417.76ZM329.702 424V418.08C329.702 416.14 328.442 414.94 326.322 414.94C324.622 414.94 323.302 415.96 323.002 417.46H324.482C324.762 416.64 325.362 416.24 326.302 416.24C327.582 416.24 328.262 417.04 328.262 418.14V419.26C327.882 418.92 326.942 418.54 326.022 418.54C324.122 418.54 322.622 419.66 322.622 421.32C322.622 423.08 324.122 424.16 325.922 424.16C326.982 424.16 327.922 423.7 328.262 423.34V424H329.702ZM328.262 421.8C328.002 422.46 327.102 422.9 326.182 422.9C325.102 422.9 324.062 422.4 324.062 421.32C324.062 420.26 325.102 419.78 326.182 419.78C327.102 419.78 328.002 420.22 328.262 420.88V421.8ZM332.266 424H333.766V417.98C334.086 417.02 334.986 416.32 336.026 416.32C337.366 416.32 337.986 417.18 337.986 418.42V424H339.506V418.18C339.506 416.24 338.406 414.94 336.386 414.94C335.246 414.94 334.286 415.54 333.766 416.24V415.12H332.266V424ZM347.911 424H349.431V411H347.911V416.16C347.471 415.52 346.511 414.94 345.411 414.94C342.811 414.94 341.411 417.06 341.411 419.56C341.411 422.08 342.811 424.18 345.411 424.18C346.511 424.18 347.471 423.6 347.911 422.96V424ZM347.911 421.36C347.451 422.28 346.571 422.82 345.631 422.82C343.931 422.82 342.931 421.44 342.931 419.56C342.931 417.68 343.931 416.3 345.631 416.3C346.571 416.3 347.451 416.84 347.911 417.76V421.36ZM360.384 411.72L355.584 424H357.184L358.584 420.3H363.644L365.064 424H366.664L361.864 411.72H360.384ZM361.104 413.68L363.104 418.92H359.104L361.104 413.68ZM369.918 411H368.418V424H369.918V411ZM374.098 415.12H372.598V424H374.098V415.12ZM374.318 412.44C374.318 411.9 373.878 411.48 373.338 411.48C372.818 411.48 372.378 411.9 372.378 412.44C372.378 412.96 372.818 413.4 373.338 413.4C373.878 413.4 374.318 412.96 374.318 412.44ZM376.138 419.56C376.138 422.32 377.798 424.18 380.178 424.18C382.178 424.18 383.438 423.02 383.738 421.32H382.198C381.998 422.28 381.238 422.86 380.178 422.86C378.658 422.86 377.658 421.5 377.658 419.56C377.658 417.62 378.658 416.26 380.178 416.26C381.238 416.26 381.998 416.84 382.198 417.8H383.738C383.438 416.1 382.178 414.94 380.178 414.94C377.798 414.94 376.138 416.8 376.138 419.56ZM391.264 421.34C391.024 422.34 390.204 422.9 389.104 422.9C387.604 422.9 386.544 421.74 386.524 419.84H392.804V419.3C392.804 416.72 391.504 414.94 389.064 414.94C386.644 414.94 385.024 416.92 385.024 419.58C385.024 422.32 386.684 424.18 389.104 424.18C391.104 424.18 392.364 423.02 392.684 421.34H391.264ZM389.084 416.22C390.564 416.22 391.264 417.38 391.284 418.7H386.564C386.784 417.14 387.744 416.22 389.084 416.22ZM394.105 423.02C394.105 423.64 394.585 424.1 395.185 424.1C395.765 424.1 396.245 423.64 396.245 423.02C396.245 422.4 395.765 421.92 395.185 421.92C394.585 421.92 394.105 422.4 394.105 423.02ZM409.057 417.64C410.017 417.34 410.857 416.44 410.857 414.98C410.857 412.86 409.337 411.72 406.797 411.72H402.757V424H407.197C409.717 424 411.277 422.78 411.277 420.54C411.277 419.16 410.377 417.98 409.057 417.64ZM404.297 417.06V413.1H406.797C408.437 413.1 409.337 413.72 409.337 415.06C409.337 416.4 408.437 417.06 406.797 417.06H404.297ZM404.297 418.38H407.197C408.857 418.38 409.737 419.2 409.737 420.5C409.737 421.78 408.857 422.62 407.197 422.62H404.297V418.38ZM420.977 419.56C420.977 416.84 419.317 414.94 416.897 414.94C414.457 414.94 412.817 416.84 412.817 419.56C412.817 422.28 414.457 424.18 416.897 424.18C419.317 424.18 420.977 422.28 420.977 419.56ZM419.457 419.56C419.457 421.5 418.497 422.86 416.897 422.86C415.297 422.86 414.337 421.5 414.337 419.56C414.337 417.62 415.297 416.26 416.897 416.26C418.497 416.26 419.457 417.62 419.457 419.56ZM424.508 422.96C424.948 423.6 425.908 424.18 427.008 424.18C429.608 424.18 431.008 422.08 431.008 419.56C431.008 417.06 429.608 414.94 427.008 414.94C425.908 414.94 424.948 415.52 424.508 416.16V411H422.988V424H424.508V422.96ZM424.508 417.76C424.968 416.84 425.848 416.3 426.788 416.3C428.488 416.3 429.488 417.68 429.488 419.56C429.488 421.44 428.488 422.82 426.788 422.82C425.848 422.82 424.968 422.28 424.508 421.36V417.76ZM436.721 421.56C437.001 423.2 438.421 424.18 440.361 424.18C442.261 424.18 443.661 423.18 443.661 421.5C443.661 420.26 442.921 419.42 441.401 419.02L439.681 418.6C438.841 418.36 438.441 418.08 438.441 417.48C438.441 416.62 439.261 416.2 440.141 416.2C441.221 416.2 441.841 416.66 442.101 417.46H443.601C443.281 415.9 442.121 414.94 440.161 414.94C438.361 414.94 436.981 415.98 436.981 417.56C436.981 418.94 437.861 419.58 439.121 419.9L440.881 420.36C441.801 420.6 442.201 420.98 442.201 421.6C442.201 422.5 441.441 422.92 440.381 422.92C439.341 422.92 438.561 422.48 438.281 421.56H436.721ZM452.822 415.12H451.302V421.14C450.982 422.1 450.122 422.8 449.082 422.8C447.742 422.8 447.142 421.94 447.142 420.7V415.12H445.622V420.94C445.622 422.88 446.702 424.18 448.722 424.18C449.862 424.18 450.802 423.58 451.302 422.88V424H452.822V415.12ZM456.988 422.96C457.428 423.6 458.388 424.18 459.488 424.18C462.088 424.18 463.488 422.08 463.488 419.56C463.488 417.06 462.088 414.94 459.488 414.94C458.388 414.94 457.428 415.52 456.988 416.16V411H455.468V424H456.988V422.96ZM456.988 417.76C457.448 416.84 458.328 416.3 459.268 416.3C460.968 416.3 461.968 417.68 461.968 419.56C461.968 421.44 460.968 422.82 459.268 422.82C458.328 422.82 457.448 422.28 456.988 421.36V417.76ZM471.828 416.36C471.408 415.52 470.548 414.94 469.428 414.94C468.328 414.94 467.468 415.46 467.028 416.16V415.12H465.528V424H467.028V417.88C467.308 416.92 468.088 416.3 468.988 416.3C470.128 416.3 470.668 417.12 470.668 418.36V424H472.168V417.88C472.448 416.92 473.228 416.3 474.128 416.3C475.268 416.3 475.808 417.12 475.808 418.36V424H477.328V418.12C477.328 416.2 476.328 414.94 474.528 414.94C473.288 414.94 472.388 415.56 471.828 416.36ZM481.363 415.12H479.863V424H481.363V415.12ZM481.583 412.44C481.583 411.9 481.143 411.48 480.603 411.48C480.083 411.48 479.643 411.9 479.643 412.44C479.643 412.96 480.083 413.4 480.603 413.4C481.143 413.4 481.583 412.96 481.583 412.44ZM484.463 421.76C484.463 423.4 485.463 424.18 486.903 424.18C487.443 424.18 487.963 424.06 488.303 423.88V422.48C488.003 422.68 487.563 422.84 487.143 422.84C486.383 422.84 485.963 422.46 485.963 421.6V416.4H488.103V415.12H485.963V412.78H484.463V415.12H483.023V416.4H484.463V421.76ZM489.592 421.56C489.872 423.2 491.292 424.18 493.232 424.18C495.132 424.18 496.532 423.18 496.532 421.5C496.532 420.26 495.792 419.42 494.272 419.02L492.552 418.6C491.712 418.36 491.312 418.08 491.312 417.48C491.312 416.62 492.132 416.2 493.012 416.2C494.092 416.2 494.712 416.66 494.972 417.46H496.472C496.152 415.9 494.992 414.94 493.032 414.94C491.232 414.94 489.852 415.98 489.852 417.56C489.852 418.94 490.732 419.58 491.992 419.9L493.752 420.36C494.672 420.6 495.072 420.98 495.072 421.6C495.072 422.5 494.312 422.92 493.252 422.92C492.212 422.92 491.432 422.48 491.152 421.56H489.592ZM509.468 424V418.08C509.468 416.14 508.208 414.94 506.088 414.94C504.388 414.94 503.068 415.96 502.768 417.46H504.248C504.528 416.64 505.128 416.24 506.068 416.24C507.348 416.24 508.028 417.04 508.028 418.14V419.26C507.648 418.92 506.708 418.54 505.788 418.54C503.888 418.54 502.388 419.66 502.388 421.32C502.388 423.08 503.888 424.16 505.688 424.16C506.748 424.16 507.688 423.7 508.028 423.34V424H509.468ZM508.028 421.8C507.768 422.46 506.868 422.9 505.948 422.9C504.868 422.9 503.828 422.4 503.828 421.32C503.828 420.26 504.868 419.78 505.948 419.78C506.868 419.78 507.768 420.22 508.028 420.88V421.8ZM517.945 422.96C518.405 423.6 519.345 424.18 520.445 424.18C523.065 424.18 524.445 422.02 524.445 419.56C524.445 417.1 523.065 414.94 520.445 414.94C519.345 414.94 518.405 415.52 517.945 416.16V415.12H516.445V427.4H517.945V422.96ZM517.945 417.76C518.405 416.84 519.285 416.3 520.225 416.3C521.925 416.3 522.925 417.68 522.925 419.56C522.925 421.44 521.925 422.82 520.225 422.82C519.285 422.82 518.405 422.28 517.945 421.36V417.76ZM531.045 415.08C530.885 415 530.565 414.94 530.185 414.94C529.205 414.94 528.365 415.52 527.985 416.28V415.12H526.485V424H527.985V418.04C528.285 417 529.105 416.38 530.045 416.38C530.425 416.38 530.805 416.46 531.045 416.62V415.08ZM540.176 419.56C540.176 416.84 538.516 414.94 536.096 414.94C533.656 414.94 532.016 416.84 532.016 419.56C532.016 422.28 533.656 424.18 536.096 424.18C538.516 424.18 540.176 422.28 540.176 419.56ZM538.656 419.56C538.656 421.5 537.696 422.86 536.096 422.86C534.496 422.86 533.536 421.5 533.536 419.56C533.536 417.62 534.496 416.26 536.096 416.26C537.696 416.26 538.656 417.62 538.656 419.56ZM543.707 422.96C544.167 423.6 545.107 424.18 546.207 424.18C548.827 424.18 550.207 422.02 550.207 419.56C550.207 417.1 548.827 414.94 546.207 414.94C545.107 414.94 544.167 415.52 543.707 416.16V415.12H542.207V427.4H543.707V422.96ZM543.707 417.76C544.167 416.84 545.047 416.3 545.987 416.3C547.687 416.3 548.687 417.68 548.687 419.56C548.687 421.44 547.687 422.82 545.987 422.82C545.047 422.82 544.167 422.28 543.707 421.36V417.76ZM559.805 419.56C559.805 416.84 558.145 414.94 555.725 414.94C553.285 414.94 551.645 416.84 551.645 419.56C551.645 422.28 553.285 424.18 555.725 424.18C558.145 424.18 559.805 422.28 559.805 419.56ZM558.285 419.56C558.285 421.5 557.325 422.86 555.725 422.86C554.125 422.86 553.165 421.5 553.165 419.56C553.165 417.62 554.125 416.26 555.725 416.26C557.325 416.26 558.285 417.62 558.285 419.56ZM561.096 421.56C561.376 423.2 562.796 424.18 564.736 424.18C566.636 424.18 568.036 423.18 568.036 421.5C568.036 420.26 567.296 419.42 565.776 419.02L564.056 418.6C563.216 418.36 562.816 418.08 562.816 417.48C562.816 416.62 563.636 416.2 564.516 416.2C565.596 416.2 566.216 416.66 566.476 417.46H567.976C567.656 415.9 566.496 414.94 564.536 414.94C562.736 414.94 561.356 415.98 561.356 417.56C561.356 418.94 562.236 419.58 563.496 419.9L565.256 420.36C566.176 420.6 566.576 420.98 566.576 421.6C566.576 422.5 565.816 422.92 564.756 422.92C563.716 422.92 562.936 422.48 562.656 421.56H561.096ZM576.596 424V418.08C576.596 416.14 575.336 414.94 573.216 414.94C571.516 414.94 570.196 415.96 569.896 417.46H571.376C571.656 416.64 572.256 416.24 573.196 416.24C574.476 416.24 575.156 417.04 575.156 418.14V419.26C574.776 418.92 573.836 418.54 572.916 418.54C571.016 418.54 569.516 419.66 569.516 421.32C569.516 423.08 571.016 424.16 572.816 424.16C573.876 424.16 574.816 423.7 575.156 423.34V424H576.596ZM575.156 421.8C574.896 422.46 573.996 422.9 573.076 422.9C571.996 422.9 570.956 422.4 570.956 421.32C570.956 420.26 571.996 419.78 573.076 419.78C573.996 419.78 574.896 420.22 575.156 420.88V421.8ZM580.66 411H579.16V424H580.66V411ZM588.174 421.76C588.174 423.4 589.174 424.18 590.614 424.18C591.154 424.18 591.674 424.06 592.014 423.88V422.48C591.714 422.68 591.274 422.84 590.854 422.84C590.094 422.84 589.674 422.46 589.674 421.6V416.4H591.814V415.12H589.674V412.78H588.174V415.12H586.734V416.4H588.174V421.76ZM601.524 419.56C601.524 416.84 599.864 414.94 597.444 414.94C595.004 414.94 593.364 416.84 593.364 419.56C593.364 422.28 595.004 424.18 597.444 424.18C599.864 424.18 601.524 422.28 601.524 419.56ZM600.004 419.56C600.004 421.5 599.044 422.86 597.444 422.86C595.844 422.86 594.884 421.5 594.884 419.56C594.884 417.62 595.844 416.26 597.444 416.26C599.044 416.26 600.004 417.62 600.004 419.56ZM608.389 421.76C608.389 423.4 609.389 424.18 610.829 424.18C611.369 424.18 611.889 424.06 612.229 423.88V422.48C611.929 422.68 611.489 422.84 611.069 422.84C610.309 422.84 609.889 422.46 609.889 421.6V416.4H612.029V415.12H609.889V412.78H608.389V415.12H606.949V416.4H608.389V421.76ZM618.877 415.08C618.717 415 618.397 414.94 618.017 414.94C617.037 414.94 616.197 415.52 615.817 416.28V415.12H614.317V424H615.817V418.04C616.117 417 616.937 416.38 617.877 416.38C618.257 416.38 618.637 416.46 618.877 416.62V415.08ZM626.948 424V418.08C626.948 416.14 625.688 414.94 623.568 414.94C621.868 414.94 620.548 415.96 620.248 417.46H621.728C622.008 416.64 622.608 416.24 623.548 416.24C624.828 416.24 625.508 417.04 625.508 418.14V419.26C625.128 418.92 624.188 418.54 623.268 418.54C621.368 418.54 619.868 419.66 619.868 421.32C619.868 423.08 621.368 424.16 623.168 424.16C624.228 424.16 625.168 423.7 625.508 423.34V424H626.948ZM625.508 421.8C625.248 422.46 624.348 422.9 623.428 422.9C622.348 422.9 621.308 422.4 621.308 421.32C621.308 420.26 622.348 419.78 623.428 419.78C624.348 419.78 625.248 420.22 625.508 420.88V421.8ZM629.512 424H631.012V417.98C631.332 417.02 632.232 416.32 633.272 416.32C634.612 416.32 635.232 417.18 635.232 418.42V424H636.752V418.18C636.752 416.24 635.652 414.94 633.632 414.94C632.492 414.94 631.532 415.54 631.012 416.24V415.12H629.512V424ZM638.557 421.56C638.837 423.2 640.257 424.18 642.197 424.18C644.097 424.18 645.497 423.18 645.497 421.5C645.497 420.26 644.757 419.42 643.237 419.02L641.517 418.6C640.677 418.36 640.277 418.08 640.277 417.48C640.277 416.62 641.097 416.2 641.977 416.2C643.057 416.2 643.677 416.66 643.937 417.46H645.437C645.117 415.9 643.957 414.94 641.997 414.94C640.197 414.94 638.817 415.98 638.817 417.56C638.817 418.94 639.697 419.58 640.957 419.9L642.717 420.36C643.637 420.6 644.037 420.98 644.037 421.6C644.037 422.5 643.277 422.92 642.217 422.92C641.177 422.92 640.397 422.48 640.117 421.56H638.557ZM652.018 411.02C651.678 410.88 651.338 410.82 650.858 410.82C649.298 410.82 648.138 411.86 648.138 413.64V415.12H646.638V416.4H648.138V424H649.618V416.4H651.618V415.12H649.618V413.76C649.618 412.7 650.198 412.14 651.078 412.14C651.398 412.14 651.738 412.2 652.018 412.38V411.02ZM658.823 421.34C658.583 422.34 657.763 422.9 656.663 422.9C655.163 422.9 654.103 421.74 654.083 419.84H660.363V419.3C660.363 416.72 659.063 414.94 656.623 414.94C654.203 414.94 652.583 416.92 652.583 419.58C652.583 422.32 654.243 424.18 656.663 424.18C658.663 424.18 659.923 423.02 660.243 421.34H658.823ZM656.643 416.22C658.123 416.22 658.823 417.38 658.843 418.7H654.123C654.343 417.14 655.303 416.22 656.643 416.22ZM666.923 415.08C666.763 415 666.443 414.94 666.063 414.94C665.083 414.94 664.243 415.52 663.863 416.28V415.12H662.363V424H663.863V418.04C664.163 417 664.983 416.38 665.923 416.38C666.303 416.38 666.683 416.46 666.923 416.62V415.08ZM52.7 446.56C52.7 449.32 54.36 451.18 56.74 451.18C58.74 451.18 60 450.02 60.3 448.32H58.76C58.56 449.28 57.8 449.86 56.74 449.86C55.22 449.86 54.22 448.5 54.22 446.56C54.22 444.62 55.22 443.26 56.74 443.26C57.8 443.26 58.56 443.84 58.76 444.8H60.3C60 443.1 58.74 441.94 56.74 441.94C54.36 441.94 52.7 443.8 52.7 446.56ZM69.7467 446.56C69.7467 443.84 68.0867 441.94 65.6667 441.94C63.2267 441.94 61.5867 443.84 61.5867 446.56C61.5867 449.28 63.2267 451.18 65.6667 451.18C68.0867 451.18 69.7467 449.28 69.7467 446.56ZM68.2267 446.56C68.2267 448.5 67.2667 449.86 65.6667 449.86C64.0667 449.86 63.1067 448.5 63.1067 446.56C63.1067 444.62 64.0667 443.26 65.6667 443.26C67.2667 443.26 68.2267 444.62 68.2267 446.56ZM78.0775 443.36C77.6575 442.52 76.7975 441.94 75.6775 441.94C74.5775 441.94 73.7175 442.46 73.2775 443.16V442.12H71.7775V451H73.2775V444.88C73.5575 443.92 74.3375 443.3 75.2375 443.3C76.3775 443.3 76.9175 444.12 76.9175 445.36V451H78.4175V444.88C78.6975 443.92 79.4775 443.3 80.3775 443.3C81.5175 443.3 82.0575 444.12 82.0575 445.36V451H83.5775V445.12C83.5775 443.2 82.5775 441.94 80.7775 441.94C79.5375 441.94 78.6375 442.56 78.0775 443.36ZM87.6134 449.96C88.0734 450.6 89.0134 451.18 90.1134 451.18C92.7334 451.18 94.1134 449.02 94.1134 446.56C94.1134 444.1 92.7334 441.94 90.1134 441.94C89.0134 441.94 88.0734 442.52 87.6134 443.16V442.12H86.1134V454.4H87.6134V449.96ZM87.6134 444.76C88.0734 443.84 88.9534 443.3 89.8934 443.3C91.5934 443.3 92.5934 444.68 92.5934 446.56C92.5934 448.44 91.5934 449.82 89.8934 449.82C88.9534 449.82 88.0734 449.28 87.6134 448.36V444.76ZM102.593 451V445.08C102.593 443.14 101.333 441.94 99.2125 441.94C97.5125 441.94 96.1925 442.96 95.8925 444.46H97.3725C97.6525 443.64 98.2525 443.24 99.1925 443.24C100.473 443.24 101.153 444.04 101.153 445.14V446.26C100.773 445.92 99.8325 445.54 98.9125 445.54C97.0125 445.54 95.5125 446.66 95.5125 448.32C95.5125 450.08 97.0125 451.16 98.8125 451.16C99.8725 451.16 100.813 450.7 101.153 450.34V451H102.593ZM101.153 448.8C100.893 449.46 99.9925 449.9 99.0725 449.9C97.9925 449.9 96.9525 449.4 96.9525 448.32C96.9525 447.26 97.9925 446.78 99.0725 446.78C99.9925 446.78 100.893 447.22 101.153 447.88V448.8ZM105.156 451H106.656V444.98C106.976 444.02 107.876 443.32 108.916 443.32C110.256 443.32 110.876 444.18 110.876 445.42V451H112.396V445.18C112.396 443.24 111.296 441.94 109.276 441.94C108.136 441.94 107.176 442.54 106.656 443.24V442.12H105.156V451ZM117.464 454.4L122.244 442.12H120.684L118.104 449.12L115.484 442.12H113.864L117.324 451.06L115.984 454.4H117.464ZM132.8 438.02C132.46 437.88 132.12 437.82 131.64 437.82C130.08 437.82 128.92 438.86 128.92 440.64V442.12H127.42V443.4H128.92V451H130.4V443.4H132.4V442.12H130.4V440.76C130.4 439.7 130.98 439.14 131.86 439.14C132.18 439.14 132.52 439.2 132.8 439.38V438.02ZM141.221 442.12H139.701V448.14C139.381 449.1 138.521 449.8 137.481 449.8C136.141 449.8 135.541 448.94 135.541 447.7V442.12H134.021V447.94C134.021 449.88 135.101 451.18 137.121 451.18C138.261 451.18 139.201 450.58 139.701 449.88V451H141.221V442.12ZM143.887 451H145.387V444.98C145.707 444.02 146.607 443.32 147.647 443.32C148.987 443.32 149.607 444.18 149.607 445.42V451H151.127V445.18C151.127 443.24 150.027 441.94 148.007 441.94C146.867 441.94 145.907 442.54 145.387 443.24V442.12H143.887V451ZM159.532 451H161.052V438H159.532V443.16C159.092 442.52 158.132 441.94 157.032 441.94C154.432 441.94 153.032 444.06 153.032 446.56C153.032 449.08 154.432 451.18 157.032 451.18C158.132 451.18 159.092 450.6 159.532 449.96V451ZM159.532 448.36C159.072 449.28 158.192 449.82 157.252 449.82C155.552 449.82 154.552 448.44 154.552 446.56C154.552 444.68 155.552 443.3 157.252 443.3C158.192 443.3 159.072 443.84 159.532 444.76V448.36ZM162.971 448.56C163.251 450.2 164.671 451.18 166.611 451.18C168.511 451.18 169.911 450.18 169.911 448.5C169.911 447.26 169.171 446.42 167.651 446.02L165.931 445.6C165.091 445.36 164.691 445.08 164.691 444.48C164.691 443.62 165.511 443.2 166.391 443.2C167.471 443.2 168.091 443.66 168.351 444.46H169.851C169.531 442.9 168.371 441.94 166.411 441.94C164.611 441.94 163.231 442.98 163.231 444.56C163.231 445.94 164.111 446.58 165.371 446.9L167.131 447.36C168.051 447.6 168.451 447.98 168.451 448.6C168.451 449.5 167.691 449.92 166.631 449.92C165.591 449.92 164.811 449.48 164.531 448.56H162.971ZM177.906 442.12H176.406V451H177.906V442.12ZM178.126 439.44C178.126 438.9 177.686 438.48 177.146 438.48C176.626 438.48 176.186 438.9 176.186 439.44C176.186 439.96 176.626 440.4 177.146 440.4C177.686 440.4 178.126 439.96 178.126 439.44ZM180.586 451H182.086V444.98C182.406 444.02 183.306 443.32 184.346 443.32C185.686 443.32 186.306 444.18 186.306 445.42V451H187.826V445.18C187.826 443.24 186.726 441.94 184.706 441.94C183.566 441.94 182.606 442.54 182.086 443.24V442.12H180.586V451ZM190.791 448.76C190.791 450.4 191.791 451.18 193.231 451.18C193.771 451.18 194.291 451.06 194.631 450.88V449.48C194.331 449.68 193.891 449.84 193.471 449.84C192.711 449.84 192.291 449.46 192.291 448.6V443.4H194.431V442.12H192.291V439.78H190.791V442.12H189.351V443.4H190.791V448.76ZM204.141 446.56C204.141 443.84 202.481 441.94 200.061 441.94C197.621 441.94 195.981 443.84 195.981 446.56C195.981 449.28 197.621 451.18 200.061 451.18C202.481 451.18 204.141 449.28 204.141 446.56ZM202.621 446.56C202.621 448.5 201.661 449.86 200.061 449.86C198.461 449.86 197.501 448.5 197.501 446.56C197.501 444.62 198.461 443.26 200.061 443.26C201.661 443.26 202.621 444.62 202.621 446.56ZM210.586 451H212.086V444.98C212.406 444.02 213.306 443.32 214.346 443.32C215.686 443.32 216.306 444.18 216.306 445.42V451H217.826V445.18C217.826 443.24 216.726 441.94 214.706 441.94C213.566 441.94 212.606 442.54 212.086 443.24V438H210.586V451ZM221.871 442.12H220.371V451H221.871V442.12ZM222.091 439.44C222.091 438.9 221.651 438.48 221.111 438.48C220.591 438.48 220.151 438.9 220.151 439.44C220.151 439.96 220.591 440.4 221.111 440.4C221.651 440.4 222.091 439.96 222.091 439.44ZM223.811 448.56C224.091 450.2 225.511 451.18 227.451 451.18C229.351 451.18 230.751 450.18 230.751 448.5C230.751 447.26 230.011 446.42 228.491 446.02L226.771 445.6C225.931 445.36 225.531 445.08 225.531 444.48C225.531 443.62 226.351 443.2 227.231 443.2C228.311 443.2 228.931 443.66 229.191 444.46H230.691C230.371 442.9 229.211 441.94 227.251 441.94C225.451 441.94 224.071 442.98 224.071 444.56C224.071 445.94 224.951 446.58 226.211 446.9L227.971 447.36C228.891 447.6 229.291 447.98 229.291 448.6C229.291 449.5 228.531 449.92 227.471 449.92C226.431 449.92 225.651 449.48 225.371 448.56H223.811ZM238.746 449.96C239.206 450.6 240.146 451.18 241.246 451.18C243.866 451.18 245.246 449.02 245.246 446.56C245.246 444.1 243.866 441.94 241.246 441.94C240.146 441.94 239.206 442.52 238.746 443.16V442.12H237.246V454.4H238.746V449.96ZM238.746 444.76C239.206 443.84 240.086 443.3 241.026 443.3C242.726 443.3 243.726 444.68 243.726 446.56C243.726 448.44 242.726 449.82 241.026 449.82C240.086 449.82 239.206 449.28 238.746 448.36V444.76ZM252.924 448.34C252.684 449.34 251.864 449.9 250.764 449.9C249.264 449.9 248.204 448.74 248.184 446.84H254.464V446.3C254.464 443.72 253.164 441.94 250.724 441.94C248.304 441.94 246.684 443.92 246.684 446.58C246.684 449.32 248.344 451.18 250.764 451.18C252.764 451.18 254.024 450.02 254.344 448.34H252.924ZM250.744 443.22C252.224 443.22 252.924 444.38 252.944 445.7H248.224C248.444 444.14 249.404 443.22 250.744 443.22ZM261.025 442.08C260.865 442 260.545 441.94 260.165 441.94C259.185 441.94 258.345 442.52 257.965 443.28V442.12H256.465V451H257.965V445.04C258.265 444 259.085 443.38 260.025 443.38C260.405 443.38 260.785 443.46 261.025 443.62V442.08ZM262.092 448.56C262.372 450.2 263.792 451.18 265.732 451.18C267.632 451.18 269.032 450.18 269.032 448.5C269.032 447.26 268.292 446.42 266.772 446.02L265.052 445.6C264.212 445.36 263.812 445.08 263.812 444.48C263.812 443.62 264.632 443.2 265.512 443.2C266.592 443.2 267.212 443.66 267.472 444.46H268.972C268.652 442.9 267.492 441.94 265.532 441.94C263.732 441.94 262.352 442.98 262.352 444.56C262.352 445.94 263.232 446.58 264.492 446.9L266.252 447.36C267.172 447.6 267.572 447.98 267.572 448.6C267.572 449.5 266.812 449.92 265.752 449.92C264.712 449.92 263.932 449.48 263.652 448.56H262.092ZM278.633 446.56C278.633 443.84 276.973 441.94 274.553 441.94C272.113 441.94 270.473 443.84 270.473 446.56C270.473 449.28 272.113 451.18 274.553 451.18C276.973 451.18 278.633 449.28 278.633 446.56ZM277.113 446.56C277.113 448.5 276.153 449.86 274.553 449.86C272.953 449.86 271.993 448.5 271.993 446.56C271.993 444.62 272.953 443.26 274.553 443.26C276.153 443.26 277.113 444.62 277.113 446.56ZM280.664 451H282.164V444.98C282.484 444.02 283.384 443.32 284.424 443.32C285.764 443.32 286.384 444.18 286.384 445.42V451H287.904V445.18C287.904 443.24 286.804 441.94 284.784 441.94C283.644 441.94 282.684 442.54 282.164 443.24V442.12H280.664V451ZM296.889 451V445.08C296.889 443.14 295.629 441.94 293.509 441.94C291.809 441.94 290.489 442.96 290.189 444.46H291.669C291.949 443.64 292.549 443.24 293.489 443.24C294.769 443.24 295.449 444.04 295.449 445.14V446.26C295.069 445.92 294.129 445.54 293.209 445.54C291.309 445.54 289.809 446.66 289.809 448.32C289.809 450.08 291.309 451.16 293.109 451.16C294.169 451.16 295.109 450.7 295.449 450.34V451H296.889ZM295.449 448.8C295.189 449.46 294.289 449.9 293.369 449.9C292.289 449.9 291.249 449.4 291.249 448.32C291.249 447.26 292.289 446.78 293.369 446.78C294.289 446.78 295.189 447.22 295.449 447.88V448.8ZM300.953 438H299.453V451H300.953V438ZM313.687 442.12H312.347L310.527 448.9L308.567 442.12H307.067L309.687 451H311.147L313.007 444.26L314.847 451H316.307L318.927 442.12H317.467L315.507 448.9L313.687 442.12ZM327.007 451V445.08C327.007 443.14 325.747 441.94 323.627 441.94C321.927 441.94 320.607 442.96 320.307 444.46H321.787C322.067 443.64 322.667 443.24 323.607 443.24C324.887 443.24 325.567 444.04 325.567 445.14V446.26C325.187 445.92 324.247 445.54 323.327 445.54C321.427 445.54 319.927 446.66 319.927 448.32C319.927 450.08 321.427 451.16 323.227 451.16C324.287 451.16 325.227 450.7 325.567 450.34V451H327.007ZM325.567 448.8C325.307 449.46 324.407 449.9 323.487 449.9C322.407 449.9 321.367 449.4 321.367 448.32C321.367 447.26 322.407 446.78 323.487 446.78C324.407 446.78 325.307 447.22 325.567 447.88V448.8ZM331.07 438H329.57V451H331.07V438ZM335.25 438H333.75V451H335.25V438ZM343.53 448.34C343.29 449.34 342.47 449.9 341.37 449.9C339.87 449.9 338.81 448.74 338.79 446.84H345.07V446.3C345.07 443.72 343.77 441.94 341.33 441.94C338.91 441.94 337.29 443.92 337.29 446.58C337.29 449.32 338.95 451.18 341.37 451.18C343.37 451.18 344.63 450.02 344.95 448.34H343.53ZM341.35 443.22C342.83 443.22 343.53 444.38 343.55 445.7H338.83C339.05 444.14 340.01 443.22 341.35 443.22ZM347.49 448.76C347.49 450.4 348.49 451.18 349.93 451.18C350.47 451.18 350.99 451.06 351.33 450.88V449.48C351.03 449.68 350.59 449.84 350.17 449.84C349.41 449.84 348.99 449.46 348.99 448.6V443.4H351.13V442.12H348.99V439.78H347.49V442.12H346.05V443.4H347.49V448.76ZM352.953 450.02C352.953 450.64 353.433 451.1 354.033 451.1C354.613 451.1 355.093 450.64 355.093 450.02C355.093 449.4 354.613 448.92 354.033 448.92C353.433 448.92 352.953 449.4 352.953 450.02ZM365.365 438.72L360.565 451H362.165L363.565 447.3H368.625L370.045 451H371.645L366.845 438.72H365.365ZM366.085 440.68L368.085 445.92H364.085L366.085 440.68ZM374.899 438H373.399V451H374.899V438ZM379.078 442.12H377.578V451H379.078V442.12ZM379.298 439.44C379.298 438.9 378.858 438.48 378.318 438.48C377.798 438.48 377.358 438.9 377.358 439.44C377.358 439.96 377.798 440.4 378.318 440.4C378.858 440.4 379.298 439.96 379.298 439.44ZM381.118 446.56C381.118 449.32 382.778 451.18 385.158 451.18C387.158 451.18 388.418 450.02 388.718 448.32H387.178C386.978 449.28 386.218 449.86 385.158 449.86C383.638 449.86 382.638 448.5 382.638 446.56C382.638 444.62 383.638 443.26 385.158 443.26C386.218 443.26 386.978 443.84 387.178 444.8H388.718C388.418 443.1 387.158 441.94 385.158 441.94C382.778 441.94 381.118 443.8 381.118 446.56ZM396.245 448.34C396.005 449.34 395.185 449.9 394.085 449.9C392.585 449.9 391.525 448.74 391.505 446.84H397.785V446.3C397.785 443.72 396.485 441.94 394.045 441.94C391.625 441.94 390.005 443.92 390.005 446.58C390.005 449.32 391.665 451.18 394.085 451.18C396.085 451.18 397.345 450.02 397.665 448.34H396.245ZM394.065 443.22C395.545 443.22 396.245 444.38 396.265 445.7H391.545C391.765 444.14 392.725 443.22 394.065 443.22ZM410.059 451H411.579V438H410.059V443.16C409.619 442.52 408.659 441.94 407.559 441.94C404.959 441.94 403.559 444.06 403.559 446.56C403.559 449.08 404.959 451.18 407.559 451.18C408.659 451.18 409.619 450.6 410.059 449.96V451ZM410.059 448.36C409.599 449.28 408.719 449.82 407.779 449.82C406.079 449.82 405.079 448.44 405.079 446.56C405.079 444.68 406.079 443.3 407.779 443.3C408.719 443.3 409.599 443.84 410.059 444.76V448.36ZM415.738 442.12H414.238V451H415.738V442.12ZM415.958 439.44C415.958 438.9 415.518 438.48 414.978 438.48C414.458 438.48 414.018 438.9 414.018 439.44C414.018 439.96 414.458 440.4 414.978 440.4C415.518 440.4 415.958 439.96 415.958 439.44ZM417.678 448.56C417.958 450.2 419.378 451.18 421.318 451.18C423.218 451.18 424.618 450.18 424.618 448.5C424.618 447.26 423.878 446.42 422.358 446.02L420.638 445.6C419.798 445.36 419.398 445.08 419.398 444.48C419.398 443.62 420.218 443.2 421.098 443.2C422.178 443.2 422.798 443.66 423.058 444.46H424.558C424.238 442.9 423.078 441.94 421.118 441.94C419.318 441.94 417.938 442.98 417.938 444.56C417.938 445.94 418.818 446.58 420.078 446.9L421.838 447.36C422.758 447.6 423.158 447.98 423.158 448.6C423.158 449.5 422.398 449.92 421.338 449.92C420.298 449.92 419.518 449.48 419.238 448.56H417.678ZM433.178 451V445.08C433.178 443.14 431.918 441.94 429.798 441.94C428.098 441.94 426.778 442.96 426.478 444.46H427.958C428.238 443.64 428.838 443.24 429.778 443.24C431.058 443.24 431.738 444.04 431.738 445.14V446.26C431.358 445.92 430.418 445.54 429.498 445.54C427.598 445.54 426.098 446.66 426.098 448.32C426.098 450.08 427.598 451.16 429.398 451.16C430.458 451.16 431.398 450.7 431.738 450.34V451H433.178ZM431.738 448.8C431.478 449.46 430.578 449.9 429.658 449.9C428.578 449.9 427.538 449.4 427.538 448.32C427.538 447.26 428.578 446.78 429.658 446.78C430.578 446.78 431.478 447.22 431.738 447.88V448.8ZM441.562 450.4C441.562 452.32 440.722 453.32 439.122 453.32C437.902 453.32 437.062 452.78 436.802 451.66H435.322C435.602 453.48 436.962 454.6 439.122 454.6C441.402 454.6 443.082 453.22 443.082 450.3V442.12H441.562V443.12C441.122 442.5 440.182 441.94 439.082 441.94C436.482 441.94 435.102 444.08 435.102 446.44C435.102 448.78 436.482 450.94 439.082 450.94C440.182 450.94 441.122 450.36 441.562 449.74V450.4ZM441.562 448.2C441.102 449.04 440.262 449.58 439.302 449.58C437.622 449.58 436.642 448.26 436.642 446.44C436.642 444.6 437.622 443.28 439.302 443.28C440.262 443.28 441.102 443.82 441.562 444.66V448.2ZM450.322 442.08C450.162 442 449.842 441.94 449.462 441.94C448.482 441.94 447.642 442.52 447.262 443.28V442.12H445.762V451H447.262V445.04C447.562 444 448.382 443.38 449.322 443.38C449.702 443.38 450.082 443.46 450.322 443.62V442.08ZM457.534 448.34C457.294 449.34 456.474 449.9 455.374 449.9C453.874 449.9 452.814 448.74 452.794 446.84H459.074V446.3C459.074 443.72 457.774 441.94 455.334 441.94C452.914 441.94 451.294 443.92 451.294 446.58C451.294 449.32 452.954 451.18 455.374 451.18C457.374 451.18 458.634 450.02 458.954 448.34H457.534ZM455.354 443.22C456.834 443.22 457.534 444.38 457.554 445.7H452.834C453.054 444.14 454.014 443.22 455.354 443.22ZM466.713 448.34C466.473 449.34 465.653 449.9 464.553 449.9C463.053 449.9 461.993 448.74 461.973 446.84H468.253V446.3C468.253 443.72 466.953 441.94 464.513 441.94C462.093 441.94 460.473 443.92 460.473 446.58C460.473 449.32 462.133 451.18 464.553 451.18C466.553 451.18 467.813 450.02 468.133 448.34H466.713ZM464.533 443.22C466.013 443.22 466.713 444.38 466.733 445.7H462.013C462.233 444.14 463.193 443.22 464.533 443.22ZM469.553 448.56C469.833 450.2 471.253 451.18 473.193 451.18C475.093 451.18 476.493 450.18 476.493 448.5C476.493 447.26 475.753 446.42 474.233 446.02L472.513 445.6C471.673 445.36 471.273 445.08 471.273 444.48C471.273 443.62 472.093 443.2 472.973 443.2C474.053 443.2 474.673 443.66 474.933 444.46H476.433C476.113 442.9 474.953 441.94 472.993 441.94C471.193 441.94 469.813 442.98 469.813 444.56C469.813 445.94 470.693 446.58 471.953 446.9L473.713 447.36C474.633 447.6 475.033 447.98 475.033 448.6C475.033 449.5 474.273 449.92 473.213 449.92C472.173 449.92 471.393 449.48 471.113 448.56H469.553ZM489.428 451V445.08C489.428 443.14 488.168 441.94 486.048 441.94C484.348 441.94 483.028 442.96 482.728 444.46H484.208C484.488 443.64 485.088 443.24 486.028 443.24C487.308 443.24 487.988 444.04 487.988 445.14V446.26C487.608 445.92 486.668 445.54 485.748 445.54C483.848 445.54 482.348 446.66 482.348 448.32C482.348 450.08 483.848 451.16 485.648 451.16C486.708 451.16 487.648 450.7 487.988 450.34V451H489.428ZM487.988 448.8C487.728 449.46 486.828 449.9 485.908 449.9C484.828 449.9 483.788 449.4 483.788 448.32C483.788 447.26 484.828 446.78 485.908 446.78C486.828 446.78 487.728 447.22 487.988 447.88V448.8ZM491.992 451H493.492V444.98C493.812 444.02 494.712 443.32 495.752 443.32C497.092 443.32 497.712 444.18 497.712 445.42V451H499.232V445.18C499.232 443.24 498.132 441.94 496.112 441.94C494.972 441.94 494.012 442.54 493.492 443.24V442.12H491.992V451ZM507.638 451H509.158V438H507.638V443.16C507.198 442.52 506.238 441.94 505.138 441.94C502.538 441.94 501.138 444.06 501.138 446.56C501.138 449.08 502.538 451.18 505.138 451.18C506.238 451.18 507.198 450.6 507.638 449.96V451ZM507.638 448.36C507.178 449.28 506.298 449.82 505.358 449.82C503.658 449.82 502.658 448.44 502.658 446.56C502.658 444.68 503.658 443.3 505.358 443.3C506.298 443.3 507.178 443.84 507.638 444.76V448.36ZM520.791 442.08C520.631 442 520.311 441.94 519.931 441.94C518.951 441.94 518.111 442.52 517.731 443.28V442.12H516.231V451H517.731V445.04C518.031 444 518.851 443.38 519.791 443.38C520.171 443.38 520.551 443.46 520.791 443.62V442.08ZM528.862 451V445.08C528.862 443.14 527.602 441.94 525.482 441.94C523.782 441.94 522.462 442.96 522.162 444.46H523.642C523.922 443.64 524.522 443.24 525.462 443.24C526.742 443.24 527.422 444.04 527.422 445.14V446.26C527.042 445.92 526.102 445.54 525.182 445.54C523.282 445.54 521.782 446.66 521.782 448.32C521.782 450.08 523.282 451.16 525.082 451.16C526.142 451.16 527.082 450.7 527.422 450.34V451H528.862ZM527.422 448.8C527.162 449.46 526.262 449.9 525.342 449.9C524.262 449.9 523.222 449.4 523.222 448.32C523.222 447.26 524.262 446.78 525.342 446.78C526.262 446.78 527.162 447.22 527.422 447.88V448.8ZM532.926 442.12H531.426V451H532.926V442.12ZM533.146 439.44C533.146 438.9 532.706 438.48 532.166 438.48C531.646 438.48 531.206 438.9 531.206 439.44C531.206 439.96 531.646 440.4 532.166 440.4C532.706 440.4 533.146 439.96 533.146 439.44ZM534.866 448.56C535.146 450.2 536.566 451.18 538.506 451.18C540.406 451.18 541.806 450.18 541.806 448.5C541.806 447.26 541.066 446.42 539.546 446.02L537.826 445.6C536.986 445.36 536.586 445.08 536.586 444.48C536.586 443.62 537.406 443.2 538.286 443.2C539.366 443.2 539.986 443.66 540.246 444.46H541.746C541.426 442.9 540.266 441.94 538.306 441.94C536.506 441.94 535.126 442.98 535.126 444.56C535.126 445.94 536.006 446.58 537.266 446.9L539.026 447.36C539.946 447.6 540.346 447.98 540.346 448.6C540.346 449.5 539.586 449.92 538.526 449.92C537.486 449.92 536.706 449.48 536.426 448.56H534.866ZM549.487 448.34C549.247 449.34 548.427 449.9 547.327 449.9C545.827 449.9 544.767 448.74 544.747 446.84H551.027V446.3C551.027 443.72 549.727 441.94 547.287 441.94C544.867 441.94 543.247 443.92 543.247 446.58C543.247 449.32 544.907 451.18 547.327 451.18C549.327 451.18 550.587 450.02 550.907 448.34H549.487ZM547.307 443.22C548.787 443.22 549.487 444.38 549.507 445.7H544.787C545.007 444.14 545.967 443.22 547.307 443.22ZM552.327 448.56C552.607 450.2 554.027 451.18 555.967 451.18C557.867 451.18 559.267 450.18 559.267 448.5C559.267 447.26 558.527 446.42 557.007 446.02L555.287 445.6C554.447 445.36 554.047 445.08 554.047 444.48C554.047 443.62 554.867 443.2 555.747 443.2C556.827 443.2 557.447 443.66 557.707 444.46H559.207C558.887 442.9 557.727 441.94 555.767 441.94C553.967 441.94 552.587 442.98 552.587 444.56C552.587 445.94 553.467 446.58 554.727 446.9L556.487 447.36C557.407 447.6 557.807 447.98 557.807 448.6C557.807 449.5 557.047 449.92 555.987 449.92C554.947 449.92 554.167 449.48 553.887 448.56H552.327ZM572.202 451V445.08C572.202 443.14 570.942 441.94 568.822 441.94C567.122 441.94 565.802 442.96 565.502 444.46H566.982C567.262 443.64 567.862 443.24 568.802 443.24C570.082 443.24 570.762 444.04 570.762 445.14V446.26C570.382 445.92 569.442 445.54 568.522 445.54C566.622 445.54 565.122 446.66 565.122 448.32C565.122 450.08 566.622 451.16 568.422 451.16C569.482 451.16 570.422 450.7 570.762 450.34V451H572.202ZM570.762 448.8C570.502 449.46 569.602 449.9 568.682 449.9C567.602 449.9 566.562 449.4 566.562 448.32C566.562 447.26 567.602 446.78 568.682 446.78C569.602 446.78 570.502 447.22 570.762 447.88V448.8ZM585.04 451H586.56V438H585.04V443.16C584.6 442.52 583.64 441.94 582.54 441.94C579.94 441.94 578.54 444.06 578.54 446.56C578.54 449.08 579.94 451.18 582.54 451.18C583.64 451.18 584.6 450.6 585.04 449.96V451ZM585.04 448.36C584.58 449.28 583.7 449.82 582.76 449.82C581.06 449.82 580.06 448.44 580.06 446.56C580.06 444.68 581.06 443.3 582.76 443.3C583.7 443.3 584.58 443.84 585.04 444.76V448.36ZM590.719 442.12H589.219V451H590.719V442.12ZM590.939 439.44C590.939 438.9 590.499 438.48 589.959 438.48C589.439 438.48 588.999 438.9 588.999 439.44C588.999 439.96 589.439 440.4 589.959 440.4C590.499 440.4 590.939 439.96 590.939 439.44ZM592.659 448.56C592.939 450.2 594.359 451.18 596.299 451.18C598.199 451.18 599.599 450.18 599.599 448.5C599.599 447.26 598.859 446.42 597.339 446.02L595.619 445.6C594.779 445.36 594.379 445.08 594.379 444.48C594.379 443.62 595.199 443.2 596.079 443.2C597.159 443.2 597.779 443.66 598.039 444.46H599.539C599.219 442.9 598.059 441.94 596.099 441.94C594.299 441.94 592.919 442.98 592.919 444.56C592.919 445.94 593.799 446.58 595.059 446.9L596.819 447.36C597.739 447.6 598.139 447.98 598.139 448.6C598.139 449.5 597.379 449.92 596.319 449.92C595.279 449.92 594.499 449.48 594.219 448.56H592.659ZM603.18 449.96C603.64 450.6 604.58 451.18 605.68 451.18C608.3 451.18 609.68 449.02 609.68 446.56C609.68 444.1 608.3 441.94 605.68 441.94C604.58 441.94 603.64 442.52 603.18 443.16V442.12H601.68V454.4H603.18V449.96ZM603.18 444.76C603.64 443.84 604.52 443.3 605.46 443.3C607.16 443.3 608.16 444.68 608.16 446.56C608.16 448.44 607.16 449.82 605.46 449.82C604.52 449.82 603.64 449.28 603.18 448.36V444.76ZM618.799 442.12H617.279V448.14C616.959 449.1 616.099 449.8 615.059 449.8C613.719 449.8 613.119 448.94 613.119 447.7V442.12H611.599V447.94C611.599 449.88 612.679 451.18 614.699 451.18C615.839 451.18 616.779 450.58 617.279 449.88V451H618.799V442.12ZM621.885 448.76C621.885 450.4 622.885 451.18 624.325 451.18C624.865 451.18 625.385 451.06 625.725 450.88V449.48C625.425 449.68 624.985 449.84 624.565 449.84C623.805 449.84 623.385 449.46 623.385 448.6V443.4H625.525V442.12H623.385V439.78H621.885V442.12H620.445V443.4H621.885V448.76ZM633.315 448.34C633.075 449.34 632.255 449.9 631.155 449.9C629.655 449.9 628.595 448.74 628.575 446.84H634.855V446.3C634.855 443.72 633.555 441.94 631.115 441.94C628.695 441.94 627.075 443.92 627.075 446.58C627.075 449.32 628.735 451.18 631.155 451.18C633.155 451.18 634.415 450.02 634.735 448.34H633.315ZM631.135 443.22C632.615 443.22 633.315 444.38 633.335 445.7H628.615C628.835 444.14 629.795 443.22 631.135 443.22ZM647.71 451V445.08C647.71 443.14 646.45 441.94 644.33 441.94C642.63 441.94 641.31 442.96 641.01 444.46H642.49C642.77 443.64 643.37 443.24 644.31 443.24C645.59 443.24 646.27 444.04 646.27 445.14V446.26C645.89 445.92 644.95 445.54 644.03 445.54C642.13 445.54 640.63 446.66 640.63 448.32C640.63 450.08 642.13 451.16 643.93 451.16C644.99 451.16 645.93 450.7 646.27 450.34V451H647.71ZM646.27 448.8C646.01 449.46 645.11 449.9 644.19 449.9C643.11 449.9 642.07 449.4 642.07 448.32C642.07 447.26 643.11 446.78 644.19 446.78C645.11 446.78 646.01 447.22 646.27 447.88V448.8ZM656.094 450.4C656.094 452.32 655.254 453.32 653.654 453.32C652.434 453.32 651.594 452.78 651.334 451.66H649.854C650.134 453.48 651.494 454.6 653.654 454.6C655.934 454.6 657.614 453.22 657.614 450.3V442.12H656.094V443.12C655.654 442.5 654.714 441.94 653.614 441.94C651.014 441.94 649.634 444.08 649.634 446.44C649.634 448.78 651.014 450.94 653.614 450.94C654.714 450.94 655.654 450.36 656.094 449.74V450.4ZM656.094 448.2C655.634 449.04 654.794 449.58 653.834 449.58C652.154 449.58 651.174 448.26 651.174 446.44C651.174 444.6 652.154 443.28 653.834 443.28C654.794 443.28 655.634 443.82 656.094 444.66V448.2ZM666.733 451V445.08C666.733 443.14 665.473 441.94 663.353 441.94C661.653 441.94 660.333 442.96 660.033 444.46H661.513C661.793 443.64 662.393 443.24 663.333 443.24C664.613 443.24 665.293 444.04 665.293 445.14V446.26C664.913 445.92 663.973 445.54 663.053 445.54C661.153 445.54 659.653 446.66 659.653 448.32C659.653 450.08 661.153 451.16 662.953 451.16C664.013 451.16 664.953 450.7 665.293 450.34V451H666.733ZM665.293 448.8C665.033 449.46 664.133 449.9 663.213 449.9C662.133 449.9 661.093 449.4 661.093 448.32C661.093 447.26 662.133 446.78 663.213 446.78C664.133 446.78 665.033 447.22 665.293 447.88V448.8ZM670.797 442.12H669.297V451H670.797V442.12ZM671.017 439.44C671.017 438.9 670.577 438.48 670.037 438.48C669.517 438.48 669.077 438.9 669.077 439.44C669.077 439.96 669.517 440.4 670.037 440.4C670.577 440.4 671.017 439.96 671.017 439.44ZM673.477 451H674.977V444.98C675.297 444.02 676.197 443.32 677.237 443.32C678.577 443.32 679.197 444.18 679.197 445.42V451H680.717V445.18C680.717 443.24 679.617 441.94 677.597 441.94C676.457 441.94 675.497 442.54 674.977 443.24V442.12H673.477V451ZM682.522 448.56C682.802 450.2 684.222 451.18 686.162 451.18C688.062 451.18 689.462 450.18 689.462 448.5C689.462 447.26 688.722 446.42 687.202 446.02L685.482 445.6C684.642 445.36 684.242 445.08 684.242 444.48C684.242 443.62 685.062 443.2 685.942 443.2C687.022 443.2 687.642 443.66 687.902 444.46H689.402C689.082 442.9 687.922 441.94 685.962 441.94C684.162 441.94 682.782 442.98 682.782 444.56C682.782 445.94 683.662 446.58 684.922 446.9L686.682 447.36C687.602 447.6 688.002 447.98 688.002 448.6C688.002 449.5 687.242 449.92 686.182 449.92C685.142 449.92 684.362 449.48 684.082 448.56H682.522ZM691.963 448.76C691.963 450.4 692.963 451.18 694.403 451.18C694.943 451.18 695.463 451.06 695.803 450.88V449.48C695.503 449.68 695.063 449.84 694.643 449.84C693.883 449.84 693.463 449.46 693.463 448.6V443.4H695.603V442.12H693.463V439.78H691.963V442.12H690.523V443.4H691.963V448.76ZM53.76 475.76C53.76 477.4 54.76 478.18 56.2 478.18C56.74 478.18 57.26 478.06 57.6 477.88V476.48C57.3 476.68 56.86 476.84 56.44 476.84C55.68 476.84 55.26 476.46 55.26 475.6V470.4H57.4V469.12H55.26V466.78H53.76V469.12H52.32V470.4H53.76V475.76ZM59.6877 478H61.1877V471.98C61.5077 471.02 62.4077 470.32 63.4477 470.32C64.7877 470.32 65.4077 471.18 65.4077 472.42V478H66.9277V472.18C66.9277 470.24 65.8277 468.94 63.8077 468.94C62.6677 468.94 61.7077 469.54 61.1877 470.24V465H59.6877V478ZM75.0728 475.34C74.8328 476.34 74.0128 476.9 72.9128 476.9C71.4128 476.9 70.3528 475.74 70.3328 473.84H76.6128V473.3C76.6128 470.72 75.3128 468.94 72.8728 468.94C70.4528 468.94 68.8328 470.92 68.8328 473.58C68.8328 476.32 70.4928 478.18 72.9128 478.18C74.9128 478.18 76.1728 477.02 76.4928 475.34H75.0728ZM72.8928 470.22C74.3728 470.22 75.0728 471.38 75.0928 472.7H70.3728C70.5928 471.14 71.5528 470.22 72.8928 470.22ZM84.5275 476.96C84.9875 477.6 85.9275 478.18 87.0275 478.18C89.6475 478.18 91.0275 476.02 91.0275 473.56C91.0275 471.1 89.6475 468.94 87.0275 468.94C85.9275 468.94 84.9875 469.52 84.5275 470.16V469.12H83.0275V481.4H84.5275V476.96ZM84.5275 471.76C84.9875 470.84 85.8675 470.3 86.8075 470.3C88.5075 470.3 89.5075 471.68 89.5075 473.56C89.5075 475.44 88.5075 476.82 86.8075 476.82C85.8675 476.82 84.9875 476.28 84.5275 475.36V471.76ZM97.6266 469.08C97.4666 469 97.1466 468.94 96.7666 468.94C95.7866 468.94 94.9466 469.52 94.5666 470.28V469.12H93.0666V478H94.5666V472.04C94.8666 471 95.6866 470.38 96.6266 470.38C97.0066 470.38 97.3866 470.46 97.6266 470.62V469.08ZM106.758 473.56C106.758 470.84 105.098 468.94 102.678 468.94C100.238 468.94 98.5984 470.84 98.5984 473.56C98.5984 476.28 100.238 478.18 102.678 478.18C105.098 478.18 106.758 476.28 106.758 473.56ZM105.238 473.56C105.238 475.5 104.278 476.86 102.678 476.86C101.078 476.86 100.118 475.5 100.118 473.56C100.118 471.62 101.078 470.26 102.678 470.26C104.278 470.26 105.238 471.62 105.238 473.56ZM110.289 476.96C110.749 477.6 111.689 478.18 112.789 478.18C115.409 478.18 116.789 476.02 116.789 473.56C116.789 471.1 115.409 468.94 112.789 468.94C111.689 468.94 110.749 469.52 110.289 470.16V469.12H108.789V481.4H110.289V476.96ZM110.289 471.76C110.749 470.84 111.629 470.3 112.569 470.3C114.269 470.3 115.269 471.68 115.269 473.56C115.269 475.44 114.269 476.82 112.569 476.82C111.629 476.82 110.749 476.28 110.289 475.36V471.76ZM126.387 473.56C126.387 470.84 124.727 468.94 122.307 468.94C119.867 468.94 118.227 470.84 118.227 473.56C118.227 476.28 119.867 478.18 122.307 478.18C124.727 478.18 126.387 476.28 126.387 473.56ZM124.867 473.56C124.867 475.5 123.907 476.86 122.307 476.86C120.707 476.86 119.747 475.5 119.747 473.56C119.747 471.62 120.707 470.26 122.307 470.26C123.907 470.26 124.867 471.62 124.867 473.56ZM127.678 475.56C127.958 477.2 129.378 478.18 131.318 478.18C133.218 478.18 134.618 477.18 134.618 475.5C134.618 474.26 133.878 473.42 132.358 473.02L130.638 472.6C129.798 472.36 129.398 472.08 129.398 471.48C129.398 470.62 130.218 470.2 131.098 470.2C132.178 470.2 132.798 470.66 133.058 471.46H134.558C134.238 469.9 133.078 468.94 131.118 468.94C129.318 468.94 127.938 469.98 127.938 471.56C127.938 472.94 128.818 473.58 130.078 473.9L131.838 474.36C132.758 474.6 133.158 474.98 133.158 475.6C133.158 476.5 132.398 476.92 131.338 476.92C130.298 476.92 129.518 476.48 129.238 475.56H127.678ZM143.178 478V472.08C143.178 470.14 141.918 468.94 139.798 468.94C138.098 468.94 136.778 469.96 136.478 471.46H137.958C138.238 470.64 138.838 470.24 139.778 470.24C141.058 470.24 141.738 471.04 141.738 472.14V473.26C141.358 472.92 140.418 472.54 139.498 472.54C137.598 472.54 136.098 473.66 136.098 475.32C136.098 477.08 137.598 478.16 139.398 478.16C140.458 478.16 141.398 477.7 141.738 477.34V478H143.178ZM141.738 475.8C141.478 476.46 140.578 476.9 139.658 476.9C138.578 476.9 137.538 476.4 137.538 475.32C137.538 474.26 138.578 473.78 139.658 473.78C140.578 473.78 141.478 474.22 141.738 474.88V475.8ZM147.242 465H145.742V478H147.242V465ZM155.836 469.12H154.336V478H155.836V469.12ZM156.056 466.44C156.056 465.9 155.616 465.48 155.076 465.48C154.556 465.48 154.116 465.9 154.116 466.44C154.116 466.96 154.556 467.4 155.076 467.4C155.616 467.4 156.056 466.96 156.056 466.44ZM158.516 478H160.016V471.98C160.336 471.02 161.236 470.32 162.276 470.32C163.616 470.32 164.236 471.18 164.236 472.42V478H165.756V472.18C165.756 470.24 164.656 468.94 162.636 468.94C161.496 468.94 160.536 469.54 160.016 470.24V469.12H158.516V478ZM176.595 465.72L171.795 478H173.395L174.795 474.3H179.855L181.275 478H182.875L178.075 465.72H176.595ZM177.315 467.68L179.315 472.92H175.315L177.315 467.68ZM189.189 469.08C189.029 469 188.709 468.94 188.329 468.94C187.349 468.94 186.509 469.52 186.129 470.28V469.12H184.629V478H186.129V472.04C186.429 471 187.249 470.38 188.189 470.38C188.569 470.38 188.949 470.46 189.189 470.62V469.08ZM197.26 478V472.08C197.26 470.14 196 468.94 193.88 468.94C192.18 468.94 190.86 469.96 190.56 471.46H192.04C192.32 470.64 192.92 470.24 193.86 470.24C195.14 470.24 195.82 471.04 195.82 472.14V473.26C195.44 472.92 194.5 472.54 193.58 472.54C191.68 472.54 190.18 473.66 190.18 475.32C190.18 477.08 191.68 478.16 193.48 478.16C194.54 478.16 195.48 477.7 195.82 477.34V478H197.26ZM195.82 475.8C195.56 476.46 194.66 476.9 193.74 476.9C192.66 476.9 191.62 476.4 191.62 475.32C191.62 474.26 192.66 473.78 193.74 473.78C194.66 473.78 195.56 474.22 195.82 474.88V475.8ZM205.644 477.4C205.644 479.32 204.804 480.32 203.204 480.32C201.984 480.32 201.144 479.78 200.884 478.66H199.404C199.684 480.48 201.044 481.6 203.204 481.6C205.484 481.6 207.164 480.22 207.164 477.3V469.12H205.644V470.12C205.204 469.5 204.264 468.94 203.164 468.94C200.564 468.94 199.184 471.08 199.184 473.44C199.184 475.78 200.564 477.94 203.164 477.94C204.264 477.94 205.204 477.36 205.644 476.74V477.4ZM205.644 475.2C205.184 476.04 204.344 476.58 203.384 476.58C201.704 476.58 200.724 475.26 200.724 473.44C200.724 471.6 201.704 470.28 203.384 470.28C204.344 470.28 205.184 470.82 205.644 471.66V475.2ZM217.364 473.56C217.364 470.84 215.704 468.94 213.284 468.94C210.844 468.94 209.204 470.84 209.204 473.56C209.204 476.28 210.844 478.18 213.284 478.18C215.704 478.18 217.364 476.28 217.364 473.56ZM215.844 473.56C215.844 475.5 214.884 476.86 213.284 476.86C211.684 476.86 210.724 475.5 210.724 473.56C210.724 471.62 211.684 470.26 213.284 470.26C214.884 470.26 215.844 471.62 215.844 473.56ZM219.395 478H220.895V471.98C221.215 471.02 222.115 470.32 223.155 470.32C224.495 470.32 225.115 471.18 225.115 472.42V478H226.635V472.18C226.635 470.24 225.535 468.94 223.515 468.94C222.375 468.94 221.415 469.54 220.895 470.24V469.12H219.395V478ZM232.994 471.86C232.994 475.68 235.394 478.18 238.494 478.18C241.054 478.18 242.774 476.68 243.274 474.38H241.714C241.214 475.82 240.194 476.76 238.494 476.76C236.134 476.76 234.574 474.76 234.574 471.86C234.574 468.94 236.154 466.96 238.494 466.96C240.194 466.96 241.214 467.9 241.714 469.32H243.274C242.774 467.04 241.074 465.54 238.494 465.54C235.394 465.54 232.994 468.04 232.994 471.86ZM252.891 473.56C252.891 470.84 251.231 468.94 248.811 468.94C246.371 468.94 244.731 470.84 244.731 473.56C244.731 476.28 246.371 478.18 248.811 478.18C251.231 478.18 252.891 476.28 252.891 473.56ZM251.371 473.56C251.371 475.5 250.411 476.86 248.811 476.86C247.211 476.86 246.251 475.5 246.251 473.56C246.251 471.62 247.211 470.26 248.811 470.26C250.411 470.26 251.371 471.62 251.371 473.56ZM262.002 469.12H260.482V475.14C260.162 476.1 259.302 476.8 258.262 476.8C256.922 476.8 256.322 475.94 256.322 474.7V469.12H254.802V474.94C254.802 476.88 255.882 478.18 257.902 478.18C259.042 478.18 259.982 477.58 260.482 476.88V478H262.002V469.12ZM269.228 469.08C269.068 469 268.748 468.94 268.368 468.94C267.388 468.94 266.548 469.52 266.168 470.28V469.12H264.668V478H266.168V472.04C266.468 471 267.288 470.38 268.228 470.38C268.608 470.38 268.988 470.46 269.228 470.62V469.08ZM271.514 475.76C271.514 477.4 272.514 478.18 273.954 478.18C274.494 478.18 275.014 478.06 275.354 477.88V476.48C275.054 476.68 274.614 476.84 274.194 476.84C273.434 476.84 273.014 476.46 273.014 475.6V470.4H275.154V469.12H273.014V466.78H271.514V469.12H270.074V470.4H271.514V475.76ZM276.976 477.02C276.976 477.64 277.456 478.1 278.056 478.1C278.636 478.1 279.116 477.64 279.116 477.02C279.116 476.4 278.636 475.92 278.056 475.92C277.456 475.92 276.976 476.4 276.976 477.02Z" fill="#1C1C1C"/>
<path opacity="0.6" d="M301 207.5L297.25 212.263L297.25 202.737L301 207.5Z" fill="#FFA776"/>
<path opacity="0.7" d="M309 207.5L305.25 212.263L305.25 202.737L309 207.5Z" fill="#FFA776"/>
<path opacity="0.8" d="M317 207.5L313.25 212.263L313.25 202.737L317 207.5Z" fill="#FFA776"/>
<path d="M325 207.5L321.25 212.263L321.25 202.737L325 207.5Z" fill="#FFA776"/>
<path d="M333 207.5L329.25 212.263L329.25 202.737L333 207.5Z" fill="#FFA776"/>
<path opacity="0.6" d="M481 207.5L484.75 202.737L484.75 212.263L481 207.5Z" fill="#FFA776"/>
<path opacity="0.7" d="M473 207.5L476.75 202.737L476.75 212.263L473 207.5Z" fill="#FFA776"/>
<path opacity="0.8" d="M465 207.5L468.75 202.737L468.75 212.263L465 207.5Z" fill="#FFA776"/>
<path d="M457 207.5L460.75 202.737L460.75 212.263L457 207.5Z" fill="#FFA776"/>
<path d="M449 207.5L452.75 202.737L452.75 212.263L449 207.5Z" fill="#FFA776"/>
<circle cx="249" cy="208" r="39" fill="#FF7C7C"/>
<path d="M264.581 224.877C264.581 216.432 257.735 209.586 249.29 209.586C240.846 209.586 234 216.432 234 224.877" stroke="#F9FAFC" stroke-width="5"/>
<circle cx="249.195" cy="195.195" r="7.19549" fill="#F9FAFC"/>
<circle cx="533" cy="208" r="39" fill="#FF7C7C"/>
<path d="M548.581 224.877C548.581 216.432 541.735 209.586 533.29 209.586C524.846 209.586 518 216.432 518 224.877" stroke="#F9FAFC" stroke-width="5"/>
<circle cx="533.195" cy="195.195" r="7.19549" fill="#F9FAFC"/>
<circle cx="390.773" cy="207.773" r="49.7726" fill="#8987FF"/>
<path d="M409.094 183V220.953L399.66 223.004L397.609 232.438H373V183H409.094Z" fill="#BFBEFF"/>
<path d="M409.094 183V220.953L399.66 223.004L397.609 232.438H373V183H409.094Z" fill="#C8C7FF"/>
<path d="M397.609 220.953V232.438L409.094 220.953H397.609Z" fill="#EEEEFF"/>
<rect x="377" y="188" width="28" height="3" rx="1.5" fill="#8987FF" fill-opacity="0.6"/>
<rect x="377" y="195" width="28" height="3" rx="1.5" fill="#8987FF" fill-opacity="0.4"/>
<rect opacity="0.3" x="377" y="202" width="28" height="3" rx="1.5" fill="#8987FF"/>
<rect opacity="0.2" x="377" y="209" width="28" height="3" rx="1.5" fill="#8987FF"/>
<defs>
<filter id="filter0_d" x="0" y="0" width="782" height="534" filterUnits="userSpaceOnUse" color-interpolation-filters="sRGB">
<feFlood flood-opacity="0" result="BackgroundImageFix"/>
<feColorMatrix in="SourceAlpha" type="matrix" values="0 0 0 0 0 0 0 0 0 0 0 0 0 0 0 0 0 0 127 0"/>
<feOffset dy="3"/>
<feGaussianBlur stdDeviation="8.5"/>
<feColorMatrix type="matrix" values="0 0 0 0 0 0 0 0 0 0 0 0 0 0 0 0 0 0 0.1 0"/>
<feBlend mode="normal" in2="BackgroundImageFix" result="effect1_dropShadow"/>
<feBlend mode="normal" in="SourceGraphic" in2="effect1_dropShadow" result="shape"/>
</filter>
<linearGradient id="paint0_linear" x1="750" y1="407.937" x2="687.559" y2="648.81" gradientUnits="userSpaceOnUse">
<stop stop-color="#FFF5F4"/>
<stop offset="1" stop-color="#FFFAFA"/>
</linearGradient>
</defs>
</svg>
