<svg width="782" height="534" viewBox="0 0 782 534" fill="none" xmlns="http://www.w3.org/2000/svg">
<g filter="url(#filter0_d)">
<rect x="17" y="14" width="748" height="500" rx="6" fill="white"/>
</g>
<mask id="mask0" mask-type="alpha" maskUnits="userSpaceOnUse" x="17" y="14" width="748" height="500">
<rect x="17" y="14" width="748" height="500" rx="6" fill="white"/>
</mask>
<g mask="url(#mask0)">
<circle opacity="0.2" cx="391.5" cy="213.5" r="223.216" stroke="#FFA776" stroke-width="1.5"/>
<circle opacity="0.15" cx="391.5" cy="213.5" r="255.045" stroke="#FFA776" stroke-width="1.5"/>
<circle opacity="0.1" cx="391.5" cy="213.5" r="286.098" stroke="#FFA776" stroke-width="1.5"/>
<circle opacity="0.05" cx="391.5" cy="213.5" r="317.75" stroke="#FFA776" stroke-width="1.5"/>
</g>
<rect x="32" y="391" width="718" height="109" rx="4" fill="url(#paint0_linear)"/>
<path d="M57.6 418.52L54.06 412.72H52.34L56.78 419.94V425H58.34V419.94L62.82 412.72H61.14L57.6 418.52ZM70.7233 420.56C70.7233 417.84 69.0633 415.94 66.6433 415.94C64.2033 415.94 62.5633 417.84 62.5633 420.56C62.5633 423.28 64.2033 425.18 66.6433 425.18C69.0633 425.18 70.7233 423.28 70.7233 420.56ZM69.2033 420.56C69.2033 422.5 68.2433 423.86 66.6433 423.86C65.0433 423.86 64.0833 422.5 64.0833 420.56C64.0833 418.62 65.0433 417.26 66.6433 417.26C68.2433 417.26 69.2033 418.62 69.2033 420.56ZM79.8341 416.12H78.3141V422.14C77.9941 423.1 77.1341 423.8 76.0941 423.8C74.7541 423.8 74.1541 422.94 74.1541 421.7V416.12H72.6341V421.94C72.6341 423.88 73.7141 425.18 75.7341 425.18C76.8741 425.18 77.8141 424.58 78.3141 423.88V425H79.8341V416.12ZM93.3542 425V419.08C93.3542 417.14 92.0942 415.94 89.9742 415.94C88.2742 415.94 86.9542 416.96 86.6542 418.46H88.1342C88.4142 417.64 89.0142 417.24 89.9542 417.24C91.2342 417.24 91.9142 418.04 91.9142 419.14V420.26C91.5342 419.92 90.5942 419.54 89.6742 419.54C87.7742 419.54 86.2742 420.66 86.2742 422.32C86.2742 424.08 87.7742 425.16 89.5742 425.16C90.6342 425.16 91.5742 424.7 91.9142 424.34V425H93.3542ZM91.9142 422.8C91.6542 423.46 90.7542 423.9 89.8342 423.9C88.7542 423.9 87.7142 423.4 87.7142 422.32C87.7142 421.26 88.7542 420.78 89.8342 420.78C90.7542 420.78 91.6542 421.22 91.9142 421.88V422.8ZM95.9181 425H97.4181V418.98C97.7381 418.02 98.6381 417.32 99.6781 417.32C101.018 417.32 101.638 418.18 101.638 419.42V425H103.158V419.18C103.158 417.24 102.058 415.94 100.038 415.94C98.8981 415.94 97.9381 416.54 97.4181 417.24V416.12H95.9181V425ZM111.563 425H113.083V412H111.563V417.16C111.123 416.52 110.163 415.94 109.063 415.94C106.463 415.94 105.063 418.06 105.063 420.56C105.063 423.08 106.463 425.18 109.063 425.18C110.163 425.18 111.123 424.6 111.563 423.96V425ZM111.563 422.36C111.103 423.28 110.223 423.82 109.283 423.82C107.583 423.82 106.583 422.44 106.583 420.56C106.583 418.68 107.583 417.3 109.283 417.3C110.223 417.3 111.103 417.84 111.563 418.76V422.36ZM127.676 420.56C127.676 417.84 126.016 415.94 123.596 415.94C121.156 415.94 119.516 417.84 119.516 420.56C119.516 423.28 121.156 425.18 123.596 425.18C126.016 425.18 127.676 423.28 127.676 420.56ZM126.156 420.56C126.156 422.5 125.196 423.86 123.596 423.86C121.996 423.86 121.036 422.5 121.036 420.56C121.036 418.62 121.996 417.26 123.596 417.26C125.196 417.26 126.156 418.62 126.156 420.56ZM129.707 425H131.207V418.98C131.527 418.02 132.427 417.32 133.467 417.32C134.807 417.32 135.427 418.18 135.427 419.42V425H136.947V419.18C136.947 417.24 135.847 415.94 133.827 415.94C132.687 415.94 131.727 416.54 131.207 417.24V416.12H129.707V425ZM145.092 422.34C144.852 423.34 144.032 423.9 142.932 423.9C141.432 423.9 140.372 422.74 140.352 420.84H146.632V420.3C146.632 417.72 145.332 415.94 142.892 415.94C140.472 415.94 138.852 417.92 138.852 420.58C138.852 423.32 140.512 425.18 142.932 425.18C144.932 425.18 146.192 424.02 146.512 422.34H145.092ZM142.912 417.22C144.392 417.22 145.092 418.38 145.112 419.7H140.392C140.612 418.14 141.572 417.22 142.912 417.22ZM160.567 420.56C160.567 417.84 158.907 415.94 156.487 415.94C154.047 415.94 152.407 417.84 152.407 420.56C152.407 423.28 154.047 425.18 156.487 425.18C158.907 425.18 160.567 423.28 160.567 420.56ZM159.047 420.56C159.047 422.5 158.087 423.86 156.487 423.86C154.887 423.86 153.927 422.5 153.927 420.56C153.927 418.62 154.887 417.26 156.487 417.26C158.087 417.26 159.047 418.62 159.047 420.56ZM163.018 422.76C163.018 424.4 164.018 425.18 165.458 425.18C165.998 425.18 166.518 425.06 166.858 424.88V423.48C166.558 423.68 166.118 423.84 165.698 423.84C164.938 423.84 164.518 423.46 164.518 422.6V417.4H166.658V416.12H164.518V413.78H163.018V416.12H161.578V417.4H163.018V422.76ZM168.945 425H170.445V418.98C170.765 418.02 171.665 417.32 172.705 417.32C174.045 417.32 174.665 418.18 174.665 419.42V425H176.185V419.18C176.185 417.24 175.085 415.94 173.065 415.94C171.925 415.94 170.965 416.54 170.445 417.24V412H168.945V425ZM184.331 422.34C184.091 423.34 183.271 423.9 182.171 423.9C180.671 423.9 179.611 422.74 179.591 420.84H185.871V420.3C185.871 417.72 184.571 415.94 182.131 415.94C179.711 415.94 178.091 417.92 178.091 420.58C178.091 423.32 179.751 425.18 182.171 425.18C184.171 425.18 185.431 424.02 185.751 422.34H184.331ZM182.151 417.22C183.631 417.22 184.331 418.38 184.351 419.7H179.631C179.851 418.14 180.811 417.22 182.151 417.22ZM192.431 416.08C192.271 416 191.951 415.94 191.571 415.94C190.591 415.94 189.751 416.52 189.371 417.28V416.12H187.871V425H189.371V419.04C189.671 418 190.491 417.38 191.431 417.38C191.811 417.38 192.191 417.46 192.431 417.62V416.08ZM200.211 416.12H198.711V425.92C198.711 426.92 198.291 427.28 197.511 427.28C197.331 427.28 197.111 427.24 196.991 427.22V428.5C197.151 428.56 197.451 428.58 197.631 428.58C199.291 428.58 200.211 427.68 200.211 426.02V416.12ZM200.431 413.44C200.431 412.9 199.991 412.48 199.451 412.48C198.931 412.48 198.491 412.9 198.491 413.44C198.491 413.96 198.931 414.4 199.451 414.4C199.991 414.4 200.431 413.96 200.431 413.44ZM209.932 416.12H208.412V422.14C208.092 423.1 207.232 423.8 206.192 423.8C204.852 423.8 204.252 422.94 204.252 421.7V416.12H202.732V421.94C202.732 423.88 203.812 425.18 205.832 425.18C206.972 425.18 207.912 424.58 208.412 423.88V425H209.932V416.12ZM217.158 416.08C216.998 416 216.678 415.94 216.298 415.94C215.318 415.94 214.478 416.52 214.098 417.28V416.12H212.598V425H214.098V419.04C214.398 418 215.218 417.38 216.158 417.38C216.538 417.38 216.918 417.46 217.158 417.62V416.08ZM226.29 420.56C226.29 417.84 224.63 415.94 222.21 415.94C219.77 415.94 218.13 417.84 218.13 420.56C218.13 423.28 219.77 425.18 222.21 425.18C224.63 425.18 226.29 423.28 226.29 420.56ZM224.77 420.56C224.77 422.5 223.81 423.86 222.21 423.86C220.61 423.86 219.65 422.5 219.65 420.56C219.65 418.62 220.61 417.26 222.21 417.26C223.81 417.26 224.77 418.62 224.77 420.56ZM232.88 416.08C232.72 416 232.4 415.94 232.02 415.94C231.04 415.94 230.2 416.52 229.82 417.28V416.12H228.32V425H229.82V419.04C230.12 418 230.94 417.38 231.88 417.38C232.26 417.38 232.64 417.46 232.88 417.62V416.08ZM245.02 425H246.54V412H245.02V417.16C244.58 416.52 243.62 415.94 242.52 415.94C239.92 415.94 238.52 418.06 238.52 420.56C238.52 423.08 239.92 425.18 242.52 425.18C243.62 425.18 244.58 424.6 245.02 423.96V425ZM245.02 422.36C244.56 423.28 243.68 423.82 242.74 423.82C241.04 423.82 240.04 422.44 240.04 420.56C240.04 418.68 241.04 417.3 242.74 417.3C243.68 417.3 244.56 417.84 245.02 418.76V422.36ZM254.799 422.34C254.559 423.34 253.739 423.9 252.639 423.9C251.139 423.9 250.079 422.74 250.059 420.84H256.339V420.3C256.339 417.72 255.039 415.94 252.599 415.94C250.179 415.94 248.559 417.92 248.559 420.58C248.559 423.32 250.219 425.18 252.639 425.18C254.639 425.18 255.899 424.02 256.219 422.34H254.799ZM252.619 417.22C254.099 417.22 254.799 418.38 254.819 419.7H250.099C250.319 418.14 251.279 417.22 252.619 417.22ZM257.739 420.56C257.739 423.32 259.399 425.18 261.779 425.18C263.779 425.18 265.039 424.02 265.339 422.32H263.799C263.599 423.28 262.839 423.86 261.779 423.86C260.259 423.86 259.259 422.5 259.259 420.56C259.259 418.62 260.259 417.26 261.779 417.26C262.839 417.26 263.599 417.84 263.799 418.8H265.339C265.039 417.1 263.779 415.94 261.779 415.94C259.399 415.94 257.739 417.8 257.739 420.56ZM268.805 416.12H267.305V425H268.805V416.12ZM269.025 413.44C269.025 412.9 268.585 412.48 268.045 412.48C267.525 412.48 267.085 412.9 267.085 413.44C267.085 413.96 267.525 414.4 268.045 414.4C268.585 414.4 269.025 413.96 269.025 413.44ZM277.345 425H278.865V412H277.345V417.16C276.905 416.52 275.945 415.94 274.845 415.94C272.245 415.94 270.845 418.06 270.845 420.56C270.845 423.08 272.245 425.18 274.845 425.18C275.945 425.18 276.905 424.6 277.345 423.96V425ZM277.345 422.36C276.885 423.28 276.005 423.82 275.065 423.82C273.365 423.82 272.365 422.44 272.365 420.56C272.365 418.68 273.365 417.3 275.065 417.3C276.005 417.3 276.885 417.84 277.345 418.76V422.36ZM287.124 422.34C286.884 423.34 286.064 423.9 284.964 423.9C283.464 423.9 282.404 422.74 282.384 420.84H288.664V420.3C288.664 417.72 287.364 415.94 284.924 415.94C282.504 415.94 280.884 417.92 280.884 420.58C280.884 423.32 282.544 425.18 284.964 425.18C286.964 425.18 288.224 424.02 288.544 422.34H287.124ZM284.944 417.22C286.424 417.22 287.124 418.38 287.144 419.7H282.424C282.644 418.14 283.604 417.22 284.944 417.22ZM295.498 422.76C295.498 424.4 296.498 425.18 297.938 425.18C298.478 425.18 298.998 425.06 299.338 424.88V423.48C299.038 423.68 298.598 423.84 298.178 423.84C297.418 423.84 296.998 423.46 296.998 422.6V417.4H299.138V416.12H296.998V413.78H295.498V416.12H294.058V417.4H295.498V422.76ZM308.848 420.56C308.848 417.84 307.188 415.94 304.768 415.94C302.328 415.94 300.688 417.84 300.688 420.56C300.688 423.28 302.328 425.18 304.768 425.18C307.188 425.18 308.848 423.28 308.848 420.56ZM307.328 420.56C307.328 422.5 306.368 423.86 304.768 423.86C303.168 423.86 302.208 422.5 302.208 420.56C302.208 418.62 303.168 417.26 304.768 417.26C306.368 417.26 307.328 418.62 307.328 420.56ZM319.233 425L322.693 416.12H321.113L318.533 423.1L315.933 416.12H314.313L317.753 425H319.233ZM331.758 420.56C331.758 417.84 330.098 415.94 327.678 415.94C325.238 415.94 323.598 417.84 323.598 420.56C323.598 423.28 325.238 425.18 327.678 425.18C330.098 425.18 331.758 423.28 331.758 420.56ZM330.238 420.56C330.238 422.5 329.278 423.86 327.678 423.86C326.078 423.86 325.118 422.5 325.118 420.56C325.118 418.62 326.078 417.26 327.678 417.26C329.278 417.26 330.238 418.62 330.238 420.56ZM334.209 422.76C334.209 424.4 335.209 425.18 336.649 425.18C337.189 425.18 337.709 425.06 338.049 424.88V423.48C337.749 423.68 337.309 423.84 336.889 423.84C336.129 423.84 335.709 423.46 335.709 422.6V417.4H337.849V416.12H335.709V413.78H334.209V416.12H332.769V417.4H334.209V422.76ZM345.639 422.34C345.399 423.34 344.579 423.9 343.479 423.9C341.979 423.9 340.919 422.74 340.899 420.84H347.179V420.3C347.179 417.72 345.879 415.94 343.439 415.94C341.019 415.94 339.399 417.92 339.399 420.58C339.399 423.32 341.059 425.18 343.479 425.18C345.479 425.18 346.739 424.02 347.059 422.34H345.639ZM343.459 417.22C344.939 417.22 345.639 418.38 345.659 419.7H340.939C341.159 418.14 342.119 417.22 343.459 417.22ZM355.094 416.12H353.594V425H355.094V416.12ZM355.314 413.44C355.314 412.9 354.874 412.48 354.334 412.48C353.814 412.48 353.374 412.9 353.374 413.44C353.374 413.96 353.814 414.4 354.334 414.4C354.874 414.4 355.314 413.96 355.314 413.44ZM357.774 425H359.274V418.98C359.594 418.02 360.494 417.32 361.534 417.32C362.874 417.32 363.494 418.18 363.494 419.42V425H365.014V419.18C365.014 417.24 363.914 415.94 361.894 415.94C360.754 415.94 359.794 416.54 359.274 417.24V416.12H357.774V425ZM376.413 412.02C376.073 411.88 375.733 411.82 375.253 411.82C373.693 411.82 372.533 412.86 372.533 414.64V416.12H371.033V417.4H372.533V425H374.013V417.4H376.013V416.12H374.013V414.76C374.013 413.7 374.593 413.14 375.473 413.14C375.793 413.14 376.133 413.2 376.413 413.38V412.02ZM383.999 425V419.08C383.999 417.14 382.739 415.94 380.619 415.94C378.919 415.94 377.599 416.96 377.299 418.46H378.779C379.059 417.64 379.659 417.24 380.599 417.24C381.879 417.24 382.559 418.04 382.559 419.14V420.26C382.179 419.92 381.239 419.54 380.319 419.54C378.419 419.54 376.919 420.66 376.919 422.32C376.919 424.08 378.419 425.16 380.219 425.16C381.279 425.16 382.219 424.7 382.559 424.34V425H383.999ZM382.559 422.8C382.299 423.46 381.399 423.9 380.479 423.9C379.399 423.9 378.359 423.4 378.359 422.32C378.359 421.26 379.399 420.78 380.479 420.78C381.399 420.78 382.299 421.22 382.559 421.88V422.8ZM390.346 425L393.806 416.12H392.226L389.646 423.1L387.046 416.12H385.426L388.866 425H390.346ZM402.872 420.56C402.872 417.84 401.212 415.94 398.792 415.94C396.352 415.94 394.712 417.84 394.712 420.56C394.712 423.28 396.352 425.18 398.792 425.18C401.212 425.18 402.872 423.28 402.872 420.56ZM401.352 420.56C401.352 422.5 400.392 423.86 398.792 423.86C397.192 423.86 396.232 422.5 396.232 420.56C396.232 418.62 397.192 417.26 398.792 417.26C400.392 417.26 401.352 418.62 401.352 420.56ZM409.463 416.08C409.303 416 408.983 415.94 408.603 415.94C407.623 415.94 406.783 416.52 406.403 417.28V416.12H404.903V425H406.403V419.04C406.703 418 407.523 417.38 408.463 417.38C408.842 417.38 409.223 417.46 409.463 417.62V416.08ZM423.262 420.56C423.262 417.84 421.602 415.94 419.182 415.94C416.742 415.94 415.102 417.84 415.102 420.56C415.102 423.28 416.742 425.18 419.182 425.18C421.602 425.18 423.262 423.28 423.262 420.56ZM421.742 420.56C421.742 422.5 420.782 423.86 419.182 423.86C417.582 423.86 416.622 422.5 416.622 420.56C416.622 418.62 417.582 417.26 419.182 417.26C420.782 417.26 421.742 418.62 421.742 420.56ZM429.733 412.02C429.393 411.88 429.053 411.82 428.573 411.82C427.013 411.82 425.853 412.86 425.853 414.64V416.12H424.353V417.4H425.853V425H427.333V417.4H429.333V416.12H427.333V414.76C427.333 413.7 427.913 413.14 428.793 413.14C429.113 413.14 429.453 413.2 429.733 413.38V412.02ZM439.368 412.72L434.568 425H436.168L437.568 421.3H442.628L444.048 425H445.648L440.848 412.72H439.368ZM440.088 414.68L442.088 419.92H438.088L440.088 414.68ZM448.903 412H447.403V425H448.903V412ZM453.082 416.12H451.582V425H453.082V416.12ZM453.302 413.44C453.302 412.9 452.862 412.48 452.322 412.48C451.802 412.48 451.362 412.9 451.362 413.44C451.362 413.96 451.802 414.4 452.322 414.4C452.862 414.4 453.302 413.96 453.302 413.44ZM455.122 420.56C455.122 423.32 456.782 425.18 459.162 425.18C461.162 425.18 462.422 424.02 462.722 422.32H461.182C460.982 423.28 460.222 423.86 459.162 423.86C457.642 423.86 456.642 422.5 456.642 420.56C456.642 418.62 457.642 417.26 459.162 417.26C460.222 417.26 460.982 417.84 461.182 418.8H462.722C462.422 417.1 461.162 415.94 459.162 415.94C456.782 415.94 455.122 417.8 455.122 420.56ZM470.249 422.34C470.009 423.34 469.189 423.9 468.089 423.9C466.589 423.9 465.529 422.74 465.509 420.84H471.789V420.3C471.789 417.72 470.489 415.94 468.049 415.94C465.629 415.94 464.009 417.92 464.009 420.58C464.009 423.32 465.669 425.18 468.089 425.18C470.089 425.18 471.349 424.02 471.669 422.34H470.249ZM468.069 417.22C469.549 417.22 470.249 418.38 470.269 419.7H465.549C465.769 418.14 466.729 417.22 468.069 417.22ZM484.643 425V419.08C484.643 417.14 483.383 415.94 481.263 415.94C479.563 415.94 478.243 416.96 477.943 418.46H479.423C479.703 417.64 480.303 417.24 481.243 417.24C482.523 417.24 483.203 418.04 483.203 419.14V420.26C482.823 419.92 481.883 419.54 480.963 419.54C479.063 419.54 477.563 420.66 477.563 422.32C477.563 424.08 479.063 425.16 480.863 425.16C481.923 425.16 482.863 424.7 483.203 424.34V425H484.643ZM483.203 422.8C482.943 423.46 482.043 423.9 481.123 423.9C480.043 423.9 479.003 423.4 479.003 422.32C479.003 421.26 480.043 420.78 481.123 420.78C482.043 420.78 482.943 421.22 483.203 421.88V422.8ZM487.207 425H488.707V418.98C489.027 418.02 489.927 417.32 490.967 417.32C492.307 417.32 492.927 418.18 492.927 419.42V425H494.447V419.18C494.447 417.24 493.347 415.94 491.327 415.94C490.187 415.94 489.227 416.54 488.707 417.24V416.12H487.207V425ZM502.852 425H504.372V412H502.852V417.16C502.412 416.52 501.452 415.94 500.352 415.94C497.752 415.94 496.352 418.06 496.352 420.56C496.352 423.08 497.752 425.18 500.352 425.18C501.452 425.18 502.412 424.6 502.852 423.96V425ZM502.852 422.36C502.392 423.28 501.512 423.82 500.572 423.82C498.872 423.82 497.872 422.44 497.872 420.56C497.872 418.68 498.872 417.3 500.572 417.3C501.512 417.3 502.392 417.84 502.852 418.76V422.36ZM518.965 420.56C518.965 417.84 517.305 415.94 514.885 415.94C512.445 415.94 510.805 417.84 510.805 420.56C510.805 423.28 512.445 425.18 514.885 425.18C517.305 425.18 518.965 423.28 518.965 420.56ZM517.445 420.56C517.445 422.5 516.485 423.86 514.885 423.86C513.285 423.86 512.325 422.5 512.325 420.56C512.325 418.62 513.285 417.26 514.885 417.26C516.485 417.26 517.445 418.62 517.445 420.56ZM520.996 425H522.496V418.98C522.816 418.02 523.716 417.32 524.756 417.32C526.096 417.32 526.716 418.18 526.716 419.42V425H528.236V419.18C528.236 417.24 527.136 415.94 525.116 415.94C523.976 415.94 523.016 416.54 522.496 417.24V416.12H520.996V425ZM536.381 422.34C536.141 423.34 535.321 423.9 534.221 423.9C532.721 423.9 531.661 422.74 531.641 420.84H537.921V420.3C537.921 417.72 536.621 415.94 534.181 415.94C531.761 415.94 530.141 417.92 530.141 420.58C530.141 423.32 531.801 425.18 534.221 425.18C536.221 425.18 537.481 424.02 537.801 422.34H536.381ZM534.201 417.22C535.681 417.22 536.381 418.38 536.401 419.7H531.681C531.901 418.14 532.861 417.22 534.201 417.22ZM548.276 425L551.736 416.12H550.156L547.576 423.1L544.976 416.12H543.356L546.796 425H548.276ZM560.801 420.56C560.801 417.84 559.141 415.94 556.721 415.94C554.281 415.94 552.641 417.84 552.641 420.56C552.641 423.28 554.281 425.18 556.721 425.18C559.141 425.18 560.801 423.28 560.801 420.56ZM559.281 420.56C559.281 422.5 558.321 423.86 556.721 423.86C555.121 423.86 554.161 422.5 554.161 420.56C554.161 418.62 555.121 417.26 556.721 417.26C558.321 417.26 559.281 418.62 559.281 420.56ZM563.252 422.76C563.252 424.4 564.252 425.18 565.692 425.18C566.232 425.18 566.752 425.06 567.092 424.88V423.48C566.792 423.68 566.352 423.84 565.932 423.84C565.172 423.84 564.752 423.46 564.752 422.6V417.4H566.892V416.12H564.752V413.78H563.252V416.12H561.812V417.4H563.252V422.76ZM574.682 422.34C574.442 423.34 573.622 423.9 572.522 423.9C571.022 423.9 569.962 422.74 569.942 420.84H576.222V420.3C576.222 417.72 574.922 415.94 572.482 415.94C570.062 415.94 568.442 417.92 568.442 420.58C568.442 423.32 570.102 425.18 572.522 425.18C574.522 425.18 575.782 424.02 576.102 422.34H574.682ZM572.502 417.22C573.982 417.22 574.682 418.38 574.702 419.7H569.982C570.202 418.14 571.162 417.22 572.502 417.22ZM577.522 422.56C577.802 424.2 579.222 425.18 581.162 425.18C583.062 425.18 584.462 424.18 584.462 422.5C584.462 421.26 583.722 420.42 582.202 420.02L580.482 419.6C579.642 419.36 579.242 419.08 579.242 418.48C579.242 417.62 580.062 417.2 580.942 417.2C582.022 417.2 582.642 417.66 582.902 418.46H584.402C584.082 416.9 582.922 415.94 580.962 415.94C579.162 415.94 577.782 416.98 577.782 418.56C577.782 419.94 578.662 420.58 579.922 420.9L581.682 421.36C582.602 421.6 583.002 421.98 583.002 422.6C583.002 423.5 582.242 423.92 581.182 423.92C580.142 423.92 579.362 423.48 579.082 422.56H577.522ZM592.457 416.12H590.957V425H592.457V416.12ZM592.677 413.44C592.677 412.9 592.237 412.48 591.697 412.48C591.177 412.48 590.737 412.9 590.737 413.44C590.737 413.96 591.177 414.4 591.697 414.4C592.237 414.4 592.677 413.96 592.677 413.44ZM595.137 425H596.637V418.98C596.957 418.02 597.857 417.32 598.897 417.32C600.237 417.32 600.857 418.18 600.857 419.42V425H602.377V419.18C602.377 417.24 601.277 415.94 599.257 415.94C598.117 415.94 597.157 416.54 596.637 417.24V416.12H595.137V425ZM613.776 412.02C613.436 411.88 613.096 411.82 612.616 411.82C611.056 411.82 609.896 412.86 609.896 414.64V416.12H608.396V417.4H609.896V425H611.376V417.4H613.376V416.12H611.376V414.76C611.376 413.7 611.956 413.14 612.836 413.14C613.156 413.14 613.496 413.2 613.776 413.38V412.02ZM621.362 425V419.08C621.362 417.14 620.102 415.94 617.982 415.94C616.282 415.94 614.962 416.96 614.662 418.46H616.142C616.422 417.64 617.022 417.24 617.962 417.24C619.242 417.24 619.922 418.04 619.922 419.14V420.26C619.542 419.92 618.602 419.54 617.682 419.54C615.782 419.54 614.282 420.66 614.282 422.32C614.282 424.08 615.782 425.16 617.582 425.16C618.642 425.16 619.582 424.7 619.922 424.34V425H621.362ZM619.922 422.8C619.662 423.46 618.762 423.9 617.842 423.9C616.762 423.9 615.722 423.4 615.722 422.32C615.722 421.26 616.762 420.78 617.842 420.78C618.762 420.78 619.662 421.22 619.922 421.88V422.8ZM627.71 425L631.17 416.12H629.59L627.01 423.1L624.41 416.12H622.79L626.23 425H627.71ZM640.235 420.56C640.235 417.84 638.575 415.94 636.155 415.94C633.715 415.94 632.075 417.84 632.075 420.56C632.075 423.28 633.715 425.18 636.155 425.18C638.575 425.18 640.235 423.28 640.235 420.56ZM638.715 420.56C638.715 422.5 637.755 423.86 636.155 423.86C634.555 423.86 633.595 422.5 633.595 420.56C633.595 418.62 634.555 417.26 636.155 417.26C637.755 417.26 638.715 418.62 638.715 420.56ZM646.826 416.08C646.666 416 646.346 415.94 645.966 415.94C644.986 415.94 644.146 416.52 643.766 417.28V416.12H642.266V425H643.766V419.04C644.066 418 644.886 417.38 645.826 417.38C646.206 417.38 646.586 417.46 646.826 417.62V416.08ZM660.626 420.56C660.626 417.84 658.966 415.94 656.546 415.94C654.106 415.94 652.466 417.84 652.466 420.56C652.466 423.28 654.106 425.18 656.546 425.18C658.966 425.18 660.626 423.28 660.626 420.56ZM659.106 420.56C659.106 422.5 658.146 423.86 656.546 423.86C654.946 423.86 653.986 422.5 653.986 420.56C653.986 418.62 654.946 417.26 656.546 417.26C658.146 417.26 659.106 418.62 659.106 420.56ZM667.096 412.02C666.756 411.88 666.416 411.82 665.936 411.82C664.376 411.82 663.216 412.86 663.216 414.64V416.12H661.716V417.4H663.216V425H664.696V417.4H666.696V416.12H664.696V414.76C664.696 413.7 665.276 413.14 666.156 413.14C666.476 413.14 666.816 413.2 667.096 413.38V412.02ZM679.272 418.64C680.232 418.34 681.072 417.44 681.072 415.98C681.072 413.86 679.552 412.72 677.012 412.72H672.972V425H677.412C679.932 425 681.492 423.78 681.492 421.54C681.492 420.16 680.592 418.98 679.272 418.64ZM674.512 418.06V414.1H677.012C678.652 414.1 679.552 414.72 679.552 416.06C679.552 417.4 678.652 418.06 677.012 418.06H674.512ZM674.512 419.38H677.412C679.072 419.38 679.952 420.2 679.952 421.5C679.952 422.78 679.072 423.62 677.412 423.62H674.512V419.38ZM691.192 420.56C691.192 417.84 689.532 415.94 687.112 415.94C684.672 415.94 683.032 417.84 683.032 420.56C683.032 423.28 684.672 425.18 687.112 425.18C689.532 425.18 691.192 423.28 691.192 420.56ZM689.672 420.56C689.672 422.5 688.712 423.86 687.112 423.86C685.512 423.86 684.552 422.5 684.552 420.56C684.552 418.62 685.512 417.26 687.112 417.26C688.712 417.26 689.672 418.62 689.672 420.56ZM694.723 423.96C695.163 424.6 696.123 425.18 697.223 425.18C699.823 425.18 701.223 423.08 701.223 420.56C701.223 418.06 699.823 415.94 697.223 415.94C696.123 415.94 695.163 416.52 694.723 417.16V412H693.203V425H694.723V423.96ZM694.723 418.76C695.183 417.84 696.063 417.3 697.003 417.3C698.703 417.3 699.703 418.68 699.703 420.56C699.703 422.44 698.703 423.82 697.003 423.82C696.063 423.82 695.183 423.28 694.723 422.36V418.76ZM702.308 424.02C702.308 424.64 702.788 425.1 703.388 425.1C703.968 425.1 704.448 424.64 704.448 424.02C704.448 423.4 703.968 422.92 703.388 422.92C702.788 422.92 702.308 423.4 702.308 424.02ZM52.6 441.12H56.88V452H58.46V441.12H62.74V439.72H52.6V441.12ZM64.6877 452H66.1877V445.98C66.5077 445.02 67.4077 444.32 68.4477 444.32C69.7877 444.32 70.4077 445.18 70.4077 446.42V452H71.9277V446.18C71.9277 444.24 70.8277 442.94 68.8077 442.94C67.6677 442.94 66.7077 443.54 66.1877 444.24V439H64.6877V452ZM75.9728 443.12H74.4728V452H75.9728V443.12ZM76.1928 440.44C76.1928 439.9 75.7528 439.48 75.2128 439.48C74.6928 439.48 74.2528 439.9 74.2528 440.44C74.2528 440.96 74.6928 441.4 75.2128 441.4C75.7528 441.4 76.1928 440.96 76.1928 440.44ZM77.9125 449.56C78.1925 451.2 79.6125 452.18 81.5525 452.18C83.4525 452.18 84.8525 451.18 84.8525 449.5C84.8525 448.26 84.1125 447.42 82.5925 447.02L80.8725 446.6C80.0325 446.36 79.6325 446.08 79.6325 445.48C79.6325 444.62 80.4525 444.2 81.3325 444.2C82.4125 444.2 83.0325 444.66 83.2925 445.46H84.7925C84.4725 443.9 83.3125 442.94 81.3525 442.94C79.5525 442.94 78.1725 443.98 78.1725 445.56C78.1725 446.94 79.0525 447.58 80.3125 447.9L82.0725 448.36C82.9925 448.6 83.3925 448.98 83.3925 449.6C83.3925 450.5 82.6325 450.92 81.5725 450.92C80.5325 450.92 79.7525 450.48 79.4725 449.56H77.9125ZM97.6478 444.36C97.2278 443.52 96.3678 442.94 95.2478 442.94C94.1478 442.94 93.2878 443.46 92.8478 444.16V443.12H91.3478V452H92.8478V445.88C93.1278 444.92 93.9078 444.3 94.8078 444.3C95.9478 444.3 96.4878 445.12 96.4878 446.36V452H97.9878V445.88C98.2678 444.92 99.0478 444.3 99.9478 444.3C101.088 444.3 101.628 445.12 101.628 446.36V452H103.148V446.12C103.148 444.2 102.148 442.94 100.348 442.94C99.1078 442.94 98.2078 443.56 97.6478 444.36ZM111.284 449.34C111.044 450.34 110.224 450.9 109.124 450.9C107.624 450.9 106.564 449.74 106.544 447.84H112.824V447.3C112.824 444.72 111.524 442.94 109.084 442.94C106.664 442.94 105.044 444.92 105.044 447.58C105.044 450.32 106.704 452.18 109.124 452.18C111.124 452.18 112.384 451.02 112.704 449.34H111.284ZM109.104 444.22C110.584 444.22 111.284 445.38 111.304 446.7H106.584C106.804 445.14 107.764 444.22 109.104 444.22ZM121.264 452V446.08C121.264 444.14 120.004 442.94 117.884 442.94C116.184 442.94 114.864 443.96 114.564 445.46H116.044C116.324 444.64 116.924 444.24 117.864 444.24C119.144 444.24 119.824 445.04 119.824 446.14V447.26C119.444 446.92 118.504 446.54 117.584 446.54C115.684 446.54 114.184 447.66 114.184 449.32C114.184 451.08 115.684 452.16 117.484 452.16C118.544 452.16 119.484 451.7 119.824 451.34V452H121.264ZM119.824 449.8C119.564 450.46 118.664 450.9 117.744 450.9C116.664 450.9 115.624 450.4 115.624 449.32C115.624 448.26 116.664 447.78 117.744 447.78C118.664 447.78 119.564 448.22 119.824 448.88V449.8ZM123.828 452H125.328V445.98C125.648 445.02 126.548 444.32 127.588 444.32C128.928 444.32 129.548 445.18 129.548 446.42V452H131.068V446.18C131.068 444.24 129.968 442.94 127.948 442.94C126.808 442.94 125.848 443.54 125.328 444.24V443.12H123.828V452ZM132.873 449.56C133.153 451.2 134.573 452.18 136.513 452.18C138.413 452.18 139.813 451.18 139.813 449.5C139.813 448.26 139.073 447.42 137.553 447.02L135.833 446.6C134.993 446.36 134.593 446.08 134.593 445.48C134.593 444.62 135.413 444.2 136.293 444.2C137.373 444.2 137.993 444.66 138.253 445.46H139.753C139.433 443.9 138.273 442.94 136.313 442.94C134.513 442.94 133.133 443.98 133.133 445.56C133.133 446.94 134.013 447.58 135.273 447.9L137.033 448.36C137.953 448.6 138.353 448.98 138.353 449.6C138.353 450.5 137.593 450.92 136.533 450.92C135.493 450.92 134.713 450.48 134.433 449.56H132.873ZM150.189 439.72L145.389 452H146.989L148.389 448.3H153.449L154.869 452H156.469L151.669 439.72H150.189ZM150.909 441.68L152.909 446.92H148.909L150.909 441.68ZM159.723 439H158.223V452H159.723V439ZM163.903 443.12H162.403V452H163.903V443.12ZM164.123 440.44C164.123 439.9 163.683 439.48 163.143 439.48C162.623 439.48 162.183 439.9 162.183 440.44C162.183 440.96 162.623 441.4 163.143 441.4C163.683 441.4 164.123 440.96 164.123 440.44ZM165.942 447.56C165.942 450.32 167.602 452.18 169.982 452.18C171.982 452.18 173.242 451.02 173.542 449.32H172.002C171.802 450.28 171.042 450.86 169.982 450.86C168.462 450.86 167.462 449.5 167.462 447.56C167.462 445.62 168.462 444.26 169.982 444.26C171.042 444.26 171.802 444.84 172.002 445.8H173.542C173.242 444.1 171.982 442.94 169.982 442.94C167.602 442.94 165.942 444.8 165.942 447.56ZM181.069 449.34C180.829 450.34 180.009 450.9 178.909 450.9C177.409 450.9 176.349 449.74 176.329 447.84H182.609V447.3C182.609 444.72 181.309 442.94 178.869 442.94C176.449 442.94 174.829 444.92 174.829 447.58C174.829 450.32 176.489 452.18 178.909 452.18C180.909 452.18 182.169 451.02 182.489 449.34H181.069ZM178.889 444.22C180.369 444.22 181.069 445.38 181.089 446.7H176.369C176.589 445.14 177.549 444.22 178.889 444.22ZM189.024 452H190.524V445.98C190.844 445.02 191.744 444.32 192.784 444.32C194.124 444.32 194.744 445.18 194.744 446.42V452H196.264V446.18C196.264 444.24 195.164 442.94 193.144 442.94C192.004 442.94 191.044 443.54 190.524 444.24V439H189.024V452ZM205.249 452V446.08C205.249 444.14 203.989 442.94 201.869 442.94C200.169 442.94 198.849 443.96 198.549 445.46H200.029C200.309 444.64 200.909 444.24 201.849 444.24C203.129 444.24 203.809 445.04 203.809 446.14V447.26C203.429 446.92 202.489 446.54 201.569 446.54C199.669 446.54 198.169 447.66 198.169 449.32C198.169 451.08 199.669 452.16 201.469 452.16C202.529 452.16 203.469 451.7 203.809 451.34V452H205.249ZM203.809 449.8C203.549 450.46 202.649 450.9 201.729 450.9C200.649 450.9 199.609 450.4 199.609 449.32C199.609 448.26 200.649 447.78 201.729 447.78C202.649 447.78 203.549 448.22 203.809 448.88V449.8ZM207.073 449.56C207.353 451.2 208.773 452.18 210.713 452.18C212.613 452.18 214.013 451.18 214.013 449.5C214.013 448.26 213.273 447.42 211.753 447.02L210.033 446.6C209.193 446.36 208.793 446.08 208.793 445.48C208.793 444.62 209.613 444.2 210.493 444.2C211.573 444.2 212.193 444.66 212.453 445.46H213.953C213.633 443.9 212.473 442.94 210.513 442.94C208.713 442.94 207.333 443.98 207.333 445.56C207.333 446.94 208.213 447.58 209.473 447.9L211.233 448.36C212.153 448.6 212.553 448.98 212.553 449.6C212.553 450.5 211.793 450.92 210.733 450.92C209.693 450.92 208.913 450.48 208.633 449.56H207.073ZM220.928 449.76C220.928 451.4 221.928 452.18 223.368 452.18C223.908 452.18 224.428 452.06 224.768 451.88V450.48C224.468 450.68 224.028 450.84 223.608 450.84C222.848 450.84 222.428 450.46 222.428 449.6V444.4H224.568V443.12H222.428V440.78H220.928V443.12H219.488V444.4H220.928V449.76ZM226.856 452H228.356V445.98C228.676 445.02 229.576 444.32 230.616 444.32C231.956 444.32 232.576 445.18 232.576 446.42V452H234.096V446.18C234.096 444.24 232.996 442.94 230.976 442.94C229.836 442.94 228.876 443.54 228.356 444.24V439H226.856V452ZM242.241 449.34C242.001 450.34 241.181 450.9 240.081 450.9C238.581 450.9 237.521 449.74 237.501 447.84H243.781V447.3C243.781 444.72 242.481 442.94 240.041 442.94C237.621 442.94 236.001 444.92 236.001 447.58C236.001 450.32 237.661 452.18 240.081 452.18C242.081 452.18 243.341 451.02 243.661 449.34H242.241ZM240.061 444.22C241.541 444.22 242.241 445.38 242.261 446.7H237.541C237.761 445.14 238.721 444.22 240.061 444.22ZM256.495 444.36C256.075 443.52 255.215 442.94 254.095 442.94C252.995 442.94 252.135 443.46 251.695 444.16V443.12H250.195V452H251.695V445.88C251.975 444.92 252.755 444.3 253.655 444.3C254.795 444.3 255.335 445.12 255.335 446.36V452H256.835V445.88C257.115 444.92 257.895 444.3 258.795 444.3C259.935 444.3 260.475 445.12 260.475 446.36V452H261.995V446.12C261.995 444.2 260.995 442.94 259.195 442.94C257.955 442.94 257.055 443.56 256.495 444.36ZM270.971 452V446.08C270.971 444.14 269.711 442.94 267.591 442.94C265.891 442.94 264.571 443.96 264.271 445.46H265.751C266.031 444.64 266.631 444.24 267.571 444.24C268.851 444.24 269.531 445.04 269.531 446.14V447.26C269.151 446.92 268.211 446.54 267.291 446.54C265.391 446.54 263.891 447.66 263.891 449.32C263.891 451.08 265.391 452.16 267.191 452.16C268.251 452.16 269.191 451.7 269.531 451.34V452H270.971ZM269.531 449.8C269.271 450.46 268.371 450.9 267.451 450.9C266.371 450.9 265.331 450.4 265.331 449.32C265.331 448.26 266.371 447.78 267.451 447.78C268.371 447.78 269.271 448.22 269.531 448.88V449.8ZM275.035 443.12H273.535V452.92C273.535 453.92 273.115 454.28 272.335 454.28C272.155 454.28 271.935 454.24 271.815 454.22V455.5C271.975 455.56 272.275 455.58 272.455 455.58C274.115 455.58 275.035 454.68 275.035 453.02V443.12ZM275.255 440.44C275.255 439.9 274.815 439.48 274.275 439.48C273.755 439.48 273.315 439.9 273.315 440.44C273.315 440.96 273.755 441.4 274.275 441.4C274.815 441.4 275.255 440.96 275.255 440.44ZM285.196 447.56C285.196 444.84 283.536 442.94 281.116 442.94C278.676 442.94 277.036 444.84 277.036 447.56C277.036 450.28 278.676 452.18 281.116 452.18C283.536 452.18 285.196 450.28 285.196 447.56ZM283.676 447.56C283.676 449.5 282.716 450.86 281.116 450.86C279.516 450.86 278.556 449.5 278.556 447.56C278.556 445.62 279.516 444.26 281.116 444.26C282.716 444.26 283.676 445.62 283.676 447.56ZM291.787 443.08C291.627 443 291.307 442.94 290.927 442.94C289.947 442.94 289.107 443.52 288.727 444.28V443.12H287.227V452H288.727V446.04C289.027 445 289.847 444.38 290.787 444.38C291.167 444.38 291.547 444.46 291.787 444.62V443.08ZM295.153 443.12H293.653V452H295.153V443.12ZM295.373 440.44C295.373 439.9 294.933 439.48 294.393 439.48C293.873 439.48 293.433 439.9 293.433 440.44C293.433 440.96 293.873 441.4 294.393 441.4C294.933 441.4 295.373 440.96 295.373 440.44ZM298.252 449.76C298.252 451.4 299.252 452.18 300.692 452.18C301.232 452.18 301.752 452.06 302.092 451.88V450.48C301.792 450.68 301.352 450.84 300.932 450.84C300.172 450.84 299.752 450.46 299.752 449.6V444.4H301.892V443.12H299.752V440.78H298.252V443.12H296.812V444.4H298.252V449.76ZM306.663 455.4L311.443 443.12H309.883L307.303 450.12L304.683 443.12H303.063L306.523 452.06L305.183 455.4H306.663ZM322.119 443.08C321.959 443 321.639 442.94 321.259 442.94C320.279 442.94 319.439 443.52 319.059 444.28V443.12H317.559V452H319.059V446.04C319.359 445 320.179 444.38 321.119 444.38C321.499 444.38 321.879 444.46 322.119 444.62V443.08ZM329.331 449.34C329.091 450.34 328.271 450.9 327.171 450.9C325.671 450.9 324.611 449.74 324.591 447.84H330.871V447.3C330.871 444.72 329.571 442.94 327.131 442.94C324.711 442.94 323.091 444.92 323.091 447.58C323.091 450.32 324.751 452.18 327.171 452.18C329.171 452.18 330.431 451.02 330.751 449.34H329.331ZM327.151 444.22C328.631 444.22 329.331 445.38 329.351 446.7H324.631C324.851 445.14 325.811 444.22 327.151 444.22ZM338.77 455.4H340.27V443.12H338.77V444.16C338.31 443.52 337.37 442.94 336.27 442.94C333.65 442.94 332.27 445.1 332.27 447.56C332.27 450.02 333.65 452.18 336.27 452.18C337.37 452.18 338.31 451.6 338.77 450.96V455.4ZM338.77 449.36C338.31 450.28 337.43 450.82 336.49 450.82C334.79 450.82 333.79 449.44 333.79 447.56C333.79 445.68 334.79 444.3 336.49 444.3C337.43 444.3 338.31 444.84 338.77 445.76V449.36ZM350.029 443.12H348.509V449.14C348.189 450.1 347.329 450.8 346.289 450.8C344.949 450.8 344.349 449.94 344.349 448.7V443.12H342.829V448.94C342.829 450.88 343.909 452.18 345.929 452.18C347.069 452.18 348.009 451.58 348.509 450.88V452H350.029V443.12ZM354.195 443.12H352.695V452H354.195V443.12ZM354.415 440.44C354.415 439.9 353.975 439.48 353.435 439.48C352.915 439.48 352.475 439.9 352.475 440.44C352.475 440.96 352.915 441.4 353.435 441.4C353.975 441.4 354.415 440.96 354.415 440.44ZM361.435 443.08C361.275 443 360.955 442.94 360.575 442.94C359.595 442.94 358.755 443.52 358.375 444.28V443.12H356.875V452H358.375V446.04C358.675 445 359.495 444.38 360.435 444.38C360.815 444.38 361.195 444.46 361.435 444.62V443.08ZM368.647 449.34C368.407 450.34 367.587 450.9 366.487 450.9C364.987 450.9 363.927 449.74 363.907 447.84H370.187V447.3C370.187 444.72 368.887 442.94 366.447 442.94C364.027 442.94 362.407 444.92 362.407 447.58C362.407 450.32 364.067 452.18 366.487 452.18C368.487 452.18 369.747 451.02 370.067 449.34H368.647ZM366.467 444.22C367.947 444.22 368.647 445.38 368.667 446.7H363.947C364.167 445.14 365.127 444.22 366.467 444.22ZM378.087 452H379.607V439H378.087V444.16C377.647 443.52 376.687 442.94 375.587 442.94C372.987 442.94 371.587 445.06 371.587 447.56C371.587 450.08 372.987 452.18 375.587 452.18C376.687 452.18 377.647 451.6 378.087 450.96V452ZM378.087 449.36C377.627 450.28 376.747 450.82 375.807 450.82C374.107 450.82 373.107 449.44 373.107 447.56C373.107 445.68 374.107 444.3 375.807 444.3C376.747 444.3 377.627 444.84 378.087 445.76V449.36ZM387.1 449.76C387.1 451.4 388.1 452.18 389.54 452.18C390.08 452.18 390.6 452.06 390.94 451.88V450.48C390.64 450.68 390.2 450.84 389.78 450.84C389.02 450.84 388.6 450.46 388.6 449.6V444.4H390.74V443.12H388.6V440.78H387.1V443.12H385.66V444.4H387.1V449.76ZM400.45 447.56C400.45 444.84 398.79 442.94 396.37 442.94C393.93 442.94 392.29 444.84 392.29 447.56C392.29 450.28 393.93 452.18 396.37 452.18C398.79 452.18 400.45 450.28 400.45 447.56ZM398.93 447.56C398.93 449.5 397.97 450.86 396.37 450.86C394.77 450.86 393.81 449.5 393.81 447.56C393.81 445.62 394.77 444.26 396.37 444.26C397.97 444.26 398.93 445.62 398.93 447.56ZM412.535 443.12H411.195L409.375 449.9L407.415 443.12H405.915L408.535 452H409.995L411.855 445.26L413.695 452H415.155L417.775 443.12H416.315L414.355 449.9L412.535 443.12ZM420.973 443.12H419.473V452H420.973V443.12ZM421.193 440.44C421.193 439.9 420.753 439.48 420.213 439.48C419.693 439.48 419.253 439.9 419.253 440.44C419.253 440.96 419.693 441.4 420.213 441.4C420.753 441.4 421.193 440.96 421.193 440.44ZM423.653 452H425.153V445.98C425.473 445.02 426.373 444.32 427.413 444.32C428.753 444.32 429.373 445.18 429.373 446.42V452H430.893V446.18C430.893 444.24 429.793 442.94 427.773 442.94C426.633 442.94 425.673 443.54 425.153 444.24V443.12H423.653V452ZM438.272 449.76C438.272 451.4 439.272 452.18 440.712 452.18C441.252 452.18 441.772 452.06 442.112 451.88V450.48C441.812 450.68 441.372 450.84 440.952 450.84C440.192 450.84 439.772 450.46 439.772 449.6V444.4H441.912V443.12H439.772V440.78H438.272V443.12H436.832V444.4H438.272V449.76ZM444.199 452H445.699V445.98C446.019 445.02 446.919 444.32 447.959 444.32C449.299 444.32 449.919 445.18 449.919 446.42V452H451.439V446.18C451.439 444.24 450.339 442.94 448.319 442.94C447.179 442.94 446.219 443.54 445.699 444.24V439H444.199V452ZM455.485 443.12H453.985V452H455.485V443.12ZM455.705 440.44C455.705 439.9 455.265 439.48 454.725 439.48C454.205 439.48 453.765 439.9 453.765 440.44C453.765 440.96 454.205 441.4 454.725 441.4C455.265 441.4 455.705 440.96 455.705 440.44ZM457.424 449.56C457.704 451.2 459.124 452.18 461.064 452.18C462.964 452.18 464.364 451.18 464.364 449.5C464.364 448.26 463.624 447.42 462.104 447.02L460.384 446.6C459.544 446.36 459.144 446.08 459.144 445.48C459.144 444.62 459.964 444.2 460.844 444.2C461.924 444.2 462.544 444.66 462.804 445.46H464.304C463.984 443.9 462.824 442.94 460.864 442.94C459.064 442.94 457.684 443.98 457.684 445.56C457.684 446.94 458.564 447.58 459.824 447.9L461.584 448.36C462.504 448.6 462.904 448.98 462.904 449.6C462.904 450.5 462.144 450.92 461.084 450.92C460.044 450.92 459.264 450.48 458.984 449.56H457.424ZM475.42 443.08C475.26 443 474.94 442.94 474.56 442.94C473.58 442.94 472.74 443.52 472.36 444.28V443.12H470.86V452H472.36V446.04C472.66 445 473.48 444.38 474.42 444.38C474.8 444.38 475.18 444.46 475.42 444.62V443.08ZM484.365 443.12H482.845V449.14C482.525 450.1 481.665 450.8 480.625 450.8C479.285 450.8 478.685 449.94 478.685 448.7V443.12H477.165V448.94C477.165 450.88 478.245 452.18 480.265 452.18C481.405 452.18 482.345 451.58 482.845 450.88V452H484.365V443.12ZM488.531 439H487.031V452H488.531V439ZM492.711 443.12H491.211V452H492.711V443.12ZM492.931 440.44C492.931 439.9 492.491 439.48 491.951 439.48C491.431 439.48 490.991 439.9 490.991 440.44C490.991 440.96 491.431 441.4 491.951 441.4C492.491 441.4 492.931 440.96 492.931 440.44ZM495.391 452H496.891V445.98C497.211 445.02 498.111 444.32 499.151 444.32C500.491 444.32 501.111 445.18 501.111 446.42V452H502.631V446.18C502.631 444.24 501.531 442.94 499.511 442.94C498.371 442.94 497.411 443.54 496.891 444.24V443.12H495.391V452ZM510.996 451.4C510.996 453.32 510.156 454.32 508.556 454.32C507.336 454.32 506.496 453.78 506.236 452.66H504.756C505.036 454.48 506.396 455.6 508.556 455.6C510.836 455.6 512.516 454.22 512.516 451.3V443.12H510.996V444.12C510.556 443.5 509.616 442.94 508.516 442.94C505.916 442.94 504.536 445.08 504.536 447.44C504.536 449.78 505.916 451.94 508.516 451.94C509.616 451.94 510.556 451.36 510.996 450.74V451.4ZM510.996 449.2C510.536 450.04 509.696 450.58 508.736 450.58C507.056 450.58 506.076 449.26 506.076 447.44C506.076 445.6 507.056 444.28 508.736 444.28C509.696 444.28 510.536 444.82 510.996 445.66V449.2ZM514.495 451.02C514.495 451.64 514.975 452.1 515.575 452.1C516.155 452.1 516.635 451.64 516.635 451.02C516.635 450.4 516.155 449.92 515.575 449.92C514.975 449.92 514.495 450.4 514.495 451.02ZM526.908 439.72L522.108 452H523.708L525.108 448.3H530.168L531.588 452H533.188L528.388 439.72H526.908ZM527.628 441.68L529.628 446.92H525.628L527.628 441.68ZM536.442 439H534.942V452H536.442V439ZM540.621 439H539.121V452H540.621V439ZM552.275 443.08C552.115 443 551.795 442.94 551.415 442.94C550.435 442.94 549.595 443.52 549.215 444.28V443.12H547.715V452H549.215V446.04C549.515 445 550.335 444.38 551.275 444.38C551.655 444.38 552.035 444.46 552.275 444.62V443.08ZM561.221 443.12H559.701V449.14C559.381 450.1 558.521 450.8 557.481 450.8C556.141 450.8 555.541 449.94 555.541 448.7V443.12H554.021V448.94C554.021 450.88 555.101 452.18 557.121 452.18C558.261 452.18 559.201 451.58 559.701 450.88V452H561.221V443.12ZM565.387 439H563.887V452H565.387V439ZM569.567 443.12H568.067V452H569.567V443.12ZM569.787 440.44C569.787 439.9 569.347 439.48 568.807 439.48C568.287 439.48 567.847 439.9 567.847 440.44C567.847 440.96 568.287 441.4 568.807 441.4C569.347 441.4 569.787 440.96 569.787 440.44ZM572.246 452H573.746V445.98C574.066 445.02 574.966 444.32 576.006 444.32C577.346 444.32 577.966 445.18 577.966 446.42V452H579.486V446.18C579.486 444.24 578.386 442.94 576.366 442.94C575.226 442.94 574.266 443.54 573.746 444.24V443.12H572.246V452ZM587.851 451.4C587.851 453.32 587.011 454.32 585.411 454.32C584.191 454.32 583.351 453.78 583.091 452.66H581.611C581.891 454.48 583.251 455.6 585.411 455.6C587.691 455.6 589.371 454.22 589.371 451.3V443.12H587.851V444.12C587.411 443.5 586.471 442.94 585.371 442.94C582.771 442.94 581.391 445.08 581.391 447.44C581.391 449.78 582.771 451.94 585.371 451.94C586.471 451.94 587.411 451.36 587.851 450.74V451.4ZM587.851 449.2C587.391 450.04 586.551 450.58 585.591 450.58C583.911 450.58 582.931 449.26 582.931 447.44C582.931 445.6 583.911 444.28 585.591 444.28C586.551 444.28 587.391 444.82 587.851 445.66V449.2ZM591.311 449.56C591.591 451.2 593.011 452.18 594.951 452.18C596.851 452.18 598.251 451.18 598.251 449.5C598.251 448.26 597.511 447.42 595.991 447.02L594.271 446.6C593.431 446.36 593.031 446.08 593.031 445.48C593.031 444.62 593.851 444.2 594.731 444.2C595.811 444.2 596.431 444.66 596.691 445.46H598.191C597.871 443.9 596.711 442.94 594.751 442.94C592.951 442.94 591.571 443.98 591.571 445.56C591.571 446.94 592.451 447.58 593.711 447.9L595.471 448.36C596.391 448.6 596.791 448.98 596.791 449.6C596.791 450.5 596.031 450.92 594.971 450.92C593.931 450.92 593.151 450.48 592.871 449.56H591.311ZM611.186 452V446.08C611.186 444.14 609.926 442.94 607.806 442.94C606.106 442.94 604.786 443.96 604.486 445.46H605.966C606.246 444.64 606.846 444.24 607.786 444.24C609.066 444.24 609.746 445.04 609.746 446.14V447.26C609.366 446.92 608.426 446.54 607.506 446.54C605.606 446.54 604.106 447.66 604.106 449.32C604.106 451.08 605.606 452.16 607.406 452.16C608.466 452.16 609.406 451.7 609.746 451.34V452H611.186ZM609.746 449.8C609.486 450.46 608.586 450.9 607.666 450.9C606.586 450.9 605.546 450.4 605.546 449.32C605.546 448.26 606.586 447.78 607.666 447.78C608.586 447.78 609.486 448.22 609.746 448.88V449.8ZM614.112 449.76C614.112 451.4 615.112 452.18 616.552 452.18C617.092 452.18 617.612 452.06 617.952 451.88V450.48C617.652 450.68 617.212 450.84 616.792 450.84C616.032 450.84 615.612 450.46 615.612 449.6V444.4H617.752V443.12H615.612V440.78H614.112V443.12H612.672V444.4H614.112V449.76ZM624.873 449.76C624.873 451.4 625.873 452.18 627.313 452.18C627.853 452.18 628.373 452.06 628.713 451.88V450.48C628.413 450.68 627.973 450.84 627.553 450.84C626.793 450.84 626.373 450.46 626.373 449.6V444.4H628.513V443.12H626.373V440.78H624.873V443.12H623.433V444.4H624.873V449.76ZM630.801 452H632.301V445.98C632.621 445.02 633.521 444.32 634.561 444.32C635.901 444.32 636.521 445.18 636.521 446.42V452H638.041V446.18C638.041 444.24 636.941 442.94 634.921 442.94C633.781 442.94 632.821 443.54 632.301 444.24V439H630.801V452ZM642.086 443.12H640.586V452H642.086V443.12ZM642.306 440.44C642.306 439.9 641.866 439.48 641.326 439.48C640.806 439.48 640.366 439.9 640.366 440.44C640.366 440.96 640.806 441.4 641.326 441.4C641.866 441.4 642.306 440.96 642.306 440.44ZM644.026 449.56C644.306 451.2 645.726 452.18 647.666 452.18C649.566 452.18 650.966 451.18 650.966 449.5C650.966 448.26 650.226 447.42 648.706 447.02L646.986 446.6C646.146 446.36 645.746 446.08 645.746 445.48C645.746 444.62 646.566 444.2 647.446 444.2C648.526 444.2 649.146 444.66 649.406 445.46H650.906C650.586 443.9 649.426 442.94 647.466 442.94C645.666 442.94 644.286 443.98 644.286 445.56C644.286 446.94 645.166 447.58 646.426 447.9L648.186 448.36C649.106 448.6 649.506 448.98 649.506 449.6C649.506 450.5 648.746 450.92 647.686 450.92C646.646 450.92 645.866 450.48 645.586 449.56H644.026ZM656.721 449.56C657.001 451.2 658.421 452.18 660.361 452.18C662.261 452.18 663.661 451.18 663.661 449.5C663.661 448.26 662.921 447.42 661.401 447.02L659.681 446.6C658.841 446.36 658.441 446.08 658.441 445.48C658.441 444.62 659.261 444.2 660.141 444.2C661.221 444.2 661.841 444.66 662.101 445.46H663.601C663.281 443.9 662.121 442.94 660.161 442.94C658.361 442.94 656.981 443.98 656.981 445.56C656.981 446.94 657.861 447.58 659.121 447.9L660.881 448.36C661.801 448.6 662.201 448.98 662.201 449.6C662.201 450.5 661.441 450.92 660.381 450.92C659.341 450.92 658.561 450.48 658.281 449.56H656.721ZM666.162 449.76C666.162 451.4 667.162 452.18 668.602 452.18C669.142 452.18 669.662 452.06 670.002 451.88V450.48C669.702 450.68 669.262 450.84 668.842 450.84C668.082 450.84 667.662 450.46 667.662 449.6V444.4H669.802V443.12H667.662V440.78H666.162V443.12H664.722V444.4H666.162V449.76ZM678.393 452V446.08C678.393 444.14 677.133 442.94 675.013 442.94C673.313 442.94 671.993 443.96 671.693 445.46H673.173C673.453 444.64 674.053 444.24 674.993 444.24C676.273 444.24 676.953 445.04 676.953 446.14V447.26C676.573 446.92 675.633 446.54 674.713 446.54C672.813 446.54 671.313 447.66 671.313 449.32C671.313 451.08 672.813 452.16 674.613 452.16C675.673 452.16 676.613 451.7 676.953 451.34V452H678.393ZM676.953 449.8C676.693 450.46 675.793 450.9 674.873 450.9C673.793 450.9 672.753 450.4 672.753 449.32C672.753 448.26 673.793 447.78 674.873 447.78C675.793 447.78 676.693 448.22 676.953 448.88V449.8ZM686.777 451.4C686.777 453.32 685.937 454.32 684.337 454.32C683.117 454.32 682.277 453.78 682.017 452.66H680.537C680.817 454.48 682.177 455.6 684.337 455.6C686.617 455.6 688.297 454.22 688.297 451.3V443.12H686.777V444.12C686.337 443.5 685.397 442.94 684.297 442.94C681.697 442.94 680.317 445.08 680.317 447.44C680.317 449.78 681.697 451.94 684.297 451.94C685.397 451.94 686.337 451.36 686.777 450.74V451.4ZM686.777 449.2C686.317 450.04 685.477 450.58 684.517 450.58C682.837 450.58 681.857 449.26 681.857 447.44C681.857 445.6 682.837 444.28 684.517 444.28C685.477 444.28 686.317 444.82 686.777 445.66V449.2ZM696.577 449.34C696.337 450.34 695.517 450.9 694.417 450.9C692.917 450.9 691.857 449.74 691.837 447.84H698.117V447.3C698.117 444.72 696.817 442.94 694.377 442.94C691.957 442.94 690.337 444.92 690.337 447.58C690.337 450.32 691.997 452.18 694.417 452.18C696.417 452.18 697.677 451.02 697.997 449.34H696.577ZM694.397 444.22C695.877 444.22 696.577 445.38 696.597 446.7H691.877C692.097 445.14 693.057 444.22 694.397 444.22ZM710.971 452V446.08C710.971 444.14 709.711 442.94 707.591 442.94C705.891 442.94 704.571 443.96 704.271 445.46H705.751C706.031 444.64 706.631 444.24 707.571 444.24C708.851 444.24 709.531 445.04 709.531 446.14V447.26C709.151 446.92 708.211 446.54 707.291 446.54C705.391 446.54 703.891 447.66 703.891 449.32C703.891 451.08 705.391 452.16 707.191 452.16C708.251 452.16 709.191 451.7 709.531 451.34V452H710.971ZM709.531 449.8C709.271 450.46 708.371 450.9 707.451 450.9C706.371 450.9 705.331 450.4 705.331 449.32C705.331 448.26 706.371 447.78 707.451 447.78C708.371 447.78 709.271 448.22 709.531 448.88V449.8ZM718.095 443.08C717.935 443 717.615 442.94 717.235 442.94C716.255 442.94 715.415 443.52 715.035 444.28V443.12H713.535V452H715.035V446.04C715.335 445 716.155 444.38 717.095 444.38C717.475 444.38 717.855 444.46 718.095 444.62V443.08ZM725.307 449.34C725.067 450.34 724.247 450.9 723.147 450.9C721.647 450.9 720.587 449.74 720.567 447.84H726.847V447.3C726.847 444.72 725.547 442.94 723.107 442.94C720.687 442.94 719.067 444.92 719.067 447.58C719.067 450.32 720.727 452.18 723.147 452.18C725.147 452.18 726.407 451.02 726.727 449.34H725.307ZM723.127 444.22C724.607 444.22 725.307 445.38 725.327 446.7H720.607C720.827 445.14 721.787 444.22 723.127 444.22ZM54.84 477.96C55.3 478.6 56.24 479.18 57.34 479.18C59.96 479.18 61.34 477.02 61.34 474.56C61.34 472.1 59.96 469.94 57.34 469.94C56.24 469.94 55.3 470.52 54.84 471.16V470.12H53.34V482.4H54.84V477.96ZM54.84 472.76C55.3 471.84 56.18 471.3 57.12 471.3C58.82 471.3 59.82 472.68 59.82 474.56C59.82 476.44 58.82 477.82 57.12 477.82C56.18 477.82 55.3 477.28 54.84 476.36V472.76ZM67.9391 470.08C67.7791 470 67.4591 469.94 67.0791 469.94C66.0991 469.94 65.2591 470.52 64.8791 471.28V470.12H63.3791V479H64.8791V473.04C65.1791 472 65.9991 471.38 66.9391 471.38C67.3191 471.38 67.6991 471.46 67.9391 471.62V470.08ZM75.1509 476.34C74.9109 477.34 74.0909 477.9 72.9909 477.9C71.4909 477.9 70.4309 476.74 70.4109 474.84H76.6909V474.3C76.6909 471.72 75.3909 469.94 72.9509 469.94C70.5309 469.94 68.9109 471.92 68.9109 474.58C68.9109 477.32 70.5709 479.18 72.9909 479.18C74.9909 479.18 76.2509 478.02 76.5709 476.34H75.1509ZM72.9709 471.22C74.4509 471.22 75.1509 472.38 75.1709 473.7H70.4509C70.6709 472.14 71.6309 471.22 72.9709 471.22ZM80.1916 466H78.6916V479H80.1916V466ZM84.3713 470.12H82.8713V479H84.3713V470.12ZM84.5913 467.44C84.5913 466.9 84.1513 466.48 83.6113 466.48C83.0913 466.48 82.6513 466.9 82.6513 467.44C82.6513 467.96 83.0913 468.4 83.6113 468.4C84.1513 468.4 84.5913 467.96 84.5913 467.44ZM93.3509 471.36C92.9309 470.52 92.0709 469.94 90.9509 469.94C89.8509 469.94 88.9909 470.46 88.5509 471.16V470.12H87.0509V479H88.5509V472.88C88.8309 471.92 89.6109 471.3 90.5109 471.3C91.6509 471.3 92.1909 472.12 92.1909 473.36V479H93.6909V472.88C93.9709 471.92 94.7509 471.3 95.6509 471.3C96.7909 471.3 97.3309 472.12 97.3309 473.36V479H98.8509V473.12C98.8509 471.2 97.8509 469.94 96.0509 469.94C94.8109 469.94 93.9109 470.56 93.3509 471.36ZM102.887 470.12H101.387V479H102.887V470.12ZM103.107 467.44C103.107 466.9 102.667 466.48 102.127 466.48C101.607 466.48 101.167 466.9 101.167 467.44C101.167 467.96 101.607 468.4 102.127 468.4C102.667 468.4 103.107 467.96 103.107 467.44ZM105.567 479H107.067V472.98C107.387 472.02 108.287 471.32 109.327 471.32C110.667 471.32 111.287 472.18 111.287 473.42V479H112.807V473.18C112.807 471.24 111.707 469.94 109.687 469.94C108.547 469.94 107.587 470.54 107.067 471.24V470.12H105.567V479ZM121.792 479V473.08C121.792 471.14 120.532 469.94 118.412 469.94C116.712 469.94 115.392 470.96 115.092 472.46H116.572C116.852 471.64 117.452 471.24 118.392 471.24C119.672 471.24 120.352 472.04 120.352 473.14V474.26C119.972 473.92 119.032 473.54 118.112 473.54C116.212 473.54 114.712 474.66 114.712 476.32C114.712 478.08 116.212 479.16 118.012 479.16C119.072 479.16 120.012 478.7 120.352 478.34V479H121.792ZM120.352 476.8C120.092 477.46 119.192 477.9 118.272 477.9C117.192 477.9 116.152 477.4 116.152 476.32C116.152 475.26 117.192 474.78 118.272 474.78C119.192 474.78 120.092 475.22 120.352 475.88V476.8ZM128.916 470.08C128.756 470 128.436 469.94 128.056 469.94C127.076 469.94 126.236 470.52 125.856 471.28V470.12H124.356V479H125.856V473.04C126.156 472 126.976 471.38 127.916 471.38C128.296 471.38 128.676 471.46 128.916 471.62V470.08ZM133.401 482.4L138.181 470.12H136.621L134.041 477.12L131.421 470.12H129.801L133.261 479.06L131.921 482.4H133.401ZM150.737 479V473.08C150.737 471.14 149.477 469.94 147.357 469.94C145.657 469.94 144.337 470.96 144.037 472.46H145.517C145.797 471.64 146.397 471.24 147.337 471.24C148.617 471.24 149.297 472.04 149.297 473.14V474.26C148.917 473.92 147.977 473.54 147.057 473.54C145.157 473.54 143.657 474.66 143.657 476.32C143.657 478.08 145.157 479.16 146.957 479.16C148.017 479.16 148.957 478.7 149.297 478.34V479H150.737ZM149.297 476.8C149.037 477.46 148.137 477.9 147.217 477.9C146.137 477.9 145.097 477.4 145.097 476.32C145.097 475.26 146.137 474.78 147.217 474.78C148.137 474.78 149.037 475.22 149.297 475.88V476.8ZM153.301 479H154.801V472.98C155.121 472.02 156.021 471.32 157.061 471.32C158.401 471.32 159.021 472.18 159.021 473.42V479H160.541V473.18C160.541 471.24 159.441 469.94 157.421 469.94C156.281 469.94 155.321 470.54 154.801 471.24V470.12H153.301V479ZM168.946 479H170.466V466H168.946V471.16C168.506 470.52 167.546 469.94 166.446 469.94C163.846 469.94 162.446 472.06 162.446 474.56C162.446 477.08 163.846 479.18 166.446 479.18C167.546 479.18 168.506 478.6 168.946 477.96V479ZM168.946 476.36C168.486 477.28 167.606 477.82 166.666 477.82C164.966 477.82 163.966 476.44 163.966 474.56C163.966 472.68 164.966 471.3 166.666 471.3C167.606 471.3 168.486 471.84 168.946 472.76V476.36ZM176.899 474.56C176.899 477.32 178.559 479.18 180.939 479.18C182.939 479.18 184.199 478.02 184.499 476.32H182.959C182.759 477.28 181.999 477.86 180.939 477.86C179.419 477.86 178.419 476.5 178.419 474.56C178.419 472.62 179.419 471.26 180.939 471.26C181.999 471.26 182.759 471.84 182.959 472.8H184.499C184.199 471.1 182.939 469.94 180.939 469.94C178.559 469.94 176.899 471.8 176.899 474.56ZM192.905 479V473.08C192.905 471.14 191.645 469.94 189.525 469.94C187.825 469.94 186.505 470.96 186.205 472.46H187.685C187.965 471.64 188.565 471.24 189.505 471.24C190.785 471.24 191.465 472.04 191.465 473.14V474.26C191.085 473.92 190.145 473.54 189.225 473.54C187.325 473.54 185.825 474.66 185.825 476.32C185.825 478.08 187.325 479.16 189.125 479.16C190.185 479.16 191.125 478.7 191.465 478.34V479H192.905ZM191.465 476.8C191.205 477.46 190.305 477.9 189.385 477.9C188.305 477.9 187.265 477.4 187.265 476.32C187.265 475.26 188.305 474.78 189.385 474.78C190.305 474.78 191.205 475.22 191.465 475.88V476.8ZM195.469 479H196.969V472.98C197.289 472.02 198.189 471.32 199.229 471.32C200.569 471.32 201.189 472.18 201.189 473.42V479H202.709V473.18C202.709 471.24 201.609 469.94 199.589 469.94C198.449 469.94 197.489 470.54 196.969 471.24V470.12H195.469V479ZM211.168 477.96C211.608 478.6 212.568 479.18 213.668 479.18C216.268 479.18 217.668 477.08 217.668 474.56C217.668 472.06 216.268 469.94 213.668 469.94C212.568 469.94 211.608 470.52 211.168 471.16V466H209.648V479H211.168V477.96ZM211.168 472.76C211.628 471.84 212.508 471.3 213.448 471.3C215.148 471.3 216.148 472.68 216.148 474.56C216.148 476.44 215.148 477.82 213.448 477.82C212.508 477.82 211.628 477.28 211.168 476.36V472.76ZM225.346 476.34C225.106 477.34 224.286 477.9 223.186 477.9C221.686 477.9 220.626 476.74 220.606 474.84H226.886V474.3C226.886 471.72 225.586 469.94 223.146 469.94C220.726 469.94 219.106 471.92 219.106 474.58C219.106 477.32 220.766 479.18 223.186 479.18C225.186 479.18 226.446 478.02 226.766 476.34H225.346ZM223.166 471.22C224.646 471.22 225.346 472.38 225.366 473.7H220.646C220.866 472.14 221.826 471.22 223.166 471.22ZM239.741 479V473.08C239.741 471.14 238.481 469.94 236.361 469.94C234.661 469.94 233.341 470.96 233.041 472.46H234.521C234.801 471.64 235.401 471.24 236.341 471.24C237.621 471.24 238.301 472.04 238.301 473.14V474.26C237.921 473.92 236.981 473.54 236.061 473.54C234.161 473.54 232.661 474.66 232.661 476.32C232.661 478.08 234.161 479.16 235.961 479.16C237.021 479.16 237.961 478.7 238.301 478.34V479H239.741ZM238.301 476.8C238.041 477.46 237.141 477.9 236.221 477.9C235.141 477.9 234.101 477.4 234.101 476.32C234.101 475.26 235.141 474.78 236.221 474.78C237.141 474.78 238.041 475.22 238.301 475.88V476.8ZM243.805 477.96C244.265 478.6 245.205 479.18 246.305 479.18C248.925 479.18 250.305 477.02 250.305 474.56C250.305 472.1 248.925 469.94 246.305 469.94C245.205 469.94 244.265 470.52 243.805 471.16V470.12H242.305V482.4H243.805V477.96ZM243.805 472.76C244.265 471.84 245.145 471.3 246.085 471.3C247.785 471.3 248.785 472.68 248.785 474.56C248.785 476.44 247.785 477.82 246.085 477.82C245.145 477.82 244.265 477.28 243.805 476.36V472.76ZM253.844 477.96C254.304 478.6 255.244 479.18 256.344 479.18C258.964 479.18 260.344 477.02 260.344 474.56C260.344 472.1 258.964 469.94 256.344 469.94C255.244 469.94 254.304 470.52 253.844 471.16V470.12H252.344V482.4H253.844V477.96ZM253.844 472.76C254.304 471.84 255.184 471.3 256.124 471.3C257.824 471.3 258.824 472.68 258.824 474.56C258.824 476.44 257.824 477.82 256.124 477.82C255.184 477.82 254.304 477.28 253.844 476.36V472.76ZM268.022 476.34C267.782 477.34 266.962 477.9 265.862 477.9C264.362 477.9 263.302 476.74 263.282 474.84H269.562V474.3C269.562 471.72 268.262 469.94 265.822 469.94C263.402 469.94 261.782 471.92 261.782 474.58C261.782 477.32 263.442 479.18 265.862 479.18C267.862 479.18 269.122 478.02 269.442 476.34H268.022ZM265.842 471.22C267.322 471.22 268.022 472.38 268.042 473.7H263.322C263.542 472.14 264.502 471.22 265.842 471.22ZM278.003 479V473.08C278.003 471.14 276.743 469.94 274.623 469.94C272.923 469.94 271.603 470.96 271.303 472.46H272.783C273.063 471.64 273.663 471.24 274.603 471.24C275.883 471.24 276.563 472.04 276.563 473.14V474.26C276.183 473.92 275.243 473.54 274.323 473.54C272.423 473.54 270.923 474.66 270.923 476.32C270.923 478.08 272.423 479.16 274.223 479.16C275.283 479.16 276.223 478.7 276.563 478.34V479H278.003ZM276.563 476.8C276.303 477.46 275.403 477.9 274.483 477.9C273.403 477.9 272.363 477.4 272.363 476.32C272.363 475.26 273.403 474.78 274.483 474.78C275.403 474.78 276.303 475.22 276.563 475.88V476.8ZM282.067 466H280.567V479H282.067V466ZM290.346 476.34C290.106 477.34 289.286 477.9 288.186 477.9C286.686 477.9 285.626 476.74 285.606 474.84H291.886V474.3C291.886 471.72 290.586 469.94 288.146 469.94C285.726 469.94 284.106 471.92 284.106 474.58C284.106 477.32 285.766 479.18 288.186 479.18C290.186 479.18 291.446 478.02 291.766 476.34H290.346ZM288.166 471.22C289.646 471.22 290.346 472.38 290.366 473.7H285.646C285.866 472.14 286.826 471.22 288.166 471.22ZM299.786 479H301.306V466H299.786V471.16C299.346 470.52 298.386 469.94 297.286 469.94C294.686 469.94 293.286 472.06 293.286 474.56C293.286 477.08 294.686 479.18 297.286 479.18C298.386 479.18 299.346 478.6 299.786 477.96V479ZM299.786 476.36C299.326 477.28 298.446 477.82 297.506 477.82C295.806 477.82 294.806 476.44 294.806 474.56C294.806 472.68 295.806 471.3 297.506 471.3C298.446 471.3 299.326 471.84 299.786 472.76V476.36ZM309.879 477.96C310.319 478.6 311.279 479.18 312.379 479.18C314.979 479.18 316.379 477.08 316.379 474.56C316.379 472.06 314.979 469.94 312.379 469.94C311.279 469.94 310.319 470.52 309.879 471.16V466H308.359V479H309.879V477.96ZM309.879 472.76C310.339 471.84 311.219 471.3 312.159 471.3C313.859 471.3 314.859 472.68 314.859 474.56C314.859 476.44 313.859 477.82 312.159 477.82C311.219 477.82 310.339 477.28 309.879 476.36V472.76ZM320.882 482.4L325.662 470.12H324.102L321.522 477.12L318.902 470.12H317.282L320.742 479.06L319.402 482.4H320.882ZM332.198 476.76C332.198 478.4 333.198 479.18 334.638 479.18C335.178 479.18 335.698 479.06 336.038 478.88V477.48C335.738 477.68 335.298 477.84 334.878 477.84C334.118 477.84 333.698 477.46 333.698 476.6V471.4H335.838V470.12H333.698V467.78H332.198V470.12H330.758V471.4H332.198V476.76ZM338.125 479H339.625V472.98C339.945 472.02 340.845 471.32 341.885 471.32C343.225 471.32 343.845 472.18 343.845 473.42V479H345.365V473.18C345.365 471.24 344.265 469.94 342.245 469.94C341.105 469.94 340.145 470.54 339.625 471.24V466H338.125V479ZM353.51 476.34C353.27 477.34 352.45 477.9 351.35 477.9C349.85 477.9 348.79 476.74 348.77 474.84H355.05V474.3C355.05 471.72 353.75 469.94 351.31 469.94C348.89 469.94 347.27 471.92 347.27 474.58C347.27 477.32 348.93 479.18 351.35 479.18C353.35 479.18 354.61 478.02 354.93 476.34H353.51ZM351.33 471.22C352.81 471.22 353.51 472.38 353.53 473.7H348.81C349.03 472.14 349.99 471.22 351.33 471.22ZM362.965 466H361.465V479H362.965V466ZM373.165 474.56C373.165 471.84 371.505 469.94 369.085 469.94C366.645 469.94 365.005 471.84 365.005 474.56C365.005 477.28 366.645 479.18 369.085 479.18C371.505 479.18 373.165 477.28 373.165 474.56ZM371.645 474.56C371.645 476.5 370.685 477.86 369.085 477.86C367.485 477.86 366.525 476.5 366.525 474.56C366.525 472.62 367.485 471.26 369.085 471.26C370.685 471.26 371.645 472.62 371.645 474.56ZM374.455 476.56C374.735 478.2 376.155 479.18 378.095 479.18C379.995 479.18 381.395 478.18 381.395 476.5C381.395 475.26 380.655 474.42 379.135 474.02L377.415 473.6C376.575 473.36 376.175 473.08 376.175 472.48C376.175 471.62 376.995 471.2 377.875 471.2C378.955 471.2 379.575 471.66 379.835 472.46H381.335C381.015 470.9 379.855 469.94 377.895 469.94C376.095 469.94 374.715 470.98 374.715 472.56C374.715 473.94 375.595 474.58 376.855 474.9L378.615 475.36C379.535 475.6 379.935 475.98 379.935 476.6C379.935 477.5 379.175 477.92 378.115 477.92C377.075 477.92 376.295 477.48 376.015 476.56H374.455ZM389.077 476.34C388.837 477.34 388.017 477.9 386.917 477.9C385.417 477.9 384.357 476.74 384.337 474.84H390.617V474.3C390.617 471.72 389.317 469.94 386.877 469.94C384.457 469.94 382.837 471.92 382.837 474.58C382.837 477.32 384.497 479.18 386.917 479.18C388.917 479.18 390.177 478.02 390.497 476.34H389.077ZM386.897 471.22C388.377 471.22 389.077 472.38 389.097 473.7H384.377C384.597 472.14 385.557 471.22 386.897 471.22ZM397.177 470.08C397.017 470 396.697 469.94 396.317 469.94C395.337 469.94 394.497 470.52 394.117 471.28V470.12H392.617V479H394.117V473.04C394.417 472 395.237 471.38 396.177 471.38C396.557 471.38 396.937 471.46 397.177 471.62V470.08ZM407.897 466.02C407.557 465.88 407.217 465.82 406.737 465.82C405.177 465.82 404.017 466.86 404.017 468.64V470.12H402.517V471.4H404.017V479H405.497V471.4H407.497V470.12H405.497V468.76C405.497 467.7 406.077 467.14 406.957 467.14C407.277 467.14 407.617 467.2 407.897 467.38V466.02ZM416.622 474.56C416.622 471.84 414.962 469.94 412.542 469.94C410.102 469.94 408.462 471.84 408.462 474.56C408.462 477.28 410.102 479.18 412.542 479.18C414.962 479.18 416.622 477.28 416.622 474.56ZM415.102 474.56C415.102 476.5 414.142 477.86 412.542 477.86C410.942 477.86 409.982 476.5 409.982 474.56C409.982 472.62 410.942 471.26 412.542 471.26C414.142 471.26 415.102 472.62 415.102 474.56ZM423.213 470.08C423.053 470 422.733 469.94 422.353 469.94C421.373 469.94 420.533 470.52 420.153 471.28V470.12H418.653V479H420.153V473.04C420.453 472 421.273 471.38 422.213 471.38C422.592 471.38 422.973 471.46 423.213 471.62V470.08ZM435.932 479V473.08C435.932 471.14 434.672 469.94 432.552 469.94C430.852 469.94 429.532 470.96 429.232 472.46H430.712C430.992 471.64 431.592 471.24 432.532 471.24C433.812 471.24 434.492 472.04 434.492 473.14V474.26C434.112 473.92 433.172 473.54 432.252 473.54C430.352 473.54 428.852 474.66 428.852 476.32C428.852 478.08 430.352 479.16 432.152 479.16C433.212 479.16 434.152 478.7 434.492 478.34V479H435.932ZM434.492 476.8C434.232 477.46 433.332 477.9 432.412 477.9C431.332 477.9 430.292 477.4 430.292 476.32C430.292 475.26 431.332 474.78 432.412 474.78C433.332 474.78 434.232 475.22 434.492 475.88V476.8ZM444.356 479H445.876V466H444.356V471.16C443.916 470.52 442.956 469.94 441.856 469.94C439.256 469.94 437.856 472.06 437.856 474.56C437.856 477.08 439.256 479.18 441.856 479.18C442.956 479.18 443.916 478.6 444.356 477.96V479ZM444.356 476.36C443.896 477.28 443.016 477.82 442.076 477.82C440.376 477.82 439.376 476.44 439.376 474.56C439.376 472.68 440.376 471.3 442.076 471.3C443.016 471.3 443.896 471.84 444.356 472.76V476.36ZM454.395 479H455.915V466H454.395V471.16C453.955 470.52 452.995 469.94 451.895 469.94C449.295 469.94 447.895 472.06 447.895 474.56C447.895 477.08 449.295 479.18 451.895 479.18C452.995 479.18 453.955 478.6 454.395 477.96V479ZM454.395 476.36C453.935 477.28 453.055 477.82 452.115 477.82C450.415 477.82 449.415 476.44 449.415 474.56C449.415 472.68 450.415 471.3 452.115 471.3C453.055 471.3 453.935 471.84 454.395 472.76V476.36ZM460.074 470.12H458.574V479H460.074V470.12ZM460.294 467.44C460.294 466.9 459.854 466.48 459.314 466.48C458.794 466.48 458.354 466.9 458.354 467.44C458.354 467.96 458.794 468.4 459.314 468.4C459.854 468.4 460.294 467.96 460.294 467.44ZM463.174 476.76C463.174 478.4 464.174 479.18 465.614 479.18C466.154 479.18 466.674 479.06 467.014 478.88V477.48C466.714 477.68 466.274 477.84 465.854 477.84C465.094 477.84 464.674 477.46 464.674 476.6V471.4H466.814V470.12H464.674V467.78H463.174V470.12H461.734V471.4H463.174V476.76ZM470.602 470.12H469.102V479H470.602V470.12ZM470.822 467.44C470.822 466.9 470.382 466.48 469.842 466.48C469.322 466.48 468.882 466.9 468.882 467.44C468.882 467.96 469.322 468.4 469.842 468.4C470.382 468.4 470.822 467.96 470.822 467.44ZM480.801 474.56C480.801 471.84 479.141 469.94 476.721 469.94C474.281 469.94 472.641 471.84 472.641 474.56C472.641 477.28 474.281 479.18 476.721 479.18C479.141 479.18 480.801 477.28 480.801 474.56ZM479.281 474.56C479.281 476.5 478.321 477.86 476.721 477.86C475.121 477.86 474.161 476.5 474.161 474.56C474.161 472.62 475.121 471.26 476.721 471.26C478.321 471.26 479.281 472.62 479.281 474.56ZM482.832 479H484.332V472.98C484.652 472.02 485.552 471.32 486.592 471.32C487.932 471.32 488.552 472.18 488.552 473.42V479H490.072V473.18C490.072 471.24 488.972 469.94 486.952 469.94C485.812 469.94 484.852 470.54 484.332 471.24V470.12H482.832V479ZM499.057 479V473.08C499.057 471.14 497.797 469.94 495.677 469.94C493.977 469.94 492.657 470.96 492.357 472.46H493.837C494.117 471.64 494.717 471.24 495.657 471.24C496.937 471.24 497.617 472.04 497.617 473.14V474.26C497.237 473.92 496.297 473.54 495.377 473.54C493.477 473.54 491.977 474.66 491.977 476.32C491.977 478.08 493.477 479.16 495.277 479.16C496.337 479.16 497.277 478.7 497.617 478.34V479H499.057ZM497.617 476.8C497.357 477.46 496.457 477.9 495.537 477.9C494.457 477.9 493.417 477.4 493.417 476.32C493.417 475.26 494.457 474.78 495.537 474.78C496.457 474.78 497.357 475.22 497.617 475.88V476.8ZM503.121 466H501.621V479H503.121V466ZM514.655 466.02C514.315 465.88 513.975 465.82 513.495 465.82C511.935 465.82 510.775 466.86 510.775 468.64V470.12H509.275V471.4H510.775V479H512.255V471.4H514.255V470.12H512.255V468.76C512.255 467.7 512.835 467.14 513.715 467.14C514.035 467.14 514.375 467.2 514.655 467.38V466.02ZM521.46 476.34C521.22 477.34 520.4 477.9 519.3 477.9C517.8 477.9 516.74 476.74 516.72 474.84H523V474.3C523 471.72 521.7 469.94 519.26 469.94C516.84 469.94 515.22 471.92 515.22 474.58C515.22 477.32 516.88 479.18 519.3 479.18C521.3 479.18 522.56 478.02 522.88 476.34H521.46ZM519.28 471.22C520.76 471.22 521.46 472.38 521.48 473.7H516.76C516.98 472.14 517.94 471.22 519.28 471.22ZM530.639 476.34C530.399 477.34 529.579 477.9 528.479 477.9C526.979 477.9 525.919 476.74 525.899 474.84H532.179V474.3C532.179 471.72 530.879 469.94 528.439 469.94C526.019 469.94 524.399 471.92 524.399 474.58C524.399 477.32 526.059 479.18 528.479 479.18C530.479 479.18 531.739 478.02 532.059 476.34H530.639ZM528.459 471.22C529.939 471.22 530.639 472.38 530.659 473.7H525.939C526.159 472.14 527.119 471.22 528.459 471.22ZM533.479 476.56C533.759 478.2 535.179 479.18 537.119 479.18C539.019 479.18 540.419 478.18 540.419 476.5C540.419 475.26 539.679 474.42 538.159 474.02L536.439 473.6C535.599 473.36 535.199 473.08 535.199 472.48C535.199 471.62 536.019 471.2 536.899 471.2C537.979 471.2 538.599 471.66 538.859 472.46H540.359C540.039 470.9 538.879 469.94 536.919 469.94C535.119 469.94 533.739 470.98 533.739 472.56C533.739 473.94 534.619 474.58 535.879 474.9L537.639 475.36C538.559 475.6 538.959 475.98 538.959 476.6C538.959 477.5 538.199 477.92 537.139 477.92C536.099 477.92 535.319 477.48 535.039 476.56H533.479ZM541.8 478.02C541.8 478.64 542.28 479.1 542.88 479.1C543.46 479.1 543.94 478.64 543.94 478.02C543.94 477.4 543.46 476.92 542.88 476.92C542.28 476.92 541.8 477.4 541.8 478.02Z" fill="#1C1C1C"/>
<circle cx="526" cy="195" r="39" fill="#7FDFA6" fill-opacity="0.2"/>
<circle cx="377" cy="221" r="39" fill="#FFA776"/>
<rect x="384.108" y="225.748" width="10.4486" height="8.40782" transform="rotate(-45.5209 384.108 225.748)" fill="#F9FAFC"/>
<rect x="380.536" y="222.455" width="10.4486" height="2.88173" transform="rotate(-45.5209 380.536 222.455)" fill="#F9FAFC"/>
<rect x="391.623" y="233.038" width="10.4486" height="2.88173" transform="rotate(-45.5209 391.623 233.038)" fill="#F9FAFC"/>
<rect x="383.542" y="229.868" width="3.58732" height="10.7917" transform="rotate(44.341 383.542 229.868)" fill="#F9FAFC"/>
<path d="M361 236.7C361 227.838 368.184 220.654 377.047 220.654" stroke="#F9FAFC" stroke-width="5"/>
<circle cx="377.047" cy="205.551" r="7.5513" fill="#F9FAFC"/>
<circle cx="279" cy="195" r="39" fill="#7FDFA6" fill-opacity="0.2"/>
<circle cx="249" cy="221" r="39" fill="#FFA776"/>
<circle cx="279" cy="195" r="16" fill="#7FDFA6"/>
<rect x="271" y="193" width="16" height="4" fill="white"/>
<rect x="281" y="194" width="9" height="4" transform="rotate(90 281 194)" fill="white"/>
<rect x="281" y="187" width="4" height="4" transform="rotate(90 281 187)" fill="white"/>
<rect x="256.108" y="225.748" width="10.4486" height="8.40782" transform="rotate(-45.5209 256.108 225.748)" fill="#F9FAFC"/>
<rect x="252.536" y="222.455" width="10.4486" height="2.88173" transform="rotate(-45.5209 252.536 222.455)" fill="#F9FAFC"/>
<rect x="263.623" y="233.038" width="10.4486" height="2.88173" transform="rotate(-45.5209 263.623 233.038)" fill="#F9FAFC"/>
<rect x="255.542" y="229.868" width="3.58732" height="10.7917" transform="rotate(44.341 255.542 229.868)" fill="#F9FAFC"/>
<path d="M233 236.7C233 227.838 240.184 220.654 249.047 220.654" stroke="#F9FAFC" stroke-width="5"/>
<circle cx="249.047" cy="205.551" r="7.5513" fill="#F9FAFC"/>
<circle cx="498" cy="221" r="39" fill="#FFA776"/>
<rect x="504.108" y="225.748" width="10.4486" height="8.40782" transform="rotate(-45.5209 504.108 225.748)" fill="#F9FAFC"/>
<rect x="500.536" y="222.455" width="10.4486" height="2.88173" transform="rotate(-45.5209 500.536 222.455)" fill="#F9FAFC"/>
<rect x="511.623" y="233.038" width="10.4486" height="2.88173" transform="rotate(-45.5209 511.623 233.038)" fill="#F9FAFC"/>
<rect x="503.542" y="229.868" width="3.58732" height="10.7917" transform="rotate(44.341 503.542 229.868)" fill="#F9FAFC"/>
<path d="M481 236.7C481 227.838 488.184 220.654 497.047 220.654" stroke="#F9FAFC" stroke-width="5"/>
<circle cx="497.047" cy="205.551" r="7.5513" fill="#F9FAFC"/>
<circle cx="526" cy="195" r="16" fill="#7FDFA6"/>
<rect x="518" y="193" width="16" height="4" fill="white"/>
<rect x="528" y="194" width="9" height="4" transform="rotate(90 528 194)" fill="white"/>
<rect x="528" y="187" width="4" height="4" transform="rotate(90 528 187)" fill="white"/>
<circle cx="407" cy="195" r="16" fill="#FF7C7C"/>
<rect x="399" y="193" width="16" height="4" fill="white"/>
<defs>
<filter id="filter0_d" x="0" y="0" width="782" height="534" filterUnits="userSpaceOnUse" color-interpolation-filters="sRGB">
<feFlood flood-opacity="0" result="BackgroundImageFix"/>
<feColorMatrix in="SourceAlpha" type="matrix" values="0 0 0 0 0 0 0 0 0 0 0 0 0 0 0 0 0 0 127 0"/>
<feOffset dy="3"/>
<feGaussianBlur stdDeviation="8.5"/>
<feColorMatrix type="matrix" values="0 0 0 0 0 0 0 0 0 0 0 0 0 0 0 0 0 0 0.1 0"/>
<feBlend mode="normal" in2="BackgroundImageFix" result="effect1_dropShadow"/>
<feBlend mode="normal" in="SourceGraphic" in2="effect1_dropShadow" result="shape"/>
</filter>
<linearGradient id="paint0_linear" x1="750" y1="408.937" x2="687.559" y2="649.81" gradientUnits="userSpaceOnUse">
<stop stop-color="#FFF8F0"/>
<stop offset="1" stop-color="#FFF3F1"/>
</linearGradient>
</defs>
</svg>
