<svg width="782" height="534" viewBox="0 0 782 534" fill="none" xmlns="http://www.w3.org/2000/svg">
<g filter="url(#filter0_d)">
<rect x="17" y="14" width="748" height="500" rx="6" fill="white"/>
</g>
<mask id="mask0" mask-type="alpha" maskUnits="userSpaceOnUse" x="17" y="14" width="748" height="500">
<rect x="17" y="14" width="748" height="500" rx="6" fill="white"/>
</mask>
<g mask="url(#mask0)">
<circle opacity="0.2" cx="391.5" cy="213.5" r="223.216" stroke="#FFA776" stroke-width="1.5"/>
<circle opacity="0.15" cx="391.5" cy="213.5" r="255.045" stroke="#FFA776" stroke-width="1.5"/>
<circle opacity="0.1" cx="391.5" cy="213.5" r="286.098" stroke="#FFA776" stroke-width="1.5"/>
<circle opacity="0.05" cx="391.5" cy="213.5" r="317.75" stroke="#FFA776" stroke-width="1.5"/>
</g>
<rect x="32" y="391" width="718" height="109" rx="4" fill="url(#paint0_linear)"/>
<path d="M59.76 418.64C60.72 418.34 61.56 417.44 61.56 415.98C61.56 413.86 60.04 412.72 57.5 412.72H53.46V425H57.9C60.42 425 61.98 423.78 61.98 421.54C61.98 420.16 61.08 418.98 59.76 418.64ZM55 418.06V414.1H57.5C59.14 414.1 60.04 414.72 60.04 416.06C60.04 417.4 59.14 418.06 57.5 418.06H55ZM55 419.38H57.9C59.56 419.38 60.44 420.2 60.44 421.5C60.44 422.78 59.56 423.62 57.9 423.62H55V419.38ZM71.6803 420.56C71.6803 417.84 70.0203 415.94 67.6003 415.94C65.1603 415.94 63.5203 417.84 63.5203 420.56C63.5203 423.28 65.1603 425.18 67.6003 425.18C70.0203 425.18 71.6803 423.28 71.6803 420.56ZM70.1603 420.56C70.1603 422.5 69.2003 423.86 67.6003 423.86C66.0003 423.86 65.0403 422.5 65.0403 420.56C65.0403 418.62 66.0003 417.26 67.6003 417.26C69.2003 417.26 70.1603 418.62 70.1603 420.56ZM75.2111 423.96C75.6511 424.6 76.6111 425.18 77.7111 425.18C80.3111 425.18 81.7111 423.08 81.7111 420.56C81.7111 418.06 80.3111 415.94 77.7111 415.94C76.6111 415.94 75.6511 416.52 75.2111 417.16V412H73.6911V425H75.2111V423.96ZM75.2111 418.76C75.6711 417.84 76.5511 417.3 77.4911 417.3C79.1911 417.3 80.1911 418.68 80.1911 420.56C80.1911 422.44 79.1911 423.82 77.4911 423.82C76.5511 423.82 75.6711 423.28 75.2111 422.36V418.76ZM94.0242 425H95.5442V412H94.0242V417.16C93.5842 416.52 92.6242 415.94 91.5242 415.94C88.9242 415.94 87.5242 418.06 87.5242 420.56C87.5242 423.08 88.9242 425.18 91.5242 425.18C92.6242 425.18 93.5842 424.6 94.0242 423.96V425ZM94.0242 422.36C93.5642 423.28 92.6842 423.82 91.7442 423.82C90.0442 423.82 89.0442 422.44 89.0442 420.56C89.0442 418.68 90.0442 417.3 91.7442 417.3C92.6842 417.3 93.5642 417.84 94.0242 418.76V422.36ZM103.803 422.34C103.563 423.34 102.743 423.9 101.643 423.9C100.143 423.9 99.0833 422.74 99.0633 420.84H105.343V420.3C105.343 417.72 104.043 415.94 101.603 415.94C99.1833 415.94 97.5633 417.92 97.5633 420.58C97.5633 423.32 99.2233 425.18 101.643 425.18C103.643 425.18 104.903 424.02 105.223 422.34H103.803ZM101.623 417.22C103.103 417.22 103.803 418.38 103.823 419.7H99.1033C99.3233 418.14 100.283 417.22 101.623 417.22ZM106.743 420.56C106.743 423.32 108.403 425.18 110.783 425.18C112.783 425.18 114.043 424.02 114.343 422.32H112.803C112.603 423.28 111.843 423.86 110.783 423.86C109.263 423.86 108.263 422.5 108.263 420.56C108.263 418.62 109.263 417.26 110.783 417.26C111.843 417.26 112.603 417.84 112.803 418.8H114.343C114.043 417.1 112.783 415.94 110.783 415.94C108.403 415.94 106.743 417.8 106.743 420.56ZM117.809 416.12H116.309V425H117.809V416.12ZM118.029 413.44C118.029 412.9 117.589 412.48 117.049 412.48C116.529 412.48 116.089 412.9 116.089 413.44C116.089 413.96 116.529 414.4 117.049 414.4C117.589 414.4 118.029 413.96 118.029 413.44ZM126.348 425H127.868V412H126.348V417.16C125.908 416.52 124.948 415.94 123.848 415.94C121.248 415.94 119.848 418.06 119.848 420.56C119.848 423.08 121.248 425.18 123.848 425.18C124.948 425.18 125.908 424.6 126.348 423.96V425ZM126.348 422.36C125.888 423.28 125.008 423.82 124.068 423.82C122.368 423.82 121.368 422.44 121.368 420.56C121.368 418.68 122.368 417.3 124.068 417.3C125.008 417.3 125.888 417.84 126.348 418.76V422.36ZM136.128 422.34C135.888 423.34 135.067 423.9 133.968 423.9C132.468 423.9 131.408 422.74 131.388 420.84H137.668V420.3C137.668 417.72 136.368 415.94 133.928 415.94C131.508 415.94 129.888 417.92 129.888 420.58C129.888 423.32 131.548 425.18 133.968 425.18C135.968 425.18 137.228 424.02 137.548 422.34H136.128ZM133.948 417.22C135.428 417.22 136.128 418.38 136.148 419.7H131.428C131.648 418.14 132.608 417.22 133.948 417.22ZM138.967 422.56C139.247 424.2 140.667 425.18 142.607 425.18C144.507 425.18 145.907 424.18 145.907 422.5C145.907 421.26 145.167 420.42 143.647 420.02L141.927 419.6C141.087 419.36 140.687 419.08 140.687 418.48C140.687 417.62 141.507 417.2 142.387 417.2C143.467 417.2 144.087 417.66 144.347 418.46H145.847C145.527 416.9 144.367 415.94 142.407 415.94C140.607 415.94 139.227 416.98 139.227 418.56C139.227 419.94 140.107 420.58 141.367 420.9L143.127 421.36C144.047 421.6 144.447 421.98 144.447 422.6C144.447 423.5 143.687 423.92 142.627 423.92C141.587 423.92 140.807 423.48 140.527 422.56H138.967ZM152.403 425H153.903V418.98C154.223 418.02 155.123 417.32 156.163 417.32C157.503 417.32 158.123 418.18 158.123 419.42V425H159.643V419.18C159.643 417.24 158.543 415.94 156.523 415.94C155.383 415.94 154.423 416.54 153.903 417.24V416.12H152.403V425ZM169.708 420.56C169.708 417.84 168.048 415.94 165.628 415.94C163.188 415.94 161.548 417.84 161.548 420.56C161.548 423.28 163.188 425.18 165.628 425.18C168.048 425.18 169.708 423.28 169.708 420.56ZM168.188 420.56C168.188 422.5 167.228 423.86 165.628 423.86C164.028 423.86 163.068 422.5 163.068 420.56C163.068 418.62 164.028 417.26 165.628 417.26C167.228 417.26 168.188 418.62 168.188 420.56ZM172.158 422.76C172.158 424.4 173.158 425.18 174.598 425.18C175.138 425.18 175.658 425.06 175.998 424.88V423.48C175.698 423.68 175.258 423.84 174.838 423.84C174.078 423.84 173.658 423.46 173.658 422.6V417.4H175.798V416.12H173.658V413.78H172.158V416.12H170.718V417.4H172.158V422.76ZM182.92 422.76C182.92 424.4 183.92 425.18 185.36 425.18C185.9 425.18 186.42 425.06 186.76 424.88V423.48C186.46 423.68 186.02 423.84 185.6 423.84C184.84 423.84 184.42 423.46 184.42 422.6V417.4H186.56V416.12H184.42V413.78H182.92V416.12H181.48V417.4H182.92V422.76ZM196.27 420.56C196.27 417.84 194.61 415.94 192.19 415.94C189.75 415.94 188.11 417.84 188.11 420.56C188.11 423.28 189.75 425.18 192.19 425.18C194.61 425.18 196.27 423.28 196.27 420.56ZM194.75 420.56C194.75 422.5 193.79 423.86 192.19 423.86C190.59 423.86 189.63 422.5 189.63 420.56C189.63 418.62 190.59 417.26 192.19 417.26C193.79 417.26 194.75 418.62 194.75 420.56ZM209.155 425V419.08C209.155 417.14 207.895 415.94 205.775 415.94C204.075 415.94 202.755 416.96 202.455 418.46H203.935C204.215 417.64 204.815 417.24 205.755 417.24C207.035 417.24 207.715 418.04 207.715 419.14V420.26C207.335 419.92 206.395 419.54 205.475 419.54C203.575 419.54 202.075 420.66 202.075 422.32C202.075 424.08 203.575 425.16 205.375 425.16C206.435 425.16 207.375 424.7 207.715 424.34V425H209.155ZM207.715 422.8C207.455 423.46 206.555 423.9 205.635 423.9C204.555 423.9 203.515 423.4 203.515 422.32C203.515 421.26 204.555 420.78 205.635 420.78C206.555 420.78 207.455 421.22 207.715 421.88V422.8ZM213.219 423.96C213.679 424.6 214.619 425.18 215.719 425.18C218.339 425.18 219.719 423.02 219.719 420.56C219.719 418.1 218.339 415.94 215.719 415.94C214.619 415.94 213.679 416.52 213.219 417.16V416.12H211.719V428.4H213.219V423.96ZM213.219 418.76C213.679 417.84 214.559 417.3 215.499 417.3C217.199 417.3 218.199 418.68 218.199 420.56C218.199 422.44 217.199 423.82 215.499 423.82C214.559 423.82 213.679 423.28 213.219 422.36V418.76ZM223.258 423.96C223.718 424.6 224.658 425.18 225.758 425.18C228.378 425.18 229.758 423.02 229.758 420.56C229.758 418.1 228.378 415.94 225.758 415.94C224.658 415.94 223.718 416.52 223.258 417.16V416.12H221.758V428.4H223.258V423.96ZM223.258 418.76C223.718 417.84 224.598 417.3 225.538 417.3C227.238 417.3 228.238 418.68 228.238 420.56C228.238 422.44 227.238 423.82 225.538 423.82C224.598 423.82 223.718 423.28 223.258 422.36V418.76ZM237.436 422.34C237.196 423.34 236.376 423.9 235.276 423.9C233.776 423.9 232.716 422.74 232.696 420.84H238.976V420.3C238.976 417.72 237.676 415.94 235.236 415.94C232.816 415.94 231.196 417.92 231.196 420.58C231.196 423.32 232.856 425.18 235.276 425.18C237.276 425.18 238.536 424.02 238.856 422.34H237.436ZM235.256 417.22C236.736 417.22 237.436 418.38 237.456 419.7H232.736C232.956 418.14 233.916 417.22 235.256 417.22ZM247.417 425V419.08C247.417 417.14 246.157 415.94 244.037 415.94C242.337 415.94 241.017 416.96 240.717 418.46H242.197C242.477 417.64 243.077 417.24 244.017 417.24C245.297 417.24 245.977 418.04 245.977 419.14V420.26C245.597 419.92 244.657 419.54 243.737 419.54C241.837 419.54 240.337 420.66 240.337 422.32C240.337 424.08 241.837 425.16 243.637 425.16C244.697 425.16 245.637 424.7 245.977 424.34V425H247.417ZM245.977 422.8C245.717 423.46 244.817 423.9 243.897 423.9C242.817 423.9 241.777 423.4 241.777 422.32C241.777 421.26 242.817 420.78 243.897 420.78C244.817 420.78 245.717 421.22 245.977 421.88V422.8ZM251.481 412H249.981V425H251.481V412ZM258.994 422.76C258.994 424.4 259.994 425.18 261.434 425.18C261.974 425.18 262.494 425.06 262.834 424.88V423.48C262.534 423.68 262.094 423.84 261.674 423.84C260.914 423.84 260.494 423.46 260.494 422.6V417.4H262.634V416.12H260.494V413.78H258.994V416.12H257.554V417.4H258.994V422.76ZM264.922 425H266.422V418.98C266.742 418.02 267.642 417.32 268.682 417.32C270.022 417.32 270.642 418.18 270.642 419.42V425H272.162V419.18C272.162 417.24 271.062 415.94 269.042 415.94C267.902 415.94 266.942 416.54 266.422 417.24V412H264.922V425ZM280.307 422.34C280.067 423.34 279.247 423.9 278.147 423.9C276.647 423.9 275.587 422.74 275.567 420.84H281.847V420.3C281.847 417.72 280.547 415.94 278.107 415.94C275.687 415.94 274.067 417.92 274.067 420.58C274.067 423.32 275.727 425.18 278.147 425.18C280.147 425.18 281.407 424.02 281.727 422.34H280.307ZM278.127 417.22C279.607 417.22 280.307 418.38 280.327 419.7H275.607C275.827 418.14 276.787 417.22 278.127 417.22ZM289.762 423.96C290.222 424.6 291.162 425.18 292.262 425.18C294.882 425.18 296.262 423.02 296.262 420.56C296.262 418.1 294.882 415.94 292.262 415.94C291.162 415.94 290.222 416.52 289.762 417.16V416.12H288.262V428.4H289.762V423.96ZM289.762 418.76C290.222 417.84 291.102 417.3 292.042 417.3C293.742 417.3 294.742 418.68 294.742 420.56C294.742 422.44 293.742 423.82 292.042 423.82C291.102 423.82 290.222 423.28 289.762 422.36V418.76ZM302.861 416.08C302.701 416 302.381 415.94 302.001 415.94C301.021 415.94 300.181 416.52 299.801 417.28V416.12H298.301V425H299.801V419.04C300.101 418 300.921 417.38 301.861 417.38C302.241 417.38 302.621 417.46 302.861 417.62V416.08ZM310.073 422.34C309.833 423.34 309.013 423.9 307.913 423.9C306.413 423.9 305.353 422.74 305.333 420.84H311.613V420.3C311.613 417.72 310.313 415.94 307.873 415.94C305.453 415.94 303.833 417.92 303.833 420.58C303.833 423.32 305.493 425.18 307.913 425.18C309.913 425.18 311.173 424.02 311.493 422.34H310.073ZM307.893 417.22C309.373 417.22 310.073 418.38 310.093 419.7H305.373C305.593 418.14 306.553 417.22 307.893 417.22ZM315.113 412H313.613V425H315.113V412ZM319.293 416.12H317.793V425H319.293V416.12ZM319.513 413.44C319.513 412.9 319.073 412.48 318.533 412.48C318.013 412.48 317.573 412.9 317.573 413.44C317.573 413.96 318.013 414.4 318.533 414.4C319.073 414.4 319.513 413.96 319.513 413.44ZM328.273 417.36C327.853 416.52 326.993 415.94 325.873 415.94C324.773 415.94 323.913 416.46 323.473 417.16V416.12H321.973V425H323.473V418.88C323.753 417.92 324.533 417.3 325.433 417.3C326.573 417.3 327.113 418.12 327.113 419.36V425H328.613V418.88C328.893 417.92 329.673 417.3 330.573 417.3C331.713 417.3 332.253 418.12 332.253 419.36V425H333.773V419.12C333.773 417.2 332.773 415.94 330.973 415.94C329.733 415.94 328.833 416.56 328.273 417.36ZM337.809 416.12H336.309V425H337.809V416.12ZM338.029 413.44C338.029 412.9 337.589 412.48 337.049 412.48C336.529 412.48 336.089 412.9 336.089 413.44C336.089 413.96 336.529 414.4 337.049 414.4C337.589 414.4 338.029 413.96 338.029 413.44ZM340.488 425H341.988V418.98C342.308 418.02 343.208 417.32 344.248 417.32C345.588 417.32 346.208 418.18 346.208 419.42V425H347.728V419.18C347.728 417.24 346.628 415.94 344.608 415.94C343.468 415.94 342.508 416.54 341.988 417.24V416.12H340.488V425ZM356.714 425V419.08C356.714 417.14 355.454 415.94 353.334 415.94C351.634 415.94 350.314 416.96 350.014 418.46H351.494C351.774 417.64 352.374 417.24 353.314 417.24C354.594 417.24 355.274 418.04 355.274 419.14V420.26C354.894 419.92 353.954 419.54 353.034 419.54C351.134 419.54 349.634 420.66 349.634 422.32C349.634 424.08 351.134 425.16 352.934 425.16C353.994 425.16 354.934 424.7 355.274 424.34V425H356.714ZM355.274 422.8C355.014 423.46 354.114 423.9 353.194 423.9C352.114 423.9 351.074 423.4 351.074 422.32C351.074 421.26 352.114 420.78 353.194 420.78C354.114 420.78 355.014 421.22 355.274 421.88V422.8ZM363.838 416.08C363.678 416 363.358 415.94 362.978 415.94C361.998 415.94 361.158 416.52 360.778 417.28V416.12H359.278V425H360.778V419.04C361.078 418 361.898 417.38 362.838 417.38C363.217 417.38 363.598 417.46 363.838 417.62V416.08ZM368.323 428.4L373.103 416.12H371.543L368.963 423.12L366.343 416.12H364.723L368.183 425.06L366.843 428.4H368.323ZM383.779 416.08C383.619 416 383.299 415.94 382.919 415.94C381.939 415.94 381.099 416.52 380.719 417.28V416.12H379.219V425H380.719V419.04C381.019 418 381.839 417.38 382.779 417.38C383.159 417.38 383.539 417.46 383.779 417.62V416.08ZM392.725 416.12H391.205V422.14C390.885 423.1 390.025 423.8 388.985 423.8C387.645 423.8 387.045 422.94 387.045 421.7V416.12H385.525V421.94C385.525 423.88 386.605 425.18 388.625 425.18C389.765 425.18 390.705 424.58 391.205 423.88V425H392.725V416.12ZM396.891 412H395.391V425H396.891V412ZM401.07 416.12H399.57V425H401.07V416.12ZM401.29 413.44C401.29 412.9 400.85 412.48 400.31 412.48C399.79 412.48 399.35 412.9 399.35 413.44C399.35 413.96 399.79 414.4 400.31 414.4C400.85 414.4 401.29 413.96 401.29 413.44ZM403.75 425H405.25V418.98C405.57 418.02 406.47 417.32 407.51 417.32C408.85 417.32 409.47 418.18 409.47 419.42V425H410.99V419.18C410.99 417.24 409.89 415.94 407.87 415.94C406.73 415.94 405.77 416.54 405.25 417.24V416.12H403.75V425ZM419.355 424.4C419.355 426.32 418.515 427.32 416.915 427.32C415.695 427.32 414.855 426.78 414.595 425.66H413.115C413.395 427.48 414.755 428.6 416.915 428.6C419.195 428.6 420.875 427.22 420.875 424.3V416.12H419.355V417.12C418.915 416.5 417.975 415.94 416.875 415.94C414.275 415.94 412.895 418.08 412.895 420.44C412.895 422.78 414.275 424.94 416.875 424.94C417.975 424.94 418.915 424.36 419.355 423.74V424.4ZM419.355 422.2C418.895 423.04 418.055 423.58 417.095 423.58C415.415 423.58 414.435 422.26 414.435 420.44C414.435 418.6 415.415 417.28 417.095 417.28C418.055 417.28 418.895 417.82 419.355 418.66V422.2ZM434.269 417.36C433.849 416.52 432.989 415.94 431.869 415.94C430.769 415.94 429.909 416.46 429.469 417.16V416.12H427.969V425H429.469V418.88C429.749 417.92 430.529 417.3 431.429 417.3C432.569 417.3 433.109 418.12 433.109 419.36V425H434.609V418.88C434.889 417.92 435.669 417.3 436.569 417.3C437.709 417.3 438.249 418.12 438.249 419.36V425H439.769V419.12C439.769 417.2 438.769 415.94 436.969 415.94C435.729 415.94 434.829 416.56 434.269 417.36ZM448.745 425V419.08C448.745 417.14 447.485 415.94 445.365 415.94C443.665 415.94 442.345 416.96 442.045 418.46H443.525C443.805 417.64 444.405 417.24 445.345 417.24C446.625 417.24 447.305 418.04 447.305 419.14V420.26C446.925 419.92 445.985 419.54 445.065 419.54C443.165 419.54 441.665 420.66 441.665 422.32C441.665 424.08 443.165 425.16 444.965 425.16C446.025 425.16 446.965 424.7 447.305 424.34V425H448.745ZM447.305 422.8C447.045 423.46 446.145 423.9 445.225 423.9C444.145 423.9 443.105 423.4 443.105 422.32C443.105 421.26 444.145 420.78 445.225 420.78C446.145 420.78 447.045 421.22 447.305 421.88V422.8ZM457.149 425H458.989L454.849 419.96L458.849 416.12H456.869L452.809 420.06V412H451.309V425H452.809V421.82L453.769 420.9L457.149 425ZM462.086 416.12H460.586V425H462.086V416.12ZM462.306 413.44C462.306 412.9 461.866 412.48 461.326 412.48C460.806 412.48 460.366 412.9 460.366 413.44C460.366 413.96 460.806 414.4 461.326 414.4C461.866 414.4 462.306 413.96 462.306 413.44ZM464.766 425H466.266V418.98C466.586 418.02 467.486 417.32 468.526 417.32C469.866 417.32 470.486 418.18 470.486 419.42V425H472.006V419.18C472.006 417.24 470.906 415.94 468.886 415.94C467.746 415.94 466.786 416.54 466.266 417.24V416.12H464.766V425ZM480.371 424.4C480.371 426.32 479.531 427.32 477.931 427.32C476.711 427.32 475.871 426.78 475.611 425.66H474.131C474.411 427.48 475.771 428.6 477.931 428.6C480.211 428.6 481.891 427.22 481.891 424.3V416.12H480.371V417.12C479.931 416.5 478.991 415.94 477.891 415.94C475.291 415.94 473.911 418.08 473.911 420.44C473.911 422.78 475.291 424.94 477.891 424.94C478.991 424.94 479.931 424.36 480.371 423.74V424.4ZM480.371 422.2C479.911 423.04 479.071 423.58 478.111 423.58C476.431 423.58 475.451 422.26 475.451 420.44C475.451 418.6 476.431 417.28 478.111 417.28C479.071 417.28 479.911 417.82 480.371 418.66V422.2ZM489.405 422.76C489.405 424.4 490.405 425.18 491.845 425.18C492.385 425.18 492.905 425.06 493.245 424.88V423.48C492.945 423.68 492.505 423.84 492.085 423.84C491.325 423.84 490.905 423.46 490.905 422.6V417.4H493.045V416.12H490.905V413.78H489.405V416.12H487.965V417.4H489.405V422.76ZM495.332 425H496.832V418.98C497.152 418.02 498.052 417.32 499.092 417.32C500.432 417.32 501.052 418.18 501.052 419.42V425H502.572V419.18C502.572 417.24 501.472 415.94 499.452 415.94C498.312 415.94 497.352 416.54 496.832 417.24V412H495.332V425ZM510.717 422.34C510.477 423.34 509.657 423.9 508.557 423.9C507.057 423.9 505.997 422.74 505.977 420.84H512.257V420.3C512.257 417.72 510.957 415.94 508.517 415.94C506.097 415.94 504.477 417.92 504.477 420.58C504.477 423.32 506.137 425.18 508.557 425.18C510.557 425.18 511.817 424.02 512.137 422.34H510.717ZM508.537 417.22C510.017 417.22 510.717 418.38 510.737 419.7H506.017C506.237 418.14 507.197 417.22 508.537 417.22ZM523.112 412.02C522.772 411.88 522.432 411.82 521.952 411.82C520.392 411.82 519.232 412.86 519.232 414.64V416.12H517.732V417.4H519.232V425H520.712V417.4H522.712V416.12H520.712V414.76C520.712 413.7 521.292 413.14 522.172 413.14C522.492 413.14 522.832 413.2 523.112 413.38V412.02ZM525.953 416.12H524.453V425H525.953V416.12ZM526.173 413.44C526.173 412.9 525.733 412.48 525.193 412.48C524.673 412.48 524.233 412.9 524.233 413.44C524.233 413.96 524.673 414.4 525.193 414.4C525.733 414.4 526.173 413.96 526.173 413.44ZM528.633 425H530.133V418.98C530.453 418.02 531.353 417.32 532.393 417.32C533.733 417.32 534.353 418.18 534.353 419.42V425H535.873V419.18C535.873 417.24 534.773 415.94 532.753 415.94C531.613 415.94 530.653 416.54 530.133 417.24V416.12H528.633V425ZM544.858 425V419.08C544.858 417.14 543.598 415.94 541.478 415.94C539.778 415.94 538.458 416.96 538.158 418.46H539.638C539.918 417.64 540.518 417.24 541.458 417.24C542.738 417.24 543.418 418.04 543.418 419.14V420.26C543.038 419.92 542.098 419.54 541.178 419.54C539.278 419.54 537.778 420.66 537.778 422.32C537.778 424.08 539.278 425.16 541.078 425.16C542.138 425.16 543.078 424.7 543.418 424.34V425H544.858ZM543.418 422.8C543.158 423.46 542.258 423.9 541.338 423.9C540.258 423.9 539.218 423.4 539.218 422.32C539.218 421.26 540.258 420.78 541.338 420.78C542.258 420.78 543.158 421.22 543.418 421.88V422.8ZM548.922 412H547.422V425H548.922V412ZM560.576 416.08C560.416 416 560.096 415.94 559.716 415.94C558.736 415.94 557.896 416.52 557.516 417.28V416.12H556.016V425H557.516V419.04C557.816 418 558.636 417.38 559.576 417.38C559.956 417.38 560.336 417.46 560.576 417.62V416.08ZM569.522 416.12H568.002V422.14C567.682 423.1 566.822 423.8 565.782 423.8C564.442 423.8 563.842 422.94 563.842 421.7V416.12H562.322V421.94C562.322 423.88 563.402 425.18 565.422 425.18C566.562 425.18 567.502 424.58 568.002 423.88V425H569.522V416.12ZM573.688 412H572.188V425H573.688V412ZM577.867 416.12H576.367V425H577.867V416.12ZM578.087 413.44C578.087 412.9 577.647 412.48 577.107 412.48C576.587 412.48 576.147 412.9 576.147 413.44C576.147 413.96 576.587 414.4 577.107 414.4C577.647 414.4 578.087 413.96 578.087 413.44ZM580.547 425H582.047V418.98C582.367 418.02 583.267 417.32 584.307 417.32C585.647 417.32 586.267 418.18 586.267 419.42V425H587.787V419.18C587.787 417.24 586.687 415.94 584.667 415.94C583.527 415.94 582.567 416.54 582.047 417.24V416.12H580.547V425ZM596.152 424.4C596.152 426.32 595.312 427.32 593.712 427.32C592.492 427.32 591.652 426.78 591.392 425.66H589.912C590.192 427.48 591.552 428.6 593.712 428.6C595.992 428.6 597.672 427.22 597.672 424.3V416.12H596.152V417.12C595.712 416.5 594.772 415.94 593.672 415.94C591.072 415.94 589.692 418.08 589.692 420.44C589.692 422.78 591.072 424.94 593.672 424.94C594.772 424.94 595.712 424.36 596.152 423.74V424.4ZM596.152 422.2C595.692 423.04 594.852 423.58 593.892 423.58C592.212 423.58 591.232 422.26 591.232 420.44C591.232 418.6 592.212 417.28 593.892 417.28C594.852 417.28 595.692 417.82 596.152 418.66V422.2ZM606.266 416.12H604.766V425H606.266V416.12ZM606.486 413.44C606.486 412.9 606.046 412.48 605.506 412.48C604.986 412.48 604.546 412.9 604.546 413.44C604.546 413.96 604.986 414.4 605.506 414.4C606.046 414.4 606.486 413.96 606.486 413.44ZM608.945 425H610.445V418.98C610.765 418.02 611.665 417.32 612.705 417.32C614.045 417.32 614.665 418.18 614.665 419.42V425H616.185V419.18C616.185 417.24 615.085 415.94 613.065 415.94C611.925 415.94 610.965 416.54 610.445 417.24V416.12H608.945V425ZM627.585 412.02C627.245 411.88 626.905 411.82 626.425 411.82C624.865 411.82 623.705 412.86 623.705 414.64V416.12H622.205V417.4H623.705V425H625.185V417.4H627.185V416.12H625.185V414.76C625.185 413.7 625.765 413.14 626.645 413.14C626.965 413.14 627.305 413.2 627.585 413.38V412.02ZM635.171 425V419.08C635.171 417.14 633.911 415.94 631.791 415.94C630.091 415.94 628.771 416.96 628.471 418.46H629.951C630.231 417.64 630.831 417.24 631.771 417.24C633.051 417.24 633.731 418.04 633.731 419.14V420.26C633.351 419.92 632.411 419.54 631.491 419.54C629.591 419.54 628.091 420.66 628.091 422.32C628.091 424.08 629.591 425.16 631.391 425.16C632.451 425.16 633.391 424.7 633.731 424.34V425H635.171ZM633.731 422.8C633.471 423.46 632.571 423.9 631.651 423.9C630.571 423.9 629.531 423.4 629.531 422.32C629.531 421.26 630.571 420.78 631.651 420.78C632.571 420.78 633.471 421.22 633.731 421.88V422.8ZM641.518 425L644.978 416.12H643.398L640.818 423.1L638.218 416.12H636.598L640.038 425H641.518ZM654.044 420.56C654.044 417.84 652.384 415.94 649.964 415.94C647.524 415.94 645.884 417.84 645.884 420.56C645.884 423.28 647.524 425.18 649.964 425.18C652.384 425.18 654.044 423.28 654.044 420.56ZM652.524 420.56C652.524 422.5 651.564 423.86 649.964 423.86C648.364 423.86 647.404 422.5 647.404 420.56C647.404 418.62 648.364 417.26 649.964 417.26C651.564 417.26 652.524 418.62 652.524 420.56ZM660.634 416.08C660.474 416 660.154 415.94 659.774 415.94C658.794 415.94 657.954 416.52 657.574 417.28V416.12H656.074V425H657.574V419.04C657.874 418 658.694 417.38 659.634 417.38C660.014 417.38 660.394 417.46 660.634 417.62V416.08ZM674.434 420.56C674.434 417.84 672.774 415.94 670.354 415.94C667.914 415.94 666.274 417.84 666.274 420.56C666.274 423.28 667.914 425.18 670.354 425.18C672.774 425.18 674.434 423.28 674.434 420.56ZM672.914 420.56C672.914 422.5 671.954 423.86 670.354 423.86C668.754 423.86 667.794 422.5 667.794 420.56C667.794 418.62 668.754 417.26 670.354 417.26C671.954 417.26 672.914 418.62 672.914 420.56ZM680.905 412.02C680.565 411.88 680.225 411.82 679.745 411.82C678.185 411.82 677.025 412.86 677.025 414.64V416.12H675.525V417.4H677.025V425H678.505V417.4H680.505V416.12H678.505V414.76C678.505 413.7 679.085 413.14 679.965 413.14C680.285 413.14 680.625 413.2 680.905 413.38V412.02ZM57.22 439.72L52.42 452H54.02L55.42 448.3H60.48L61.9 452H63.5L58.7 439.72H57.22ZM57.94 441.68L59.94 446.92H55.94L57.94 441.68ZM66.7541 439H65.2541V452H66.7541V439ZM70.9338 443.12H69.4338V452H70.9338V443.12ZM71.1538 440.44C71.1538 439.9 70.7138 439.48 70.1738 439.48C69.6538 439.48 69.2138 439.9 69.2138 440.44C69.2138 440.96 69.6538 441.4 70.1738 441.4C70.7138 441.4 71.1538 440.96 71.1538 440.44ZM72.9734 447.56C72.9734 450.32 74.6334 452.18 77.0134 452.18C79.0134 452.18 80.2734 451.02 80.5734 449.32H79.0334C78.8334 450.28 78.0734 450.86 77.0134 450.86C75.4934 450.86 74.4934 449.5 74.4934 447.56C74.4934 445.62 75.4934 444.26 77.0134 444.26C78.0734 444.26 78.8334 444.84 79.0334 445.8H80.5734C80.2734 444.1 79.0134 442.94 77.0134 442.94C74.6334 442.94 72.9734 444.8 72.9734 447.56ZM88.1002 449.34C87.8602 450.34 87.0402 450.9 85.9402 450.9C84.4402 450.9 83.3802 449.74 83.3602 447.84H89.6402V447.3C89.6402 444.72 88.3402 442.94 85.9002 442.94C83.4802 442.94 81.8602 444.92 81.8602 447.58C81.8602 450.32 83.5202 452.18 85.9402 452.18C87.9402 452.18 89.2002 451.02 89.5202 449.34H88.1002ZM85.9202 444.22C87.4002 444.22 88.1002 445.38 88.1202 446.7H83.4002C83.6202 445.14 84.5802 444.22 85.9202 444.22ZM90.9408 451.02C90.9408 451.64 91.4208 452.1 92.0208 452.1C92.6008 452.1 93.0808 451.64 93.0808 451.02C93.0808 450.4 92.6008 449.92 92.0208 449.92C91.4208 449.92 90.9408 450.4 90.9408 451.02ZM109.133 439.72H107.633V449.06L101.093 439.72H99.5928V452H101.113V442.24L107.973 452H109.133V439.72ZM119.454 447.56C119.454 444.84 117.794 442.94 115.374 442.94C112.934 442.94 111.294 444.84 111.294 447.56C111.294 450.28 112.934 452.18 115.374 452.18C117.794 452.18 119.454 450.28 119.454 447.56ZM117.934 447.56C117.934 449.5 116.974 450.86 115.374 450.86C113.774 450.86 112.814 449.5 112.814 447.56C112.814 445.62 113.774 444.26 115.374 444.26C116.974 444.26 117.934 445.62 117.934 447.56ZM127.125 443.12H125.785L123.965 449.9L122.005 443.12H120.505L123.125 452H124.585L126.445 445.26L128.285 452H129.745L132.365 443.12H130.905L128.945 449.9L127.125 443.12ZM144.917 452V446.08C144.917 444.14 143.657 442.94 141.537 442.94C139.837 442.94 138.517 443.96 138.217 445.46H139.697C139.977 444.64 140.577 444.24 141.517 444.24C142.797 444.24 143.477 445.04 143.477 446.14V447.26C143.097 446.92 142.157 446.54 141.237 446.54C139.337 446.54 137.837 447.66 137.837 449.32C137.837 451.08 139.337 452.16 141.137 452.16C142.197 452.16 143.137 451.7 143.477 451.34V452H144.917ZM143.477 449.8C143.217 450.46 142.317 450.9 141.397 450.9C140.317 450.9 139.277 450.4 139.277 449.32C139.277 448.26 140.317 447.78 141.397 447.78C142.317 447.78 143.217 448.22 143.477 448.88V449.8ZM148.981 439H147.481V452H148.981V439ZM153.16 439H151.66V452H153.16V439ZM160.674 449.76C160.674 451.4 161.674 452.18 163.114 452.18C163.654 452.18 164.174 452.06 164.514 451.88V450.48C164.214 450.68 163.774 450.84 163.354 450.84C162.594 450.84 162.174 450.46 162.174 449.6V444.4H164.314V443.12H162.174V440.78H160.674V443.12H159.234V444.4H160.674V449.76ZM166.602 452H168.102V445.98C168.422 445.02 169.322 444.32 170.362 444.32C171.702 444.32 172.322 445.18 172.322 446.42V452H173.842V446.18C173.842 444.24 172.742 442.94 170.722 442.94C169.582 442.94 168.622 443.54 168.102 444.24V439H166.602V452ZM181.987 449.34C181.747 450.34 180.927 450.9 179.827 450.9C178.327 450.9 177.267 449.74 177.247 447.84H183.527V447.3C183.527 444.72 182.227 442.94 179.787 442.94C177.367 442.94 175.747 444.92 175.747 447.58C175.747 450.32 177.407 452.18 179.827 452.18C181.827 452.18 183.087 451.02 183.407 449.34H181.987ZM179.807 444.22C181.287 444.22 181.987 445.38 182.007 446.7H177.287C177.507 445.14 178.467 444.22 179.807 444.22ZM196.382 452V446.08C196.382 444.14 195.122 442.94 193.002 442.94C191.302 442.94 189.982 443.96 189.682 445.46H191.162C191.442 444.64 192.042 444.24 192.982 444.24C194.262 444.24 194.942 445.04 194.942 446.14V447.26C194.562 446.92 193.622 446.54 192.702 446.54C190.802 446.54 189.302 447.66 189.302 449.32C189.302 451.08 190.802 452.16 192.602 452.16C193.662 452.16 194.602 451.7 194.942 451.34V452H196.382ZM194.942 449.8C194.682 450.46 193.782 450.9 192.862 450.9C191.782 450.9 190.742 450.4 190.742 449.32C190.742 448.26 191.782 447.78 192.862 447.78C193.782 447.78 194.682 448.22 194.942 448.88V449.8ZM204.805 452H206.325V439H204.805V444.16C204.365 443.52 203.405 442.94 202.305 442.94C199.705 442.94 198.305 445.06 198.305 447.56C198.305 450.08 199.705 452.18 202.305 452.18C203.405 452.18 204.365 451.6 204.805 450.96V452ZM204.805 449.36C204.345 450.28 203.465 450.82 202.525 450.82C200.825 450.82 199.825 449.44 199.825 447.56C199.825 445.68 200.825 444.3 202.525 444.3C203.465 444.3 204.345 444.84 204.805 445.76V449.36ZM210.485 443.12H208.985V452.92C208.985 453.92 208.565 454.28 207.785 454.28C207.605 454.28 207.385 454.24 207.265 454.22V455.5C207.425 455.56 207.725 455.58 207.905 455.58C209.565 455.58 210.485 454.68 210.485 453.02V443.12ZM210.705 440.44C210.705 439.9 210.265 439.48 209.725 439.48C209.205 439.48 208.765 439.9 208.765 440.44C208.765 440.96 209.205 441.4 209.725 441.4C210.265 441.4 210.705 440.96 210.705 440.44ZM220.205 443.12H218.685V449.14C218.365 450.1 217.505 450.8 216.465 450.8C215.125 450.8 214.525 449.94 214.525 448.7V443.12H213.005V448.94C213.005 450.88 214.085 452.18 216.105 452.18C217.245 452.18 218.185 451.58 218.685 450.88V452H220.205V443.12ZM228.731 452H230.251V439H228.731V444.16C228.291 443.52 227.331 442.94 226.231 442.94C223.631 442.94 222.231 445.06 222.231 447.56C222.231 450.08 223.631 452.18 226.231 452.18C227.331 452.18 228.291 451.6 228.731 450.96V452ZM228.731 449.36C228.271 450.28 227.391 450.82 226.451 450.82C224.751 450.82 223.751 449.44 223.751 447.56C223.751 445.68 224.751 444.3 226.451 444.3C227.391 444.3 228.271 444.84 228.731 445.76V449.36ZM234.41 443.12H232.91V452H234.41V443.12ZM234.63 440.44C234.63 439.9 234.19 439.48 233.65 439.48C233.13 439.48 232.69 439.9 232.69 440.44C232.69 440.96 233.13 441.4 233.65 441.4C234.19 441.4 234.63 440.96 234.63 440.44ZM236.45 447.56C236.45 450.32 238.11 452.18 240.49 452.18C242.49 452.18 243.75 451.02 244.05 449.32H242.51C242.31 450.28 241.55 450.86 240.49 450.86C238.97 450.86 237.97 449.5 237.97 447.56C237.97 445.62 238.97 444.26 240.49 444.26C241.55 444.26 242.31 444.84 242.51 445.8H244.05C243.75 444.1 242.49 442.94 240.49 442.94C238.11 442.94 236.45 444.8 236.45 447.56ZM252.456 452V446.08C252.456 444.14 251.196 442.94 249.076 442.94C247.376 442.94 246.056 443.96 245.756 445.46H247.236C247.516 444.64 248.116 444.24 249.056 444.24C250.336 444.24 251.016 445.04 251.016 446.14V447.26C250.636 446.92 249.696 446.54 248.776 446.54C246.876 446.54 245.376 447.66 245.376 449.32C245.376 451.08 246.876 452.16 248.676 452.16C249.736 452.16 250.676 451.7 251.016 451.34V452H252.456ZM251.016 449.8C250.756 450.46 249.856 450.9 248.936 450.9C247.856 450.9 246.816 450.4 246.816 449.32C246.816 448.26 247.856 447.78 248.936 447.78C249.856 447.78 250.756 448.22 251.016 448.88V449.8ZM255.381 449.76C255.381 451.4 256.381 452.18 257.821 452.18C258.361 452.18 258.881 452.06 259.221 451.88V450.48C258.921 450.68 258.481 450.84 258.061 450.84C257.301 450.84 256.881 450.46 256.881 449.6V444.4H259.021V443.12H256.881V440.78H255.381V443.12H253.941V444.4H255.381V449.76ZM262.809 443.12H261.309V452H262.809V443.12ZM263.029 440.44C263.029 439.9 262.589 439.48 262.049 439.48C261.529 439.48 261.089 439.9 261.089 440.44C261.089 440.96 261.529 441.4 262.049 441.4C262.589 441.4 263.029 440.96 263.029 440.44ZM273.008 447.56C273.008 444.84 271.348 442.94 268.928 442.94C266.488 442.94 264.848 444.84 264.848 447.56C264.848 450.28 266.488 452.18 268.928 452.18C271.348 452.18 273.008 450.28 273.008 447.56ZM271.488 447.56C271.488 449.5 270.528 450.86 268.928 450.86C267.328 450.86 266.368 449.5 266.368 447.56C266.368 445.62 267.328 444.26 268.928 444.26C270.528 444.26 271.488 445.62 271.488 447.56ZM275.039 452H276.539V445.98C276.859 445.02 277.759 444.32 278.799 444.32C280.139 444.32 280.759 445.18 280.759 446.42V452H282.279V446.18C282.279 444.24 281.179 442.94 279.159 442.94C278.019 442.94 277.059 443.54 276.539 444.24V443.12H275.039V452ZM293.798 443.08C293.638 443 293.318 442.94 292.938 442.94C291.958 442.94 291.118 443.52 290.738 444.28V443.12H289.238V452H290.738V446.04C291.038 445 291.858 444.38 292.798 444.38C293.178 444.38 293.558 444.46 293.798 444.62V443.08ZM302.93 447.56C302.93 444.84 301.27 442.94 298.85 442.94C296.41 442.94 294.77 444.84 294.77 447.56C294.77 450.28 296.41 452.18 298.85 452.18C301.27 452.18 302.93 450.28 302.93 447.56ZM301.41 447.56C301.41 449.5 300.45 450.86 298.85 450.86C297.25 450.86 296.29 449.5 296.29 447.56C296.29 445.62 297.25 444.26 298.85 444.26C300.45 444.26 301.41 445.62 301.41 447.56ZM312.041 443.12H310.521V449.14C310.201 450.1 309.341 450.8 308.301 450.8C306.961 450.8 306.361 449.94 306.361 448.7V443.12H304.841V448.94C304.841 450.88 305.921 452.18 307.941 452.18C309.081 452.18 310.021 451.58 310.521 450.88V452H312.041V443.12ZM314.707 452H316.207V445.98C316.527 445.02 317.427 444.32 318.467 444.32C319.807 444.32 320.427 445.18 320.427 446.42V452H321.947V446.18C321.947 444.24 320.847 442.94 318.827 442.94C317.687 442.94 316.727 443.54 316.207 444.24V443.12H314.707V452ZM330.352 452H331.872V439H330.352V444.16C329.912 443.52 328.952 442.94 327.852 442.94C325.252 442.94 323.852 445.06 323.852 447.56C323.852 450.08 325.252 452.18 327.852 452.18C328.952 452.18 329.912 451.6 330.352 450.96V452ZM330.352 449.36C329.892 450.28 329.012 450.82 328.072 450.82C326.372 450.82 325.372 449.44 325.372 447.56C325.372 445.68 326.372 444.3 328.072 444.3C329.012 444.3 329.892 444.84 330.352 445.76V449.36ZM333.791 449.56C334.071 451.2 335.491 452.18 337.431 452.18C339.331 452.18 340.731 451.18 340.731 449.5C340.731 448.26 339.991 447.42 338.471 447.02L336.751 446.6C335.911 446.36 335.511 446.08 335.511 445.48C335.511 444.62 336.331 444.2 337.211 444.2C338.291 444.2 338.911 444.66 339.171 445.46H340.671C340.351 443.9 339.191 442.94 337.231 442.94C335.431 442.94 334.051 443.98 334.051 445.56C334.051 446.94 334.931 447.58 336.191 447.9L337.951 448.36C338.871 448.6 339.271 448.98 339.271 449.6C339.271 450.5 338.511 450.92 337.451 450.92C336.411 450.92 335.631 450.48 335.351 449.56H333.791ZM348.727 443.12H347.227V452H348.727V443.12ZM348.947 440.44C348.947 439.9 348.507 439.48 347.967 439.48C347.447 439.48 347.007 439.9 347.007 440.44C347.007 440.96 347.447 441.4 347.967 441.4C348.507 441.4 348.947 440.96 348.947 440.44ZM351.406 452H352.906V445.98C353.226 445.02 354.126 444.32 355.166 444.32C356.506 444.32 357.126 445.18 357.126 446.42V452H358.646V446.18C358.646 444.24 357.546 442.94 355.526 442.94C354.386 442.94 353.426 443.54 352.906 444.24V443.12H351.406V452ZM366.026 449.76C366.026 451.4 367.026 452.18 368.466 452.18C369.006 452.18 369.526 452.06 369.866 451.88V450.48C369.566 450.68 369.126 450.84 368.706 450.84C367.946 450.84 367.526 450.46 367.526 449.6V444.4H369.666V443.12H367.526V440.78H366.026V443.12H364.586V444.4H366.026V449.76ZM371.953 452H373.453V445.98C373.773 445.02 374.673 444.32 375.713 444.32C377.053 444.32 377.673 445.18 377.673 446.42V452H379.193V446.18C379.193 444.24 378.093 442.94 376.073 442.94C374.933 442.94 373.973 443.54 373.453 444.24V439H371.953V452ZM387.338 449.34C387.098 450.34 386.278 450.9 385.178 450.9C383.678 450.9 382.618 449.74 382.598 447.84H388.878V447.3C388.878 444.72 387.578 442.94 385.138 442.94C382.718 442.94 381.098 444.92 381.098 447.58C381.098 450.32 382.758 452.18 385.178 452.18C387.178 452.18 388.438 451.02 388.758 449.34H387.338ZM385.158 444.22C386.638 444.22 387.338 445.38 387.358 446.7H382.638C382.858 445.14 383.818 444.22 385.158 444.22ZM401.153 452H402.673V439H401.153V444.16C400.713 443.52 399.753 442.94 398.653 442.94C396.053 442.94 394.653 445.06 394.653 447.56C394.653 450.08 396.053 452.18 398.653 452.18C399.753 452.18 400.713 451.6 401.153 450.96V452ZM401.153 449.36C400.693 450.28 399.813 450.82 398.873 450.82C397.173 450.82 396.173 449.44 396.173 447.56C396.173 445.68 397.173 444.3 398.873 444.3C399.813 444.3 400.693 444.84 401.153 445.76V449.36ZM406.832 443.12H405.332V452H406.832V443.12ZM407.052 440.44C407.052 439.9 406.612 439.48 406.072 439.48C405.552 439.48 405.112 439.9 405.112 440.44C405.112 440.96 405.552 441.4 406.072 441.4C406.612 441.4 407.052 440.96 407.052 440.44ZM408.772 449.56C409.052 451.2 410.472 452.18 412.412 452.18C414.312 452.18 415.712 451.18 415.712 449.5C415.712 448.26 414.972 447.42 413.452 447.02L411.732 446.6C410.892 446.36 410.492 446.08 410.492 445.48C410.492 444.62 411.312 444.2 412.192 444.2C413.272 444.2 413.892 444.66 414.152 445.46H415.652C415.332 443.9 414.172 442.94 412.212 442.94C410.412 442.94 409.032 443.98 409.032 445.56C409.032 446.94 409.912 447.58 411.172 447.9L412.932 448.36C413.852 448.6 414.252 448.98 414.252 449.6C414.252 450.5 413.492 450.92 412.432 450.92C411.392 450.92 410.612 450.48 410.332 449.56H408.772ZM419.293 450.96C419.753 451.6 420.693 452.18 421.793 452.18C424.413 452.18 425.793 450.02 425.793 447.56C425.793 445.1 424.413 442.94 421.793 442.94C420.693 442.94 419.753 443.52 419.293 444.16V443.12H417.793V455.4H419.293V450.96ZM419.293 445.76C419.753 444.84 420.633 444.3 421.573 444.3C423.273 444.3 424.273 445.68 424.273 447.56C424.273 449.44 423.273 450.82 421.573 450.82C420.633 450.82 419.753 450.28 419.293 449.36V445.76ZM434.912 443.12H433.392V449.14C433.072 450.1 432.212 450.8 431.172 450.8C429.832 450.8 429.232 449.94 429.232 448.7V443.12H427.712V448.94C427.712 450.88 428.792 452.18 430.812 452.18C431.952 452.18 432.892 451.58 433.392 450.88V452H434.912V443.12ZM437.998 449.76C437.998 451.4 438.998 452.18 440.438 452.18C440.978 452.18 441.498 452.06 441.838 451.88V450.48C441.538 450.68 441.098 450.84 440.678 450.84C439.918 450.84 439.498 450.46 439.498 449.6V444.4H441.638V443.12H439.498V440.78H437.998V443.12H436.558V444.4H437.998V449.76ZM449.428 449.34C449.188 450.34 448.368 450.9 447.268 450.9C445.768 450.9 444.708 449.74 444.688 447.84H450.968V447.3C450.968 444.72 449.668 442.94 447.228 442.94C444.808 442.94 443.188 444.92 443.188 447.58C443.188 450.32 444.848 452.18 447.268 452.18C449.268 452.18 450.528 451.02 450.848 449.34H449.428ZM447.248 444.22C448.728 444.22 449.428 445.38 449.448 446.7H444.728C444.948 445.14 445.908 444.22 447.248 444.22ZM456.743 447.56C456.743 450.32 458.403 452.18 460.783 452.18C462.783 452.18 464.043 451.02 464.343 449.32H462.803C462.603 450.28 461.843 450.86 460.783 450.86C459.263 450.86 458.263 449.5 458.263 447.56C458.263 445.62 459.263 444.26 460.783 444.26C461.843 444.26 462.603 444.84 462.803 445.8H464.343C464.043 444.1 462.783 442.94 460.783 442.94C458.403 442.94 456.743 444.8 456.743 447.56ZM472.749 452V446.08C472.749 444.14 471.489 442.94 469.369 442.94C467.669 442.94 466.349 443.96 466.049 445.46H467.529C467.809 444.64 468.409 444.24 469.349 444.24C470.629 444.24 471.309 445.04 471.309 446.14V447.26C470.929 446.92 469.989 446.54 469.069 446.54C467.169 446.54 465.669 447.66 465.669 449.32C465.669 451.08 467.169 452.16 468.969 452.16C470.029 452.16 470.969 451.7 471.309 451.34V452H472.749ZM471.309 449.8C471.049 450.46 470.149 450.9 469.229 450.9C468.149 450.9 467.109 450.4 467.109 449.32C467.109 448.26 468.149 447.78 469.229 447.78C470.149 447.78 471.049 448.22 471.309 448.88V449.8ZM475.313 452H476.813V445.98C477.133 445.02 478.033 444.32 479.073 444.32C480.413 444.32 481.033 445.18 481.033 446.42V452H482.553V446.18C482.553 444.24 481.453 442.94 479.433 442.94C478.293 442.94 477.333 443.54 476.813 444.24V443.12H475.313V452ZM491.012 450.96C491.452 451.6 492.412 452.18 493.512 452.18C496.112 452.18 497.512 450.08 497.512 447.56C497.512 445.06 496.112 442.94 493.512 442.94C492.412 442.94 491.452 443.52 491.012 444.16V439H489.492V452H491.012V450.96ZM491.012 445.76C491.472 444.84 492.352 444.3 493.292 444.3C494.992 444.3 495.992 445.68 495.992 447.56C495.992 449.44 494.992 450.82 493.292 450.82C492.352 450.82 491.472 450.28 491.012 449.36V445.76ZM505.19 449.34C504.95 450.34 504.13 450.9 503.03 450.9C501.53 450.9 500.47 449.74 500.45 447.84H506.73V447.3C506.73 444.72 505.43 442.94 502.99 442.94C500.57 442.94 498.95 444.92 498.95 447.58C498.95 450.32 500.61 452.18 503.03 452.18C505.03 452.18 506.29 451.02 506.61 449.34H505.19ZM503.01 444.22C504.49 444.22 505.19 445.38 505.21 446.7H500.49C500.71 445.14 501.67 444.22 503.01 444.22ZM512.405 449.56C512.685 451.2 514.105 452.18 516.045 452.18C517.945 452.18 519.345 451.18 519.345 449.5C519.345 448.26 518.605 447.42 517.085 447.02L515.365 446.6C514.525 446.36 514.125 446.08 514.125 445.48C514.125 444.62 514.945 444.2 515.825 444.2C516.905 444.2 517.525 444.66 517.785 445.46H519.285C518.965 443.9 517.805 442.94 515.845 442.94C514.045 442.94 512.665 443.98 512.665 445.56C512.665 446.94 513.545 447.58 514.805 447.9L516.565 448.36C517.485 448.6 517.885 448.98 517.885 449.6C517.885 450.5 517.125 450.92 516.065 450.92C515.025 450.92 514.245 450.48 513.965 449.56H512.405ZM527.026 449.34C526.786 450.34 525.966 450.9 524.866 450.9C523.366 450.9 522.306 449.74 522.286 447.84H528.566V447.3C528.566 444.72 527.266 442.94 524.826 442.94C522.406 442.94 520.786 444.92 520.786 447.58C520.786 450.32 522.446 452.18 524.866 452.18C526.866 452.18 528.126 451.02 528.446 449.34H527.026ZM524.846 444.22C526.326 444.22 527.026 445.38 527.046 446.7H522.326C522.546 445.14 523.506 444.22 524.846 444.22ZM530.987 449.76C530.987 451.4 531.987 452.18 533.427 452.18C533.967 452.18 534.487 452.06 534.827 451.88V450.48C534.527 450.68 534.087 450.84 533.667 450.84C532.907 450.84 532.487 450.46 532.487 449.6V444.4H534.627V443.12H532.487V440.78H530.987V443.12H529.547V444.4H530.987V449.76ZM537.334 449.76C537.334 451.4 538.334 452.18 539.774 452.18C540.314 452.18 540.834 452.06 541.174 451.88V450.48C540.874 450.68 540.434 450.84 540.014 450.84C539.254 450.84 538.834 450.46 538.834 449.6V444.4H540.974V443.12H538.834V440.78H537.334V443.12H535.894V444.4H537.334V449.76ZM544.762 439H543.262V452H544.762V439ZM553.042 449.34C552.802 450.34 551.982 450.9 550.882 450.9C549.382 450.9 548.322 449.74 548.302 447.84H554.582V447.3C554.582 444.72 553.282 442.94 550.842 442.94C548.422 442.94 546.802 444.92 546.802 447.58C546.802 450.32 548.462 452.18 550.882 452.18C552.882 452.18 554.142 451.02 554.462 449.34H553.042ZM550.862 444.22C552.342 444.22 553.042 445.38 553.062 446.7H548.342C548.562 445.14 549.522 444.22 550.862 444.22ZM562.481 452H564.001V439H562.481V444.16C562.041 443.52 561.081 442.94 559.981 442.94C557.381 442.94 555.981 445.06 555.981 447.56C555.981 450.08 557.381 452.18 559.981 452.18C561.081 452.18 562.041 451.6 562.481 450.96V452ZM562.481 449.36C562.021 450.28 561.141 450.82 560.201 450.82C558.501 450.82 557.501 449.44 557.501 447.56C557.501 445.68 558.501 444.3 560.201 444.3C561.141 444.3 562.021 444.84 562.481 445.76V449.36ZM577.514 452V446.08C577.514 444.14 576.254 442.94 574.134 442.94C572.434 442.94 571.114 443.96 570.814 445.46H572.294C572.574 444.64 573.174 444.24 574.114 444.24C575.394 444.24 576.074 445.04 576.074 446.14V447.26C575.694 446.92 574.754 446.54 573.834 446.54C571.934 446.54 570.434 447.66 570.434 449.32C570.434 451.08 571.934 452.16 573.734 452.16C574.794 452.16 575.734 451.7 576.074 451.34V452H577.514ZM576.074 449.8C575.814 450.46 574.914 450.9 573.994 450.9C572.914 450.9 571.874 450.4 571.874 449.32C571.874 448.26 572.914 447.78 573.994 447.78C574.914 447.78 575.814 448.22 576.074 448.88V449.8ZM580.078 452H581.578V445.98C581.898 445.02 582.798 444.32 583.838 444.32C585.178 444.32 585.798 445.18 585.798 446.42V452H587.318V446.18C587.318 444.24 586.218 442.94 584.198 442.94C583.058 442.94 582.098 443.54 581.578 444.24V443.12H580.078V452ZM595.723 452H597.243V439H595.723V444.16C595.283 443.52 594.323 442.94 593.223 442.94C590.623 442.94 589.223 445.06 589.223 447.56C589.223 450.08 590.623 452.18 593.223 452.18C594.323 452.18 595.283 451.6 595.723 450.96V452ZM595.723 449.36C595.263 450.28 594.383 450.82 593.443 450.82C591.743 450.82 590.743 449.44 590.743 447.56C590.743 445.68 591.743 444.3 593.443 444.3C594.383 444.3 595.263 444.84 595.723 445.76V449.36ZM608.877 443.08C608.717 443 608.397 442.94 608.017 442.94C607.037 442.94 606.197 443.52 605.817 444.28V443.12H604.317V452H605.817V446.04C606.117 445 606.937 444.38 607.877 444.38C608.257 444.38 608.637 444.46 608.877 444.62V443.08ZM616.088 449.34C615.848 450.34 615.028 450.9 613.928 450.9C612.428 450.9 611.368 449.74 611.348 447.84H617.628V447.3C617.628 444.72 616.328 442.94 613.888 442.94C611.468 442.94 609.848 444.92 609.848 447.58C609.848 450.32 611.508 452.18 613.928 452.18C615.928 452.18 617.188 451.02 617.508 449.34H616.088ZM613.908 444.22C615.388 444.22 616.088 445.38 616.108 446.7H611.388C611.608 445.14 612.568 444.22 613.908 444.22ZM625.269 443.12H623.929L622.109 449.9L620.149 443.12H618.649L621.269 452H622.729L624.589 445.26L626.429 452H627.889L630.509 443.12H629.049L627.089 449.9L625.269 443.12ZM638.589 452V446.08C638.589 444.14 637.329 442.94 635.209 442.94C633.509 442.94 632.189 443.96 631.889 445.46H633.369C633.649 444.64 634.249 444.24 635.189 444.24C636.469 444.24 637.149 445.04 637.149 446.14V447.26C636.769 446.92 635.829 446.54 634.909 446.54C633.009 446.54 631.509 447.66 631.509 449.32C631.509 451.08 633.009 452.16 634.809 452.16C635.869 452.16 636.809 451.7 637.149 451.34V452H638.589ZM637.149 449.8C636.889 450.46 635.989 450.9 635.069 450.9C633.989 450.9 632.949 450.4 632.949 449.32C632.949 448.26 633.989 447.78 635.069 447.78C635.989 447.78 636.889 448.22 637.149 448.88V449.8ZM645.713 443.08C645.553 443 645.233 442.94 644.853 442.94C643.873 442.94 643.033 443.52 642.653 444.28V443.12H641.153V452H642.653V446.04C642.953 445 643.773 444.38 644.713 444.38C645.092 444.38 645.473 444.46 645.713 444.62V443.08ZM653.184 452H654.704V439H653.184V444.16C652.744 443.52 651.784 442.94 650.684 442.94C648.084 442.94 646.684 445.06 646.684 447.56C646.684 450.08 648.084 452.18 650.684 452.18C651.784 452.18 652.744 451.6 653.184 450.96V452ZM653.184 449.36C652.724 450.28 651.844 450.82 650.904 450.82C649.204 450.82 648.204 449.44 648.204 447.56C648.204 445.68 649.204 444.3 650.904 444.3C651.844 444.3 652.724 444.84 653.184 445.76V449.36ZM656.623 449.56C656.903 451.2 658.323 452.18 660.263 452.18C662.163 452.18 663.563 451.18 663.563 449.5C663.563 448.26 662.823 447.42 661.303 447.02L659.583 446.6C658.743 446.36 658.343 446.08 658.343 445.48C658.343 444.62 659.163 444.2 660.043 444.2C661.123 444.2 661.743 444.66 662.003 445.46H663.503C663.183 443.9 662.023 442.94 660.063 442.94C658.263 442.94 656.883 443.98 656.883 445.56C656.883 446.94 657.763 447.58 659.023 447.9L660.783 448.36C661.703 448.6 662.103 448.98 662.103 449.6C662.103 450.5 661.343 450.92 660.283 450.92C659.243 450.92 658.463 450.48 658.183 449.56H656.623ZM59.78 479V473.08C59.78 471.14 58.52 469.94 56.4 469.94C54.7 469.94 53.38 470.96 53.08 472.46H54.56C54.84 471.64 55.44 471.24 56.38 471.24C57.66 471.24 58.34 472.04 58.34 473.14V474.26C57.96 473.92 57.02 473.54 56.1 473.54C54.2 473.54 52.7 474.66 52.7 476.32C52.7 478.08 54.2 479.16 56 479.16C57.06 479.16 58 478.7 58.34 478.34V479H59.78ZM58.34 476.8C58.08 477.46 57.18 477.9 56.26 477.9C55.18 477.9 54.14 477.4 54.14 476.32C54.14 475.26 55.18 474.78 56.26 474.78C57.18 474.78 58.08 475.22 58.34 475.88V476.8ZM63.8439 466H62.3439V479H63.8439V466ZM68.0236 466H66.5236V479H68.0236V466ZM78.2233 474.56C78.2233 471.84 76.5633 469.94 74.1433 469.94C71.7033 469.94 70.0633 471.84 70.0633 474.56C70.0633 477.28 71.7033 479.18 74.1433 479.18C76.5633 479.18 78.2233 477.28 78.2233 474.56ZM76.7033 474.56C76.7033 476.5 75.7433 477.86 74.1433 477.86C72.5433 477.86 71.5833 476.5 71.5833 474.56C71.5833 472.62 72.5433 471.26 74.1433 471.26C75.7433 471.26 76.7033 472.62 76.7033 474.56ZM79.6531 474.56C79.6531 477.32 81.3131 479.18 83.6931 479.18C85.6931 479.18 86.9531 478.02 87.2531 476.32H85.7131C85.5131 477.28 84.7531 477.86 83.6931 477.86C82.1731 477.86 81.1731 476.5 81.1731 474.56C81.1731 472.62 82.1731 471.26 83.6931 471.26C84.7531 471.26 85.5131 471.84 85.7131 472.8H87.2531C86.9531 471.1 85.6931 469.94 83.6931 469.94C81.3131 469.94 79.6531 471.8 79.6531 474.56ZM95.6589 479V473.08C95.6589 471.14 94.3989 469.94 92.2789 469.94C90.5789 469.94 89.2589 470.96 88.9589 472.46H90.4389C90.7189 471.64 91.3189 471.24 92.2589 471.24C93.5389 471.24 94.2189 472.04 94.2189 473.14V474.26C93.8389 473.92 92.8989 473.54 91.9789 473.54C90.0789 473.54 88.5789 474.66 88.5789 476.32C88.5789 478.08 90.0789 479.16 91.8789 479.16C92.9389 479.16 93.8789 478.7 94.2189 478.34V479H95.6589ZM94.2189 476.8C93.9589 477.46 93.0589 477.9 92.1389 477.9C91.0589 477.9 90.0189 477.4 90.0189 476.32C90.0189 475.26 91.0589 474.78 92.1389 474.78C93.0589 474.78 93.9589 475.22 94.2189 475.88V476.8ZM98.5842 476.76C98.5842 478.4 99.5842 479.18 101.024 479.18C101.564 479.18 102.084 479.06 102.424 478.88V477.48C102.124 477.68 101.684 477.84 101.264 477.84C100.504 477.84 100.084 477.46 100.084 476.6V471.4H102.224V470.12H100.084V467.78H98.5842V470.12H97.1442V471.4H98.5842V476.76ZM110.014 476.34C109.774 477.34 108.954 477.9 107.854 477.9C106.354 477.9 105.294 476.74 105.274 474.84H111.554V474.3C111.554 471.72 110.254 469.94 107.814 469.94C105.394 469.94 103.774 471.92 103.774 474.58C103.774 477.32 105.434 479.18 107.854 479.18C109.854 479.18 111.114 478.02 111.434 476.34H110.014ZM107.834 471.22C109.314 471.22 110.014 472.38 110.034 473.7H105.314C105.534 472.14 106.494 471.22 107.834 471.22ZM119.454 479H120.974V466H119.454V471.16C119.014 470.52 118.054 469.94 116.954 469.94C114.354 469.94 112.954 472.06 112.954 474.56C112.954 477.08 114.354 479.18 116.954 479.18C118.054 479.18 119.014 478.6 119.454 477.96V479ZM119.454 476.36C118.994 477.28 118.114 477.82 117.174 477.82C115.474 477.82 114.474 476.44 114.474 474.56C114.474 472.68 115.474 471.3 117.174 471.3C118.114 471.3 118.994 471.84 119.454 472.76V476.36ZM122.933 478.02C122.933 478.64 123.413 479.1 124.013 479.1C124.593 479.1 125.073 478.64 125.073 478.02C125.073 477.4 124.593 476.92 124.013 476.92C123.413 476.92 122.933 477.4 122.933 478.02Z" fill="#1C1C1C"/>
<path opacity="0.6" d="M328 230.5L331.75 225.737L331.75 235.263L328 230.5Z" fill="#7FDFA6"/>
<path opacity="0.7" d="M320 230.5L323.75 225.737L323.75 235.263L320 230.5Z" fill="#7FDFA6"/>
<path opacity="0.8" d="M312 230.5L315.75 225.737L315.75 235.263L312 230.5Z" fill="#7FDFA6"/>
<path d="M304 230.5L307.75 225.737L307.75 235.263L304 230.5Z" fill="#7FDFA6"/>
<path d="M296 230.5L299.75 225.737L299.75 235.263L296 230.5Z" fill="#7FDFA6"/>
<circle cx="249" cy="231" r="39" fill="#7FDFA6"/>
<circle opacity="0.2" cx="249" cy="231" r="69" fill="#7FDFA6"/>
<circle opacity="0.05" cx="249" cy="231" r="104" fill="#7FDFA6"/>
<path d="M264.581 247.877C264.581 239.432 257.735 232.586 249.29 232.586C240.846 232.586 234 239.432 234 247.877" stroke="#F9FAFC" stroke-width="5"/>
<circle cx="249.195" cy="218.195" r="7.19549" fill="#F9FAFC"/>
<circle cx="533" cy="231" r="39" fill="#FF7C7C"/>
<path d="M548.581 247.877C548.581 239.432 541.735 232.586 533.29 232.586C524.846 232.586 518 239.432 518 247.877" stroke="#F9FAFC" stroke-width="5"/>
<circle cx="533.195" cy="218.195" r="7.19549" fill="#F9FAFC"/>
<circle cx="390.773" cy="230.773" r="49.7726" fill="#8987FF"/>
<path d="M409.094 206V243.953L399.66 246.004L397.609 255.438H373V206H409.094Z" fill="#BFBEFF"/>
<path d="M409.094 206V243.953L399.66 246.004L397.609 255.438H373V206H409.094Z" fill="#C8C7FF"/>
<path d="M397.609 243.953V255.438L409.094 243.953H397.609Z" fill="#EEEEFF"/>
<rect x="377" y="211" width="28" height="3" rx="1.5" fill="#8987FF" fill-opacity="0.6"/>
<rect x="377" y="218" width="28" height="3" rx="1.5" fill="#8987FF" fill-opacity="0.4"/>
<rect opacity="0.3" x="377" y="225" width="28" height="3" rx="1.5" fill="#8987FF"/>
<rect opacity="0.2" x="377" y="232" width="28" height="3" rx="1.5" fill="#8987FF"/>
<defs>
<filter id="filter0_d" x="0" y="0" width="782" height="534" filterUnits="userSpaceOnUse" color-interpolation-filters="sRGB">
<feFlood flood-opacity="0" result="BackgroundImageFix"/>
<feColorMatrix in="SourceAlpha" type="matrix" values="0 0 0 0 0 0 0 0 0 0 0 0 0 0 0 0 0 0 127 0"/>
<feOffset dy="3"/>
<feGaussianBlur stdDeviation="8.5"/>
<feColorMatrix type="matrix" values="0 0 0 0 0 0 0 0 0 0 0 0 0 0 0 0 0 0 0.1 0"/>
<feBlend mode="normal" in2="BackgroundImageFix" result="effect1_dropShadow"/>
<feBlend mode="normal" in="SourceGraphic" in2="effect1_dropShadow" result="shape"/>
</filter>
<linearGradient id="paint0_linear" x1="750" y1="408.937" x2="687.559" y2="649.81" gradientUnits="userSpaceOnUse">
<stop stop-color="#FFF8F0"/>
<stop offset="1" stop-color="#FFF3F1"/>
</linearGradient>
</defs>
</svg>
