<svg width="705" height="268" viewBox="0 0 705 268" fill="none" xmlns="http://www.w3.org/2000/svg">
<path d="M23.9799 132.66C24.8799 132.34 25.5799 131.38 25.5799 130.06C25.5799 127.86 23.9799 126.72 21.4199 126.72H17.1199V139H21.8199C24.3799 139 25.9799 137.78 25.9799 135.48C25.9799 134.18 25.1399 133.04 23.9799 132.66ZM19.1399 131.88V128.52H21.3999C22.8199 128.52 23.5799 129.02 23.5799 130.18C23.5799 131.34 22.8199 131.88 21.3999 131.88H19.1399ZM19.1399 133.6H21.7799C23.1799 133.6 23.9399 134.28 23.9399 135.4C23.9399 136.5 23.1799 137.2 21.7799 137.2H19.1399V133.6ZM29.1355 126.72V139H37.1555V137.14H31.1755V133.62H36.5955V131.8H31.1755V128.56H37.1555V126.72H29.1355ZM39.749 132.86C39.749 136.64 42.169 139.2 45.329 139.2C48.089 139.2 49.869 137.6 50.329 135.12H48.289C47.809 136.44 46.969 137.32 45.329 137.32C43.149 137.32 41.849 135.42 41.849 132.86C41.849 130.28 43.169 128.4 45.329 128.4C46.969 128.4 47.809 129.28 48.289 130.58H50.329C49.869 128.12 48.109 126.52 45.329 126.52C42.169 126.52 39.749 129.08 39.749 132.86ZM64.0226 132.86C64.0226 129.18 61.6626 126.52 58.3426 126.52C55.0226 126.52 52.6826 129.18 52.6826 132.86C52.6826 136.52 55.0226 139.2 58.3426 139.2C61.6626 139.2 64.0226 136.52 64.0226 132.86ZM61.9226 132.86C61.9226 135.46 60.5026 137.34 58.3426 137.34C56.1826 137.34 54.7826 135.46 54.7826 132.86C54.7826 130.26 56.1826 128.38 58.3426 128.38C60.5026 128.38 61.9226 130.26 61.9226 132.86ZM73.9169 139L77.2169 130.46V139H79.2169V126.72H76.8969L73.1969 136.16L69.4569 126.72H67.0769V139H69.0569V130.46L72.4369 139H73.9169ZM82.9402 126.72V139H90.9602V137.14H84.9802V133.62H90.4002V131.8H84.9802V128.56H90.9602V126.72H82.9402ZM103.388 126.72L98.6677 139H100.768L102.028 135.6H106.728L107.988 139H110.108L105.388 126.72H103.388ZM104.368 129.26L106.048 133.8H102.688L104.368 129.26ZM117.228 135.42C117.408 137.6 118.748 139.2 121.388 139.2C123.908 139.2 125.508 137.68 125.508 134.76V126.72H123.428V134.76C123.428 136.5 122.748 137.3 121.348 137.3C120.168 137.3 119.528 136.6 119.388 135.42H117.228ZM133.715 139.2C136.655 139.2 138.635 137.48 138.635 134.12V126.72H136.555V133.88C136.555 136.24 135.555 137.34 133.715 137.34C131.875 137.34 130.875 136.24 130.875 133.88V126.72H128.795V134.1C128.795 137.48 130.795 139.2 133.715 139.2ZM145.723 134.02L149.143 139H151.503L147.943 133.94C149.883 133.64 151.083 132.46 151.083 130.4C151.083 128 149.443 126.72 146.903 126.72H142.163V139H144.243V134.02H145.723ZM144.243 128.52H146.863C148.243 128.52 149.023 129.26 149.023 130.4C149.023 131.54 148.243 132.28 146.863 132.28H144.243V128.52ZM164.937 132.86C164.937 129.18 162.577 126.52 159.257 126.52C155.937 126.52 153.597 129.18 153.597 132.86C153.597 136.52 155.937 139.2 159.257 139.2C162.577 139.2 164.937 136.52 164.937 132.86ZM162.837 132.86C162.837 135.46 161.417 137.34 159.257 137.34C157.097 137.34 155.697 135.46 155.697 132.86C155.697 130.26 157.097 128.38 159.257 128.38C161.417 128.38 162.837 130.26 162.837 132.86ZM171.551 134.02L174.971 139H177.331L173.771 133.94C175.711 133.64 176.911 132.46 176.911 130.4C176.911 128 175.271 126.72 172.731 126.72H167.991V139H170.071V134.02H171.551ZM170.071 128.52H172.691C174.071 128.52 174.851 129.26 174.851 130.4C174.851 131.54 174.071 132.28 172.691 132.28H170.071V128.52Z" fill="white"/>
<path d="M499.971 139V134.02H505.351V132.2H499.971V128.56H505.731V126.72H497.891V139H499.971ZM519.473 132.86C519.473 129.18 517.113 126.52 513.793 126.52C510.473 126.52 508.133 129.18 508.133 132.86C508.133 136.52 510.473 139.2 513.793 139.2C517.113 139.2 519.473 136.52 519.473 132.86ZM517.373 132.86C517.373 135.46 515.953 137.34 513.793 137.34C511.633 137.34 510.233 135.46 510.233 132.86C510.233 130.26 511.633 128.38 513.793 128.38C515.953 128.38 517.373 130.26 517.373 132.86ZM526.087 134.02L529.507 139H531.867L528.307 133.94C530.247 133.64 531.447 132.46 531.447 130.4C531.447 128 529.807 126.72 527.267 126.72H522.527V139H524.607V134.02H526.087ZM524.607 128.52H527.227C528.607 128.52 529.387 129.26 529.387 130.4C529.387 131.54 528.607 132.28 527.227 132.28H524.607V128.52ZM543.795 126.72L539.075 139H541.175L542.435 135.6H547.135L548.395 139H550.515L545.795 126.72H543.795ZM544.775 129.26L546.455 133.8H543.095L544.775 129.26ZM556.841 134.02L560.261 139H562.621L559.061 133.94C561.001 133.64 562.201 132.46 562.201 130.4C562.201 128 560.561 126.72 558.021 126.72H553.281V139H555.361V134.02H556.841ZM555.361 128.52H557.981C559.361 128.52 560.141 129.26 560.141 130.4C560.141 131.54 559.361 132.28 557.981 132.28H555.361V128.52ZM569.135 126.72L564.415 139H566.515L567.775 135.6H572.475L573.735 139H575.855L571.135 126.72H569.135ZM570.115 129.26L571.795 133.8H568.435L570.115 129.26ZM586.473 134.44C586.213 136.16 585.093 137.36 583.233 137.36C580.953 137.36 579.553 135.46 579.553 132.86C579.553 130.26 580.973 128.4 583.153 128.4C584.793 128.4 585.613 129.24 586.113 130.56H588.193C587.713 128.12 585.973 126.52 583.153 126.52C579.953 126.52 577.453 129.08 577.453 132.86C577.453 136.64 579.933 139.2 583.233 139.2C586.233 139.2 588.453 137.02 588.453 133.62V132.66H583.793V134.44H586.473ZM602.196 132.86C602.196 129.18 599.836 126.52 596.516 126.52C593.196 126.52 590.856 129.18 590.856 132.86C590.856 136.52 593.196 139.2 596.516 139.2C599.836 139.2 602.196 136.52 602.196 132.86ZM600.096 132.86C600.096 135.46 598.676 137.34 596.516 137.34C594.356 137.34 592.956 135.46 592.956 132.86C592.956 130.26 594.356 128.38 596.516 128.38C598.676 128.38 600.096 130.26 600.096 132.86ZM615.13 126.72H613.13V135.24L607.21 126.72H605.25V139H607.25V130.06L613.53 139H615.13V126.72ZM623.602 132.86C623.602 136.64 626.022 139.2 629.182 139.2C631.942 139.2 633.722 137.6 634.182 135.12H632.142C631.662 136.44 630.822 137.32 629.182 137.32C627.002 137.32 625.702 135.42 625.702 132.86C625.702 130.28 627.022 128.4 629.182 128.4C630.822 128.4 631.662 129.28 632.142 130.58H634.182C633.722 128.12 631.962 126.52 629.182 126.52C626.022 126.52 623.602 129.08 623.602 132.86ZM647.875 132.86C647.875 129.18 645.515 126.52 642.195 126.52C638.875 126.52 636.535 129.18 636.535 132.86C636.535 136.52 638.875 139.2 642.195 139.2C645.515 139.2 647.875 136.52 647.875 132.86ZM645.775 132.86C645.775 135.46 644.355 137.34 642.195 137.34C640.035 137.34 638.635 135.46 638.635 132.86C638.635 130.26 640.035 128.38 642.195 128.38C644.355 128.38 645.775 130.26 645.775 132.86ZM655.65 139.2C658.59 139.2 660.57 137.48 660.57 134.12V126.72H658.49V133.88C658.49 136.24 657.49 137.34 655.65 137.34C653.81 137.34 652.81 136.24 652.81 133.88V126.72H650.73V134.1C650.73 137.48 652.73 139.2 655.65 139.2ZM667.658 134.02L671.078 139H673.438L669.878 133.94C671.818 133.64 673.018 132.46 673.018 130.4C673.018 128 671.378 126.72 668.838 126.72H664.098V139H666.178V134.02H667.658ZM666.178 128.52H668.798C670.178 128.52 670.958 129.26 670.958 130.4C670.958 131.54 670.178 132.28 668.798 132.28H666.178V128.52ZM675.236 128.56H679.316V139H681.396V128.56H685.476V126.72H675.236V128.56Z" fill="url(#paint0_linear)"/>
<path d="M260.486 121.563L275.127 160.608C279.291 161.325 281.854 162.303 281.854 163.382L281.854 163.402L281.847 163.381L281.871 163.475C281.959 163.927 281.945 164.418 281.829 164.95L281.854 164.951L281.775 165.172C281.661 165.599 281.484 166.05 281.244 166.526C277.363 175.699 268.786 182.17 258.232 182.17C247.84 182.17 238.967 175.897 234.95 166.949L235.186 167.367C234.71 166.551 234.387 165.807 234.216 165.136C234.195 165.076 234.173 165.014 234.151 164.951L234.172 164.95C234.072 164.489 234.047 164.064 234.097 163.674L234.151 163.382L234.162 163.26C234.354 162.188 237.077 161.223 241.367 160.526L255.978 121.563C256.681 119.673 259.778 119.673 260.486 121.563ZM337.72 121.558L352.359 160.594C356.324 161.27 358.857 162.182 359.14 163.192L359.1 163.11C359.332 163.555 359.399 164.069 359.302 164.651L359.241 164.946C359.157 165.276 359.028 165.621 358.851 165.985C355.071 175.446 346.225 182.165 335.466 182.165C324.821 182.165 315.769 175.582 311.899 166.285C311.67 165.833 311.489 165.4 311.396 164.993L311.387 164.95C311.386 164.949 311.386 164.948 311.385 164.946L311.386 164.945L311.356 164.76C311.318 164.431 311.339 164.034 311.417 163.569L311.476 163.256L311.471 163.283C311.473 163.265 311.477 163.247 311.481 163.229L311.486 163.208L311.489 163.209C311.754 162.165 314.422 161.225 318.592 160.54L333.212 121.558C333.915 119.668 337.012 119.668 337.72 121.558ZM258.232 129.283L246.762 159.866C250.111 159.566 253.938 159.396 258.002 159.396L258.732 159.398C262.716 159.418 266.455 159.601 269.716 159.909L258.232 129.283ZM335.466 129.283L323.993 159.873C327.361 159.569 331.218 159.396 335.315 159.396L336.044 159.398C339.996 159.418 343.707 159.598 346.95 159.902L335.466 129.283ZM297.188 76.2737C297.188 76.2737 302.9 94.1952 302.9 97.3694C302.9 99.5551 301.638 101.401 299.841 102.371C301.32 102.851 302.62 103.694 303.636 104.823C305.905 102.846 309.247 101.009 314.044 101.009C319.53 101.009 324.245 103.408 328.406 105.526C329.731 106.199 331.017 106.844 332.206 107.348C333.093 106.408 334.33 105.807 335.717 105.807C338.405 105.807 340.582 107.997 340.582 110.701C340.582 113.406 338.405 115.596 335.717 115.596C333.536 115.596 331.758 114.128 331.142 112.136C329.548 111.525 327.915 110.701 326.234 109.848C322.555 107.978 318.379 105.855 314.044 105.855C309.878 105.855 307.278 107.799 305.794 109.441C305.852 109.858 305.919 110.27 305.919 110.701C305.919 115.552 302.009 119.488 297.188 119.488C292.366 119.488 288.456 115.552 288.456 110.701C288.456 110.27 288.523 109.853 288.581 109.437C287.093 107.789 284.492 105.855 280.331 105.855C275.996 105.855 271.82 107.983 268.136 109.853C266.46 110.706 264.827 111.53 263.233 112.141C262.617 114.133 260.839 115.601 258.658 115.601C255.97 115.601 253.793 113.406 253.793 110.701C253.793 107.997 255.97 105.807 258.658 105.807C260.045 105.807 261.283 106.412 262.169 107.348C263.358 106.849 264.639 106.204 265.964 105.526C270.125 103.408 274.845 101.009 280.331 101.009C285.128 101.009 288.47 102.846 290.739 104.823C291.755 103.694 293.055 102.846 294.534 102.371C292.737 101.401 291.475 99.5599 291.475 97.3694C291.475 94.1952 297.188 76.2737 297.188 76.2737Z" fill="url(#paint1_linear)"/>
<path d="M365.456 70.3041C365.456 70.3041 359.53 70.8134 355.605 72.9347C355.605 72.9347 371.219 72.8504 378.486 78.9552C378.486 78.9552 360.813 73.5252 340.215 87.0097C340.215 87.0097 372.976 80.733 388.507 94.0487C388.507 94.0487 383.495 84.7727 372.954 82.7762C372.954 82.7762 384.947 82.2982 389.054 84.2947C389.054 84.2947 385.507 76.6527 381.486 74.8312V69.3836C381.486 68.2805 375.48 62.6705 365.456 61.7239V70.3041Z" fill="url(#paint2_linear)"/>
<path d="M362.791 94.6639C362.791 94.6639 365.318 96.8681 366.388 98.905C366.388 98.905 364.078 101.188 361.87 102.312C361.87 102.312 368.559 104.419 370.32 106.91C366.754 105.789 360.664 106.209 359.197 109.238C363.269 108.799 365.762 109.85 366.286 111.41C366.286 111.41 365.318 112.805 362.354 113.425C359.197 114.085 358.391 115.398 358.391 117.23C358.391 119.063 360.788 120.739 365.142 120.603C369.489 120.464 381.347 118.67 382.243 96.2365C381.347 94.127 370.515 89.8197 362.763 89.867L362.791 94.6639Z" fill="white"/>
<path d="M385.971 119.49C391.294 111.207 394.207 103.989 394.709 97.8373C402.589 106.594 402.115 116.847 400.776 124.694C399.873 122.169 398.708 119.572 397.282 116.902C398.224 129 394.643 135.55 386.537 136.552C385.589 130.964 385.4 125.276 385.971 119.49Z" fill="white"/>
<path d="M287.615 44.3538C286.136 46.629 283.967 52.9553 281.11 63.3324C274.689 70.6799 268.409 80.7639 262.268 93.5845C259.236 94.5272 256.019 95.8579 252.618 97.5769C261.34 81.5401 269.874 69.4344 278.218 61.258C280.146 54.85 283.278 49.2152 287.615 44.3538Z" fill="white"/>
<path d="M305.197 62.2441L283.617 72.4256C289.766 72.5291 294.65 71.4111 298.268 69.0716C301.886 66.7322 304.196 64.4563 305.197 62.2441Z" fill="white"/>
<path d="M297.235 58.5302C297.113 54.0805 296.533 51.5794 295.497 51.0272C294.345 50.5125 293.675 49.4041 294.345 47.38C294.758 46.0936 294.633 44.6614 293.971 43.0835L299.825 39.1729L306.413 43.3257C306.644 44.7911 306.165 46.1425 304.977 47.38C306.413 48.9339 306.413 50.9394 304.749 53.2558C304.796 53.8296 304.828 54.3923 304.846 54.9437C304.873 55.7794 304.841 56.9749 304.749 58.5302H297.235Z" fill="white"/>
<path d="M378.518 127.084C377.485 145.896 381.49 156.586 390.533 159.155C404.097 163.009 422.239 164.134 427.172 192.7C428.398 196.564 427.802 200.114 428.816 203.595C424.839 207.806 420.526 211.694 415.92 215.216C411.412 204.316 405.776 197.584 397.852 192.7C366.623 173.247 360.178 151.375 378.518 127.084Z" fill="white"/>
<path d="M299.898 186.951C323 218.5 342.428 201.699 362.65 211.315C371.896 215.712 376.939 223.784 377.781 235.53C369.897 237.366 361.683 238.335 353.243 238.335C336.877 238.335 321.361 234.692 307.456 228.17C307.405 215.812 304.885 202.072 299.898 186.951Z" fill="white"/>
<path d="M387.21 64.1204C393.806 74.6084 396.882 82.3662 396.439 87.3939C396.271 89.2107 395.472 91.2376 394.043 93.4748C399.062 93.0268 401.572 89.9403 401.572 84.2153C401.572 78.4903 396.785 71.792 387.21 64.1204Z" fill="white"/>
<path d="M329.894 75.9397C334.136 74.7678 337.603 72.1215 340.295 68.0009C340.124 70.4542 339.51 72.5659 338.452 74.3361C350.712 72.1309 360.227 64.7022 366.997 52.0501C354.514 45.2628 341.646 49.8929 334.749 58.3366C330.151 63.9657 328.533 69.8334 329.894 75.9397Z" fill="white"/>
<path d="M261.744 47.0188L260.745 48.0173L254.865 42.2481L255.863 41.2496L261.744 47.0188Z" fill="#464646"/>
<path d="M271.84 37.8103L271.063 38.4759L263.963 36.7008L267.846 41.2496L266.847 42.1372L261.522 35.9242L262.52 35.0366L269.177 36.8117L265.516 32.4848L266.514 31.5972L271.84 37.8103Z" fill="#464646"/>
<path d="M283.378 19.8369L290.257 25.2733L289.037 26.0499L287.151 24.4967L284.488 26.0499L284.932 28.3798L283.711 29.0455L282.158 20.5026L283.378 19.8369ZM284.266 24.8295L286.152 23.7201L283.6 21.6121L284.266 24.8295Z" fill="#464646"/>
<path d="M295.693 18.6164L297.136 21.6119L295.915 22.1667L292.476 14.7332L295.361 13.4019C296.914 12.6252 298.245 12.9581 298.911 14.4004C299.466 15.6208 299.133 16.7303 298.023 17.396L301.574 19.393L300.131 20.0587L296.692 18.0616L295.693 18.6164ZM295.25 17.6179L296.803 16.8412C297.58 16.3974 297.912 15.7318 297.58 15.0661C297.247 14.4004 296.581 14.1785 295.693 14.5113L294.14 15.288L295.25 17.6179Z" fill="#464646"/>
<path d="M308.341 8.18744L314 14.8443L312.668 15.288L311.115 13.4019L308.119 14.4005V16.8413L306.788 17.2851L307.01 8.52028L308.341 8.18744ZM308.23 13.1801L310.338 12.4034L308.23 9.96259V13.1801Z" fill="#464646"/>
<path d="M322.875 9.29689L322.543 8.18742L325.538 7.41079L325.649 8.07648C326.204 10.2954 325.094 12.0706 323.097 12.5144C320.989 13.0691 318.992 11.7377 318.327 9.29689C317.772 6.85606 318.992 4.85901 320.989 4.30428C322.986 3.86049 324.429 4.52617 325.094 6.07943L323.763 6.41227C323.208 5.63564 322.543 5.19185 321.544 5.5247C320.102 5.85754 319.436 7.1889 319.88 8.96405C320.324 10.6283 321.544 11.6268 322.986 11.2939C324.207 10.9611 324.762 10.0735 324.651 8.8531L322.875 9.29689Z" fill="#464646"/>
<path d="M336.411 9.96259C334.192 10.2954 332.417 8.74217 332.084 6.30134C331.751 3.86051 333.083 1.86346 335.301 1.64157C337.52 1.30872 339.296 2.86198 339.628 5.30282C339.85 7.74365 338.519 9.7407 336.411 9.96259ZM335.412 2.86198C333.97 3.08388 333.194 4.41524 333.415 6.07945C333.637 7.74365 334.747 8.96407 336.189 8.74217C337.631 8.52028 338.408 7.18891 338.186 5.52471C337.964 3.74956 336.855 2.64009 335.412 2.86198Z" fill="#464646"/>
<path d="M353.275 8.74212H352.165L347.839 2.86193L347.949 8.85307H346.618L346.396 0.64299H347.728L351.833 6.19034L351.722 0.532043H353.053L353.275 8.74212Z" fill="#464646"/>
<path d="M374.466 2.19629L375.131 8.40932L377.461 2.64008L378.793 2.86197L375.464 10.6283L374.244 10.4064L373.578 4.41523L371.137 9.96258L369.917 9.74069L369.029 1.30872L370.361 1.53061L370.915 7.74364L373.356 1.9744L374.466 2.19629Z" fill="#464646"/>
<path d="M390.997 5.74659L390.664 6.967L386.781 5.96848L386.226 8.07647L389.666 8.96405L389.333 10.1845L386.004 9.18594L385.45 11.4049L389.333 12.4034L389 13.6238L383.785 12.2925L385.893 4.41522L390.997 5.74659Z" fill="#464646"/>
<path d="M405.975 10.8501L412.188 13.6238L411.744 14.7332L409.303 13.6238L406.529 19.9478L405.309 19.393L408.083 13.069L405.642 11.9596L405.975 10.8501Z" fill="#464646"/>
<path d="M417.624 21.9449L415.96 24.8295L414.74 24.1638L418.734 17.0632L421.507 18.6165C422.95 19.5041 423.504 20.7245 422.728 22.1668C422.062 23.3872 420.953 23.6091 419.732 23.1653L420.176 27.2704L418.845 26.4937L418.512 22.4996L417.624 21.9449ZM418.179 20.9464L419.732 21.834C420.509 22.2777 421.174 22.1668 421.618 21.5011C422.062 20.8354 421.729 20.1697 420.953 19.726L419.399 18.8384L418.179 20.9464Z" fill="#464646"/>
<path d="M427.277 27.825L430.161 23.8309L431.271 24.6076L428.497 28.4907C427.609 29.8221 427.72 30.7096 428.719 31.4863C429.717 32.152 430.716 31.9301 431.603 30.7096L434.377 26.8265L435.487 27.6031L432.602 31.5972C431.271 33.3724 429.606 33.5943 427.942 32.4848C426.389 31.3753 426.056 29.7111 427.277 27.825Z" fill="#464646"/>
<path d="M438.26 37.3664C437.927 38.1431 438.149 38.9197 438.815 39.4744C439.592 40.1401 440.257 40.1401 440.812 39.5854C441.145 39.1416 441.145 38.6978 440.59 37.9212L439.814 36.8117C439.148 35.9241 438.815 34.8147 439.703 33.8161C440.59 32.8176 442.143 32.7067 443.364 33.8161C444.695 34.9256 444.917 36.3679 444.251 37.5883L443.253 36.7007C443.475 36.146 443.364 35.3694 442.698 34.8147C442.032 34.2599 441.256 34.149 440.812 34.7037C440.479 35.1475 440.479 35.5913 440.923 36.257L441.811 37.4774C442.587 38.5868 442.698 39.6963 441.922 40.5839C440.923 41.6934 439.37 41.6934 438.149 40.5839C436.818 39.4744 436.485 37.9212 437.262 36.5898L438.26 37.3664Z" fill="#464646"/>
<path d="M450.686 40.6949L455.346 45.5765L454.459 46.4641L452.572 44.4671L447.58 49.2378L446.581 48.2393L451.574 43.4686L449.688 41.4715L450.686 40.6949Z" fill="#464646"/>
<path d="M253.312 205.007L248.208 212.108L247.431 210.887L248.874 208.89L247.21 206.228L244.769 206.893L243.992 205.784L252.535 203.898L253.312 205.007ZM248.319 206.117L249.539 208.003L251.426 205.451L248.319 206.117Z" fill="#464646"/>
<path d="M255.974 216.879L253.423 218.987L252.535 217.877L258.859 212.663L260.856 215.104C261.966 216.435 261.966 217.766 260.745 218.765C259.636 219.652 258.526 219.541 257.639 218.654L256.529 222.648L255.531 221.428L256.64 217.544L255.974 216.879ZM256.862 216.102L257.971 217.433C258.526 218.099 259.303 218.21 259.858 217.766C260.412 217.323 260.523 216.546 259.858 215.88L258.748 214.549L256.862 216.102Z" fill="#464646"/>
<path d="M269.843 224.867L266.403 232.855L265.405 231.857L266.403 229.638L264.184 227.419L261.966 228.417L260.967 227.419L268.955 223.757L269.843 224.867ZM265.183 226.975L266.736 228.528L268.068 225.644L265.183 226.975Z" fill="#464646"/>
<path d="M276.389 237.404L277.165 236.516L279.606 238.402L279.162 238.957C277.72 240.732 275.723 240.954 274.17 239.734C272.395 238.402 272.173 235.962 273.726 234.076C275.279 232.078 277.609 231.746 279.273 233.077C280.716 234.186 281.048 235.851 280.272 237.293L279.162 236.405C279.495 235.518 279.384 234.741 278.497 234.076C277.387 233.188 275.834 233.521 274.724 234.963C273.615 236.294 273.615 237.848 274.835 238.846C275.834 239.623 276.832 239.401 277.72 238.624L276.389 237.404Z" fill="#464646"/>
<path d="M285.819 247.833C283.933 246.612 283.6 244.283 284.821 242.285C286.152 240.178 288.371 239.512 290.257 240.732C292.143 241.953 292.476 244.283 291.256 246.28C289.924 248.388 287.705 249.053 285.819 247.833ZM289.591 241.731C288.371 240.954 286.929 241.509 286.041 242.951C285.153 244.393 285.264 245.947 286.485 246.723C287.705 247.5 289.148 246.945 290.035 245.503C290.923 244.061 290.812 242.507 289.591 241.731Z" fill="#464646"/>
<path d="M301.574 256.154L300.575 255.71L299.355 248.499L296.803 253.824L295.582 253.269L299.133 245.836L300.353 246.391L301.463 253.158L303.903 248.055L305.124 248.609L301.574 256.154Z" fill="#464646"/>
<path d="M323.541 263.698L322.543 263.476L320.102 256.598L318.548 262.367L317.217 262.034L319.325 254.157L320.546 254.49L322.875 261.036L324.318 255.599L325.649 255.932L323.541 263.698Z" fill="#464646"/>
<path d="M337.853 258.04L337.631 259.26L333.748 258.595L333.415 260.703L336.966 261.258L336.744 262.478L333.194 261.923L332.861 264.253L336.744 264.919L336.522 266.139L331.196 265.252L332.528 257.152L337.853 258.04Z" fill="#464646"/>
<path d="M343.955 258.706L350.723 259.039L350.612 260.259L347.949 260.148L347.617 267.138L346.285 267.027L346.618 260.037L343.955 259.926V258.706Z" fill="#464646"/>
<path d="M362.04 258.817L363.926 264.697L365.035 258.595L366.367 258.484L364.702 266.805L363.482 266.916L361.596 261.147L360.376 267.027L359.155 267.138L356.603 259.15L357.935 259.039L359.821 264.919L361.041 258.817H362.04Z" fill="#464646"/>
<path d="M377.35 265.252C375.131 265.695 373.356 264.142 372.913 261.812C372.469 259.371 373.689 257.374 375.908 257.041C378.127 256.598 379.902 258.151 380.346 260.481C380.79 262.922 379.569 264.919 377.35 265.252ZM376.13 258.262C374.688 258.484 374.022 259.926 374.355 261.59C374.688 263.254 375.797 264.364 377.239 264.142C378.682 263.92 379.347 262.478 379.015 260.814C378.682 259.149 377.461 257.929 376.13 258.262Z" fill="#464646"/>
<path d="M388.667 259.149L389.666 262.367L388.334 262.811L386.004 254.933L389 254.046C390.664 253.602 391.884 254.046 392.328 255.599C392.772 256.931 392.217 257.929 390.997 258.484L394.214 261.036L392.661 261.479L389.555 258.928L388.667 259.149ZM388.334 258.04L389.998 257.596C390.886 257.374 391.219 256.709 390.997 255.932C390.775 255.155 390.109 254.933 389.222 255.155L387.558 255.599L388.334 258.04Z" fill="#464646"/>
<path d="M400.649 254.046L402.313 249.164L403.978 248.499L402.313 253.158L407.195 255.932L405.642 256.598L401.87 254.379L401.426 255.599L402.424 257.929L401.093 258.484L397.987 250.939L399.318 250.385L400.649 254.046Z" fill="#464646"/>
<path d="M420.62 246.058C421.174 246.723 421.729 246.834 422.395 246.391C423.172 245.947 423.282 245.17 422.617 244.172L419.732 239.623L420.953 238.846L423.837 243.395C424.836 245.059 424.503 246.502 423.061 247.389C421.618 248.277 420.287 247.944 419.399 246.723L420.62 246.058Z" fill="#464646"/>
<path d="M429.495 239.068L426.5 235.185L427.609 234.297L430.605 238.069C431.603 239.29 432.602 239.512 433.49 238.735C434.377 237.959 434.488 236.96 433.601 235.74L430.605 231.967L431.714 231.08L434.71 234.963C436.041 236.738 435.819 238.402 434.266 239.623C432.602 240.843 430.827 240.843 429.495 239.068Z" fill="#464646"/>
<path d="M441.145 229.083L443.475 231.413L442.476 232.411L436.818 226.531L439.037 224.312C440.257 223.092 441.589 222.981 442.698 224.09C443.697 225.089 443.586 226.198 442.809 227.197L446.803 227.973L445.694 229.083L441.7 228.306L441.145 229.083ZM440.257 228.306L441.478 227.086C442.143 226.42 442.143 225.754 441.589 225.2C441.034 224.645 440.368 224.645 439.703 225.311L438.482 226.531L440.257 228.306Z" fill="#464646"/>
<path d="M454.015 220.318C452.572 221.982 450.243 222.093 448.356 220.54C446.47 218.987 446.138 216.657 447.469 214.993C448.911 213.328 451.241 213.217 453.127 214.771C455.013 216.213 455.457 218.543 454.015 220.318ZM448.467 215.658C447.58 216.768 447.913 218.321 449.244 219.43C450.575 220.54 452.129 220.651 453.016 219.541C453.904 218.432 453.571 216.879 452.24 215.769C450.908 214.66 449.355 214.549 448.467 215.658Z" fill="#464646"/>
<path d="M458.675 208.225L461.448 210L460.672 211.109L453.793 206.672L455.568 204.009C456.456 202.567 457.787 202.123 459.118 203.01C460.228 203.787 460.45 204.896 459.895 206.006L464 205.895L463.112 207.226L459.118 207.337L458.675 208.225ZM457.676 207.67L458.675 206.228C459.229 205.451 459.007 204.785 458.453 204.342C457.787 203.898 457.121 204.12 456.567 204.896L455.568 206.339L457.676 207.67Z" fill="#464646"/>
<defs>
<linearGradient id="paint0_linear" x1="478" y1="147.945" x2="492.864" y2="77.7042" gradientUnits="userSpaceOnUse">
<stop stop-color="#FFC58F"/>
<stop offset="1" stop-color="#FF7C7C"/>
</linearGradient>
<linearGradient id="paint1_linear" x1="234.072" y1="166.917" x2="350.357" y2="73.2612" gradientUnits="userSpaceOnUse">
<stop stop-color="#FFC58F"/>
<stop offset="1" stop-color="#FF7C7C"/>
</linearGradient>
<linearGradient id="paint2_linear" x1="340.215" y1="84.9401" x2="383.12" y2="57.8841" gradientUnits="userSpaceOnUse">
<stop stop-color="#FFC58F"/>
<stop offset="1" stop-color="#FF7C7C"/>
</linearGradient>
</defs>
</svg>
