<svg fill="none" height="268" viewBox="0 0 705 268" width="705" xmlns="http://www.w3.org/2000/svg" xmlns:xlink="http://www.w3.org/1999/xlink"><linearGradient id="a"><stop offset="0" stop-color="#ffc58f"/><stop offset="1" stop-color="#ff7c7c"/></linearGradient><linearGradient id="b" gradientUnits="userSpaceOnUse" x1="478" x2="492.864" xlink:href="#a" y1="147.945" y2="77.7042"/><linearGradient id="c" gradientUnits="userSpaceOnUse" x1="234.072" x2="350.357" xlink:href="#a" y1="166.917" y2="73.2612"/><linearGradient id="d" gradientUnits="userSpaceOnUse" x1="340.215" x2="383.12" xlink:href="#a" y1="84.9401" y2="57.8841"/><path d="m23.9799 132.66c.9-.32 1.6-1.28 1.6-2.6 0-2.2-1.6-3.34-4.16-3.34h-4.3v12.28h4.7c2.56 0 4.16-1.22 4.16-3.52 0-1.3-.84-2.44-2-2.82zm-4.84-.78v-3.36h2.26c1.42 0 2.18.5 2.18 1.66s-.76 1.7-2.18 1.7zm0 1.72h2.64c1.4 0 2.16.68 2.16 1.8 0 1.1-.76 1.8-2.16 1.8h-2.64zm9.9956-6.88v12.28h8.02v-1.86h-5.98v-3.52h5.42v-1.82h-5.42v-3.24h5.98v-1.84zm10.6135 6.14c0 3.78 2.42 6.34 5.58 6.34 2.76 0 4.54-1.6 5-4.08h-2.04c-.48 1.32-1.32 2.2-2.96 2.2-2.18 0-3.48-1.9-3.48-4.46 0-2.58 1.32-4.46 3.48-4.46 1.64 0 2.48.88 2.96 2.18h2.04c-.46-2.46-2.22-4.06-5-4.06-3.16 0-5.58 2.56-5.58 6.34zm24.2736 0c0-3.68-2.36-6.34-5.68-6.34s-5.66 2.66-5.66 6.34c0 3.66 2.34 6.34 5.66 6.34s5.68-2.68 5.68-6.34zm-2.1 0c0 2.6-1.42 4.48-3.58 4.48s-3.56-1.88-3.56-4.48 1.4-4.48 3.56-4.48 3.58 1.88 3.58 4.48zm11.9943 6.14 3.3-8.54v8.54h2v-12.28h-2.32l-3.7 9.44-3.74-9.44h-2.38v12.28h1.98v-8.54l3.38 8.54zm9.0233-12.28v12.28h8.02v-1.86h-5.98v-3.52h5.42v-1.82h-5.42v-3.24h5.98v-1.84zm20.4478 0-4.7203 12.28h2.1003l1.26-3.4h4.7l1.26 3.4h2.12l-4.72-12.28zm.98 2.54 1.68 4.54h-3.36zm12.86 6.16c.18 2.18 1.52 3.78 4.16 3.78 2.52 0 4.12-1.52 4.12-4.44v-8.04h-2.08v8.04c0 1.74-.68 2.54-2.08 2.54-1.18 0-1.82-.7-1.96-1.88zm16.487 3.78c2.94 0 4.92-1.72 4.92-5.08v-7.4h-2.08v7.16c0 2.36-1 3.46-2.84 3.46s-2.84-1.1-2.84-3.46v-7.16h-2.08v7.38c0 3.38 2 5.1 4.92 5.1zm12.008-5.18 3.42 4.98h2.36l-3.56-5.06c1.94-.3 3.14-1.48 3.14-3.54 0-2.4-1.64-3.68-4.18-3.68h-4.74v12.28h2.08v-4.98zm-1.48-5.5h2.62c1.38 0 2.16.74 2.16 1.88s-.78 1.88-2.16 1.88h-2.62zm20.694 4.34c0-3.68-2.36-6.34-5.68-6.34s-5.66 2.66-5.66 6.34c0 3.66 2.34 6.34 5.66 6.34s5.68-2.68 5.68-6.34zm-2.1 0c0 2.6-1.42 4.48-3.58 4.48s-3.56-1.88-3.56-4.48 1.4-4.48 3.56-4.48 3.58 1.88 3.58 4.48zm8.714 1.16 3.42 4.98h2.36l-3.56-5.06c1.94-.3 3.14-1.48 3.14-3.54 0-2.4-1.64-3.68-4.18-3.68h-4.74v12.28h2.08v-4.98zm-1.48-5.5h2.62c1.38 0 2.16.74 2.16 1.88s-.78 1.88-2.16 1.88h-2.62z" fill="#fff"/><path d="m499.971 139v-4.98h5.38v-1.82h-5.38v-3.64h5.76v-1.84h-7.84v12.28zm19.502-6.14c0-3.68-2.36-6.34-5.68-6.34s-5.66 2.66-5.66 6.34c0 3.66 2.34 6.34 5.66 6.34s5.68-2.68 5.68-6.34zm-2.1 0c0 2.6-1.42 4.48-3.58 4.48s-3.56-1.88-3.56-4.48 1.4-4.48 3.56-4.48 3.58 1.88 3.58 4.48zm8.714 1.16 3.42 4.98h2.36l-3.56-5.06c1.94-.3 3.14-1.48 3.14-3.54 0-2.4-1.64-3.68-4.18-3.68h-4.74v12.28h2.08v-4.98zm-1.48-5.5h2.62c1.38 0 2.16.74 2.16 1.88s-.78 1.88-2.16 1.88h-2.62zm19.188-1.8-4.72 12.28h2.1l1.26-3.4h4.7l1.26 3.4h2.12l-4.72-12.28zm.98 2.54 1.68 4.54h-3.36zm12.066 4.76 3.42 4.98h2.36l-3.56-5.06c1.94-.3 3.14-1.48 3.14-3.54 0-2.4-1.64-3.68-4.18-3.68h-4.74v12.28h2.08v-4.98zm-1.48-5.5h2.62c1.38 0 2.16.74 2.16 1.88s-.78 1.88-2.16 1.88h-2.62zm13.774-1.8-4.72 12.28h2.1l1.26-3.4h4.7l1.26 3.4h2.12l-4.72-12.28zm.98 2.54 1.68 4.54h-3.36zm16.358 5.18c-.26 1.72-1.38 2.92-3.24 2.92-2.28 0-3.68-1.9-3.68-4.5s1.42-4.46 3.6-4.46c1.64 0 2.46.84 2.96 2.16h2.08c-.48-2.44-2.22-4.04-5.04-4.04-3.2 0-5.7 2.56-5.7 6.34s2.48 6.34 5.78 6.34c3 0 5.22-2.18 5.22-5.58v-.96h-4.66v1.78zm15.723-1.58c0-3.68-2.36-6.34-5.68-6.34s-5.66 2.66-5.66 6.34c0 3.66 2.34 6.34 5.66 6.34s5.68-2.68 5.68-6.34zm-2.1 0c0 2.6-1.42 4.48-3.58 4.48s-3.56-1.88-3.56-4.48 1.4-4.48 3.56-4.48 3.58 1.88 3.58 4.48zm15.034-6.14h-2v8.52l-5.92-8.52h-1.96v12.28h2v-8.94l6.28 8.94h1.6zm8.472 6.14c0 3.78 2.42 6.34 5.58 6.34 2.76 0 4.54-1.6 5-4.08h-2.04c-.48 1.32-1.32 2.2-2.96 2.2-2.18 0-3.48-1.9-3.48-4.46 0-2.58 1.32-4.46 3.48-4.46 1.64 0 2.48.88 2.96 2.18h2.04c-.46-2.46-2.22-4.06-5-4.06-3.16 0-5.58 2.56-5.58 6.34zm24.273 0c0-3.68-2.36-6.34-5.68-6.34s-5.66 2.66-5.66 6.34c0 3.66 2.34 6.34 5.66 6.34s5.68-2.68 5.68-6.34zm-2.1 0c0 2.6-1.42 4.48-3.58 4.48s-3.56-1.88-3.56-4.48 1.4-4.48 3.56-4.48 3.58 1.88 3.58 4.48zm9.875 6.34c2.94 0 4.92-1.72 4.92-5.08v-7.4h-2.08v7.16c0 2.36-1 3.46-2.84 3.46s-2.84-1.1-2.84-3.46v-7.16h-2.08v7.38c0 3.38 2 5.1 4.92 5.1zm12.008-5.18 3.42 4.98h2.36l-3.56-5.06c1.94-.3 3.14-1.48 3.14-3.54 0-2.4-1.64-3.68-4.18-3.68h-4.74v12.28h2.08v-4.98zm-1.48-5.5h2.62c1.38 0 2.16.74 2.16 1.88s-.78 1.88-2.16 1.88h-2.62zm9.058.04h4.08v10.44h2.08v-10.44h4.08v-1.84h-10.24z" fill="url(#b)"/><path d="m260.486 121.563 14.641 39.045c4.164.717 6.727 1.695 6.727 2.774v.02l-.007-.021.024.094c.088.452.074.943-.042 1.475l.025.001-.079.221c-.114.427-.291.878-.531 1.354-3.881 9.173-12.458 15.644-23.012 15.644-10.392 0-19.265-6.273-23.282-15.221l.236.418c-.476-.816-.799-1.56-.97-2.231-.021-.06-.043-.122-.065-.185l.021-.001c-.1-.461-.125-.886-.075-1.276l.054-.292.011-.122c.192-1.072 2.915-2.037 7.205-2.734l14.611-38.963c.703-1.89 3.8-1.89 4.508 0zm77.234-.005 14.639 39.036c3.965.676 6.498 1.588 6.781 2.598l-.04-.082c.232.445.299.959.202 1.541l-.061.295c-.084.33-.213.675-.39 1.039-3.78 9.461-12.626 16.18-23.385 16.18-10.645 0-19.697-6.583-23.567-15.88-.229-.452-.41-.885-.503-1.292l-.009-.043c-.001-.001-.001-.002-.002-.004l.001-.001-.03-.185c-.038-.329-.017-.726.061-1.191l.059-.313-.005.027c.002-.018.006-.036.01-.054l.005-.021.003.001c.265-1.044 2.933-1.984 7.103-2.669l14.62-38.982c.703-1.89 3.8-1.89 4.508 0zm-79.488 7.725-11.47 30.583c3.349-.3 7.176-.47 11.24-.47l.73.002c3.984.02 7.723.203 10.984.511zm77.234 0-11.473 30.59c3.368-.304 7.225-.477 11.322-.477l.729.002c3.952.02 7.663.2 10.906.504zm-38.278-53.0093s5.712 17.9215 5.712 21.0957c0 2.1857-1.262 4.0316-3.059 5.0016 1.479.48 2.779 1.323 3.795 2.452 2.269-1.977 5.611-3.814 10.408-3.814 5.486 0 10.201 2.399 14.362 4.517 1.325.673 2.611 1.318 3.8 1.822.887-.94 2.124-1.541 3.511-1.541 2.688 0 4.865 2.19 4.865 4.894 0 2.705-2.177 4.895-4.865 4.895-2.181 0-3.959-1.468-4.575-3.46-1.594-.611-3.227-1.435-4.908-2.288-3.679-1.87-7.855-3.993-12.19-3.993-4.166 0-6.766 1.944-8.25 3.586.058.417.125.829.125 1.26 0 4.851-3.91 8.787-8.731 8.787-4.822 0-8.732-3.936-8.732-8.787 0-.431.067-.848.125-1.264-1.488-1.648-4.089-3.582-8.25-3.582-4.335 0-8.511 2.128-12.195 3.998-1.676.853-3.309 1.677-4.903 2.288-.616 1.992-2.394 3.46-4.575 3.46-2.688 0-4.865-2.195-4.865-4.9 0-2.704 2.177-4.894 4.865-4.894 1.387 0 2.625.605 3.511 1.541 1.189-.499 2.47-1.144 3.795-1.822 4.161-2.118 8.881-4.517 14.367-4.517 4.797 0 8.139 1.837 10.408 3.814 1.016-1.129 2.316-1.977 3.795-2.452-1.797-.97-3.059-2.8111-3.059-5.0016 0-3.1742 5.713-21.0957 5.713-21.0957z" fill="url(#c)"/><path d="m365.456 70.3041s-5.926.5093-9.851 2.6306c0 0 15.614-.0843 22.881 6.0205 0 0-17.673-5.43-38.271 8.0545 0 0 32.761-6.2767 48.292 7.039 0 0-5.012-9.276-15.553-11.2725 0 0 11.993-.478 16.1 1.5185 0 0-3.547-7.642-7.568-9.4635v-5.4476c0-1.1031-6.006-6.7131-16.03-7.6597z" fill="url(#d)"/><path d="m362.791 94.6639s2.527 2.2042 3.597 4.2411c0 0-2.31 2.283-4.518 3.407 0 0 6.689 2.107 8.45 4.598-3.566-1.121-9.656-.701-11.123 2.328 4.072-.439 6.565.612 7.089 2.172 0 0-.968 1.395-3.932 2.015-3.157.66-3.963 1.973-3.963 3.805 0 1.833 2.397 3.509 6.751 3.373 4.347-.139 16.205-1.933 17.101-24.3665-.896-2.1095-11.728-6.4168-19.48-6.3695z" fill="#fff"/><path d="m385.971 119.49c5.323-8.283 8.236-15.501 8.738-21.6527 7.88 8.7567 7.406 19.0097 6.067 26.8567-.903-2.525-2.068-5.122-3.494-7.792.942 12.098-2.639 18.648-10.745 19.65-.948-5.588-1.137-11.276-.566-17.062z" fill="#fff"/><path d="m287.615 44.3538c-1.479 2.2752-3.648 8.6015-6.505 18.9786-6.421 7.3475-12.701 17.4315-18.842 30.2521-3.032.9427-6.249 2.2734-9.65 3.9924 8.722-16.0368 17.256-28.1425 25.6-36.3189 1.928-6.408 5.06-12.0428 9.397-16.9042z" fill="#fff"/><path d="m305.197 62.2441-21.58 10.1815c6.149.1035 11.033-1.0145 14.651-3.354 3.618-2.3394 5.928-4.6153 6.929-6.8275z" fill="#fff"/><path d="m297.235 58.5302c-.122-4.4497-.702-6.9508-1.738-7.503-1.152-.5147-1.822-1.6231-1.152-3.6472.413-1.2864.288-2.7186-.374-4.2965l5.854-3.9106 6.588 4.1528c.231 1.4654-.248 2.8168-1.436 4.0543 1.436 1.5539 1.436 3.5594-.228 5.8758.047.5738.079 1.1365.097 1.6879.027.8357-.005 2.0312-.097 3.5865z" fill="#fff"/><path d="m378.518 127.084c-1.033 18.812 2.972 29.502 12.015 32.071 13.564 3.854 31.706 4.979 36.639 33.545 1.226 3.864.63 7.414 1.644 10.895-3.977 4.211-8.29 8.099-12.896 11.621-4.508-10.9-10.144-17.632-18.068-22.516-31.229-19.453-37.674-41.325-19.334-65.616z" fill="#fff"/><path d="m299.898 186.951c23.102 31.549 42.53 14.748 62.752 24.364 9.246 4.397 14.289 12.469 15.131 24.215-7.884 1.836-16.098 2.805-24.538 2.805-16.366 0-31.882-3.643-45.787-10.165-.051-12.358-2.571-26.098-7.558-41.219z" fill="#fff"/><path d="m387.21 64.1204c6.596 10.488 9.672 18.2458 9.229 23.2735-.168 1.8168-.967 3.8437-2.396 6.0809 5.019-.448 7.529-3.5345 7.529-9.2595s-4.787-12.4233-14.362-20.0949z" fill="#fff"/><path d="m329.894 75.9397c4.242-1.1719 7.709-3.8182 10.401-7.9388-.171 2.4533-.785 4.565-1.843 6.3352 12.26-2.2052 21.775-9.6339 28.545-22.286-12.483-6.7873-25.351-2.1572-32.248 6.2865-4.598 5.6291-6.216 11.4968-4.855 17.6031z" fill="#fff"/><g fill="#464646"><path d="m261.744 47.0188-.999.9985-5.88-5.7692.998-.9985z"/><path d="m271.84 37.8103-.777.6656-7.1-1.7751 3.883 4.5488-.999.8876-5.325-6.213.998-.8876 6.657 1.7751-3.661-4.3269.998-.8876z"/><path d="m283.378 19.8369 6.879 5.4364-1.22.7766-1.886-1.5532-2.663 1.5532.444 2.3299-1.221.6657-1.553-8.5429zm.888 4.9926 1.886-1.1094-2.552-2.108z"/><path d="m295.693 18.6164 1.443 2.9955-1.221.5548-3.439-7.4335 2.885-1.3313c1.553-.7767 2.884-.4438 3.55.9985.555 1.2204.222 2.3299-.888 2.9956l3.551 1.997-1.443.6657-3.439-1.9971zm-.443-.9985 1.553-.7767c.777-.4438 1.109-1.1094.777-1.7751-.333-.6657-.999-.8876-1.887-.5548l-1.553.7767z"/><path d="m308.341 8.18744 5.659 6.65686-1.332.4437-1.553-1.8861-2.996.9986v2.4408l-1.331.4438.222-8.76482zm-.111 4.99266 2.108-.7767-2.108-2.44081z"/><path d="m322.875 9.29689-.332-1.10947 2.995-.77663.111.66569c.555 2.21892-.555 3.99412-2.552 4.43792-2.108.5547-4.105-.7767-4.77-3.21751-.555-2.44083.665-4.43788 2.662-4.99261 1.997-.44379 3.44.22189 4.105 1.77515l-1.331.33284c-.555-.77663-1.22-1.22042-2.219-.88757-1.442.33284-2.108 1.6642-1.664 3.43935.444 1.66425 1.664 2.66275 3.106 2.32985 1.221-.3328 1.776-1.2204 1.665-2.4408z"/><path d="m336.411 9.96259c-2.219.33281-3.994-1.22042-4.327-3.66125s.999-4.43788 3.217-4.65977c2.219-.33285 3.995 1.22041 4.327 3.66125.222 2.44083-1.109 4.43788-3.217 4.65977zm-.999-7.10061c-1.442.2219-2.218 1.55326-1.997 3.21747.222 1.6642 1.332 2.88462 2.774 2.66272 1.442-.22189 2.219-1.55326 1.997-3.21746-.222-1.77515-1.331-2.88462-2.774-2.66273z"/><path d="m353.275 8.74212h-1.11l-4.326-5.88019.11 5.99114h-1.331l-.222-8.21008h1.332l4.105 5.54735-.111-5.658297h1.331z"/><path d="m374.466 2.19629.665 6.21303 2.33-5.76924 1.332.22189-3.329 7.76633-1.22-.2219-.666-5.99117-2.441 5.54735-1.22-.22189-.888-8.43197 1.332.22189.554 6.21303 2.441-5.76924z"/><path d="m390.997 5.74659-.333 1.22041-3.883-.99852-.555 2.10799 3.44.88758-.333 1.22045-3.329-.99856-.554 2.21896 3.883.9985-.333 1.2204-5.215-1.3313 2.108-7.87728z"/><path d="m405.975 10.8501 6.213 2.7737-.444 1.1094-2.441-1.1094-2.774 6.324-1.22-.5548 2.774-6.324-2.441-1.1094z"/><path d="m417.624 21.9449-1.664 2.8846-1.22-.6657 3.994-7.1006 2.773 1.5533c1.443.8876 1.997 2.108 1.221 3.5503-.666 1.2204-1.775 1.4423-2.996.9985l.444 4.1051-1.331-.7767-.333-3.9941zm.555-.9985 1.553.8876c.777.4437 1.442.3328 1.886-.3329s.111-1.3314-.665-1.7751l-1.554-.8876z"/><path d="m427.277 27.825 2.884-3.9941 1.11.7767-2.774 3.8831c-.888 1.3314-.777 2.2189.222 2.9956.998.6657 1.997.4438 2.884-.7767l2.774-3.8831 1.11.7766-2.885 3.9941c-1.331 1.7752-2.996 1.9971-4.66.8876-1.553-1.1095-1.886-2.7737-.665-4.6598z"/><path d="m438.26 37.3664c-.333.7767-.111 1.5533.555 2.108.777.6657 1.442.6657 1.997.111.333-.4438.333-.8876-.222-1.6642l-.776-1.1095c-.666-.8876-.999-1.997-.111-2.9956.887-.9985 2.44-1.1094 3.661 0 1.331 1.1095 1.553 2.5518.887 3.7722l-.998-.8876c.222-.5547.111-1.3313-.555-1.886-.666-.5548-1.442-.6657-1.886-.111-.333.4438-.333.8876.111 1.5533l.888 1.2204c.776 1.1094.887 2.2189.111 3.1065-.999 1.1095-2.552 1.1095-3.773 0-1.331-1.1095-1.664-2.6627-.887-3.9941z"/><path d="m450.686 40.6949 4.66 4.8816-.887.8876-1.887-1.997-4.992 4.7707-.999-.9985 4.993-4.7707-1.886-1.9971z"/><path d="m253.312 205.007-5.104 7.101-.777-1.221 1.443-1.997-1.664-2.662-2.441.665-.777-1.109 8.543-1.886zm-4.993 1.11 1.22 1.886 1.887-2.552z"/><path d="m255.974 216.879-2.551 2.108-.888-1.11 6.324-5.214 1.997 2.441c1.11 1.331 1.11 2.662-.111 3.661-1.109.887-2.219.776-3.106-.111l-1.11 3.994-.998-1.22 1.109-3.884zm.888-.777 1.109 1.331c.555.666 1.332.777 1.887.333.554-.443.665-1.22 0-1.886l-1.11-1.331z"/><path d="m269.843 224.867-3.44 7.988-.998-.998.998-2.219-2.219-2.219-2.218.998-.999-.998 7.988-3.662zm-4.66 2.108 1.553 1.553 1.332-2.884z"/><path d="m276.389 237.404.776-.888 2.441 1.886-.444.555c-1.442 1.775-3.439 1.997-4.992.777-1.775-1.332-1.997-3.772-.444-5.658 1.553-1.998 3.883-2.33 5.547-.999 1.443 1.109 1.775 2.774.999 4.216l-1.11-.888c.333-.887.222-1.664-.665-2.329-1.11-.888-2.663-.555-3.773.887-1.109 1.331-1.109 2.885.111 3.883.999.777 1.997.555 2.885-.222z"/><path d="m285.819 247.833c-1.886-1.221-2.219-3.55-.998-5.548 1.331-2.107 3.55-2.773 5.436-1.553 1.886 1.221 2.219 3.551.999 5.548-1.332 2.108-3.551 2.773-5.437 1.553zm3.772-6.102c-1.22-.777-2.662-.222-3.55 1.22s-.777 2.996.444 3.772c1.22.777 2.663.222 3.55-1.22.888-1.442.777-2.996-.444-3.772z"/><path d="m301.574 256.154-.999-.444-1.22-7.211-2.552 5.325-1.221-.555 3.551-7.433 1.22.555 1.11 6.767 2.44-5.103 1.221.554z"/><path d="m323.541 263.698-.998-.222-2.441-6.878-1.554 5.769-1.331-.333 2.108-7.877 1.221.333 2.329 6.546 1.443-5.437 1.331.333z"/><path d="m337.853 258.04-.222 1.22-3.883-.665-.333 2.108 3.551.555-.222 1.22-3.55-.555-.333 2.33 3.883.666-.222 1.22-5.326-.887 1.332-8.1z"/><path d="m343.955 258.706 6.768.333-.111 1.22-2.663-.111-.332 6.99-1.332-.111.333-6.99-2.663-.111z"/><path d="m362.04 258.817 1.886 5.88 1.109-6.102 1.332-.111-1.665 8.321-1.22.111-1.886-5.769-1.22 5.88-1.221.111-2.552-7.988 1.332-.111 1.886 5.88 1.22-6.102z"/><path d="m377.35 265.252c-2.219.443-3.994-1.11-4.437-3.44-.444-2.441.776-4.438 2.995-4.771 2.219-.443 3.994 1.11 4.438 3.44.444 2.441-.777 4.438-2.996 4.771zm-1.22-6.99c-1.442.222-2.108 1.664-1.775 3.328s1.442 2.774 2.884 2.552c1.443-.222 2.108-1.664 1.776-3.328-.333-1.665-1.554-2.885-2.885-2.552z"/><path d="m388.667 259.149.999 3.218-1.332.444-2.33-7.878 2.996-.887c1.664-.444 2.884 0 3.328 1.553.444 1.332-.111 2.33-1.331 2.885l3.217 2.552-1.553.443-3.106-2.551zm-.333-1.109 1.664-.444c.888-.222 1.221-.887.999-1.664s-.888-.999-1.775-.777l-1.664.444z"/><path d="m400.649 254.046 1.664-4.882 1.665-.665-1.665 4.659 4.882 2.774-1.553.666-3.772-2.219-.444 1.22.998 2.33-1.331.555-3.106-7.545 1.331-.554z"/><path d="m420.62 246.058c.554.665 1.109.776 1.775.333.777-.444.887-1.221.222-2.219l-2.885-4.549 1.221-.777 2.884 4.549c.999 1.664.666 3.107-.776 3.994-1.443.888-2.774.555-3.662-.666z"/><path d="m429.495 239.068-2.995-3.883 1.109-.888 2.996 3.772c.998 1.221 1.997 1.443 2.885.666.887-.776.998-1.775.111-2.995l-2.996-3.773 1.109-.887 2.996 3.883c1.331 1.775 1.109 3.439-.444 4.66-1.664 1.22-3.439 1.22-4.771-.555z"/><path d="m441.145 229.083 2.33 2.33-.999.998-5.658-5.88 2.219-2.219c1.22-1.22 2.552-1.331 3.661-.222.999.999.888 2.108.111 3.107l3.994.776-1.109 1.11-3.994-.777zm-.888-.777 1.221-1.22c.665-.666.665-1.332.111-1.886-.555-.555-1.221-.555-1.886.111l-1.221 1.22z"/><path d="m454.015 220.318c-1.443 1.664-3.772 1.775-5.659.222-1.886-1.553-2.218-3.883-.887-5.547 1.442-1.665 3.772-1.776 5.658-.222 1.886 1.442 2.33 3.772.888 5.547zm-5.548-4.66c-.887 1.11-.554 2.663.777 3.772 1.331 1.11 2.885 1.221 3.772.111.888-1.109.555-2.662-.776-3.772-1.332-1.109-2.885-1.22-3.773-.111z"/><path d="m458.675 208.225 2.773 1.775-.776 1.109-6.879-4.437 1.775-2.663c.888-1.442 2.219-1.886 3.55-.999 1.11.777 1.332 1.886.777 2.996l4.105-.111-.888 1.331-3.994.111zm-.999-.555.999-1.442c.554-.777.332-1.443-.222-1.886-.666-.444-1.332-.222-1.886.554l-.999 1.443z"/></g></svg>