<svg width="114" height="115" viewBox="0 0 114 115" fill="none" xmlns="http://www.w3.org/2000/svg">
<path fill-rule="evenodd" clip-rule="evenodd" d="M37.0713 86.7027C37.0741 86.701 37.0773 86.6993 37.0802 86.6976C37.0807 86.6973 37.081 86.6971 37.0815 86.6968C37.0826 86.6963 37.0835 86.6957 37.0843 86.6953C37.0791 86.6982 37.0749 86.7005 37.0713 86.7027Z" fill="#2B2C2A"/>
<path fill-rule="evenodd" clip-rule="evenodd" d="M37.0713 86.7027C37.0741 86.701 37.0773 86.6993 37.0802 86.6976C37.0807 86.6973 37.081 86.6971 37.0815 86.6968C37.0826 86.6963 37.0835 86.6957 37.0843 86.6953C37.0791 86.6982 37.0749 86.7005 37.0713 86.7027Z" stroke="#F8F2E6" stroke-width="0.8" stroke-linecap="round" stroke-linejoin="round"/>
<path fill-rule="evenodd" clip-rule="evenodd" d="M37.0889 86.6928C37.0893 86.6925 37.0898 86.6923 37.0903 86.692C37.0997 86.6865 37.1049 86.6837 37.1066 86.6826C37.1071 86.6824 37.1073 86.6823 37.1074 86.6823C37.1005 86.6862 37.0941 86.6898 37.0889 86.6928Z" fill="#2B2C2A"/>
<path fill-rule="evenodd" clip-rule="evenodd" d="M37.0889 86.6928C37.0893 86.6925 37.0898 86.6923 37.0903 86.692C37.0997 86.6865 37.1049 86.6837 37.1066 86.6826C37.1071 86.6824 37.1073 86.6823 37.1074 86.6823C37.1005 86.6862 37.0941 86.6898 37.0889 86.6928Z" stroke="#F8F2E6" stroke-width="0.8" stroke-linecap="round" stroke-linejoin="round"/>
<path fill-rule="evenodd" clip-rule="evenodd" d="M45.9537 81.6844C38.9162 85.6608 37.3857 86.5255 37.1088 86.6821C37.109 86.6819 37.1087 86.6823 37.1076 86.6826C37.105 86.6841 37.098 86.6882 37.0898 86.6929C37.0875 86.6941 37.0849 86.6956 37.0822 86.697C37.0817 86.6972 37.0814 86.6975 37.0808 86.6978C37.0752 86.7011 37.0682 86.705 37.0602 86.7095C37.0595 86.7098 37.059 86.7102 37.0586 86.7105C37.0579 86.7109 37.0574 86.7112 37.0569 86.7114C37.053 86.7136 37.0537 86.7132 37.0569 86.7114C37.0572 86.7112 37.0579 86.7109 37.0586 86.7105C37.0588 86.7103 37.059 86.7102 37.0591 86.71C36.7965 86.8585 35.2981 87.705 28.2715 91.6753C17.3876 85.5219 21.0218 87.5759 10.5914 81.6839C13.9719 79.7739 24.8986 73.5999 28.2736 71.693C39.1969 77.8687 35.0318 75.5147 45.9537 81.6844ZM1.75024 66.6984C1.74885 90.6277 1.7541 74.6621 1.7513 96.67C22.2036 108.223 7.90308 100.15 28.2726 111.656C30.9614 110.137 51.7122 98.4121 54.795 96.67C54.7963 72.7407 54.791 88.7063 54.7938 66.6984C34.1748 55.0515 48.5104 63.1445 28.2726 51.7126C10.1364 61.9598 16.8648 58.1581 1.75024 66.6984Z" stroke="#F8F2E6" stroke-width="0.8" stroke-linecap="round" stroke-linejoin="round"/>
<path fill-rule="evenodd" clip-rule="evenodd" d="M28.2733 111.656C30.9615 110.137 51.7128 98.4117 54.7948 96.6703L54.796 86.679C51.5258 88.5268 31.5432 99.8177 28.2746 101.664C25.7166 100.22 13.1589 93.126 10.5906 91.6752L10.5919 81.6839C13.978 79.7708 24.8934 73.6032 28.274 71.6931C39.1408 77.8367 35.0689 75.5356 45.9541 81.6844L45.9553 71.6932C43.3972 70.2483 30.8397 63.1548 28.2714 61.7038C25.4371 63.3053 4.50362 75.1334 1.75 76.6892C1.75332 88.9683 1.75297 84.4388 1.75157 96.6696C22.204 108.223 7.9037 100.149 28.2733 111.656Z" fill="url(#paint0_linear)" fill-opacity="0.1"/>
<path fill-rule="evenodd" clip-rule="evenodd" d="M28.2733 111.656C30.9615 110.137 51.7128 98.4117 54.7948 96.6703L54.796 86.679C51.5258 88.5268 31.5432 99.8177 28.2746 101.664C25.7166 100.22 13.1589 93.126 10.5906 91.6752L10.5919 81.6839C13.9779 79.7708 24.8934 73.6032 28.274 71.6931C39.1408 77.8367 35.0689 75.5356 45.9541 81.6844L45.9553 71.6932C43.3972 70.2483 30.8397 63.1548 28.2714 61.7038C25.4371 63.3053 4.50362 75.1334 1.75 76.6892C1.75332 88.9683 1.75297 84.4388 1.75157 96.6696C22.204 108.223 7.9037 100.149 28.2733 111.656Z" stroke="#FF8A8A"/>
<path fill-rule="evenodd" clip-rule="evenodd" d="M28.2714 61.7038C30.8294 63.1488 43.387 70.2424 45.9553 71.6932L45.9541 81.6844C27.7961 91.9442 46.4352 81.4126 28.2719 91.6753C17.4078 85.5331 21.4156 87.7982 10.5919 81.6839L10.5906 91.6752C13.1488 93.1201 25.7063 100.214 28.2746 101.664C31.5437 99.8173 51.5272 88.5261 54.796 86.679C54.7927 74.4001 54.793 78.9294 54.7944 66.6988C34.175 55.0511 48.5109 63.1448 28.2726 51.7126C10.1367 61.96 16.8653 58.1581 1.75123 66.6981L1.75 76.6892C4.47895 75.1473 25.6494 63.1854 28.2714 61.7038Z" fill="url(#paint1_linear)" fill-opacity="0.2"/>
<path fill-rule="evenodd" clip-rule="evenodd" d="M28.2714 61.7038C30.8294 63.1488 43.387 70.2424 45.9553 71.6932L45.9541 81.6844C27.7961 91.9442 46.4352 81.4126 28.2719 91.6753C17.4078 85.5331 21.4156 87.7982 10.5919 81.6839L10.5906 91.6752C13.1488 93.1201 25.7063 100.214 28.2746 101.664C31.5437 99.8173 51.5272 88.5261 54.796 86.679C54.7927 74.4001 54.793 78.9294 54.7944 66.6988C34.175 55.0511 48.5109 63.1448 28.2726 51.7126C10.1367 61.96 16.8653 58.1581 1.75122 66.6981L1.75 76.6892C4.47895 75.1473 25.6494 63.1854 28.2714 61.7038Z" stroke="#FF8A8A"/>
<path fill-rule="evenodd" clip-rule="evenodd" d="M66.0713 36.7027C66.0741 36.701 66.0773 36.6993 66.0802 36.6976C66.0807 36.6973 66.081 36.6971 66.0815 36.6968C66.0826 36.6963 66.0835 36.6957 66.0843 36.6953C66.0791 36.6982 66.0749 36.7005 66.0713 36.7027Z" fill="#2B2C2A"/>
<path fill-rule="evenodd" clip-rule="evenodd" d="M66.0713 36.7027C66.0741 36.701 66.0773 36.6993 66.0802 36.6976C66.0807 36.6973 66.081 36.6971 66.0815 36.6968C66.0826 36.6963 66.0835 36.6957 66.0843 36.6953C66.0791 36.6982 66.0749 36.7005 66.0713 36.7027Z" stroke="#F8F2E6" stroke-width="0.8" stroke-linecap="round" stroke-linejoin="round"/>
<path fill-rule="evenodd" clip-rule="evenodd" d="M66.0889 36.6928C66.0893 36.6925 66.0898 36.6923 66.0903 36.692C66.0997 36.6865 66.1049 36.6837 66.1066 36.6826C66.1071 36.6824 66.1073 36.6823 66.1074 36.6823C66.1005 36.6862 66.0941 36.6898 66.0889 36.6928Z" fill="#2B2C2A"/>
<path fill-rule="evenodd" clip-rule="evenodd" d="M66.0889 36.6928C66.0893 36.6925 66.0898 36.6923 66.0903 36.692C66.0997 36.6865 66.1049 36.6837 66.1066 36.6826C66.1071 36.6824 66.1073 36.6823 66.1074 36.6823C66.1005 36.6862 66.0941 36.6898 66.0889 36.6928Z" stroke="#F8F2E6" stroke-width="0.8" stroke-linecap="round" stroke-linejoin="round"/>
<path fill-rule="evenodd" clip-rule="evenodd" d="M74.9537 31.6844C67.9162 35.6608 66.3857 36.5255 66.1088 36.6821C66.109 36.6819 66.1087 36.6823 66.1076 36.6826C66.105 36.6841 66.098 36.6882 66.0898 36.6929C66.0875 36.6941 66.0849 36.6956 66.0822 36.697C66.0817 36.6972 66.0814 36.6975 66.0808 36.6978C66.0752 36.7011 66.0682 36.705 66.0602 36.7095C66.0595 36.7098 66.059 36.7102 66.0586 36.7105C66.0579 36.7109 66.0574 36.7112 66.0569 36.7114C66.053 36.7136 66.0537 36.7132 66.0569 36.7114C66.0572 36.7112 66.0579 36.7109 66.0586 36.7105C66.0588 36.7103 66.059 36.7102 66.0591 36.71C65.7965 36.8585 64.2981 37.705 57.2715 41.6753C46.3876 35.5219 50.0218 37.5759 39.5914 31.6839C42.9719 29.7739 53.8986 23.5999 57.2736 21.693C68.1969 27.8687 64.0318 25.5147 74.9537 31.6844ZM30.7502 16.6984C30.7489 40.6277 30.7541 24.6621 30.7513 46.67C51.2036 58.2232 36.9031 50.1496 57.2726 61.6557C59.9614 60.137 80.7122 48.4121 83.795 46.67C83.7963 22.7407 83.791 38.7063 83.7938 16.6984C63.1748 5.05148 77.5104 13.1445 57.2726 1.71265C39.1364 11.9598 45.8648 8.15807 30.7502 16.6984Z" stroke="#F8F2E6" stroke-width="0.8" stroke-linecap="round" stroke-linejoin="round"/>
<path fill-rule="evenodd" clip-rule="evenodd" d="M57.2733 61.6557C59.9615 60.137 80.7128 48.4117 83.7948 46.6703L83.796 36.679C80.5258 38.5268 60.5432 49.8177 57.2746 51.6644C54.7166 50.2196 42.1589 43.126 39.5906 41.6752L39.5919 31.6839C42.978 29.7708 53.8934 23.6032 57.274 21.6931C68.1408 27.8367 64.0689 25.5356 74.9541 31.6844L74.9553 21.6932C72.3972 20.2483 59.8397 13.1548 57.2714 11.7038C54.4371 13.3053 33.5036 25.1334 30.75 26.6892C30.7533 38.9683 30.753 34.4388 30.7516 46.6696C51.204 58.2229 36.9037 50.1492 57.2733 61.6557Z" fill="url(#paint2_linear)" fill-opacity="0.7"/>
<path fill-rule="evenodd" clip-rule="evenodd" d="M57.2733 61.6557C59.9615 60.137 80.7128 48.4117 83.7948 46.6703L83.796 36.679C80.5258 38.5268 60.5432 49.8177 57.2746 51.6644C54.7166 50.2196 42.1589 43.126 39.5906 41.6752L39.5919 31.6839C42.9779 29.7708 53.8934 23.6032 57.274 21.6931C68.1408 27.8367 64.0689 25.5356 74.9541 31.6844L74.9553 21.6932C72.3972 20.2483 59.8397 13.1548 57.2714 11.7038C54.4371 13.3053 33.5036 25.1334 30.75 26.6892C30.7533 38.9683 30.753 34.4388 30.7516 46.6696C51.204 58.2229 36.9037 50.1492 57.2733 61.6557Z" stroke="#FF8A8A"/>
<path fill-rule="evenodd" clip-rule="evenodd" d="M57.2714 11.7038C59.8294 13.1488 72.387 20.2424 74.9553 21.6932L74.9541 31.6844C56.7961 41.9442 75.4352 31.4126 57.2719 41.6753C46.4078 35.5331 50.4156 37.7982 39.5919 31.6839L39.5906 41.6752C42.1488 43.1201 54.7063 50.2136 57.2746 51.6644C60.5437 49.8173 80.5272 38.5261 83.796 36.679C83.7927 24.4001 83.793 28.9294 83.7944 16.6988C63.175 5.05114 77.5109 13.1448 57.2726 1.71265C39.1367 11.96 45.8653 8.15807 30.7512 16.6981L30.75 26.6892C33.4789 25.1473 54.6494 13.1854 57.2714 11.7038Z" fill="url(#paint3_linear)" fill-opacity="0.4"/>
<path fill-rule="evenodd" clip-rule="evenodd" d="M57.2714 11.7038C59.8294 13.1488 72.387 20.2424 74.9553 21.6932L74.9541 31.6844C56.7961 41.9442 75.4352 31.4126 57.2719 41.6753C46.4078 35.5331 50.4156 37.7982 39.5919 31.6839L39.5906 41.6752C42.1488 43.1201 54.7063 50.2136 57.2746 51.6644C60.5437 49.8173 80.5272 38.5261 83.796 36.679C83.7927 24.4001 83.793 28.9294 83.7944 16.6988C63.175 5.05114 77.5109 13.1448 57.2726 1.71265C39.1367 11.96 45.8653 8.15807 30.7512 16.6981L30.75 26.6892C33.4789 25.1473 54.6494 13.1854 57.2714 11.7038Z" stroke="#FF8A8A"/>
<path fill-rule="evenodd" clip-rule="evenodd" d="M94.3955 86.8816C94.3983 86.8799 94.4015 86.8782 94.4045 86.8765C94.4049 86.8762 94.4052 86.8761 94.4057 86.8758C94.4068 86.8753 94.4077 86.8747 94.4085 86.8742C94.4034 86.8771 94.3991 86.8795 94.3955 86.8816Z" fill="#2B2C2A"/>
<path fill-rule="evenodd" clip-rule="evenodd" d="M94.3955 86.8816C94.3983 86.8799 94.4015 86.8782 94.4045 86.8765C94.4049 86.8762 94.4052 86.8761 94.4057 86.8758C94.4068 86.8753 94.4077 86.8747 94.4085 86.8742C94.4034 86.8771 94.3991 86.8795 94.3955 86.8816Z" stroke="#F8F2E6" stroke-width="0.8" stroke-linecap="round" stroke-linejoin="round"/>
<path fill-rule="evenodd" clip-rule="evenodd" d="M94.4131 86.8713C94.4136 86.871 94.414 86.8708 94.4145 86.8705C94.424 86.865 94.4291 86.8621 94.4308 86.861C94.4313 86.8609 94.4315 86.8607 94.4316 86.8607C94.4248 86.8647 94.4184 86.8683 94.4131 86.8713Z" fill="#2B2C2A"/>
<path fill-rule="evenodd" clip-rule="evenodd" d="M94.4131 86.8713C94.4136 86.871 94.414 86.8708 94.4145 86.8705C94.424 86.865 94.4291 86.8621 94.4308 86.861C94.4313 86.8609 94.4315 86.8607 94.4316 86.8607C94.4248 86.8647 94.4184 86.8683 94.4131 86.8713Z" stroke="#F8F2E6" stroke-width="0.8" stroke-linecap="round" stroke-linejoin="round"/>
<path fill-rule="evenodd" clip-rule="evenodd" d="M103.595 81.6844C96.3061 85.8028 94.7209 86.6984 94.4341 86.8605C94.4343 86.8604 94.434 86.8607 94.4329 86.8611C94.4302 86.8627 94.4229 86.8669 94.4144 86.8717C94.412 86.873 94.4093 86.8746 94.4066 86.876C94.406 86.8762 94.4057 86.8765 94.4051 86.8769C94.3993 86.8802 94.3921 86.8843 94.3838 86.8889C94.383 86.8893 94.3825 86.8896 94.3821 86.89C94.3814 86.8904 94.3809 86.8907 94.3803 86.8909C94.3763 86.8932 94.377 86.8928 94.3803 86.8909C94.3807 86.8907 94.3814 86.8904 94.3821 86.89C94.3823 86.8898 94.3825 86.8896 94.3827 86.8895C94.1106 87.0433 92.5588 87.9201 85.2812 92.0321C74.0085 85.659 77.7726 87.7863 66.9697 81.6838C70.4709 79.7056 81.7878 73.3112 85.2834 71.3362C96.5968 77.7324 92.2829 75.2943 103.595 81.6844ZM57.8127 66.1632C57.8113 90.9471 57.8167 74.4113 57.8138 97.2052C78.9965 109.171 64.1853 100.809 85.2823 112.726C88.0672 111.153 109.559 99.0095 112.752 97.2052C112.753 72.4212 112.748 88.957 112.751 66.1632C91.3953 54.1003 106.243 62.4823 85.2823 50.6422C66.4984 61.2554 73.4671 57.3178 57.8127 66.1632Z" fill="#2B2C2A"/>
<path fill-rule="evenodd" clip-rule="evenodd" d="M103.595 81.6844C96.3061 85.8028 94.7209 86.6984 94.4341 86.8606C94.4343 86.8604 94.434 86.8607 94.4329 86.8611C94.4302 86.8627 94.4229 86.8669 94.4144 86.8717C94.412 86.873 94.4093 86.8746 94.4066 86.876C94.406 86.8762 94.4057 86.8765 94.4051 86.8769C94.3993 86.8802 94.3921 86.8843 94.3838 86.8889C94.383 86.8893 94.3825 86.8896 94.3821 86.89C94.3814 86.8904 94.3809 86.8907 94.3803 86.8909C94.3763 86.8932 94.377 86.8928 94.3803 86.8909C94.3807 86.8907 94.3814 86.8904 94.3821 86.89C94.3823 86.8898 94.3825 86.8896 94.3827 86.8895C94.1106 87.0433 92.5588 87.9201 85.2812 92.0321C74.0085 85.659 77.7726 87.7863 66.9697 81.6838C70.4709 79.7056 81.7878 73.3112 85.2834 71.3362C96.5968 77.7324 92.2829 75.2943 103.595 81.6844ZM57.8127 66.1632C57.8113 90.9471 57.8167 74.4113 57.8138 97.2052C78.9965 109.171 64.1853 100.809 85.2823 112.726C88.0672 111.153 109.559 99.0095 112.752 97.2052C112.753 72.4213 112.748 88.957 112.751 66.1632C91.3953 54.1003 106.243 62.4823 85.2823 50.6422C66.4984 61.2554 73.4671 57.3178 57.8127 66.1632Z" stroke="#F8F2E6" stroke-width="0.8" stroke-linecap="round" stroke-linejoin="round"/>
<path fill-rule="evenodd" clip-rule="evenodd" d="M85.2831 112.726C88.0673 111.153 109.56 99.0091 112.752 97.2055L112.753 86.8574C109.366 88.7711 88.6698 100.465 85.2844 102.378C82.635 100.882 69.6289 93.5346 66.9689 92.032L66.9702 81.6838C70.4772 79.7024 81.7824 73.3145 85.2838 71.3362C96.5387 77.6993 92.3214 75.316 103.595 81.6843L103.597 71.3364C100.947 69.8398 87.9411 62.493 85.2811 60.9902C82.3456 62.6489 60.6645 74.8995 57.8125 76.5108C57.8159 89.2284 57.8156 84.5372 57.8141 97.2048C78.997 109.171 64.186 100.809 85.2831 112.726Z" fill="url(#paint4_linear)"/>
<path fill-rule="evenodd" clip-rule="evenodd" d="M85.2831 112.726C88.0673 111.153 109.56 99.0091 112.752 97.2055L112.753 86.8574C109.366 88.7711 88.6698 100.465 85.2844 102.378C82.635 100.882 69.6289 93.5346 66.9689 92.032L66.9702 81.6838C70.4772 79.7024 81.7824 73.3145 85.2838 71.3362C96.5387 77.6993 92.3214 75.316 103.595 81.6843L103.597 71.3364C100.947 69.8398 87.9411 62.493 85.2811 60.9902C82.3456 62.6489 60.6645 74.8995 57.8125 76.5108C57.8159 89.2284 57.8156 84.5372 57.8141 97.2048C78.997 109.171 64.186 100.809 85.2831 112.726Z" stroke="white" stroke-width="1.5" stroke-linecap="round" stroke-linejoin="round"/>
<path fill-rule="evenodd" clip-rule="evenodd" d="M85.2811 60.9902C87.9304 62.4868 100.937 69.8338 103.597 71.3364L103.595 81.6844C84.7888 92.3106 104.094 81.4028 85.2817 92.0321C74.0295 85.6705 78.1805 88.0166 66.9702 81.6838L66.9689 92.032C69.6184 93.5285 82.6244 100.875 85.2844 102.378C88.6703 100.465 109.367 88.7704 112.753 86.8574C112.75 74.1399 112.75 78.831 112.751 66.1635C91.3956 54.0999 106.243 62.4827 85.2824 50.6422C66.4987 61.2555 73.4676 57.3178 57.8138 66.1628L57.8125 76.5108C60.6389 74.9138 82.5654 62.5247 85.2811 60.9902Z" fill="url(#paint5_linear)"/>
<path fill-rule="evenodd" clip-rule="evenodd" d="M85.2811 60.9902C87.9304 62.4868 100.937 69.8338 103.597 71.3364L103.595 81.6844C84.7888 92.3106 104.094 81.4028 85.2817 92.0321C74.0295 85.6705 78.1805 88.0166 66.9702 81.6838L66.9689 92.032C69.6184 93.5285 82.6244 100.875 85.2844 102.378C88.6703 100.465 109.367 88.7704 112.753 86.8574C112.75 74.1399 112.75 78.831 112.751 66.1635C91.3956 54.0999 106.243 62.4827 85.2824 50.6422C66.4987 61.2555 73.4676 57.3178 57.8138 66.1628L57.8125 76.5108C60.6389 74.9138 82.5654 62.5247 85.2811 60.9902Z" stroke="white" stroke-width="1.5" stroke-linecap="round" stroke-linejoin="round"/>
<defs>
<linearGradient id="paint0_linear" x1="49.7402" y1="71.2691" x2="9.28357" y2="109.967" gradientUnits="userSpaceOnUse">
<stop stop-color="#FF8989"/>
<stop offset="1" stop-color="#FFB170"/>
</linearGradient>
<linearGradient id="paint1_linear" x1="49.7402" y1="61.2779" x2="9.2837" y2="99.9753" gradientUnits="userSpaceOnUse">
<stop stop-color="#FF8989"/>
<stop offset="1" stop-color="#FFB170"/>
</linearGradient>
<linearGradient id="paint2_linear" x1="78.7402" y1="21.2691" x2="38.2836" y2="59.9665" gradientUnits="userSpaceOnUse">
<stop stop-color="#FF8989"/>
<stop offset="1" stop-color="#FFB170"/>
</linearGradient>
<linearGradient id="paint3_linear" x1="78.7402" y1="11.2779" x2="38.2837" y2="49.9753" gradientUnits="userSpaceOnUse">
<stop stop-color="#FF8989"/>
<stop offset="1" stop-color="#FFB170"/>
</linearGradient>
<linearGradient id="paint4_linear" x1="107.517" y1="70.8971" x2="65.6151" y2="110.977" gradientUnits="userSpaceOnUse">
<stop stop-color="#FF8989"/>
<stop offset="1" stop-color="#FFB170"/>
</linearGradient>
<linearGradient id="paint5_linear" x1="107.517" y1="60.5491" x2="65.6153" y2="100.629" gradientUnits="userSpaceOnUse">
<stop stop-color="#FF8989"/>
<stop offset="1" stop-color="#FFB170"/>
</linearGradient>
</defs>
</svg>
