<svg width="782" height="534" viewBox="0 0 782 534" fill="none" xmlns="http://www.w3.org/2000/svg">
<g filter="url(#filter0_d)">
<rect x="17" y="14" width="748" height="500" rx="6" fill="white"/>
</g>
<mask id="mask0" mask-type="alpha" maskUnits="userSpaceOnUse" x="17" y="14" width="748" height="500">
<rect x="17" y="14" width="748" height="500" rx="6" fill="white"/>
</mask>
<g mask="url(#mask0)">
<circle opacity="0.2" cx="391.5" cy="213.5" r="223.216" stroke="#FFA776" stroke-width="1.5"/>
<circle opacity="0.15" cx="391.5" cy="213.5" r="255.045" stroke="#FFA776" stroke-width="1.5"/>
<circle opacity="0.1" cx="391.5" cy="213.5" r="286.098" stroke="#FFA776" stroke-width="1.5"/>
<circle opacity="0.05" cx="391.5" cy="213.5" r="317.75" stroke="#FFA776" stroke-width="1.5"/>
</g>
<rect x="32" y="391" width="718" height="109" rx="4" fill="url(#paint0_linear)"/>
<path opacity="0.7" d="M394.5 136L389.737 132.25L399.263 132.25L394.5 136Z" fill="#FFA776"/>
<path opacity="0.8" d="M394.5 144L389.737 140.25L399.263 140.25L394.5 144Z" fill="#FFA776"/>
<path d="M394.5 152L389.737 148.25L399.263 148.25L394.5 152Z" fill="#FFA776"/>
<path d="M394.5 160L389.737 156.25L399.263 156.25L394.5 160Z" fill="#FFA776"/>
<path opacity="0.7" d="M335.46 285.105L336.798 291.018L329.399 285.017L335.46 285.105Z" fill="#FFA776"/>
<path opacity="0.8" d="M340.5 278.891L341.837 284.804L334.438 278.804L340.5 278.891Z" fill="#FFA776"/>
<path d="M345.539 272.678L346.876 278.591L339.477 272.59L345.539 272.678Z" fill="#FFA776"/>
<path d="M350.578 266.464L351.915 272.377L344.516 266.377L350.578 266.464Z" fill="#FFA776"/>
<path opacity="0.7" d="M451.389 285.105L450.052 291.018L457.451 285.017L451.389 285.105Z" fill="#FFA776"/>
<path opacity="0.8" d="M446.35 278.891L445.013 284.804L452.412 278.804L446.35 278.891Z" fill="#FFA776"/>
<path d="M441.311 272.678L439.973 278.591L447.372 272.59L441.311 272.678Z" fill="#FFA776"/>
<path d="M436.272 266.464L434.934 272.377L442.333 266.377L436.272 266.464Z" fill="#FFA776"/>
<circle cx="393.773" cy="219.773" r="49.7726" fill="#8987FF"/>
<g clip-path="url(#clip0)">
<path d="M416.094 197V234.953L406.66 237.004L404.609 246.438H380V197H416.094Z" fill="#BFBEFF"/>
<path opacity="0.6" d="M416.094 197V234.953L406.66 237.004L404.609 246.438H380V197H416.094Z" fill="#A6A5FF"/>
<path d="M404.609 234.953V246.438L416.094 234.953H404.609Z" fill="#EEEEFF"/>
<rect x="384" y="202" width="28" height="3" rx="1.5" fill="#8987FF" fill-opacity="0.6"/>
<rect x="384" y="209" width="28" height="3" rx="1.5" fill="#8987FF" fill-opacity="0.4"/>
<rect opacity="0.3" x="384" y="216" width="28" height="3" rx="1.5" fill="#8987FF"/>
<rect opacity="0.2" x="384" y="223" width="28" height="3" rx="1.5" fill="#8987FF"/>
<path d="M410.094 204V241.953L400.66 244.004L398.609 253.438H374V204H410.094Z" fill="#C8C7FF"/>
<path d="M398.609 241.953V253.438L410.094 241.953H398.609Z" fill="#EEEEFF"/>
<rect x="378" y="209" width="28" height="3" rx="1.5" fill="#8987FF" fill-opacity="0.6"/>
<rect x="378" y="216" width="28" height="3" rx="1.5" fill="#8987FF" fill-opacity="0.4"/>
<rect opacity="0.3" x="378" y="223" width="28" height="3" rx="1.5" fill="#8987FF"/>
<rect opacity="0.2" x="378" y="230" width="28" height="3" rx="1.5" fill="#8987FF"/>
</g>
<circle cx="394" cy="85" r="39" fill="#FFA776"/>
<rect x="401.108" y="89.7484" width="10.4486" height="8.40782" transform="rotate(-45.5209 401.108 89.7484)" fill="#F9FAFC"/>
<rect x="397.536" y="86.4552" width="10.4486" height="2.88173" transform="rotate(-45.5209 397.536 86.4552)" fill="#F9FAFC"/>
<rect x="408.623" y="97.0383" width="10.4486" height="2.88173" transform="rotate(-45.5209 408.623 97.0383)" fill="#F9FAFC"/>
<rect x="400.542" y="93.8675" width="3.58732" height="10.7917" transform="rotate(44.341 400.542 93.8675)" fill="#F9FAFC"/>
<path d="M378 100.7C378 91.8382 385.184 84.6539 394.047 84.6539" stroke="#F9FAFC" stroke-width="5"/>
<circle cx="394.047" cy="69.5513" r="7.5513" fill="#F9FAFC"/>
<circle cx="298" cy="326" r="39" fill="#FFA776"/>
<rect x="305.108" y="330.748" width="10.4486" height="8.40782" transform="rotate(-45.5209 305.108 330.748)" fill="#F9FAFC"/>
<rect x="301.536" y="327.455" width="10.4486" height="2.88173" transform="rotate(-45.5209 301.536 327.455)" fill="#F9FAFC"/>
<rect x="312.623" y="338.038" width="10.4486" height="2.88173" transform="rotate(-45.5209 312.623 338.038)" fill="#F9FAFC"/>
<rect x="304.542" y="334.868" width="3.58732" height="10.7917" transform="rotate(44.341 304.542 334.868)" fill="#F9FAFC"/>
<path d="M282 341.7C282 332.838 289.184 325.654 298.047 325.654" stroke="#F9FAFC" stroke-width="5"/>
<circle cx="298.047" cy="310.551" r="7.5513" fill="#F9FAFC"/>
<circle cx="485" cy="325" r="39" fill="#FFA776"/>
<rect x="491.108" y="329.748" width="10.4486" height="8.40782" transform="rotate(-45.5209 491.108 329.748)" fill="#F9FAFC"/>
<rect x="487.536" y="326.455" width="10.4486" height="2.88173" transform="rotate(-45.5209 487.536 326.455)" fill="#F9FAFC"/>
<rect x="498.623" y="337.038" width="10.4486" height="2.88173" transform="rotate(-45.5209 498.623 337.038)" fill="#F9FAFC"/>
<rect x="490.542" y="333.868" width="3.58732" height="10.7917" transform="rotate(44.341 490.542 333.868)" fill="#F9FAFC"/>
<path d="M468 340.7C468 331.838 475.184 324.654 484.047 324.654" stroke="#F9FAFC" stroke-width="5"/>
<circle cx="484.047" cy="309.551" r="7.5513" fill="#F9FAFC"/>
<path d="M59.76 418.64C60.72 418.34 61.56 417.44 61.56 415.98C61.56 413.86 60.04 412.72 57.5 412.72H53.46V425H57.9C60.42 425 61.98 423.78 61.98 421.54C61.98 420.16 61.08 418.98 59.76 418.64ZM55 418.06V414.1H57.5C59.14 414.1 60.04 414.72 60.04 416.06C60.04 417.4 59.14 418.06 57.5 418.06H55ZM55 419.38H57.9C59.56 419.38 60.44 420.2 60.44 421.5C60.44 422.78 59.56 423.62 57.9 423.62H55V419.38ZM71.6803 420.56C71.6803 417.84 70.0203 415.94 67.6003 415.94C65.1603 415.94 63.5203 417.84 63.5203 420.56C63.5203 423.28 65.1603 425.18 67.6003 425.18C70.0203 425.18 71.6803 423.28 71.6803 420.56ZM70.1603 420.56C70.1603 422.5 69.2003 423.86 67.6003 423.86C66.0003 423.86 65.0403 422.5 65.0403 420.56C65.0403 418.62 66.0003 417.26 67.6003 417.26C69.2003 417.26 70.1603 418.62 70.1603 420.56ZM75.2111 423.96C75.6511 424.6 76.6111 425.18 77.7111 425.18C80.3111 425.18 81.7111 423.08 81.7111 420.56C81.7111 418.06 80.3111 415.94 77.7111 415.94C76.6111 415.94 75.6511 416.52 75.2111 417.16V412H73.6911V425H75.2111V423.96ZM75.2111 418.76C75.6711 417.84 76.5511 417.3 77.4911 417.3C79.1911 417.3 80.1911 418.68 80.1911 420.56C80.1911 422.44 79.1911 423.82 77.4911 423.82C76.5511 423.82 75.6711 423.28 75.2111 422.36V418.76ZM87.5242 420.56C87.5242 423.32 89.1842 425.18 91.5642 425.18C93.5642 425.18 94.8242 424.02 95.1242 422.32H93.5842C93.3842 423.28 92.6242 423.86 91.5642 423.86C90.0442 423.86 89.0442 422.5 89.0442 420.56C89.0442 418.62 90.0442 417.26 91.5642 417.26C92.6242 417.26 93.3842 417.84 93.5842 418.8H95.1242C94.8242 417.1 93.5642 415.94 91.5642 415.94C89.1842 415.94 87.5242 417.8 87.5242 420.56ZM98.59 412H97.09V425H98.59V412ZM107.71 425V419.08C107.71 417.14 106.45 415.94 104.33 415.94C102.63 415.94 101.31 416.96 101.01 418.46H102.49C102.77 417.64 103.37 417.24 104.31 417.24C105.59 417.24 106.27 418.04 106.27 419.14V420.26C105.89 419.92 104.95 419.54 104.03 419.54C102.13 419.54 100.63 420.66 100.63 422.32C100.63 424.08 102.13 425.16 103.93 425.16C104.99 425.16 105.93 424.7 106.27 424.34V425H107.71ZM106.27 422.8C106.01 423.46 105.11 423.9 104.19 423.9C103.11 423.9 102.07 423.4 102.07 422.32C102.07 421.26 103.11 420.78 104.19 420.78C105.11 420.78 106.01 421.22 106.27 421.88V422.8ZM111.774 416.12H110.274V425H111.774V416.12ZM111.994 413.44C111.994 412.9 111.554 412.48 111.014 412.48C110.494 412.48 110.054 412.9 110.054 413.44C110.054 413.96 110.494 414.4 111.014 414.4C111.554 414.4 111.994 413.96 111.994 413.44ZM120.753 417.36C120.333 416.52 119.473 415.94 118.353 415.94C117.253 415.94 116.393 416.46 115.953 417.16V416.12H114.453V425H115.953V418.88C116.233 417.92 117.013 417.3 117.913 417.3C119.053 417.3 119.593 418.12 119.593 419.36V425H121.093V418.88C121.373 417.92 122.153 417.3 123.053 417.3C124.193 417.3 124.733 418.12 124.733 419.36V425H126.253V419.12C126.253 417.2 125.253 415.94 123.453 415.94C122.213 415.94 121.313 416.56 120.753 417.36ZM128.049 422.56C128.329 424.2 129.749 425.18 131.689 425.18C133.589 425.18 134.989 424.18 134.989 422.5C134.989 421.26 134.249 420.42 132.729 420.02L131.009 419.6C130.169 419.36 129.769 419.08 129.769 418.48C129.769 417.62 130.589 417.2 131.469 417.2C132.549 417.2 133.169 417.66 133.429 418.46H134.929C134.609 416.9 133.449 415.94 131.489 415.94C129.689 415.94 128.309 416.98 128.309 418.56C128.309 419.94 129.189 420.58 130.449 420.9L132.209 421.36C133.129 421.6 133.529 421.98 133.529 422.6C133.529 423.5 132.769 423.92 131.709 423.92C130.669 423.92 129.889 423.48 129.609 422.56H128.049ZM141.905 422.76C141.905 424.4 142.905 425.18 144.345 425.18C144.885 425.18 145.405 425.06 145.745 424.88V423.48C145.445 423.68 145.005 423.84 144.585 423.84C143.825 423.84 143.405 423.46 143.405 422.6V417.4H145.545V416.12H143.405V413.78H141.905V416.12H140.465V417.4H141.905V422.76ZM147.832 425H149.332V418.98C149.652 418.02 150.552 417.32 151.592 417.32C152.932 417.32 153.552 418.18 153.552 419.42V425H155.072V419.18C155.072 417.24 153.972 415.94 151.952 415.94C150.812 415.94 149.852 416.54 149.332 417.24V412H147.832V425ZM163.217 422.34C162.977 423.34 162.157 423.9 161.057 423.9C159.557 423.9 158.497 422.74 158.477 420.84H164.757V420.3C164.757 417.72 163.457 415.94 161.017 415.94C158.597 415.94 156.977 417.92 156.977 420.58C156.977 423.32 158.637 425.18 161.057 425.18C163.057 425.18 164.317 424.02 164.637 422.34H163.217ZM161.037 417.22C162.517 417.22 163.217 418.38 163.237 419.7H158.517C158.737 418.14 159.697 417.22 161.037 417.22ZM175.612 412.02C175.272 411.88 174.932 411.82 174.452 411.82C172.892 411.82 171.732 412.86 171.732 414.64V416.12H170.232V417.4H171.732V425H173.212V417.4H175.212V416.12H173.212V414.76C173.212 413.7 173.792 413.14 174.672 413.14C174.992 413.14 175.332 413.2 175.612 413.38V412.02ZM184.033 416.12H182.513V422.14C182.193 423.1 181.333 423.8 180.293 423.8C178.953 423.8 178.353 422.94 178.353 421.7V416.12H176.833V421.94C176.833 423.88 177.913 425.18 179.933 425.18C181.073 425.18 182.013 424.58 182.513 423.88V425H184.033V416.12ZM186.699 425H188.199V418.98C188.519 418.02 189.419 417.32 190.459 417.32C191.799 417.32 192.419 418.18 192.419 419.42V425H193.939V419.18C193.939 417.24 192.839 415.94 190.819 415.94C189.679 415.94 188.719 416.54 188.199 417.24V416.12H186.699V425ZM202.345 425H203.865V412H202.345V417.16C201.905 416.52 200.945 415.94 199.845 415.94C197.245 415.94 195.845 418.06 195.845 420.56C195.845 423.08 197.245 425.18 199.845 425.18C200.945 425.18 201.905 424.6 202.345 423.96V425ZM202.345 422.36C201.885 423.28 201.005 423.82 200.065 423.82C198.365 423.82 197.365 422.44 197.365 420.56C197.365 418.68 198.365 417.3 200.065 417.3C201.005 417.3 201.885 417.84 202.345 418.76V422.36ZM211.358 422.76C211.358 424.4 212.358 425.18 213.798 425.18C214.338 425.18 214.858 425.06 215.198 424.88V423.48C214.898 423.68 214.458 423.84 214.038 423.84C213.278 423.84 212.858 423.46 212.858 422.6V417.4H214.998V416.12H212.858V413.78H211.358V416.12H209.918V417.4H211.358V422.76ZM221.845 416.08C221.685 416 221.365 415.94 220.985 415.94C220.005 415.94 219.165 416.52 218.785 417.28V416.12H217.285V425H218.785V419.04C219.085 418 219.905 417.38 220.845 417.38C221.225 417.38 221.605 417.46 221.845 417.62V416.08ZM229.917 425V419.08C229.917 417.14 228.657 415.94 226.537 415.94C224.837 415.94 223.517 416.96 223.217 418.46H224.697C224.977 417.64 225.577 417.24 226.517 417.24C227.797 417.24 228.477 418.04 228.477 419.14V420.26C228.097 419.92 227.157 419.54 226.237 419.54C224.337 419.54 222.837 420.66 222.837 422.32C222.837 424.08 224.337 425.16 226.137 425.16C227.197 425.16 228.137 424.7 228.477 424.34V425H229.917ZM228.477 422.8C228.217 423.46 227.317 423.9 226.397 423.9C225.317 423.9 224.277 423.4 224.277 422.32C224.277 421.26 225.317 420.78 226.397 420.78C227.317 420.78 228.217 421.22 228.477 421.88V422.8ZM232.481 425H233.981V418.98C234.301 418.02 235.201 417.32 236.241 417.32C237.581 417.32 238.201 418.18 238.201 419.42V425H239.721V419.18C239.721 417.24 238.621 415.94 236.601 415.94C235.461 415.94 234.501 416.54 233.981 417.24V416.12H232.481V425ZM241.526 422.56C241.806 424.2 243.226 425.18 245.166 425.18C247.066 425.18 248.466 424.18 248.466 422.5C248.466 421.26 247.726 420.42 246.206 420.02L244.486 419.6C243.646 419.36 243.246 419.08 243.246 418.48C243.246 417.62 244.066 417.2 244.946 417.2C246.026 417.2 246.646 417.66 246.906 418.46H248.406C248.086 416.9 246.926 415.94 244.966 415.94C243.166 415.94 241.786 416.98 241.786 418.56C241.786 419.94 242.666 420.58 243.926 420.9L245.686 421.36C246.606 421.6 247.006 421.98 247.006 422.6C247.006 423.5 246.246 423.92 245.186 423.92C244.146 423.92 243.366 423.48 243.086 422.56H241.526ZM254.987 412.02C254.647 411.88 254.307 411.82 253.827 411.82C252.267 411.82 251.107 412.86 251.107 414.64V416.12H249.607V417.4H251.107V425H252.587V417.4H254.587V416.12H252.587V414.76C252.587 413.7 253.167 413.14 254.047 413.14C254.367 413.14 254.707 413.2 254.987 413.38V412.02ZM261.792 422.34C261.552 423.34 260.732 423.9 259.632 423.9C258.132 423.9 257.072 422.74 257.052 420.84H263.332V420.3C263.332 417.72 262.032 415.94 259.592 415.94C257.172 415.94 255.552 417.92 255.552 420.58C255.552 423.32 257.212 425.18 259.632 425.18C261.632 425.18 262.892 424.02 263.212 422.34H261.792ZM259.612 417.22C261.092 417.22 261.792 418.38 261.812 419.7H257.092C257.312 418.14 258.272 417.22 259.612 417.22ZM269.892 416.08C269.732 416 269.412 415.94 269.032 415.94C268.052 415.94 267.212 416.52 266.832 417.28V416.12H265.332V425H266.832V419.04C267.132 418 267.952 417.38 268.892 417.38C269.272 417.38 269.652 417.46 269.892 417.62V416.08ZM277.672 416.12H276.172V425H277.672V416.12ZM277.892 413.44C277.892 412.9 277.452 412.48 276.912 412.48C276.392 412.48 275.952 412.9 275.952 413.44C275.952 413.96 276.392 414.4 276.912 414.4C277.452 414.4 277.892 413.96 277.892 413.44ZM279.612 422.56C279.892 424.2 281.312 425.18 283.252 425.18C285.152 425.18 286.552 424.18 286.552 422.5C286.552 421.26 285.812 420.42 284.292 420.02L282.572 419.6C281.732 419.36 281.332 419.08 281.332 418.48C281.332 417.62 282.152 417.2 283.032 417.2C284.112 417.2 284.732 417.66 284.992 418.46H286.492C286.172 416.9 285.012 415.94 283.052 415.94C281.252 415.94 279.872 416.98 279.872 418.56C279.872 419.94 280.752 420.58 282.012 420.9L283.772 421.36C284.692 421.6 285.092 421.98 285.092 422.6C285.092 423.5 284.332 423.92 283.272 423.92C282.232 423.92 281.452 423.48 281.172 422.56H279.612ZM293.047 425H294.547V418.98C294.867 418.02 295.767 417.32 296.807 417.32C298.147 417.32 298.767 418.18 298.767 419.42V425H300.287V419.18C300.287 417.24 299.187 415.94 297.167 415.94C296.027 415.94 295.067 416.54 294.547 417.24V412H293.047V425ZM304.332 416.12H302.832V425H304.332V416.12ZM304.552 413.44C304.552 412.9 304.112 412.48 303.572 412.48C303.052 412.48 302.612 412.9 302.612 413.44C302.612 413.96 303.052 414.4 303.572 414.4C304.112 414.4 304.552 413.96 304.552 413.44ZM306.272 422.56C306.552 424.2 307.972 425.18 309.912 425.18C311.812 425.18 313.212 424.18 313.212 422.5C313.212 421.26 312.472 420.42 310.952 420.02L309.232 419.6C308.392 419.36 307.992 419.08 307.992 418.48C307.992 417.62 308.812 417.2 309.692 417.2C310.772 417.2 311.392 417.66 311.652 418.46H313.152C312.832 416.9 311.672 415.94 309.712 415.94C307.912 415.94 306.532 416.98 306.532 418.56C306.532 419.94 307.412 420.58 308.672 420.9L310.432 421.36C311.352 421.6 311.752 421.98 311.752 422.6C311.752 423.5 310.992 423.92 309.932 423.92C308.892 423.92 308.112 423.48 307.832 422.56H306.272ZM322.327 428.4L327.107 416.12H325.547L322.967 423.12L320.347 416.12H318.727L322.187 425.06L320.847 428.4H322.327ZM334.253 422.34C334.013 423.34 333.192 423.9 332.093 423.9C330.593 423.9 329.533 422.74 329.513 420.84H335.793V420.3C335.793 417.72 334.493 415.94 332.053 415.94C329.633 415.94 328.013 417.92 328.013 420.58C328.013 423.32 329.673 425.18 332.093 425.18C334.093 425.18 335.353 424.02 335.673 422.34H334.253ZM332.073 417.22C333.553 417.22 334.253 418.38 334.273 419.7H329.553C329.773 418.14 330.733 417.22 332.073 417.22ZM344.233 425V419.08C344.233 417.14 342.973 415.94 340.853 415.94C339.153 415.94 337.833 416.96 337.533 418.46H339.013C339.293 417.64 339.893 417.24 340.833 417.24C342.113 417.24 342.793 418.04 342.793 419.14V420.26C342.413 419.92 341.473 419.54 340.553 419.54C338.653 419.54 337.153 420.66 337.153 422.32C337.153 424.08 338.653 425.16 340.453 425.16C341.513 425.16 342.453 424.7 342.793 424.34V425H344.233ZM342.793 422.8C342.533 423.46 341.633 423.9 340.713 423.9C339.633 423.9 338.593 423.4 338.593 422.32C338.593 421.26 339.633 420.78 340.713 420.78C341.633 420.78 342.533 421.22 342.793 421.88V422.8ZM351.357 416.08C351.197 416 350.877 415.94 350.497 415.94C349.517 415.94 348.677 416.52 348.297 417.28V416.12H346.797V425H348.297V419.04C348.597 418 349.417 417.38 350.357 417.38C350.737 417.38 351.117 417.46 351.357 417.62V416.08ZM354.723 412H353.223V425H354.723V412ZM360.023 428.4L364.803 416.12H363.243L360.663 423.12L358.043 416.12H356.423L359.883 425.06L358.543 428.4H360.023ZM372.418 423.96C372.858 424.6 373.818 425.18 374.918 425.18C377.518 425.18 378.918 423.08 378.918 420.56C378.918 418.06 377.518 415.94 374.918 415.94C373.818 415.94 372.858 416.52 372.418 417.16V412H370.898V425H372.418V423.96ZM372.418 418.76C372.878 417.84 373.758 417.3 374.698 417.3C376.398 417.3 377.398 418.68 377.398 420.56C377.398 422.44 376.398 423.82 374.698 423.82C373.758 423.82 372.878 423.28 372.418 422.36V418.76ZM388.516 420.56C388.516 417.84 386.856 415.94 384.436 415.94C381.996 415.94 380.356 417.84 380.356 420.56C380.356 423.28 381.996 425.18 384.436 425.18C386.856 425.18 388.516 423.28 388.516 420.56ZM386.996 420.56C386.996 422.5 386.036 423.86 384.436 423.86C382.836 423.86 381.876 422.5 381.876 420.56C381.876 418.62 382.836 417.26 384.436 417.26C386.036 417.26 386.996 418.62 386.996 420.56ZM390.547 425H392.047V418.98C392.367 418.02 393.267 417.32 394.307 417.32C395.647 417.32 396.267 418.18 396.267 419.42V425H397.787V419.18C397.787 417.24 396.687 415.94 394.667 415.94C393.527 415.94 392.567 416.54 392.047 417.24V416.12H390.547V425ZM407.412 416.12H405.892V422.14C405.572 423.1 404.712 423.8 403.672 423.8C402.332 423.8 401.732 422.94 401.732 421.7V416.12H400.212V421.94C400.212 423.88 401.292 425.18 403.312 425.18C404.452 425.18 405.392 424.58 405.892 423.88V425H407.412V416.12ZM409.338 422.56C409.618 424.2 411.038 425.18 412.978 425.18C414.878 425.18 416.278 424.18 416.278 422.5C416.278 421.26 415.538 420.42 414.018 420.02L412.298 419.6C411.458 419.36 411.058 419.08 411.058 418.48C411.058 417.62 411.878 417.2 412.758 417.2C413.838 417.2 414.458 417.66 414.718 418.46H416.218C415.898 416.9 414.738 415.94 412.778 415.94C410.978 415.94 409.598 416.98 409.598 418.56C409.598 419.94 410.478 420.58 411.738 420.9L413.498 421.36C414.418 421.6 414.818 421.98 414.818 422.6C414.818 423.5 414.058 423.92 412.998 423.92C411.958 423.92 411.178 423.48 410.898 422.56H409.338ZM417.28 427.14H418.3L419.36 425.38C419.6 425 419.8 424.54 419.8 424.12C419.8 423.38 419.34 422.96 418.74 422.96C418.14 422.96 417.66 423.4 417.66 424.02C417.66 424.6 418.04 424.94 418.54 425.02L417.28 427.14ZM425.552 420.56C425.552 423.32 427.212 425.18 429.592 425.18C431.592 425.18 432.852 424.02 433.152 422.32H431.612C431.412 423.28 430.652 423.86 429.592 423.86C428.072 423.86 427.072 422.5 427.072 420.56C427.072 418.62 428.072 417.26 429.592 417.26C430.652 417.26 431.412 417.84 431.612 418.8H433.152C432.852 417.1 431.592 415.94 429.592 415.94C427.212 415.94 425.552 417.8 425.552 420.56ZM436.617 416.12H435.117V425H436.617V416.12ZM436.837 413.44C436.837 412.9 436.397 412.48 435.857 412.48C435.337 412.48 434.897 412.9 434.897 413.44C434.897 413.96 435.337 414.4 435.857 414.4C436.397 414.4 436.837 413.96 436.837 413.44ZM439.717 422.76C439.717 424.4 440.717 425.18 442.157 425.18C442.697 425.18 443.217 425.06 443.557 424.88V423.48C443.257 423.68 442.817 423.84 442.397 423.84C441.637 423.84 441.217 423.46 441.217 422.6V417.4H443.357V416.12H441.217V413.78H439.717V416.12H438.277V417.4H439.717V422.76ZM447.145 416.12H445.645V425H447.145V416.12ZM447.365 413.44C447.365 412.9 446.925 412.48 446.385 412.48C445.865 412.48 445.425 412.9 445.425 413.44C445.425 413.96 445.865 414.4 446.385 414.4C446.925 414.4 447.365 413.96 447.365 413.44ZM449.824 425H451.324V418.98C451.644 418.02 452.544 417.32 453.584 417.32C454.924 417.32 455.544 418.18 455.544 419.42V425H457.064V419.18C457.064 417.24 455.964 415.94 453.944 415.94C452.804 415.94 451.844 416.54 451.324 417.24V416.12H449.824V425ZM465.43 424.4C465.43 426.32 464.59 427.32 462.99 427.32C461.77 427.32 460.93 426.78 460.67 425.66H459.19C459.47 427.48 460.83 428.6 462.99 428.6C465.27 428.6 466.95 427.22 466.95 424.3V416.12H465.43V417.12C464.99 416.5 464.05 415.94 462.95 415.94C460.35 415.94 458.97 418.08 458.97 420.44C458.97 422.78 460.35 424.94 462.95 424.94C464.05 424.94 464.99 424.36 465.43 423.74V424.4ZM465.43 422.2C464.97 423.04 464.13 423.58 463.17 423.58C461.49 423.58 460.51 422.26 460.51 420.44C460.51 418.6 461.49 417.28 463.17 417.28C464.13 417.28 464.97 417.82 465.43 418.66V422.2ZM474.043 425H475.543V418.98C475.863 418.02 476.763 417.32 477.803 417.32C479.143 417.32 479.763 418.18 479.763 419.42V425H481.283V419.18C481.283 417.24 480.183 415.94 478.163 415.94C477.023 415.94 476.063 416.54 475.543 417.24V412H474.043V425ZM485.328 416.12H483.828V425H485.328V416.12ZM485.548 413.44C485.548 412.9 485.108 412.48 484.568 412.48C484.048 412.48 483.608 412.9 483.608 413.44C483.608 413.96 484.048 414.4 484.568 414.4C485.108 414.4 485.548 413.96 485.548 413.44ZM487.268 422.56C487.548 424.2 488.968 425.18 490.908 425.18C492.808 425.18 494.208 424.18 494.208 422.5C494.208 421.26 493.468 420.42 491.948 420.02L490.228 419.6C489.388 419.36 488.988 419.08 488.988 418.48C488.988 417.62 489.808 417.2 490.688 417.2C491.768 417.2 492.388 417.66 492.648 418.46H494.148C493.828 416.9 492.668 415.94 490.708 415.94C488.908 415.94 487.528 416.98 487.528 418.56C487.528 419.94 488.408 420.58 489.668 420.9L491.428 421.36C492.348 421.6 492.748 421.98 492.748 422.6C492.748 423.5 491.988 423.92 490.928 423.92C489.888 423.92 489.108 423.48 488.828 422.56H487.268ZM506.523 424.4C506.523 426.32 505.683 427.32 504.083 427.32C502.863 427.32 502.023 426.78 501.763 425.66H500.283C500.563 427.48 501.923 428.6 504.083 428.6C506.363 428.6 508.043 427.22 508.043 424.3V416.12H506.523V417.12C506.083 416.5 505.143 415.94 504.043 415.94C501.443 415.94 500.063 418.08 500.063 420.44C500.063 422.78 501.443 424.94 504.043 424.94C505.143 424.94 506.083 424.36 506.523 423.74V424.4ZM506.523 422.2C506.063 423.04 505.223 423.58 504.263 423.58C502.583 423.58 501.603 422.26 501.603 420.44C501.603 418.6 502.583 417.28 504.263 417.28C505.223 417.28 506.063 417.82 506.523 418.66V422.2ZM518.243 420.56C518.243 417.84 516.583 415.94 514.163 415.94C511.723 415.94 510.083 417.84 510.083 420.56C510.083 423.28 511.723 425.18 514.163 425.18C516.583 425.18 518.243 423.28 518.243 420.56ZM516.723 420.56C516.723 422.5 515.763 423.86 514.163 423.86C512.563 423.86 511.603 422.5 511.603 420.56C511.603 418.62 512.563 417.26 514.163 417.26C515.763 417.26 516.723 418.62 516.723 420.56ZM527.833 420.56C527.833 417.84 526.173 415.94 523.753 415.94C521.313 415.94 519.673 417.84 519.673 420.56C519.673 423.28 521.313 425.18 523.753 425.18C526.173 425.18 527.833 423.28 527.833 420.56ZM526.313 420.56C526.313 422.5 525.353 423.86 523.753 423.86C522.153 423.86 521.193 422.5 521.193 420.56C521.193 418.62 522.153 417.26 523.753 417.26C525.353 417.26 526.313 418.62 526.313 420.56ZM535.763 425H537.283V412H535.763V417.16C535.323 416.52 534.363 415.94 533.263 415.94C530.663 415.94 529.263 418.06 529.263 420.56C529.263 423.08 530.663 425.18 533.263 425.18C534.363 425.18 535.323 424.6 535.763 423.96V425ZM535.763 422.36C535.303 423.28 534.423 423.82 533.483 423.82C531.783 423.82 530.783 422.44 530.783 420.56C530.783 418.68 531.783 417.3 533.483 417.3C534.423 417.3 535.303 417.84 535.763 418.76V422.36ZM545.856 423.96C546.316 424.6 547.256 425.18 548.356 425.18C550.976 425.18 552.356 423.02 552.356 420.56C552.356 418.1 550.976 415.94 548.356 415.94C547.256 415.94 546.316 416.52 545.856 417.16V416.12H544.356V428.4H545.856V423.96ZM545.856 418.76C546.316 417.84 547.196 417.3 548.136 417.3C549.836 417.3 550.836 418.68 550.836 420.56C550.836 422.44 549.836 423.82 548.136 423.82C547.196 423.82 546.316 423.28 545.856 422.36V418.76ZM560.034 422.34C559.794 423.34 558.974 423.9 557.874 423.9C556.374 423.9 555.314 422.74 555.294 420.84H561.574V420.3C561.574 417.72 560.274 415.94 557.834 415.94C555.414 415.94 553.794 417.92 553.794 420.58C553.794 423.32 555.454 425.18 557.874 425.18C559.874 425.18 561.134 424.02 561.454 422.34H560.034ZM557.854 417.22C559.334 417.22 560.034 418.38 560.054 419.7H555.334C555.554 418.14 556.514 417.22 557.854 417.22ZM568.134 416.08C567.974 416 567.654 415.94 567.274 415.94C566.294 415.94 565.454 416.52 565.074 417.28V416.12H563.574V425H565.074V419.04C565.374 418 566.194 417.38 567.134 417.38C567.514 417.38 567.894 417.46 568.134 417.62V416.08ZM574.44 412.02C574.1 411.88 573.76 411.82 573.28 411.82C571.72 411.82 570.56 412.86 570.56 414.64V416.12H569.06V417.4H570.56V425H572.04V417.4H574.04V416.12H572.04V414.76C572.04 413.7 572.62 413.14 573.5 413.14C573.82 413.14 574.16 413.2 574.44 413.38V412.02ZM583.165 420.56C583.165 417.84 581.505 415.94 579.085 415.94C576.645 415.94 575.005 417.84 575.005 420.56C575.005 423.28 576.645 425.18 579.085 425.18C581.505 425.18 583.165 423.28 583.165 420.56ZM581.645 420.56C581.645 422.5 580.685 423.86 579.085 423.86C577.485 423.86 576.525 422.5 576.525 420.56C576.525 418.62 577.485 417.26 579.085 417.26C580.685 417.26 581.645 418.62 581.645 420.56ZM589.755 416.08C589.595 416 589.275 415.94 588.895 415.94C587.915 415.94 587.075 416.52 586.695 417.28V416.12H585.195V425H586.695V419.04C586.995 418 587.815 417.38 588.755 417.38C589.135 417.38 589.515 417.46 589.755 417.62V416.08ZM597.921 417.36C597.501 416.52 596.641 415.94 595.521 415.94C594.421 415.94 593.561 416.46 593.121 417.16V416.12H591.621V425H593.121V418.88C593.401 417.92 594.181 417.3 595.081 417.3C596.221 417.3 596.761 418.12 596.761 419.36V425H598.261V418.88C598.541 417.92 599.321 417.3 600.221 417.3C601.361 417.3 601.901 418.12 601.901 419.36V425H603.421V419.12C603.421 417.2 602.421 415.94 600.621 415.94C599.381 415.94 598.481 416.56 597.921 417.36ZM612.397 425V419.08C612.397 417.14 611.137 415.94 609.017 415.94C607.317 415.94 605.997 416.96 605.697 418.46H607.177C607.457 417.64 608.057 417.24 608.997 417.24C610.277 417.24 610.957 418.04 610.957 419.14V420.26C610.577 419.92 609.637 419.54 608.717 419.54C606.817 419.54 605.317 420.66 605.317 422.32C605.317 424.08 606.817 425.16 608.617 425.16C609.677 425.16 610.617 424.7 610.957 424.34V425H612.397ZM610.957 422.8C610.697 423.46 609.797 423.9 608.877 423.9C607.797 423.9 606.757 423.4 606.757 422.32C606.757 421.26 607.797 420.78 608.877 420.78C609.797 420.78 610.697 421.22 610.957 421.88V422.8ZM614.961 425H616.461V418.98C616.781 418.02 617.681 417.32 618.721 417.32C620.061 417.32 620.681 418.18 620.681 419.42V425H622.201V419.18C622.201 417.24 621.101 415.94 619.081 415.94C617.941 415.94 616.981 416.54 616.461 417.24V416.12H614.961V425ZM624.106 420.56C624.106 423.32 625.766 425.18 628.146 425.18C630.146 425.18 631.406 424.02 631.706 422.32H630.166C629.966 423.28 629.206 423.86 628.146 423.86C626.626 423.86 625.626 422.5 625.626 420.56C625.626 418.62 626.626 417.26 628.146 417.26C629.206 417.26 629.966 417.84 630.166 418.8H631.706C631.406 417.1 630.146 415.94 628.146 415.94C625.766 415.94 624.106 417.8 624.106 420.56ZM639.233 422.34C638.993 423.34 638.173 423.9 637.073 423.9C635.573 423.9 634.513 422.74 634.493 420.84H640.773V420.3C640.773 417.72 639.473 415.94 637.033 415.94C634.613 415.94 632.993 417.92 632.993 420.58C632.993 423.32 634.653 425.18 637.073 425.18C639.073 425.18 640.333 424.02 640.653 422.34H639.233ZM637.053 417.22C638.533 417.22 639.233 418.38 639.253 419.7H634.533C634.753 418.14 635.713 417.22 637.053 417.22ZM642.074 424.02C642.074 424.64 642.554 425.1 643.154 425.1C643.734 425.1 644.214 424.64 644.214 424.02C644.214 423.4 643.734 422.92 643.154 422.92C642.554 422.92 642.074 423.4 642.074 424.02ZM654.486 412.72L649.686 425H651.286L652.686 421.3H657.746L659.166 425H660.766L655.966 412.72H654.486ZM655.206 414.68L657.206 419.92H653.206L655.206 414.68ZM664.02 412H662.52V425H664.02V412ZM668.199 416.12H666.699V425H668.199V416.12ZM668.419 413.44C668.419 412.9 667.979 412.48 667.439 412.48C666.919 412.48 666.479 412.9 666.479 413.44C666.479 413.96 666.919 414.4 667.439 414.4C667.979 414.4 668.419 413.96 668.419 413.44ZM670.239 420.56C670.239 423.32 671.899 425.18 674.279 425.18C676.279 425.18 677.539 424.02 677.839 422.32H676.299C676.099 423.28 675.339 423.86 674.279 423.86C672.759 423.86 671.759 422.5 671.759 420.56C671.759 418.62 672.759 417.26 674.279 417.26C675.339 417.26 676.099 417.84 676.299 418.8H677.839C677.539 417.1 676.279 415.94 674.279 415.94C671.899 415.94 670.239 417.8 670.239 420.56ZM685.366 422.34C685.126 423.34 684.306 423.9 683.206 423.9C681.706 423.9 680.646 422.74 680.626 420.84H686.906V420.3C686.906 417.72 685.606 415.94 683.166 415.94C680.746 415.94 679.126 417.92 679.126 420.58C679.126 423.32 680.786 425.18 683.206 425.18C685.206 425.18 686.466 424.02 686.786 422.34H685.366ZM683.186 417.22C684.666 417.22 685.366 418.38 685.386 419.7H680.666C680.886 418.14 681.846 417.22 683.186 417.22ZM52.6 449.56C52.88 451.2 54.3 452.18 56.24 452.18C58.14 452.18 59.54 451.18 59.54 449.5C59.54 448.26 58.8 447.42 57.28 447.02L55.56 446.6C54.72 446.36 54.32 446.08 54.32 445.48C54.32 444.62 55.14 444.2 56.02 444.2C57.1 444.2 57.72 444.66 57.98 445.46H59.48C59.16 443.9 58 442.94 56.04 442.94C54.24 442.94 52.86 443.98 52.86 445.56C52.86 446.94 53.74 447.58 55 447.9L56.76 448.36C57.68 448.6 58.08 448.98 58.08 449.6C58.08 450.5 57.32 450.92 56.26 450.92C55.22 450.92 54.44 450.48 54.16 449.56H52.6ZM68.7013 443.12H67.1813V449.14C66.8613 450.1 66.0013 450.8 64.9613 450.8C63.6213 450.8 63.0213 449.94 63.0213 448.7V443.12H61.5013V448.94C61.5013 450.88 62.5813 452.18 64.6013 452.18C65.7413 452.18 66.6813 451.58 67.1813 450.88V452H68.7013V443.12ZM72.8673 450.96C73.3073 451.6 74.2673 452.18 75.3673 452.18C77.9673 452.18 79.3673 450.08 79.3673 447.56C79.3673 445.06 77.9673 442.94 75.3673 442.94C74.2673 442.94 73.3073 443.52 72.8673 444.16V439H71.3473V452H72.8673V450.96ZM72.8673 445.76C73.3273 444.84 74.2073 444.3 75.1473 444.3C76.8473 444.3 77.8473 445.68 77.8473 447.56C77.8473 449.44 76.8473 450.82 75.1473 450.82C74.2073 450.82 73.3273 450.28 72.8673 449.36V445.76ZM87.7064 444.36C87.2864 443.52 86.4264 442.94 85.3064 442.94C84.2064 442.94 83.3464 443.46 82.9064 444.16V443.12H81.4064V452H82.9064V445.88C83.1864 444.92 83.9664 444.3 84.8664 444.3C86.0064 444.3 86.5464 445.12 86.5464 446.36V452H88.0464V445.88C88.3264 444.92 89.1064 444.3 90.0064 444.3C91.1464 444.3 91.6864 445.12 91.6864 446.36V452H93.2064V446.12C93.2064 444.2 92.2064 442.94 90.4064 442.94C89.1664 442.94 88.2664 443.56 87.7064 444.36ZM97.2423 443.12H95.7423V452H97.2423V443.12ZM97.4623 440.44C97.4623 439.9 97.0223 439.48 96.4823 439.48C95.9623 439.48 95.5223 439.9 95.5223 440.44C95.5223 440.96 95.9623 441.4 96.4823 441.4C97.0223 441.4 97.4623 440.96 97.4623 440.44ZM100.342 449.76C100.342 451.4 101.342 452.18 102.782 452.18C103.322 452.18 103.842 452.06 104.182 451.88V450.48C103.882 450.68 103.442 450.84 103.022 450.84C102.262 450.84 101.842 450.46 101.842 449.6V444.4H103.982V443.12H101.842V440.78H100.342V443.12H98.902V444.4H100.342V449.76ZM105.471 449.56C105.751 451.2 107.171 452.18 109.111 452.18C111.011 452.18 112.411 451.18 112.411 449.5C112.411 448.26 111.671 447.42 110.151 447.02L108.431 446.6C107.591 446.36 107.191 446.08 107.191 445.48C107.191 444.62 108.011 444.2 108.891 444.2C109.971 444.2 110.591 444.66 110.851 445.46H112.351C112.031 443.9 110.871 442.94 108.911 442.94C107.111 442.94 105.731 443.98 105.731 445.56C105.731 446.94 106.611 447.58 107.871 447.9L109.631 448.36C110.551 448.6 110.951 448.98 110.951 449.6C110.951 450.5 110.191 450.92 109.131 450.92C108.091 450.92 107.311 450.48 107.031 449.56H105.471ZM119.326 449.76C119.326 451.4 120.326 452.18 121.766 452.18C122.306 452.18 122.826 452.06 123.166 451.88V450.48C122.866 450.68 122.426 450.84 122.006 450.84C121.246 450.84 120.826 450.46 120.826 449.6V444.4H122.966V443.12H120.826V440.78H119.326V443.12H117.886V444.4H119.326V449.76ZM125.254 452H126.754V445.98C127.074 445.02 127.974 444.32 129.014 444.32C130.354 444.32 130.974 445.18 130.974 446.42V452H132.494V446.18C132.494 444.24 131.394 442.94 129.374 442.94C128.234 442.94 127.274 443.54 126.754 444.24V439H125.254V452ZM140.639 449.34C140.399 450.34 139.579 450.9 138.479 450.9C136.979 450.9 135.919 449.74 135.899 447.84H142.179V447.3C142.179 444.72 140.879 442.94 138.439 442.94C136.019 442.94 134.399 444.92 134.399 447.58C134.399 450.32 136.059 452.18 138.479 452.18C140.479 452.18 141.739 451.02 142.059 449.34H140.639ZM138.459 444.22C139.939 444.22 140.639 445.38 140.659 446.7H135.939C136.159 445.14 137.119 444.22 138.459 444.22ZM145.68 443.12H144.18V452H145.68V443.12ZM145.9 440.44C145.9 439.9 145.46 439.48 144.92 439.48C144.4 439.48 143.96 439.9 143.96 440.44C143.96 440.96 144.4 441.4 144.92 441.4C145.46 441.4 145.9 440.96 145.9 440.44ZM152.92 443.08C152.76 443 152.44 442.94 152.06 442.94C151.08 442.94 150.24 443.52 149.86 444.28V443.12H148.36V452H149.86V446.04C150.16 445 150.98 444.38 151.92 444.38C152.3 444.38 152.68 444.46 152.92 444.62V443.08ZM164.799 449.34C164.559 450.34 163.739 450.9 162.639 450.9C161.139 450.9 160.079 449.74 160.059 447.84H166.339V447.3C166.339 444.72 165.039 442.94 162.599 442.94C160.179 442.94 158.559 444.92 158.559 447.58C158.559 450.32 160.219 452.18 162.639 452.18C164.639 452.18 165.899 451.02 166.219 449.34H164.799ZM162.619 444.22C164.099 444.22 164.799 445.38 164.819 446.7H160.099C160.319 445.14 161.279 444.22 162.619 444.22ZM174.64 444.36C174.22 443.52 173.36 442.94 172.24 442.94C171.14 442.94 170.28 443.46 169.84 444.16V443.12H168.34V452H169.84V445.88C170.12 444.92 170.9 444.3 171.8 444.3C172.94 444.3 173.48 445.12 173.48 446.36V452H174.98V445.88C175.26 444.92 176.04 444.3 176.94 444.3C178.08 444.3 178.62 445.12 178.62 446.36V452H180.14V446.12C180.14 444.2 179.14 442.94 177.34 442.94C176.1 442.94 175.2 443.56 174.64 444.36ZM184.176 450.96C184.636 451.6 185.576 452.18 186.676 452.18C189.296 452.18 190.676 450.02 190.676 447.56C190.676 445.1 189.296 442.94 186.676 442.94C185.576 442.94 184.636 443.52 184.176 444.16V443.12H182.676V455.4H184.176V450.96ZM184.176 445.76C184.636 444.84 185.516 444.3 186.456 444.3C188.156 444.3 189.156 445.68 189.156 447.56C189.156 449.44 188.156 450.82 186.456 450.82C185.516 450.82 184.636 450.28 184.176 449.36V445.76ZM194.215 439H192.715V452H194.215V439ZM204.415 447.56C204.415 444.84 202.755 442.94 200.335 442.94C197.895 442.94 196.255 444.84 196.255 447.56C196.255 450.28 197.895 452.18 200.335 452.18C202.755 452.18 204.415 450.28 204.415 447.56ZM202.895 447.56C202.895 449.5 201.935 450.86 200.335 450.86C198.735 450.86 197.775 449.5 197.775 447.56C197.775 445.62 198.735 444.26 200.335 444.26C201.935 444.26 202.895 445.62 202.895 447.56ZM208.909 455.4L213.689 443.12H212.129L209.549 450.12L206.929 443.12H205.309L208.769 452.06L207.429 455.4H208.909ZM221.691 444.36C221.271 443.52 220.411 442.94 219.291 442.94C218.191 442.94 217.331 443.46 216.891 444.16V443.12H215.391V452H216.891V445.88C217.171 444.92 217.951 444.3 218.851 444.3C219.991 444.3 220.531 445.12 220.531 446.36V452H222.031V445.88C222.311 444.92 223.091 444.3 223.991 444.3C225.131 444.3 225.671 445.12 225.671 446.36V452H227.191V446.12C227.191 444.2 226.191 442.94 224.391 442.94C223.151 442.94 222.251 443.56 221.691 444.36ZM235.327 449.34C235.087 450.34 234.267 450.9 233.167 450.9C231.667 450.9 230.607 449.74 230.587 447.84H236.867V447.3C236.867 444.72 235.567 442.94 233.127 442.94C230.707 442.94 229.087 444.92 229.087 447.58C229.087 450.32 230.747 452.18 233.167 452.18C235.167 452.18 236.427 451.02 236.747 449.34H235.327ZM233.147 444.22C234.627 444.22 235.327 445.38 235.347 446.7H230.627C230.847 445.14 231.807 444.22 233.147 444.22ZM238.867 452H240.367V445.98C240.687 445.02 241.587 444.32 242.627 444.32C243.967 444.32 244.587 445.18 244.587 446.42V452H246.107V446.18C246.107 444.24 245.007 442.94 242.987 442.94C241.847 442.94 240.887 443.54 240.367 444.24V443.12H238.867V452ZM249.073 449.76C249.073 451.4 250.073 452.18 251.513 452.18C252.053 452.18 252.573 452.06 252.913 451.88V450.48C252.613 450.68 252.173 450.84 251.753 450.84C250.993 450.84 250.573 450.46 250.573 449.6V444.4H252.713V443.12H250.573V440.78H249.073V443.12H247.633V444.4H249.073V449.76ZM265.854 452V446.08C265.854 444.14 264.594 442.94 262.474 442.94C260.774 442.94 259.454 443.96 259.154 445.46H260.634C260.914 444.64 261.514 444.24 262.454 444.24C263.734 444.24 264.414 445.04 264.414 446.14V447.26C264.034 446.92 263.094 446.54 262.174 446.54C260.274 446.54 258.774 447.66 258.774 449.32C258.774 451.08 260.274 452.16 262.074 452.16C263.134 452.16 264.074 451.7 264.414 451.34V452H265.854ZM264.414 449.8C264.154 450.46 263.254 450.9 262.334 450.9C261.254 450.9 260.214 450.4 260.214 449.32C260.214 448.26 261.254 447.78 262.334 447.78C263.254 447.78 264.154 448.22 264.414 448.88V449.8ZM274.238 451.4C274.238 453.32 273.398 454.32 271.798 454.32C270.578 454.32 269.738 453.78 269.478 452.66H267.998C268.278 454.48 269.638 455.6 271.798 455.6C274.078 455.6 275.758 454.22 275.758 451.3V443.12H274.238V444.12C273.798 443.5 272.858 442.94 271.758 442.94C269.158 442.94 267.778 445.08 267.778 447.44C267.778 449.78 269.158 451.94 271.758 451.94C272.858 451.94 273.798 451.36 274.238 450.74V451.4ZM274.238 449.2C273.778 450.04 272.938 450.58 271.978 450.58C270.298 450.58 269.318 449.26 269.318 447.44C269.318 445.6 270.298 444.28 271.978 444.28C272.938 444.28 273.778 444.82 274.238 445.66V449.2ZM282.998 443.08C282.838 443 282.518 442.94 282.138 442.94C281.158 442.94 280.318 443.52 279.938 444.28V443.12H278.438V452H279.938V446.04C280.238 445 281.058 444.38 281.998 444.38C282.378 444.38 282.758 444.46 282.998 444.62V443.08ZM290.21 449.34C289.97 450.34 289.15 450.9 288.05 450.9C286.55 450.9 285.49 449.74 285.47 447.84H291.75V447.3C291.75 444.72 290.45 442.94 288.01 442.94C285.59 442.94 283.97 444.92 283.97 447.58C283.97 450.32 285.63 452.18 288.05 452.18C290.05 452.18 291.31 451.02 291.63 449.34H290.21ZM288.03 444.22C289.51 444.22 290.21 445.38 290.23 446.7H285.51C285.73 445.14 286.69 444.22 288.03 444.22ZM299.389 449.34C299.149 450.34 298.329 450.9 297.229 450.9C295.729 450.9 294.669 449.74 294.649 447.84H300.929V447.3C300.929 444.72 299.629 442.94 297.189 442.94C294.769 442.94 293.149 444.92 293.149 447.58C293.149 450.32 294.809 452.18 297.229 452.18C299.229 452.18 300.489 451.02 300.809 449.34H299.389ZM297.209 444.22C298.689 444.22 299.389 445.38 299.409 446.7H294.689C294.909 445.14 295.869 444.22 297.209 444.22ZM309.23 444.36C308.81 443.52 307.95 442.94 306.83 442.94C305.73 442.94 304.87 443.46 304.43 444.16V443.12H302.93V452H304.43V445.88C304.71 444.92 305.49 444.3 306.39 444.3C307.53 444.3 308.07 445.12 308.07 446.36V452H309.57V445.88C309.85 444.92 310.63 444.3 311.53 444.3C312.67 444.3 313.21 445.12 313.21 446.36V452H314.73V446.12C314.73 444.2 313.73 442.94 311.93 442.94C310.69 442.94 309.79 443.56 309.23 444.36ZM322.866 449.34C322.626 450.34 321.806 450.9 320.706 450.9C319.206 450.9 318.146 449.74 318.126 447.84H324.406V447.3C324.406 444.72 323.106 442.94 320.666 442.94C318.246 442.94 316.626 444.92 316.626 447.58C316.626 450.32 318.286 452.18 320.706 452.18C322.706 452.18 323.966 451.02 324.286 449.34H322.866ZM320.686 444.22C322.166 444.22 322.866 445.38 322.886 446.7H318.166C318.386 445.14 319.346 444.22 320.686 444.22ZM326.406 452H327.906V445.98C328.226 445.02 329.126 444.32 330.166 444.32C331.506 444.32 332.126 445.18 332.126 446.42V452H333.646V446.18C333.646 444.24 332.546 442.94 330.526 442.94C329.386 442.94 328.426 443.54 327.906 444.24V443.12H326.406V452ZM336.612 449.76C336.612 451.4 337.612 452.18 339.052 452.18C339.592 452.18 340.112 452.06 340.452 451.88V450.48C340.152 450.68 339.712 450.84 339.292 450.84C338.532 450.84 338.112 450.46 338.112 449.6V444.4H340.252V443.12H338.112V440.78H336.612V443.12H335.172V444.4H336.612V449.76ZM353.393 452V446.08C353.393 444.14 352.133 442.94 350.013 442.94C348.313 442.94 346.993 443.96 346.693 445.46H348.173C348.453 444.64 349.053 444.24 349.993 444.24C351.273 444.24 351.953 445.04 351.953 446.14V447.26C351.573 446.92 350.633 446.54 349.713 446.54C347.813 446.54 346.313 447.66 346.313 449.32C346.313 451.08 347.813 452.16 349.613 452.16C350.673 452.16 351.613 451.7 351.953 451.34V452H353.393ZM351.953 449.8C351.693 450.46 350.793 450.9 349.873 450.9C348.793 450.9 347.753 450.4 347.753 449.32C347.753 448.26 348.793 447.78 349.873 447.78C350.793 447.78 351.693 448.22 351.953 448.88V449.8ZM355.957 452H357.457V445.98C357.777 445.02 358.677 444.32 359.717 444.32C361.057 444.32 361.677 445.18 361.677 446.42V452H363.197V446.18C363.197 444.24 362.097 442.94 360.077 442.94C358.937 442.94 357.977 443.54 357.457 444.24V443.12H355.957V452ZM371.602 452H373.122V439H371.602V444.16C371.162 443.52 370.202 442.94 369.102 442.94C366.502 442.94 365.102 445.06 365.102 447.56C365.102 450.08 366.502 452.18 369.102 452.18C370.202 452.18 371.162 451.6 371.602 450.96V452ZM371.602 449.36C371.142 450.28 370.262 450.82 369.322 450.82C367.622 450.82 366.622 449.44 366.622 447.56C366.622 445.68 367.622 444.3 369.322 444.3C370.262 444.3 371.142 444.84 371.602 445.76V449.36ZM380.195 452H381.695V445.98C382.015 445.02 382.915 444.32 383.955 444.32C385.295 444.32 385.915 445.18 385.915 446.42V452H387.435V446.18C387.435 444.24 386.335 442.94 384.315 442.94C383.175 442.94 382.215 443.54 381.695 444.24V439H380.195V452ZM391.481 443.12H389.981V452H391.481V443.12ZM391.701 440.44C391.701 439.9 391.261 439.48 390.721 439.48C390.201 439.48 389.761 439.9 389.761 440.44C389.761 440.96 390.201 441.4 390.721 441.4C391.261 441.4 391.701 440.96 391.701 440.44ZM393.42 449.56C393.7 451.2 395.12 452.18 397.06 452.18C398.96 452.18 400.36 451.18 400.36 449.5C400.36 448.26 399.62 447.42 398.1 447.02L396.38 446.6C395.54 446.36 395.14 446.08 395.14 445.48C395.14 444.62 395.96 444.2 396.84 444.2C397.92 444.2 398.54 444.66 398.8 445.46H400.3C399.98 443.9 398.82 442.94 396.86 442.94C395.06 442.94 393.68 443.98 393.68 445.56C393.68 446.94 394.56 447.58 395.82 447.9L397.58 448.36C398.5 448.6 398.9 448.98 398.9 449.6C398.9 450.5 398.14 450.92 397.08 450.92C396.04 450.92 395.26 450.48 394.98 449.56H393.42ZM402.862 449.76C402.862 451.4 403.862 452.18 405.302 452.18C405.842 452.18 406.362 452.06 406.702 451.88V450.48C406.402 450.68 405.962 450.84 405.542 450.84C404.782 450.84 404.362 450.46 404.362 449.6V444.4H406.502V443.12H404.362V440.78H402.862V443.12H401.422V444.4H402.862V449.76ZM416.212 447.56C416.212 444.84 414.552 442.94 412.132 442.94C409.692 442.94 408.052 444.84 408.052 447.56C408.052 450.28 409.692 452.18 412.132 452.18C414.552 452.18 416.212 450.28 416.212 447.56ZM414.692 447.56C414.692 449.5 413.732 450.86 412.132 450.86C410.532 450.86 409.572 449.5 409.572 447.56C409.572 445.62 410.532 444.26 412.132 444.26C413.732 444.26 414.692 445.62 414.692 447.56ZM422.802 443.08C422.642 443 422.322 442.94 421.942 442.94C420.962 442.94 420.122 443.52 419.742 444.28V443.12H418.242V452H419.742V446.04C420.042 445 420.862 444.38 421.802 444.38C422.182 444.38 422.562 444.46 422.802 444.62V443.08ZM426.168 443.12H424.668V452H426.168V443.12ZM426.388 440.44C426.388 439.9 425.948 439.48 425.408 439.48C424.888 439.48 424.448 439.9 424.448 440.44C424.448 440.96 424.888 441.4 425.408 441.4C425.948 441.4 426.388 440.96 426.388 440.44ZM428.208 447.56C428.208 450.32 429.868 452.18 432.248 452.18C434.248 452.18 435.508 451.02 435.808 449.32H434.268C434.068 450.28 433.308 450.86 432.248 450.86C430.728 450.86 429.728 449.5 429.728 447.56C429.728 445.62 430.728 444.26 432.248 444.26C433.308 444.26 434.068 444.84 434.268 445.8H435.808C435.508 444.1 434.248 442.94 432.248 442.94C429.868 442.94 428.208 444.8 428.208 447.56ZM444.214 452V446.08C444.214 444.14 442.954 442.94 440.834 442.94C439.134 442.94 437.814 443.96 437.514 445.46H438.994C439.274 444.64 439.874 444.24 440.814 444.24C442.094 444.24 442.774 445.04 442.774 446.14V447.26C442.394 446.92 441.454 446.54 440.534 446.54C438.634 446.54 437.134 447.66 437.134 449.32C437.134 451.08 438.634 452.16 440.434 452.16C441.494 452.16 442.434 451.7 442.774 451.34V452H444.214ZM442.774 449.8C442.514 450.46 441.614 450.9 440.694 450.9C439.614 450.9 438.574 450.4 438.574 449.32C438.574 448.26 439.614 447.78 440.694 447.78C441.614 447.78 442.514 448.22 442.774 448.88V449.8ZM448.278 439H446.778V452H448.278V439ZM456.871 450.96C457.331 451.6 458.271 452.18 459.371 452.18C461.991 452.18 463.371 450.02 463.371 447.56C463.371 445.1 461.991 442.94 459.371 442.94C458.271 442.94 457.331 443.52 456.871 444.16V443.12H455.371V455.4H456.871V450.96ZM456.871 445.76C457.331 444.84 458.211 444.3 459.151 444.3C460.851 444.3 461.851 445.68 461.851 447.56C461.851 449.44 460.851 450.82 459.151 450.82C458.211 450.82 457.331 450.28 456.871 449.36V445.76ZM471.85 452V446.08C471.85 444.14 470.59 442.94 468.47 442.94C466.77 442.94 465.45 443.96 465.15 445.46H466.63C466.91 444.64 467.51 444.24 468.45 444.24C469.73 444.24 470.41 445.04 470.41 446.14V447.26C470.03 446.92 469.09 446.54 468.17 446.54C466.27 446.54 464.77 447.66 464.77 449.32C464.77 451.08 466.27 452.16 468.07 452.16C469.13 452.16 470.07 451.7 470.41 451.34V452H471.85ZM470.41 449.8C470.15 450.46 469.25 450.9 468.33 450.9C467.25 450.9 466.21 450.4 466.21 449.32C466.21 448.26 467.25 447.78 468.33 447.78C469.25 447.78 470.15 448.22 470.41 448.88V449.8ZM476.878 455.4L481.658 443.12H480.098L477.518 450.12L474.898 443.12H473.278L476.738 452.06L475.398 455.4H476.878ZM487.92 443.08C487.76 443 487.44 442.94 487.06 442.94C486.08 442.94 485.24 443.52 484.86 444.28V443.12H483.36V452H484.86V446.04C485.16 445 485.98 444.38 486.92 444.38C487.3 444.38 487.68 444.46 487.92 444.62V443.08ZM497.051 447.56C497.051 444.84 495.391 442.94 492.971 442.94C490.531 442.94 488.891 444.84 488.891 447.56C488.891 450.28 490.531 452.18 492.971 452.18C495.391 452.18 497.051 450.28 497.051 447.56ZM495.531 447.56C495.531 449.5 494.571 450.86 492.971 450.86C491.371 450.86 490.411 449.5 490.411 447.56C490.411 445.62 491.371 444.26 492.971 444.26C494.571 444.26 495.531 445.62 495.531 447.56ZM500.582 439H499.082V452H500.582V439ZM504.762 439H503.262V452H504.762V439ZM516.416 443.08C516.256 443 515.936 442.94 515.556 442.94C514.576 442.94 513.736 443.52 513.356 444.28V443.12H511.856V452H513.356V446.04C513.656 445 514.476 444.38 515.416 444.38C515.796 444.38 516.176 444.46 516.416 444.62V443.08ZM523.628 449.34C523.388 450.34 522.567 450.9 521.468 450.9C519.968 450.9 518.908 449.74 518.888 447.84H525.168V447.3C525.168 444.72 523.868 442.94 521.428 442.94C519.008 442.94 517.388 444.92 517.388 447.58C517.388 450.32 519.048 452.18 521.468 452.18C523.468 452.18 524.728 451.02 525.048 449.34H523.628ZM521.448 444.22C522.928 444.22 523.628 445.38 523.648 446.7H518.928C519.148 445.14 520.108 444.22 521.448 444.22ZM526.567 447.56C526.567 450.32 528.227 452.18 530.607 452.18C532.607 452.18 533.867 451.02 534.167 449.32H532.627C532.427 450.28 531.667 450.86 530.607 450.86C529.087 450.86 528.087 449.5 528.087 447.56C528.087 445.62 529.087 444.26 530.607 444.26C531.667 444.26 532.427 444.84 532.627 445.8H534.167C533.867 444.1 532.607 442.94 530.607 442.94C528.227 442.94 526.567 444.8 526.567 447.56ZM543.614 447.56C543.614 444.84 541.954 442.94 539.534 442.94C537.094 442.94 535.454 444.84 535.454 447.56C535.454 450.28 537.094 452.18 539.534 452.18C541.954 452.18 543.614 450.28 543.614 447.56ZM542.094 447.56C542.094 449.5 541.134 450.86 539.534 450.86C537.934 450.86 536.974 449.5 536.974 447.56C536.974 445.62 537.934 444.26 539.534 444.26C541.134 444.26 542.094 445.62 542.094 447.56ZM550.205 443.08C550.045 443 549.725 442.94 549.345 442.94C548.365 442.94 547.525 443.52 547.145 444.28V443.12H545.645V452H547.145V446.04C547.445 445 548.265 444.38 549.205 444.38C549.585 444.38 549.965 444.46 550.205 444.62V443.08ZM557.677 452H559.197V439H557.677V444.16C557.237 443.52 556.277 442.94 555.177 442.94C552.577 442.94 551.177 445.06 551.177 447.56C551.177 450.08 552.577 452.18 555.177 452.18C556.277 452.18 557.237 451.6 557.677 450.96V452ZM557.677 449.36C557.217 450.28 556.337 450.82 555.397 450.82C553.697 450.82 552.697 449.44 552.697 447.56C552.697 445.68 553.697 444.3 555.397 444.3C556.337 444.3 557.217 444.84 557.677 445.76V449.36ZM561.116 449.56C561.396 451.2 562.816 452.18 564.756 452.18C566.656 452.18 568.056 451.18 568.056 449.5C568.056 448.26 567.316 447.42 565.796 447.02L564.076 446.6C563.236 446.36 562.836 446.08 562.836 445.48C562.836 444.62 563.656 444.2 564.536 444.2C565.616 444.2 566.236 444.66 566.496 445.46H567.996C567.676 443.9 566.516 442.94 564.556 442.94C562.756 442.94 561.376 443.98 561.376 445.56C561.376 446.94 562.256 447.58 563.516 447.9L565.276 448.36C566.196 448.6 566.596 448.98 566.596 449.6C566.596 450.5 565.836 450.92 564.776 450.92C563.736 450.92 562.956 450.48 562.676 449.56H561.116ZM574.971 449.76C574.971 451.4 575.971 452.18 577.411 452.18C577.951 452.18 578.471 452.06 578.811 451.88V450.48C578.511 450.68 578.071 450.84 577.651 450.84C576.891 450.84 576.471 450.46 576.471 449.6V444.4H578.611V443.12H576.471V440.78H574.971V443.12H573.531V444.4H574.971V449.76ZM580.899 452H582.399V445.98C582.719 445.02 583.619 444.32 584.659 444.32C585.999 444.32 586.619 445.18 586.619 446.42V452H588.139V446.18C588.139 444.24 587.039 442.94 585.019 442.94C583.879 442.94 582.919 443.54 582.399 444.24V439H580.899V452ZM597.124 452V446.08C597.124 444.14 595.864 442.94 593.744 442.94C592.044 442.94 590.724 443.96 590.424 445.46H591.904C592.184 444.64 592.784 444.24 593.724 444.24C595.004 444.24 595.684 445.04 595.684 446.14V447.26C595.304 446.92 594.364 446.54 593.444 446.54C591.544 446.54 590.044 447.66 590.044 449.32C590.044 451.08 591.544 452.16 593.344 452.16C594.404 452.16 595.344 451.7 595.684 451.34V452H597.124ZM595.684 449.8C595.424 450.46 594.524 450.9 593.604 450.9C592.524 450.9 591.484 450.4 591.484 449.32C591.484 448.26 592.524 447.78 593.604 447.78C594.524 447.78 595.424 448.22 595.684 448.88V449.8ZM600.049 449.76C600.049 451.4 601.049 452.18 602.489 452.18C603.029 452.18 603.549 452.06 603.889 451.88V450.48C603.589 450.68 603.149 450.84 602.729 450.84C601.969 450.84 601.549 450.46 601.549 449.6V444.4H603.689V443.12H601.549V440.78H600.049V443.12H598.609V444.4H600.049V449.76ZM609.651 449.56C609.931 451.2 611.351 452.18 613.291 452.18C615.191 452.18 616.591 451.18 616.591 449.5C616.591 448.26 615.851 447.42 614.331 447.02L612.611 446.6C611.771 446.36 611.371 446.08 611.371 445.48C611.371 444.62 612.191 444.2 613.071 444.2C614.151 444.2 614.771 444.66 615.031 445.46H616.531C616.211 443.9 615.051 442.94 613.091 442.94C611.291 442.94 609.911 443.98 609.911 445.56C609.911 446.94 610.791 447.58 612.051 447.9L613.811 448.36C614.731 448.6 615.131 448.98 615.131 449.6C615.131 450.5 614.371 450.92 613.311 450.92C612.271 450.92 611.491 450.48 611.211 449.56H609.651ZM618.672 452H620.172V445.98C620.492 445.02 621.392 444.32 622.432 444.32C623.772 444.32 624.392 445.18 624.392 446.42V452H625.912V446.18C625.912 444.24 624.812 442.94 622.792 442.94C621.652 442.94 620.692 443.54 620.172 444.24V439H618.672V452ZM635.977 447.56C635.977 444.84 634.317 442.94 631.897 442.94C629.457 442.94 627.817 444.84 627.817 447.56C627.817 450.28 629.457 452.18 631.897 452.18C634.317 452.18 635.977 450.28 635.977 447.56ZM634.457 447.56C634.457 449.5 633.497 450.86 631.897 450.86C630.297 450.86 629.337 449.5 629.337 447.56C629.337 445.62 630.297 444.26 631.897 444.26C633.497 444.26 634.457 445.62 634.457 447.56ZM643.648 443.12H642.308L640.488 449.9L638.528 443.12H637.028L639.648 452H641.108L642.968 445.26L644.808 452H646.268L648.888 443.12H647.428L645.468 449.9L643.648 443.12ZM661.42 445.64C662.38 445.34 663.22 444.44 663.22 442.98C663.22 440.86 661.7 439.72 659.16 439.72H655.12V452H659.56C662.08 452 663.64 450.78 663.64 448.54C663.64 447.16 662.74 445.98 661.42 445.64ZM656.66 445.06V441.1H659.16C660.8 441.1 661.7 441.72 661.7 443.06C661.7 444.4 660.8 445.06 659.16 445.06H656.66ZM656.66 446.38H659.56C661.22 446.38 662.1 447.2 662.1 448.5C662.1 449.78 661.22 450.62 659.56 450.62H656.66V446.38ZM673.34 447.56C673.34 444.84 671.68 442.94 669.26 442.94C666.82 442.94 665.18 444.84 665.18 447.56C665.18 450.28 666.82 452.18 669.26 452.18C671.68 452.18 673.34 450.28 673.34 447.56ZM671.82 447.56C671.82 449.5 670.86 450.86 669.26 450.86C667.66 450.86 666.7 449.5 666.7 447.56C666.7 445.62 667.66 444.26 669.26 444.26C670.86 444.26 671.82 445.62 671.82 447.56ZM676.871 450.96C677.311 451.6 678.271 452.18 679.371 452.18C681.971 452.18 683.371 450.08 683.371 447.56C683.371 445.06 681.971 442.94 679.371 442.94C678.271 442.94 677.311 443.52 676.871 444.16V439H675.351V452H676.871V450.96ZM676.871 445.76C677.331 444.84 678.211 444.3 679.151 444.3C680.851 444.3 681.851 445.68 681.851 447.56C681.851 449.44 680.851 450.82 679.151 450.82C678.211 450.82 677.331 450.28 676.871 449.36V445.76ZM684.87 444.1H686.23V439.72H684.87V444.1ZM687.639 449.56C687.919 451.2 689.339 452.18 691.279 452.18C693.179 452.18 694.579 451.18 694.579 449.5C694.579 448.26 693.839 447.42 692.319 447.02L690.599 446.6C689.759 446.36 689.359 446.08 689.359 445.48C689.359 444.62 690.179 444.2 691.059 444.2C692.139 444.2 692.759 444.66 693.019 445.46H694.519C694.199 443.9 693.039 442.94 691.079 442.94C689.279 442.94 687.899 443.98 687.899 445.56C687.899 446.94 688.779 447.58 690.039 447.9L691.799 448.36C692.719 448.6 693.119 448.98 693.119 449.6C693.119 450.5 692.359 450.92 691.299 450.92C690.259 450.92 689.479 450.48 689.199 449.56H687.639ZM54.84 477.96C55.28 478.6 56.24 479.18 57.34 479.18C59.94 479.18 61.34 477.08 61.34 474.56C61.34 472.06 59.94 469.94 57.34 469.94C56.24 469.94 55.28 470.52 54.84 471.16V466H53.32V479H54.84V477.96ZM54.84 472.76C55.3 471.84 56.18 471.3 57.12 471.3C58.82 471.3 59.82 472.68 59.82 474.56C59.82 476.44 58.82 477.82 57.12 477.82C56.18 477.82 55.3 477.28 54.84 476.36V472.76ZM70.9381 474.56C70.9381 471.84 69.2781 469.94 66.8581 469.94C64.4181 469.94 62.7781 471.84 62.7781 474.56C62.7781 477.28 64.4181 479.18 66.8581 479.18C69.2781 479.18 70.9381 477.28 70.9381 474.56ZM69.4181 474.56C69.4181 476.5 68.4581 477.86 66.8581 477.86C65.2581 477.86 64.2981 476.5 64.2981 474.56C64.2981 472.62 65.2581 471.26 66.8581 471.26C68.4581 471.26 69.4181 472.62 69.4181 474.56ZM72.9689 479H74.4689V472.98C74.7889 472.02 75.6889 471.32 76.7289 471.32C78.0689 471.32 78.6889 472.18 78.6889 473.42V479H80.2089V473.18C80.2089 471.24 79.1089 469.94 77.0889 469.94C75.9489 469.94 74.9889 470.54 74.4689 471.24V470.12H72.9689V479ZM89.8341 470.12H88.3141V476.14C87.9941 477.1 87.1341 477.8 86.0941 477.8C84.7541 477.8 84.1541 476.94 84.1541 475.7V470.12H82.6341V475.94C82.6341 477.88 83.7141 479.18 85.7341 479.18C86.8741 479.18 87.8141 478.58 88.3141 477.88V479H89.8341V470.12ZM91.7602 476.56C92.0402 478.2 93.4602 479.18 95.4002 479.18C97.3002 479.18 98.7002 478.18 98.7002 476.5C98.7002 475.26 97.9602 474.42 96.4402 474.02L94.7202 473.6C93.8802 473.36 93.4802 473.08 93.4802 472.48C93.4802 471.62 94.3002 471.2 95.1802 471.2C96.2602 471.2 96.8802 471.66 97.1402 472.46H98.6402C98.3202 470.9 97.1602 469.94 95.2002 469.94C93.4002 469.94 92.0202 470.98 92.0202 472.56C92.0202 473.94 92.9002 474.58 94.1602 474.9L95.9202 475.36C96.8402 475.6 97.2402 475.98 97.2402 476.6C97.2402 477.5 96.4802 477.92 95.4202 477.92C94.3802 477.92 93.6002 477.48 93.3202 476.56H91.7602ZM106.695 470.12H105.195V479H106.695V470.12ZM106.915 467.44C106.915 466.9 106.475 466.48 105.935 466.48C105.415 466.48 104.975 466.9 104.975 467.44C104.975 467.96 105.415 468.4 105.935 468.4C106.475 468.4 106.915 467.96 106.915 467.44ZM108.635 476.56C108.915 478.2 110.335 479.18 112.275 479.18C114.175 479.18 115.575 478.18 115.575 476.5C115.575 475.26 114.835 474.42 113.315 474.02L111.595 473.6C110.755 473.36 110.355 473.08 110.355 472.48C110.355 471.62 111.175 471.2 112.055 471.2C113.135 471.2 113.755 471.66 114.015 472.46H115.515C115.195 470.9 114.035 469.94 112.075 469.94C110.275 469.94 108.895 470.98 108.895 472.56C108.895 473.94 109.775 474.58 111.035 474.9L112.795 475.36C113.715 475.6 114.115 475.98 114.115 476.6C114.115 477.5 113.355 477.92 112.295 477.92C111.255 477.92 110.475 477.48 110.195 476.56H108.635ZM117.656 479H119.156V472.98C119.476 472.02 120.376 471.32 121.416 471.32C122.756 471.32 123.376 472.18 123.376 473.42V479H124.896V473.18C124.896 471.24 123.796 469.94 121.776 469.94C120.636 469.94 119.676 470.54 119.156 471.24V470.12H117.656V479ZM126.902 471.1H128.262V466.72H126.902V471.1ZM130.83 476.76C130.83 478.4 131.83 479.18 133.27 479.18C133.81 479.18 134.33 479.06 134.67 478.88V477.48C134.37 477.68 133.93 477.84 133.51 477.84C132.75 477.84 132.33 477.46 132.33 476.6V471.4H134.47V470.12H132.33V467.78H130.83V470.12H129.39V471.4H130.83V476.76ZM147.032 479H148.552V466H147.032V471.16C146.592 470.52 145.632 469.94 144.532 469.94C141.932 469.94 140.532 472.06 140.532 474.56C140.532 477.08 141.932 479.18 144.532 479.18C145.632 479.18 146.592 478.6 147.032 477.96V479ZM147.032 476.36C146.572 477.28 145.692 477.82 144.752 477.82C143.052 477.82 142.052 476.44 142.052 474.56C142.052 472.68 143.052 471.3 144.752 471.3C145.692 471.3 146.572 471.84 147.032 472.76V476.36ZM158.291 470.12H156.771V476.14C156.451 477.1 155.591 477.8 154.551 477.8C153.211 477.8 152.611 476.94 152.611 475.7V470.12H151.091V475.94C151.091 477.88 152.171 479.18 154.191 479.18C155.331 479.18 156.271 478.58 156.771 477.88V479H158.291V470.12ZM166.557 476.34C166.317 477.34 165.497 477.9 164.397 477.9C162.897 477.9 161.837 476.74 161.817 474.84H168.097V474.3C168.097 471.72 166.797 469.94 164.357 469.94C161.937 469.94 160.317 471.92 160.317 474.58C160.317 477.32 161.977 479.18 164.397 479.18C166.397 479.18 167.657 478.02 167.977 476.34H166.557ZM164.377 471.22C165.857 471.22 166.557 472.38 166.577 473.7H161.857C162.077 472.14 163.037 471.22 164.377 471.22ZM181.592 470.12H180.072V476.14C179.752 477.1 178.892 477.8 177.852 477.8C176.512 477.8 175.912 476.94 175.912 475.7V470.12H174.392V475.94C174.392 477.88 175.472 479.18 177.492 479.18C178.632 479.18 179.572 478.58 180.072 477.88V479H181.592V470.12ZM184.258 479H185.758V472.98C186.078 472.02 186.978 471.32 188.018 471.32C189.358 471.32 189.978 472.18 189.978 473.42V479H191.498V473.18C191.498 471.24 190.398 469.94 188.378 469.94C187.238 469.94 186.278 470.54 185.758 471.24V470.12H184.258V479ZM194.463 476.76C194.463 478.4 195.463 479.18 196.903 479.18C197.443 479.18 197.963 479.06 198.303 478.88V477.48C198.003 477.68 197.563 477.84 197.143 477.84C196.383 477.84 195.963 477.46 195.963 476.6V471.4H198.103V470.12H195.963V467.78H194.463V470.12H193.023V471.4H194.463V476.76ZM201.891 470.12H200.391V479H201.891V470.12ZM202.111 467.44C202.111 466.9 201.671 466.48 201.131 466.48C200.611 466.48 200.171 466.9 200.171 467.44C200.171 467.96 200.611 468.4 201.131 468.4C201.671 468.4 202.111 467.96 202.111 467.44ZM206.07 466H204.57V479H206.07V466ZM213.164 479H214.664V472.98C214.984 472.02 215.884 471.32 216.924 471.32C218.264 471.32 218.884 472.18 218.884 473.42V479H220.404V473.18C220.404 471.24 219.304 469.94 217.284 469.94C216.144 469.94 215.184 470.54 214.664 471.24V470.12H213.164V479ZM228.549 476.34C228.309 477.34 227.489 477.9 226.389 477.9C224.889 477.9 223.829 476.74 223.809 474.84H230.089V474.3C230.089 471.72 228.789 469.94 226.349 469.94C223.929 469.94 222.309 471.92 222.309 474.58C222.309 477.32 223.969 479.18 226.389 479.18C228.389 479.18 229.649 478.02 229.969 476.34H228.549ZM226.369 471.22C227.849 471.22 228.549 472.38 228.569 473.7H223.849C224.069 472.14 225.029 471.22 226.369 471.22ZM238.995 470.12H237.355L235.055 473.3L232.815 470.12H231.095L234.195 474.46L230.915 479H232.535L235.015 475.54L237.475 479H239.175L235.875 474.4L238.995 470.12ZM241.299 476.76C241.299 478.4 242.299 479.18 243.739 479.18C244.279 479.18 244.799 479.06 245.139 478.88V477.48C244.839 477.68 244.399 477.84 243.979 477.84C243.219 477.84 242.799 477.46 242.799 476.6V471.4H244.939V470.12H242.799V467.78H241.299V470.12H239.859V471.4H241.299V476.76ZM257.941 471.36C257.521 470.52 256.661 469.94 255.541 469.94C254.441 469.94 253.581 470.46 253.141 471.16V470.12H251.641V479H253.141V472.88C253.421 471.92 254.201 471.3 255.101 471.3C256.241 471.3 256.781 472.12 256.781 473.36V479H258.281V472.88C258.561 471.92 259.341 471.3 260.241 471.3C261.381 471.3 261.921 472.12 261.921 473.36V479H263.441V473.12C263.441 471.2 262.441 469.94 260.641 469.94C259.401 469.94 258.501 470.56 257.941 471.36ZM273.497 474.56C273.497 471.84 271.837 469.94 269.417 469.94C266.977 469.94 265.337 471.84 265.337 474.56C265.337 477.28 266.977 479.18 269.417 479.18C271.837 479.18 273.497 477.28 273.497 474.56ZM271.977 474.56C271.977 476.5 271.017 477.86 269.417 477.86C267.817 477.86 266.857 476.5 266.857 474.56C266.857 472.62 267.817 471.26 269.417 471.26C271.017 471.26 271.977 472.62 271.977 474.56ZM275.528 479H277.028V472.98C277.348 472.02 278.248 471.32 279.288 471.32C280.628 471.32 281.248 472.18 281.248 473.42V479H282.768V473.18C282.768 471.24 281.668 469.94 279.648 469.94C278.508 469.94 277.548 470.54 277.028 471.24V470.12H275.528V479ZM285.733 476.76C285.733 478.4 286.733 479.18 288.173 479.18C288.713 479.18 289.233 479.06 289.573 478.88V477.48C289.273 477.68 288.833 477.84 288.413 477.84C287.653 477.84 287.233 477.46 287.233 476.6V471.4H289.373V470.12H287.233V467.78H285.733V470.12H284.293V471.4H285.733V476.76ZM291.66 479H293.16V472.98C293.48 472.02 294.38 471.32 295.42 471.32C296.76 471.32 297.38 472.18 297.38 473.42V479H298.9V473.18C298.9 471.24 297.8 469.94 295.78 469.94C294.64 469.94 293.68 470.54 293.16 471.24V466H291.66V479ZM300.745 478.02C300.745 478.64 301.225 479.1 301.825 479.1C302.405 479.1 302.885 478.64 302.885 478.02C302.885 477.4 302.405 476.92 301.825 476.92C301.225 476.92 300.745 477.4 300.745 478.02Z" fill="#1C1C1C"/>
<defs>
<filter id="filter0_d" x="0" y="0" width="782" height="534" filterUnits="userSpaceOnUse" color-interpolation-filters="sRGB">
<feFlood flood-opacity="0" result="BackgroundImageFix"/>
<feColorMatrix in="SourceAlpha" type="matrix" values="0 0 0 0 0 0 0 0 0 0 0 0 0 0 0 0 0 0 127 0"/>
<feOffset dy="3"/>
<feGaussianBlur stdDeviation="8.5"/>
<feColorMatrix type="matrix" values="0 0 0 0 0 0 0 0 0 0 0 0 0 0 0 0 0 0 0.1 0"/>
<feBlend mode="normal" in2="BackgroundImageFix" result="effect1_dropShadow"/>
<feBlend mode="normal" in="SourceGraphic" in2="effect1_dropShadow" result="shape"/>
</filter>
<linearGradient id="paint0_linear" x1="750" y1="408.937" x2="687.559" y2="649.81" gradientUnits="userSpaceOnUse">
<stop stop-color="#FFF8F0"/>
<stop offset="1" stop-color="#FFF3F1"/>
</linearGradient>
<clipPath id="clip0">
<rect width="56" height="56" fill="white" transform="translate(370 194)"/>
</clipPath>
</defs>
</svg>
