<svg width="422" height="319" viewBox="0 0 422 319" fill="none" xmlns="http://www.w3.org/2000/svg">
<path opacity="0.5" d="M83 184.5L80.4715 187.59L77.1279 164.472L101.475 134.653L128.964 100.881L159.986 63.5753L161.95 63.5753L264.443 62.3973L294.68 99.7032L284.47 113.84L280.936 109.521L281.329 96.169L260.909 70.6438L164.306 69.4658L133.676 108.342L110.507 137.009L81 172.5L83 184.5Z" fill="url(#paint0_linear)"/>
<path d="M185.271 119.47L134.413 186.049L133.283 184.918L131.712 182.966L128.178 177.064L125.822 172.352L130.406 166.069L185.271 96.3521L281.329 95.7763L280.516 119.47H185.271Z" fill="url(#paint1_linear)" fill-opacity="0.5"/>
<g opacity="0.2">
<path d="M137.603 191.594L136.57 175.877L158.416 206.516H263.658L309.603 138.187L328.452 109.913L335.999 100.051L333.533 118.237L269.548 214.37H152.132L137.603 191.594Z" fill="url(#paint2_linear)"/>
<path d="M84.4786 194.987L81.088 172.486L94.0137 191.594L128.178 247.749L293.11 246.571L316.279 210.443L346.123 163.32L364.664 134.573L360.657 156.766L290.996 268.347H129.481L84.4786 194.987Z" fill="url(#paint3_linear)"/>
</g>
<g opacity="0.2">
<path d="M137.603 191.594L136.57 175.877L158.416 206.516H263.658L309.603 138.187L328.452 109.913L335.999 100.051L333.533 118.237L269.548 214.37H152.132L137.603 191.594Z" fill="url(#paint4_linear)"/>
<path d="M84.4786 194.987L81.088 172.486L94.0137 191.594L128.178 247.749L293.11 246.571L316.279 210.443L346.123 163.32L364.664 134.573L360.657 156.766L290.996 268.347H129.481L84.4786 194.987Z" fill="url(#paint5_linear)"/>
</g>
<path opacity="0.5" d="M62.2856 158.307L58.2786 135.806L77.1279 164.498L80.4715 187.898L62.2856 158.307Z" fill="url(#paint6_linear)"/>
<path d="M158.147 207.009L136.879 175.569L240.754 174.644L293.77 99.7427L264.488 63.371L160.304 64.2957L77.0809 165.705L58.2786 135.806L141.194 37.4792H284.215L335.999 99.7427L264.18 207.009H158.147Z" fill="url(#paint7_linear)"/>
<path d="M158.545 206.259L138.283 176.306L240.761 175.394L241.144 175.39L241.366 175.077L294.382 100.176L294.71 99.7137L294.354 99.2724L265.072 62.9006L264.844 62.6178L264.481 62.621L160.298 63.5457L159.947 63.5488L159.725 63.8199L77.1616 164.425L59.2052 135.871L141.542 38.2292H283.863L335.063 99.7913L263.779 206.259H158.545Z" stroke="#FF8989" stroke-width="1.5"/>
<path d="M260.789 69.5357L281.749 96.0439L184.963 97.2768L126.399 172.486L152.907 213.482H269.42L341.239 105.907L364.973 134.573L293.462 247.387L127.94 248.004L81.088 172.486L164.312 69.5357H260.789Z" fill="url(#paint8_linear)"/>
<path d="M260.426 70.2857L280.215 95.3134L184.954 96.5269L184.593 96.5315L184.372 96.8161L125.807 172.025L125.479 172.446L125.769 172.893L152.277 213.889L152.499 214.232H152.907H269.42H269.821L270.044 213.898L341.303 107.161L364.048 134.632L293.049 246.639L128.356 247.252L82.0061 172.543L164.67 70.2857H260.426Z" stroke="#FF8989" stroke-width="1.5"/>
<path d="M421.25 159.5C421.25 203.258 397.788 242.929 359.747 271.685C321.706 300.442 269.118 318.25 211 318.25C152.882 318.25 100.294 300.442 62.2527 271.685C24.2116 242.929 0.75 203.258 0.75 159.5C0.75 115.742 24.2116 76.071 62.2527 47.3148C100.294 18.5582 152.882 0.75 211 0.75C269.118 0.75 321.706 18.5582 359.747 47.3148C397.788 76.071 421.25 115.742 421.25 159.5Z" stroke="url(#paint9_linear)" stroke-width="1.5"/>
<defs>
<linearGradient id="paint0_linear" x1="194.21" y1="91.4204" x2="139.954" y2="180.965" gradientUnits="userSpaceOnUse">
<stop stop-color="#FFC58F"/>
<stop offset="1" stop-color="#FF7C7C"/>
</linearGradient>
<linearGradient id="paint1_linear" x1="71.2244" y1="239.682" x2="206.102" y2="56.844" gradientUnits="userSpaceOnUse">
<stop stop-color="#FFC58F"/>
<stop offset="1" stop-color="#FF7C7C"/>
</linearGradient>
<linearGradient id="paint2_linear" x1="81" y1="206" x2="303.711" y2="53.2854" gradientUnits="userSpaceOnUse">
<stop stop-color="#FFC58F"/>
<stop offset="1" stop-color="#FF7C7C"/>
</linearGradient>
<linearGradient id="paint3_linear" x1="81" y1="206" x2="303.711" y2="53.2854" gradientUnits="userSpaceOnUse">
<stop stop-color="#FFC58F"/>
<stop offset="1" stop-color="#FF7C7C"/>
</linearGradient>
<linearGradient id="paint4_linear" x1="81" y1="206" x2="303.711" y2="53.2854" gradientUnits="userSpaceOnUse">
<stop stop-color="#FFC58F"/>
<stop offset="1" stop-color="#FF7C7C"/>
</linearGradient>
<linearGradient id="paint5_linear" x1="81" y1="206" x2="303.711" y2="53.2854" gradientUnits="userSpaceOnUse">
<stop stop-color="#FFC58F"/>
<stop offset="1" stop-color="#FF7C7C"/>
</linearGradient>
<linearGradient id="paint6_linear" x1="34" y1="200" x2="284.352" y2="219.747" gradientUnits="userSpaceOnUse">
<stop stop-color="#FFC58F"/>
<stop offset="1" stop-color="#FF7C7C"/>
</linearGradient>
<linearGradient id="paint7_linear" x1="58.2786" y1="182.59" x2="247.686" y2="-28.6589" gradientUnits="userSpaceOnUse">
<stop stop-color="#FFC58F" stop-opacity="0"/>
<stop offset="1" stop-color="#FF7C7C" stop-opacity="0.84"/>
</linearGradient>
<linearGradient id="paint8_linear" x1="81.088" y1="222.298" x2="348.643" y2="-285.737" gradientUnits="userSpaceOnUse">
<stop stop-color="#FFC58F" stop-opacity="0.78"/>
<stop offset="1" stop-color="#FF7C7C" stop-opacity="0"/>
</linearGradient>
<linearGradient id="paint9_linear" x1="41" y1="-39" x2="451" y2="394" gradientUnits="userSpaceOnUse">
<stop stop-color="#FF8989"/>
<stop offset="1" stop-color="#FF8989" stop-opacity="0"/>
</linearGradient>
</defs>
</svg>
