<svg width="1440" height="2292" viewBox="0 0 1440 2292" fill="none" xmlns="http://www.w3.org/2000/svg">
<rect width="1440" height="2292" fill="#F9FAFC"/>
<mask id="mask0" mask-type="alpha" maskUnits="userSpaceOnUse" x="0" y="0" width="1440" height="2292">
<rect width="1440" height="2292" fill="#1C1C1C"/>
</mask>
<g mask="url(#mask0)">
<g opacity="0.8">
<path fill-rule="evenodd" clip-rule="evenodd" d="M504.508 338.189C504.556 338.16 504.61 338.131 504.661 338.102C504.669 338.097 504.674 338.094 504.682 338.089C504.701 338.081 504.717 338.07 504.731 338.062C504.642 338.113 504.57 338.152 504.508 338.189Z" fill="#2B2C2A"/>
<path fill-rule="evenodd" clip-rule="evenodd" d="M504.508 338.189C504.556 338.16 504.61 338.131 504.661 338.102C504.669 338.097 504.674 338.094 504.682 338.089C504.701 338.081 504.717 338.07 504.731 338.062C504.642 338.113 504.57 338.152 504.508 338.189Z" stroke="#F8F2E6" stroke-width="0.8" stroke-linecap="round" stroke-linejoin="round"/>
<path fill-rule="evenodd" clip-rule="evenodd" d="M504.809 338.025C504.817 338.02 504.825 338.017 504.833 338.012C504.995 337.917 505.082 337.869 505.112 337.85C505.12 337.847 505.123 337.845 505.126 337.845C505.008 337.912 504.899 337.974 504.809 338.025Z" fill="#2B2C2A"/>
<path fill-rule="evenodd" clip-rule="evenodd" d="M504.809 338.025C504.817 338.02 504.825 338.017 504.833 338.012C504.995 337.917 505.082 337.869 505.112 337.85C505.12 337.847 505.123 337.845 505.126 337.845C505.008 337.912 504.899 337.974 504.809 338.025Z" stroke="#F8F2E6" stroke-width="0.8" stroke-linecap="round" stroke-linejoin="round"/>
<path fill-rule="evenodd" clip-rule="evenodd" d="M656.777 252.165C536.135 320.332 509.897 335.156 505.151 337.84C505.154 337.837 505.148 337.843 505.13 337.848C505.085 337.875 504.965 337.945 504.824 338.025C504.785 338.045 504.74 338.072 504.695 338.095C504.686 338.098 504.68 338.104 504.671 338.11C504.575 338.166 504.455 338.233 504.317 338.309C504.305 338.315 504.296 338.321 504.29 338.327C504.278 338.333 504.269 338.339 504.26 338.342C504.194 338.38 504.206 338.374 504.26 338.342C504.266 338.339 504.278 338.333 504.29 338.327C504.293 338.324 504.296 338.321 504.299 338.318C499.796 340.864 474.11 355.376 353.654 423.438C167.072 317.951 229.373 353.163 50.5673 252.156C108.518 219.414 295.832 113.574 353.69 80.8849C540.947 186.754 469.544 146.399 656.777 252.165ZM-100.996 -4.73737C-101.02 405.479 -100.93 131.783 -100.978 509.061C249.632 707.117 4.48134 568.711 353.672 765.96C399.767 739.923 755.495 538.925 808.342 509.061C808.364 98.8443 808.274 372.54 808.322 -4.73737C454.853 -204.399 700.607 -65.6621 353.672 -261.636C42.7673 -85.9703 158.111 -151.143 -100.996 -4.73737Z" stroke="#F8F2E6" stroke-width="0.8" stroke-linecap="round" stroke-linejoin="round"/>
<path opacity="0.3" fill-rule="evenodd" clip-rule="evenodd" d="M353.686 765.961C399.769 739.924 755.506 538.921 808.339 509.068L808.36 337.788C752.299 369.464 409.741 563.022 353.707 594.681C309.856 569.913 94.582 448.307 50.554 423.437L50.575 252.157C108.622 219.362 295.744 113.631 353.698 80.8859C539.986 186.206 470.182 146.758 656.785 252.166L656.806 80.8889C612.952 56.1179 397.681 -65.4848 353.653 -90.3585C305.065 -62.9041 -53.795 139.864 -101 166.535C-100.943 377.033 -100.949 299.385 -100.973 509.056C249.64 707.112 4.492 568.706 353.686 765.961Z" stroke="#FF8A8A"/>
<path opacity="0.3" fill-rule="evenodd" clip-rule="evenodd" d="M353.653 -90.3596C397.504 -65.5887 612.778 56.017 656.806 80.8878L656.785 252.165C345.505 428.048 665.032 247.505 353.662 423.438C167.419 318.142 236.125 356.973 50.575 252.156L50.554 423.435C94.408 448.206 309.679 569.809 353.707 594.68C409.75 563.015 752.323 369.451 808.36 337.787C808.303 127.291 808.309 204.936 808.333 -4.73149C454.858 -204.405 700.615 -65.6562 353.674 -261.636C42.772 -85.9674 158.119 -151.143 -100.979 -4.74325L-101 166.534C-54.218 140.101 308.704 -64.9604 353.653 -90.3596Z" stroke="url(#paint0_linear)" stroke-opacity="0.5"/>
</g>
<g opacity="0.8">
<path fill-rule="evenodd" clip-rule="evenodd" d="M1180.51 1212.19C1180.56 1212.16 1180.61 1212.13 1180.66 1212.1C1180.67 1212.1 1180.67 1212.09 1180.68 1212.09C1180.7 1212.08 1180.72 1212.07 1180.73 1212.06C1180.64 1212.11 1180.57 1212.15 1180.51 1212.19Z" fill="#2B2C2A"/>
<path fill-rule="evenodd" clip-rule="evenodd" d="M1180.51 1212.19C1180.56 1212.16 1180.61 1212.13 1180.66 1212.1C1180.67 1212.1 1180.67 1212.09 1180.68 1212.09C1180.7 1212.08 1180.72 1212.07 1180.73 1212.06C1180.64 1212.11 1180.57 1212.15 1180.51 1212.19Z" stroke="#F8F2E6" stroke-width="0.8" stroke-linecap="round" stroke-linejoin="round"/>
<path fill-rule="evenodd" clip-rule="evenodd" d="M1180.81 1212.02C1180.82 1212.02 1180.83 1212.02 1180.83 1212.01C1180.99 1211.92 1181.08 1211.87 1181.11 1211.85C1181.12 1211.85 1181.12 1211.84 1181.13 1211.84C1181.01 1211.91 1180.9 1211.97 1180.81 1212.02Z" fill="#2B2C2A"/>
<path fill-rule="evenodd" clip-rule="evenodd" d="M1180.81 1212.02C1180.82 1212.02 1180.83 1212.02 1180.83 1212.01C1180.99 1211.92 1181.08 1211.87 1181.11 1211.85C1181.12 1211.85 1181.12 1211.84 1181.13 1211.84C1181.01 1211.91 1180.9 1211.97 1180.81 1212.02Z" stroke="#F8F2E6" stroke-width="0.8" stroke-linecap="round" stroke-linejoin="round"/>
<path fill-rule="evenodd" clip-rule="evenodd" d="M1332.78 1126.16C1212.14 1194.33 1185.9 1209.16 1181.15 1211.84C1181.15 1211.84 1181.15 1211.84 1181.13 1211.85C1181.09 1211.87 1180.97 1211.95 1180.82 1212.02C1180.79 1212.05 1180.74 1212.07 1180.7 1212.09C1180.69 1212.1 1180.68 1212.1 1180.67 1212.11C1180.58 1212.17 1180.46 1212.23 1180.32 1212.31C1180.31 1212.32 1180.3 1212.32 1180.29 1212.33C1180.28 1212.33 1180.27 1212.34 1180.26 1212.34C1180.19 1212.38 1180.21 1212.37 1180.26 1212.34C1180.27 1212.34 1180.28 1212.33 1180.29 1212.33C1180.29 1212.32 1180.3 1212.32 1180.3 1212.32C1175.8 1214.86 1150.11 1229.38 1029.65 1297.44C843.072 1191.95 905.373 1227.16 726.567 1126.16C784.518 1093.41 971.832 987.574 1029.69 954.885C1216.95 1060.75 1145.54 1020.4 1332.78 1126.16ZM575.004 869.263C574.98 1279.48 575.07 1005.78 575.022 1383.06C925.632 1581.12 680.481 1442.71 1029.67 1639.96C1075.77 1613.92 1431.5 1412.93 1484.34 1383.06C1484.36 972.844 1484.27 1246.54 1484.32 869.263C1130.85 669.601 1376.61 808.338 1029.67 612.364C718.767 788.03 834.111 722.857 575.004 869.263Z" stroke="#F8F2E6" stroke-width="0.8" stroke-linecap="round" stroke-linejoin="round"/>
<path opacity="0.3" fill-rule="evenodd" clip-rule="evenodd" d="M1029.69 1639.96C1075.77 1613.92 1431.51 1412.92 1484.34 1383.07L1484.36 1211.79C1428.3 1243.46 1085.74 1437.02 1029.71 1468.68C985.856 1443.91 770.582 1322.31 726.554 1297.44L726.575 1126.16C784.622 1093.36 971.744 987.631 1029.7 954.886C1215.99 1060.21 1146.18 1020.76 1332.78 1126.17L1332.81 954.889C1288.95 930.118 1073.68 808.515 1029.65 783.641C981.065 811.096 622.205 1013.86 575 1040.53C575.057 1251.03 575.051 1173.38 575.027 1383.06C925.64 1581.11 680.492 1442.71 1029.69 1639.96Z" stroke="#FF8A8A"/>
<path opacity="0.3" fill-rule="evenodd" clip-rule="evenodd" d="M1029.65 783.64C1073.5 808.411 1288.78 930.017 1332.81 954.888L1332.78 1126.16C1021.5 1302.05 1341.03 1121.51 1029.66 1297.44C843.419 1192.14 912.125 1230.97 726.575 1126.16L726.554 1297.44C770.408 1322.21 985.679 1443.81 1029.71 1468.68C1085.75 1437.02 1428.32 1243.45 1484.36 1211.79C1484.3 1001.29 1484.31 1078.94 1484.33 869.268C1130.86 669.595 1376.61 808.344 1029.67 612.364C718.772 788.033 834.119 722.857 575.021 869.257L575 1040.53C621.782 1014.1 984.704 809.04 1029.65 783.64Z" stroke="url(#paint1_linear)" stroke-opacity="0.5"/>
</g>
</g>
<defs>
<linearGradient id="paint0_linear" x1="523" y1="39" x2="750" y2="434" gradientUnits="userSpaceOnUse">
<stop stop-color="#FF8A8A"/>
<stop offset="1" stop-color="#FF8A8A" stop-opacity="0"/>
</linearGradient>
<linearGradient id="paint1_linear" x1="1202" y1="1166" x2="720" y2="681" gradientUnits="userSpaceOnUse">
<stop stop-color="#FF8A8A"/>
<stop offset="1" stop-color="#FF8A8A" stop-opacity="0"/>
</linearGradient>
</defs>
</svg>
