<svg width="481" height="389" viewBox="0 0 481 389" fill="none" xmlns="http://www.w3.org/2000/svg">
<circle cx="149.33" cy="149.33" r="148.58" stroke="url(#paint0_linear)" stroke-width="1.5"/>
<circle opacity="0.7" cx="149.131" cy="149.131" r="124.035" fill="url(#paint1_linear)"/>
<circle opacity="0.4" cx="328.668" cy="236.969" r="124.035" transform="rotate(165 328.668 236.969)" fill="url(#paint2_linear)"/>
<circle cx="328.866" cy="237.168" r="148.58" stroke="url(#paint3_linear)" stroke-width="1.5"/>
<line opacity="0.6" x1="282.207" y1="96.1715" x2="291.859" y2="105.824" stroke="#FF8378"/>
<line opacity="0.6" x1="269.658" y1="100.032" x2="295.72" y2="126.094" stroke="#FF8378"/>
<line opacity="0.6" x1="259.041" y1="105.824" x2="298.616" y2="145.399" stroke="#FF8378"/>
<line opacity="0.6" x1="248.423" y1="111.615" x2="297.651" y2="160.843" stroke="#FF8378"/>
<line opacity="0.6" x1="238.77" y1="118.372" x2="295.72" y2="175.322" stroke="#FE9F97"/>
<line opacity="0.6" x1="230.083" y1="126.094" x2="292.824" y2="188.835" stroke="#FE9F97"/>
<line opacity="0.6" x1="222.361" y1="134.781" x2="288.963" y2="201.384" stroke="#FE9F97"/>
<line opacity="0.5" x1="213.674" y1="142.503" x2="284.137" y2="212.967" stroke="#FE9F97"/>
<line opacity="0.5" x1="206.917" y1="152.156" x2="278.346" y2="223.584" stroke="#FE9F97"/>
<line opacity="0.5" x1="200.16" y1="161.808" x2="272.554" y2="234.202" stroke="#FE9F97"/>
<line opacity="0.5" x1="194.369" y1="172.426" x2="264.832" y2="242.889" stroke="#FE9F97"/>
<line opacity="0.5" x1="189.543" y1="184.009" x2="257.11" y2="251.577" stroke="#FE9F97"/>
<line opacity="0.4" x1="185.682" y1="196.557" x2="249.388" y2="260.264" stroke="#FE9F97"/>
<line opacity="0.4" x1="182.786" y1="210.071" x2="239.736" y2="267.021" stroke="#FE9F97"/>
<line opacity="0.4" x1="180.855" y1="224.55" x2="230.083" y2="273.777" stroke="#FE9F97"/>
<line opacity="0.4" x1="179.89" y1="239.994" x2="220.431" y2="280.534" stroke="#FE9F97"/>
<line opacity="0.4" x1="181.821" y1="258.333" x2="208.848" y2="285.361" stroke="#FE9F97"/>
<line opacity="0.4" x1="185.682" y1="278.604" x2="197.265" y2="290.187" stroke="#FE9F97"/>
<defs>
<linearGradient id="paint0_linear" x1="29.0167" y1="-36.5133" x2="403.897" y2="262.765" gradientUnits="userSpaceOnUse">
<stop stop-color="#FF8989"/>
<stop offset="1" stop-color="#FF8989" stop-opacity="0"/>
</linearGradient>
<linearGradient id="paint1_linear" x1="174.71" y1="144.788" x2="-146.718" y2="18.3397" gradientUnits="userSpaceOnUse">
<stop stop-color="#FFC58F" stop-opacity="0"/>
<stop offset="1" stop-color="#FF7C7C" stop-opacity="0.84"/>
</linearGradient>
<linearGradient id="paint2_linear" x1="347.705" y1="253.562" x2="84.1116" y2="14.0505" gradientUnits="userSpaceOnUse">
<stop stop-color="#FFC58F" stop-opacity="0"/>
<stop offset="1" stop-color="#FED0A8"/>
</linearGradient>
<linearGradient id="paint3_linear" x1="208.553" y1="51.3245" x2="583.433" y2="350.602" gradientUnits="userSpaceOnUse">
<stop stop-color="#FF8989"/>
<stop offset="1" stop-color="#FF8989" stop-opacity="0"/>
</linearGradient>
</defs>
</svg>
