<svg width="782" height="545" viewBox="0 0 782 545" fill="none" xmlns="http://www.w3.org/2000/svg">
<g filter="url(#filter0_d)">
<rect x="17" y="14" width="748" height="511" rx="6" fill="white"/>
</g>
<circle cx="391" cy="270" r="39" fill="#FFA776" fill-opacity="0.4"/>
<rect x="398.108" y="274.748" width="10.4486" height="8.40782" transform="rotate(-45.5209 398.108 274.748)" fill="#F9FAFC"/>
<rect x="394.536" y="271.455" width="10.4486" height="2.88173" transform="rotate(-45.5209 394.536 271.455)" fill="#F9FAFC"/>
<rect x="405.623" y="282.038" width="10.4486" height="2.88173" transform="rotate(-45.5209 405.623 282.038)" fill="#F9FAFC"/>
<rect x="397.542" y="278.868" width="3.58732" height="10.7917" transform="rotate(44.341 397.542 278.868)" fill="#F9FAFC"/>
<path d="M375 285.7C375 276.838 382.184 269.654 391.047 269.654" stroke="#F9FAFC" stroke-width="5"/>
<circle cx="391.047" cy="254.551" r="7.5513" fill="#F9FAFC"/>
<circle cx="270" cy="270" r="39" fill="#FFA776"/>
<rect x="277.108" y="274.748" width="10.4486" height="8.40782" transform="rotate(-45.5209 277.108 274.748)" fill="#F9FAFC"/>
<rect x="273.536" y="271.455" width="10.4486" height="2.88173" transform="rotate(-45.5209 273.536 271.455)" fill="#F9FAFC"/>
<rect x="284.623" y="282.038" width="10.4486" height="2.88173" transform="rotate(-45.5209 284.623 282.038)" fill="#F9FAFC"/>
<rect x="276.542" y="278.868" width="3.58732" height="10.7917" transform="rotate(44.341 276.542 278.868)" fill="#F9FAFC"/>
<path d="M254 285.7C254 276.838 261.184 269.654 270.047 269.654" stroke="#F9FAFC" stroke-width="5"/>
<circle cx="270.047" cy="254.551" r="7.5513" fill="#F9FAFC"/>
<circle cx="512" cy="270" r="39" fill="#FFA776"/>
<rect x="518.108" y="274.748" width="10.4486" height="8.40782" transform="rotate(-45.5209 518.108 274.748)" fill="#F9FAFC"/>
<rect x="514.536" y="271.455" width="10.4486" height="2.88173" transform="rotate(-45.5209 514.536 271.455)" fill="#F9FAFC"/>
<rect x="525.623" y="282.038" width="10.4486" height="2.88173" transform="rotate(-45.5209 525.623 282.038)" fill="#F9FAFC"/>
<rect x="517.542" y="278.868" width="3.58732" height="10.7917" transform="rotate(44.341 517.542 278.868)" fill="#F9FAFC"/>
<path d="M495 285.7C495 276.838 502.184 269.654 511.047 269.654" stroke="#F9FAFC" stroke-width="5"/>
<circle cx="511.047" cy="254.551" r="7.5513" fill="#F9FAFC"/>
<mask id="mask0" mask-type="alpha" maskUnits="userSpaceOnUse" x="17" y="14" width="748" height="511">
<rect x="17" y="14" width="748" height="511" rx="6" fill="white"/>
</mask>
<g mask="url(#mask0)">
<path d="M320.216 237.651V242.136L311.035 236.942L300.987 242.635V248.511L311.035 254.177L325.017 246.255V250.767L311.035 258.689L297 250.767V240.379L311.008 232.43L320.216 237.651Z" fill="url(#paint0_linear)"/>
<path d="M301.827 243.553V248.065L311.035 253.233L325.043 245.337V234.949L311.035 227L297 234.949V239.434L311.008 231.486L321.029 237.178V243.081L311.035 248.747L301.827 243.553Z" fill="url(#paint1_linear)"/>
<path fill-rule="evenodd" clip-rule="evenodd" d="M311.035 253.233L301.827 248.065V243.553L311.035 248.747L321.029 243.081V237.178L311.008 231.486L297 239.434V234.949L311.035 227L325.043 234.949V245.337L311.035 253.233ZM311.035 254.177L300.987 248.511V242.635L311.035 236.942L320.216 242.136V237.651L311.008 232.43L297 240.379V250.767L311.035 258.689L325.017 250.767V246.255L311.035 254.177ZM290 230.868L311.038 218.953L332.043 230.872V249.427L332.017 249.441V254.846L311.041 266.731L290 254.854V230.868Z" fill="white"/>
<path opacity="0.5" d="M392.002 565.377L392.37 565.584L392.738 565.377L787.237 342.927L787.618 342.712V342.274V49.6153V49.1786L787.239 48.9631L392.74 -174.965L392.37 -175.175L392 -174.965L-3.23813 48.9628L-3.61841 49.1782V49.6153V175.99V177.279L-2.49818 176.643L391.63 -47.0749L673.088 112.87V278.28L392.368 437.487L133.432 291.366L132.314 290.735V292.019V419.133V419.572L132.697 419.787L392.002 565.377ZM650.567 252.764L651.686 253.397V252.111V125.736V125.299L651.306 125.084L392.001 -21.9845L391.63 -22.1945L391.26 -21.9844L-3.23865 201.944L-3.61841 202.159V202.596V495.254V495.692L-3.2372 495.907L392.001 719.096L392.37 719.305L392.739 719.095L786.5 495.906L786.88 495.691V495.254V368.14V366.853L785.76 367.487L392.369 590.467L110.173 431.259V266.59L392.37 106.644L650.567 252.764ZM982.893 457.254L982.511 457.469V457.907V609.74L392.55 944.138L-199.25 609.951V-64.8957L392.46 -400.138L983.25 -64.7901V457.052L982.893 457.254Z" stroke="#FFA776" stroke-opacity="0.5" stroke-width="1.5"/>
</g>
<path d="M560.216 237.651V242.136L551.035 236.942L540.987 242.635V248.511L551.035 254.177L565.017 246.255V250.767L551.035 258.689L537 250.767V240.379L551.008 232.43L560.216 237.651Z" fill="url(#paint2_linear)"/>
<path d="M541.827 243.553V248.065L551.035 253.233L565.043 245.337V234.949L551.035 227L537 234.949V239.434L551.008 231.486L561.029 237.178V243.081L551.035 248.747L541.827 243.553Z" fill="url(#paint3_linear)"/>
<path fill-rule="evenodd" clip-rule="evenodd" d="M551.035 253.233L541.827 248.065V243.553L551.035 248.747L561.029 243.081V237.178L551.008 231.486L537 239.434V234.949L551.035 227L565.043 234.949V245.337L551.035 253.233ZM551.035 254.177L540.987 248.511V242.635L551.035 236.942L560.216 242.136V237.651L551.008 232.43L537 240.379V250.767L551.035 258.689L565.017 250.767V246.255L551.035 254.177ZM530 230.868L551.038 218.953L572.043 230.872V249.427L572.017 249.441V254.846L551.041 266.731L530 254.854V230.868Z" fill="white"/>
<defs>
<filter id="filter0_d" x="0" y="0" width="782" height="545" filterUnits="userSpaceOnUse" color-interpolation-filters="sRGB">
<feFlood flood-opacity="0" result="BackgroundImageFix"/>
<feColorMatrix in="SourceAlpha" type="matrix" values="0 0 0 0 0 0 0 0 0 0 0 0 0 0 0 0 0 0 127 0"/>
<feOffset dy="3"/>
<feGaussianBlur stdDeviation="8.5"/>
<feColorMatrix type="matrix" values="0 0 0 0 0 0 0 0 0 0 0 0 0 0 0 0 0 0 0.1 0"/>
<feBlend mode="normal" in2="BackgroundImageFix" result="effect1_dropShadow"/>
<feBlend mode="normal" in="SourceGraphic" in2="effect1_dropShadow" result="shape"/>
</filter>
<linearGradient id="paint0_linear" x1="297" y1="254.125" x2="328.487" y2="235.154" gradientUnits="userSpaceOnUse">
<stop stop-color="#FFC58F"/>
<stop offset="1" stop-color="#FF7C7C"/>
</linearGradient>
<linearGradient id="paint1_linear" x1="297" y1="254.125" x2="328.487" y2="235.154" gradientUnits="userSpaceOnUse">
<stop stop-color="#FFC58F"/>
<stop offset="1" stop-color="#FF7C7C"/>
</linearGradient>
<linearGradient id="paint2_linear" x1="537" y1="254.125" x2="568.487" y2="235.154" gradientUnits="userSpaceOnUse">
<stop stop-color="#FFC58F"/>
<stop offset="1" stop-color="#FF7C7C"/>
</linearGradient>
<linearGradient id="paint3_linear" x1="537" y1="254.125" x2="568.487" y2="235.154" gradientUnits="userSpaceOnUse">
<stop stop-color="#FFC58F"/>
<stop offset="1" stop-color="#FF7C7C"/>
</linearGradient>
</defs>
</svg>
