<svg fill="none" height="545" viewBox="0 0 782 545" width="782" xmlns="http://www.w3.org/2000/svg" xmlns:xlink="http://www.w3.org/1999/xlink"><filter id="a" color-interpolation-filters="sRGB" filterUnits="userSpaceOnUse" height="545" width="782" x="0" y="0"><feFlood flood-opacity="0" result="BackgroundImageFix"/><feColorMatrix in="SourceAlpha" type="matrix" values="0 0 0 0 0 0 0 0 0 0 0 0 0 0 0 0 0 0 127 0"/><feOffset dy="3"/><feGaussianBlur stdDeviation="8.5"/><feColorMatrix type="matrix" values="0 0 0 0 0 0 0 0 0 0 0 0 0 0 0 0 0 0 0.1 0"/><feBlend in2="BackgroundImageFix" mode="normal" result="effect1_dropShadow"/><feBlend in="SourceGraphic" in2="effect1_dropShadow" mode="normal" result="shape"/></filter><g filter="url(#a)"><rect fill="#fff" height="511" rx="6" width="748" x="17" y="14"/></g><g fill="#ffa776"><path d="m391.5 190-4.763-3.75h9.526z" opacity=".6"/><path d="m391.5 198-4.763-3.75h9.526z" opacity=".7"/><path d="m391.5 206-4.763-3.75h9.526z" opacity=".8"/><path d="m391.5 214-4.763-3.75h9.526z"/><path d="m391.5 222-4.763-3.75h9.526z"/><path d="m324.421 356.318 1.337 5.913-7.398-6.001z" opacity=".6"/><path d="m329.46 350.105 1.338 5.913-7.399-6.001z" opacity=".7"/><path d="m334.5 343.891 1.337 5.913-7.399-6z" opacity=".8"/><path d="m339.539 337.678 1.337 5.913-7.399-6.001z"/><path d="m344.578 331.464 1.337 5.913-7.399-6z"/><path d="m456.428 356.318-1.337 5.913 7.399-6.001z" opacity=".6"/><path d="m451.389 350.105-1.337 5.913 7.399-6.001z" opacity=".7"/><path d="m446.35 343.891-1.337 5.913 7.399-6z" opacity=".8"/><path d="m441.311 337.678-1.338 5.913 7.399-6.001z"/><path d="m436.272 331.464-1.338 5.913 7.399-6z"/><circle cx="287" cy="403" r="39"/><circle cx="495" cy="403" r="39"/></g><circle cx="390.773" cy="281.773" fill="#8987ff" r="49.7726"/><path d="m413.094 259v37.953l-9.434 2.051-2.051 9.434h-24.609v-49.438z" fill="#bfbeff"/><path d="m413.094 259v37.953l-9.434 2.051-2.051 9.434h-24.609v-49.438z" fill="#a6a5ff" opacity=".6"/><path d="m401.609 296.953v11.485l11.485-11.485z" fill="#eef"/><rect fill="#8987ff" fill-opacity=".6" height="3" rx="1.5" width="28" x="381" y="264"/><rect fill="#8987ff" fill-opacity=".4" height="3" rx="1.5" width="28" x="381" y="271"/><rect fill="#8987ff" height="3" opacity=".3" rx="1.5" width="28" x="381" y="278"/><rect fill="#8987ff" height="3" opacity=".2" rx="1.5" width="28" x="381" y="285"/><circle cx="391" cy="137" fill="#ffa776" r="39"/><path d="m398.108 141.748h10.4486v8.40782h-10.4486z" fill="#f9fafc" transform="matrix(.70064904 -.71350608 .71350608 .70064904 18.035952 326.484876)"/><path d="m394.536 138.455h10.4486v2.88173h-10.4486z" fill="#f9fafc" transform="matrix(.70064904 -.71350608 .71350608 .70064904 19.316246 322.95047)"/><path d="m405.623 149.038h10.4486v2.88173h-10.4486z" fill="#f9fafc" transform="matrix(.70064904 -.71350608 .71350608 .70064904 15.084115 334.029143)"/><path d="m397.542 145.868h3.58732v10.7917h-3.58732z" fill="#f9fafc" transform="matrix(.71519278 .69892725 -.69892725 .71519278 215.173953 -236.308675)"/><path d="m375 152.7c0-8.862 7.184-16.046 16.047-16.046" stroke="#f9fafc" stroke-width="5"/><circle cx="391.047" cy="121.551" fill="#f9fafc" r="7.5513"/><path d="m294.108 407.748h10.4486v8.40782h-10.4486z" fill="#f9fafc" transform="matrix(.70064904 -.71350608 .71350608 .70064904 -202.889164 331.907599)"/><path d="m290.536 404.455h10.4486v2.88173h-10.4486z" fill="#f9fafc" transform="matrix(.70064904 -.71350608 .71350608 .70064904 -201.60887 328.373192)"/><path d="m301.623 415.038h10.4486v2.88173h-10.4486z" fill="#f9fafc" transform="matrix(.70064904 -.71350608 .71350608 .70064904 -205.841001 339.451866)"/><path d="m293.542 411.868h3.58732v10.7917h-3.58732z" fill="#f9fafc" transform="matrix(.71519278 .69892725 -.69892725 .71519278 371.468649 -87.861519)"/><path d="m271 418.7c0-8.862 7.184-16.046 16.047-16.046" stroke="#f9fafc" stroke-width="5"/><circle cx="287.047" cy="387.551" fill="#f9fafc" r="7.5513"/><path d="m501.108 407.748h10.4486v8.40782h-10.4486z" fill="#f9fafc" transform="matrix(.70064904 -.71350608 .71350608 .70064904 -140.923516 479.603356)"/><path d="m497.536 404.455h10.4486v2.88173h-10.4486z" fill="#f9fafc" transform="matrix(.70064904 -.71350608 .71350608 .70064904 -139.643222 476.06895)"/><path d="m508.623 415.038h10.4486v2.88173h-10.4486z" fill="#f9fafc" transform="matrix(.70064904 -.71350608 .71350608 .70064904 -143.875352 487.147623)"/><path d="m500.542 411.868h3.58732v10.7917h-3.58732z" fill="#f9fafc" transform="matrix(.71519278 .69892725 -.69892725 .71519278 430.423745 -232.539459)"/><path d="m478 418.7c0-8.862 7.184-16.046 16.047-16.046" stroke="#f9fafc" stroke-width="5"/><circle cx="494.047" cy="387.551" fill="#f9fafc" r="7.5513"/><path d="m405.094 252v37.953l-9.434 2.051-2.051 9.434h-24.609v-49.438z" fill="#c8c7ff"/><path d="m393.609 289.953v11.485l11.485-11.485z" fill="#eef"/><rect fill="#8987ff" fill-opacity=".6" height="3" rx="1.5" width="28" x="373" y="257"/><rect fill="#8987ff" fill-opacity=".4" height="3" rx="1.5" width="28" x="373" y="264"/><rect fill="#8987ff" height="3" opacity=".3" rx="1.5" width="28" x="373" y="271"/><rect fill="#8987ff" height="3" opacity=".2" rx="1.5" width="28" x="373" y="278"/></svg>