<svg width="782" height="534" viewBox="0 0 782 534" fill="none" xmlns="http://www.w3.org/2000/svg">
<g filter="url(#filter0_d)">
<rect x="17" y="14" width="748" height="500" rx="6" fill="white"/>
</g>
<mask id="mask0" mask-type="alpha" maskUnits="userSpaceOnUse" x="17" y="14" width="748" height="500">
<rect x="17" y="14" width="748" height="500" rx="6" fill="white"/>
</mask>
<g mask="url(#mask0)">
<path opacity="0.5" d="M391.002 506.377L391.37 506.584L391.738 506.377L786.237 283.927L786.618 283.712V283.274V-9.38467V-9.82135L786.239 -10.0369L391.74 -233.965L391.37 -234.175L391 -233.965L-4.23811 -10.0372L-4.61841 -9.82175V-9.38467V116.99V118.279L-3.49817 117.643L390.63 -106.075L672.088 53.8698V219.28L391.368 378.487L132.432 232.366L131.314 231.735V233.019V360.133V360.572L131.697 360.787L391.002 506.377ZM649.567 193.764L650.686 194.397V193.111V66.736V66.2992L650.306 66.0836L391.001 -80.9845L390.63 -81.1945L390.26 -80.9844L-4.23865 142.944L-4.61841 143.159V143.596V436.254V436.692L-4.2372 436.907L391.001 660.096L391.37 660.305L391.739 660.095L785.499 436.906L785.88 436.691V436.254V309.14V307.853L784.76 308.487L391.369 531.467L109.173 372.259V207.59L391.37 47.644L649.567 193.764ZM981.893 398.254L981.511 398.469V398.907V550.74L391.55 885.138L-200.25 550.951V-123.896L391.46 -459.138L982.25 -123.79V398.053L981.893 398.254Z" stroke="url(#paint0_linear)" stroke-opacity="0.5" stroke-width="1.5"/>
</g>
<circle cx="380" cy="216.047" r="39" fill="#FFA776" fill-opacity="0.4"/>
<rect x="387.108" y="220.795" width="10.4486" height="8.40782" transform="rotate(-45.5209 387.108 220.795)" fill="#F9FAFC"/>
<rect x="383.536" y="217.502" width="10.4486" height="2.88173" transform="rotate(-45.5209 383.536 217.502)" fill="#F9FAFC"/>
<rect x="394.623" y="228.085" width="10.4486" height="2.88173" transform="rotate(-45.5209 394.623 228.085)" fill="#F9FAFC"/>
<rect x="386.542" y="224.914" width="3.58732" height="10.7917" transform="rotate(44.341 386.542 224.914)" fill="#F9FAFC"/>
<path d="M364 231.747C364 222.885 371.184 215.7 380.047 215.7" stroke="#F9FAFC" stroke-width="5"/>
<circle cx="380.047" cy="200.598" r="7.5513" fill="#F9FAFC"/>
<circle cx="259" cy="216.047" r="39" fill="#FFA776"/>
<rect x="266.108" y="220.795" width="10.4486" height="8.40782" transform="rotate(-45.5209 266.108 220.795)" fill="#F9FAFC"/>
<rect x="262.536" y="217.502" width="10.4486" height="2.88173" transform="rotate(-45.5209 262.536 217.502)" fill="#F9FAFC"/>
<rect x="273.623" y="228.085" width="10.4486" height="2.88173" transform="rotate(-45.5209 273.623 228.085)" fill="#F9FAFC"/>
<rect x="265.542" y="224.914" width="3.58732" height="10.7917" transform="rotate(44.341 265.542 224.914)" fill="#F9FAFC"/>
<path d="M243 231.747C243 222.885 250.184 215.7 259.047 215.7" stroke="#F9FAFC" stroke-width="5"/>
<circle cx="259.047" cy="200.598" r="7.5513" fill="#F9FAFC"/>
<circle cx="501" cy="216.047" r="39" fill="#FFA776"/>
<rect x="507.108" y="220.795" width="10.4486" height="8.40782" transform="rotate(-45.5209 507.108 220.795)" fill="#F9FAFC"/>
<rect x="503.536" y="217.502" width="10.4486" height="2.88173" transform="rotate(-45.5209 503.536 217.502)" fill="#F9FAFC"/>
<rect x="514.623" y="228.085" width="10.4486" height="2.88173" transform="rotate(-45.5209 514.623 228.085)" fill="#F9FAFC"/>
<rect x="506.542" y="224.914" width="3.58732" height="10.7917" transform="rotate(44.341 506.542 224.914)" fill="#F9FAFC"/>
<path d="M484 231.747C484 222.885 491.184 215.7 500.047 215.7" stroke="#F9FAFC" stroke-width="5"/>
<circle cx="500.047" cy="200.598" r="7.5513" fill="#F9FAFC"/>
<path d="M309.216 183.697V188.183L300.035 182.989L289.987 188.681V194.557L300.035 200.224L314.017 192.301V196.814L300.035 204.736L286 196.814V186.425L300.008 178.477L309.216 183.697Z" fill="url(#paint1_linear)"/>
<path d="M290.827 189.599V194.112L300.035 199.279L314.043 191.383V180.995L300.035 173.047L286 180.995V185.481L300.008 177.532L310.029 183.225V189.127L300.035 194.794L290.827 189.599Z" fill="url(#paint2_linear)"/>
<path fill-rule="evenodd" clip-rule="evenodd" d="M300.035 199.279L290.827 194.112V189.599L300.035 194.794L310.029 189.127V183.225L300.008 177.532L286 185.481V180.995L300.035 173.047L314.043 180.995V191.383L300.035 199.279ZM300.035 200.224L289.987 194.558V188.681L300.035 182.989L309.216 188.183V183.697L300.008 178.477L286 186.425V196.814L300.035 204.736L314.017 196.814V192.301L300.035 200.224ZM279 176.915L300.038 165L321.043 176.919V195.473L321.017 195.488V200.893L300.041 212.778L279 200.9V176.915Z" fill="white"/>
<path d="M549.216 185.697V190.183L540.035 184.989L529.987 190.681V196.557L540.035 202.224L554.017 194.301V198.814L540.035 206.736L526 198.814V188.425L540.008 180.477L549.216 185.697Z" fill="url(#paint3_linear)"/>
<path d="M530.827 191.599V196.112L540.035 201.279L554.043 193.383V182.995L540.035 175.047L526 182.995V187.481L540.008 179.532L550.029 185.225V191.127L540.035 196.794L530.827 191.599Z" fill="url(#paint4_linear)"/>
<path fill-rule="evenodd" clip-rule="evenodd" d="M540.035 201.279L530.827 196.112V191.599L540.035 196.794L550.029 191.127V185.225L540.008 179.532L526 187.481V182.995L540.035 175.047L554.043 182.995V193.383L540.035 201.279ZM540.035 202.224L529.987 196.558V190.681L540.035 184.989L549.216 190.183V185.697L540.008 180.477L526 188.425V198.814L540.035 206.736L554.017 198.814V194.301L540.035 202.224ZM519 178.915L540.038 167L561.043 178.919V197.473L561.017 197.488V202.893L540.041 214.778L519 202.9V178.915Z" fill="white"/>
<rect x="32" y="364" width="718" height="136" rx="4" fill="url(#paint5_linear)"/>
<path d="M52.46 394.8C52.92 396.96 54.74 398.18 57.18 398.18C59.62 398.18 61.42 396.84 61.42 394.62C61.42 392.88 60.32 391.82 58.36 391.32L56.26 390.78C54.98 390.44 54.3 389.94 54.3 388.9C54.3 387.64 55.38 386.88 56.84 386.88C58.46 386.88 59.38 387.68 59.76 388.78H61.34C60.88 386.84 59.38 385.54 56.84 385.54C54.52 385.54 52.8 386.94 52.8 389.02C52.8 390.88 54.04 391.74 55.74 392.18L57.94 392.76C59.36 393.12 59.9 393.74 59.9 394.7C59.9 396.06 58.78 396.84 57.18 396.84C55.68 396.84 54.52 396.16 54.06 394.8H52.46ZM64.9572 389.12H63.4572V398H64.9572V389.12ZM65.1772 386.44C65.1772 385.9 64.7372 385.48 64.1972 385.48C63.6772 385.48 63.2372 385.9 63.2372 386.44C63.2372 386.96 63.6772 387.4 64.1972 387.4C64.7372 387.4 65.1772 386.96 65.1772 386.44ZM67.6369 398H69.1369V391.98C69.4569 391.02 70.3569 390.32 71.3969 390.32C72.7369 390.32 73.3569 391.18 73.3569 392.42V398H74.8769V392.18C74.8769 390.24 73.7769 388.94 71.7569 388.94C70.6169 388.94 69.6569 389.54 69.1369 390.24V389.12H67.6369V398ZM76.782 393.56C76.782 396.32 78.442 398.18 80.822 398.18C82.822 398.18 84.082 397.02 84.382 395.32H82.842C82.642 396.28 81.882 396.86 80.822 396.86C79.302 396.86 78.302 395.5 78.302 393.56C78.302 391.62 79.302 390.26 80.822 390.26C81.882 390.26 82.642 390.84 82.842 391.8H84.382C84.082 390.1 82.822 388.94 80.822 388.94C78.442 388.94 76.782 390.8 76.782 393.56ZM91.9088 395.34C91.6688 396.34 90.8487 396.9 89.7488 396.9C88.2488 396.9 87.1888 395.74 87.1688 393.84H93.4488V393.3C93.4488 390.72 92.1488 388.94 89.7088 388.94C87.2888 388.94 85.6688 390.92 85.6688 393.58C85.6688 396.32 87.3288 398.18 89.7488 398.18C91.7488 398.18 93.0088 397.02 93.3288 395.34H91.9088ZM89.7288 390.22C91.2088 390.22 91.9088 391.38 91.9288 392.7H87.2088C87.4288 391.14 88.3888 390.22 89.7288 390.22ZM107.383 393.56C107.383 390.84 105.723 388.94 103.303 388.94C100.863 388.94 99.2234 390.84 99.2234 393.56C99.2234 396.28 100.863 398.18 103.303 398.18C105.723 398.18 107.383 396.28 107.383 393.56ZM105.863 393.56C105.863 395.5 104.903 396.86 103.303 396.86C101.703 396.86 100.743 395.5 100.743 393.56C100.743 391.62 101.703 390.26 103.303 390.26C104.903 390.26 105.863 391.62 105.863 393.56ZM109.414 398H110.914V391.98C111.234 391.02 112.134 390.32 113.174 390.32C114.514 390.32 115.134 391.18 115.134 392.42V398H116.654V392.18C116.654 390.24 115.554 388.94 113.534 388.94C112.394 388.94 111.434 389.54 110.914 390.24V389.12H109.414V398ZM124.799 395.34C124.559 396.34 123.739 396.9 122.639 396.9C121.139 396.9 120.079 395.74 120.059 393.84H126.339V393.3C126.339 390.72 125.039 388.94 122.599 388.94C120.179 388.94 118.559 390.92 118.559 393.58C118.559 396.32 120.219 398.18 122.639 398.18C124.639 398.18 125.899 397.02 126.219 395.34H124.799ZM122.619 390.22C124.099 390.22 124.799 391.38 124.819 392.7H120.099C120.319 391.14 121.279 390.22 122.619 390.22ZM140.274 393.56C140.274 390.84 138.614 388.94 136.194 388.94C133.754 388.94 132.114 390.84 132.114 393.56C132.114 396.28 133.754 398.18 136.194 398.18C138.614 398.18 140.274 396.28 140.274 393.56ZM138.754 393.56C138.754 395.5 137.794 396.86 136.194 396.86C134.594 396.86 133.634 395.5 133.634 393.56C133.634 391.62 134.594 390.26 136.194 390.26C137.794 390.26 138.754 391.62 138.754 393.56ZM146.745 385.02C146.405 384.88 146.065 384.82 145.585 384.82C144.025 384.82 142.865 385.86 142.865 387.64V389.12H141.365V390.4H142.865V398H144.345V390.4H146.345V389.12H144.345V387.76C144.345 386.7 144.925 386.14 145.805 386.14C146.125 386.14 146.465 386.2 146.745 386.38V385.02ZM152.92 395.76C152.92 397.4 153.92 398.18 155.36 398.18C155.9 398.18 156.42 398.06 156.76 397.88V396.48C156.46 396.68 156.02 396.84 155.6 396.84C154.84 396.84 154.42 396.46 154.42 395.6V390.4H156.56V389.12H154.42V386.78H152.92V389.12H151.48V390.4H152.92V395.76ZM158.848 398H160.348V391.98C160.668 391.02 161.568 390.32 162.608 390.32C163.948 390.32 164.568 391.18 164.568 392.42V398H166.088V392.18C166.088 390.24 164.988 388.94 162.968 388.94C161.828 388.94 160.868 389.54 160.348 390.24V385H158.848V398ZM174.233 395.34C173.993 396.34 173.173 396.9 172.073 396.9C170.573 396.9 169.513 395.74 169.493 393.84H175.773V393.3C175.773 390.72 174.473 388.94 172.033 388.94C169.613 388.94 167.993 390.92 167.993 393.58C167.993 396.32 169.653 398.18 172.073 398.18C174.073 398.18 175.333 397.02 175.653 395.34H174.233ZM172.053 390.22C173.533 390.22 174.233 391.38 174.253 392.7H169.533C169.753 391.14 170.713 390.22 172.053 390.22ZM183.688 389.12H182.188V398.92C182.188 399.92 181.768 400.28 180.988 400.28C180.808 400.28 180.588 400.24 180.468 400.22V401.5C180.628 401.56 180.928 401.58 181.108 401.58C182.768 401.58 183.688 400.68 183.688 399.02V389.12ZM183.908 386.44C183.908 385.9 183.468 385.48 182.928 385.48C182.408 385.48 181.968 385.9 181.968 386.44C181.968 386.96 182.408 387.4 182.928 387.4C183.468 387.4 183.908 386.96 183.908 386.44ZM193.408 389.12H191.888V395.14C191.568 396.1 190.708 396.8 189.668 396.8C188.328 396.8 187.728 395.94 187.728 394.7V389.12H186.208V394.94C186.208 396.88 187.288 398.18 189.308 398.18C190.448 398.18 191.388 397.58 191.888 396.88V398H193.408V389.12ZM200.634 389.08C200.474 389 200.154 388.94 199.774 388.94C198.794 388.94 197.954 389.52 197.574 390.28V389.12H196.074V398H197.574V392.04C197.874 391 198.694 390.38 199.634 390.38C200.014 390.38 200.394 390.46 200.634 390.62V389.08ZM209.766 393.56C209.766 390.84 208.106 388.94 205.686 388.94C203.246 388.94 201.606 390.84 201.606 393.56C201.606 396.28 203.246 398.18 205.686 398.18C208.106 398.18 209.766 396.28 209.766 393.56ZM208.246 393.56C208.246 395.5 207.286 396.86 205.686 396.86C204.086 396.86 203.126 395.5 203.126 393.56C203.126 391.62 204.086 390.26 205.686 390.26C207.286 390.26 208.246 391.62 208.246 393.56ZM216.357 389.08C216.197 389 215.877 388.94 215.497 388.94C214.517 388.94 213.677 389.52 213.297 390.28V389.12H211.797V398H213.297V392.04C213.597 391 214.417 390.38 215.357 390.38C215.737 390.38 216.117 390.46 216.357 390.62V389.08ZM217.424 395.56C217.704 397.2 219.124 398.18 221.064 398.18C222.964 398.18 224.364 397.18 224.364 395.5C224.364 394.26 223.624 393.42 222.104 393.02L220.384 392.6C219.544 392.36 219.144 392.08 219.144 391.48C219.144 390.62 219.964 390.2 220.844 390.2C221.924 390.2 222.544 390.66 222.804 391.46H224.304C223.984 389.9 222.824 388.94 220.864 388.94C219.064 388.94 217.684 389.98 217.684 391.56C217.684 392.94 218.564 393.58 219.824 393.9L221.584 394.36C222.504 394.6 222.904 394.98 222.904 395.6C222.904 396.5 222.144 396.92 221.084 396.92C220.044 396.92 219.264 396.48 218.984 395.56H217.424ZM236.72 398H238.24V385H236.72V390.16C236.28 389.52 235.32 388.94 234.22 388.94C231.62 388.94 230.22 391.06 230.22 393.56C230.22 396.08 231.62 398.18 234.22 398.18C235.32 398.18 236.28 397.6 236.72 396.96V398ZM236.72 395.36C236.26 396.28 235.38 396.82 234.44 396.82C232.74 396.82 231.74 395.44 231.74 393.56C231.74 391.68 232.74 390.3 234.44 390.3C235.38 390.3 236.26 390.84 236.72 391.76V395.36ZM242.399 389.12H240.899V398H242.399V389.12ZM242.619 386.44C242.619 385.9 242.179 385.48 241.639 385.48C241.119 385.48 240.679 385.9 240.679 386.44C240.679 386.96 241.119 387.4 241.639 387.4C242.179 387.4 242.619 386.96 242.619 386.44ZM250.938 398H252.458V385H250.938V390.16C250.498 389.52 249.538 388.94 248.438 388.94C245.838 388.94 244.438 391.06 244.438 393.56C244.438 396.08 245.838 398.18 248.438 398.18C249.538 398.18 250.498 397.6 250.938 396.96V398ZM250.938 395.36C250.478 396.28 249.598 396.82 248.658 396.82C246.958 396.82 245.958 395.44 245.958 393.56C245.958 391.68 246.958 390.3 248.658 390.3C249.598 390.3 250.478 390.84 250.938 391.76V395.36ZM259.531 398H261.031V391.98C261.351 391.02 262.251 390.32 263.291 390.32C264.631 390.32 265.251 391.18 265.251 392.42V398H266.771V392.18C266.771 390.24 265.671 388.94 263.651 388.94C262.511 388.94 261.551 389.54 261.031 390.24V389.12H259.531V398ZM276.837 393.56C276.837 390.84 275.177 388.94 272.757 388.94C270.317 388.94 268.677 390.84 268.677 393.56C268.677 396.28 270.317 398.18 272.757 398.18C275.177 398.18 276.837 396.28 276.837 393.56ZM275.317 393.56C275.317 395.5 274.357 396.86 272.757 396.86C271.157 396.86 270.197 395.5 270.197 393.56C270.197 391.62 271.157 390.26 272.757 390.26C274.357 390.26 275.317 391.62 275.317 393.56ZM279.287 395.76C279.287 397.4 280.287 398.18 281.727 398.18C282.267 398.18 282.787 398.06 283.127 397.88V396.48C282.827 396.68 282.387 396.84 281.967 396.84C281.207 396.84 280.787 396.46 280.787 395.6V390.4H282.927V389.12H280.787V386.78H279.287V389.12H277.847V390.4H279.287V395.76ZM293.569 398L297.029 389.12H295.449L292.869 396.1L290.269 389.12H288.649L292.089 398H293.569ZM306.094 393.56C306.094 390.84 304.434 388.94 302.014 388.94C299.574 388.94 297.934 390.84 297.934 393.56C297.934 396.28 299.574 398.18 302.014 398.18C304.434 398.18 306.094 396.28 306.094 393.56ZM304.574 393.56C304.574 395.5 303.614 396.86 302.014 396.86C300.414 396.86 299.454 395.5 299.454 393.56C299.454 391.62 300.414 390.26 302.014 390.26C303.614 390.26 304.574 391.62 304.574 393.56ZM308.545 395.76C308.545 397.4 309.545 398.18 310.985 398.18C311.525 398.18 312.045 398.06 312.385 397.88V396.48C312.085 396.68 311.645 396.84 311.225 396.84C310.465 396.84 310.045 396.46 310.045 395.6V390.4H312.185V389.12H310.045V386.78H308.545V389.12H307.105V390.4H308.545V395.76ZM319.975 395.34C319.735 396.34 318.915 396.9 317.815 396.9C316.315 396.9 315.255 395.74 315.235 393.84H321.515V393.3C321.515 390.72 320.215 388.94 317.775 388.94C315.355 388.94 313.735 390.92 313.735 393.58C313.735 396.32 315.395 398.18 317.815 398.18C319.815 398.18 321.075 397.02 321.395 395.34H319.975ZM317.795 390.22C319.275 390.22 319.975 391.38 319.995 392.7H315.275C315.495 391.14 316.455 390.22 317.795 390.22ZM329.43 389.12H327.93V398H329.43V389.12ZM329.65 386.44C329.65 385.9 329.21 385.48 328.67 385.48C328.15 385.48 327.71 385.9 327.71 386.44C327.71 386.96 328.15 387.4 328.67 387.4C329.21 387.4 329.65 386.96 329.65 386.44ZM332.11 398H333.61V391.98C333.93 391.02 334.83 390.32 335.87 390.32C337.21 390.32 337.83 391.18 337.83 392.42V398H339.35V392.18C339.35 390.24 338.25 388.94 336.23 388.94C335.09 388.94 334.13 389.54 333.61 390.24V389.12H332.11V398ZM350.749 385.02C350.409 384.88 350.069 384.82 349.589 384.82C348.029 384.82 346.869 385.86 346.869 387.64V389.12H345.369V390.4H346.869V398H348.349V390.4H350.349V389.12H348.349V387.76C348.349 386.7 348.929 386.14 349.809 386.14C350.129 386.14 350.469 386.2 350.749 386.38V385.02ZM358.335 398V392.08C358.335 390.14 357.075 388.94 354.955 388.94C353.255 388.94 351.935 389.96 351.635 391.46H353.115C353.395 390.64 353.995 390.24 354.935 390.24C356.215 390.24 356.895 391.04 356.895 392.14V393.26C356.515 392.92 355.575 392.54 354.655 392.54C352.755 392.54 351.255 393.66 351.255 395.32C351.255 397.08 352.755 398.16 354.555 398.16C355.615 398.16 356.555 397.7 356.895 397.34V398H358.335ZM356.895 395.8C356.635 396.46 355.735 396.9 354.815 396.9C353.735 396.9 352.695 396.4 352.695 395.32C352.695 394.26 353.735 393.78 354.815 393.78C355.735 393.78 356.635 394.22 356.895 394.88V395.8ZM364.682 398L368.142 389.12H366.562L363.982 396.1L361.382 389.12H359.762L363.202 398H364.682ZM377.208 393.56C377.208 390.84 375.548 388.94 373.128 388.94C370.688 388.94 369.048 390.84 369.048 393.56C369.048 396.28 370.688 398.18 373.128 398.18C375.548 398.18 377.208 396.28 377.208 393.56ZM375.688 393.56C375.688 395.5 374.728 396.86 373.128 396.86C371.528 396.86 370.568 395.5 370.568 393.56C370.568 391.62 371.528 390.26 373.128 390.26C374.728 390.26 375.688 391.62 375.688 393.56ZM383.798 389.08C383.638 389 383.318 388.94 382.938 388.94C381.958 388.94 381.118 389.52 380.738 390.28V389.12H379.238V398H380.738V392.04C381.038 391 381.858 390.38 382.798 390.38C383.178 390.38 383.558 390.46 383.798 390.62V389.08ZM397.598 393.56C397.598 390.84 395.938 388.94 393.518 388.94C391.078 388.94 389.438 390.84 389.438 393.56C389.438 396.28 391.078 398.18 393.518 398.18C395.938 398.18 397.598 396.28 397.598 393.56ZM396.078 393.56C396.078 395.5 395.118 396.86 393.518 396.86C391.918 396.86 390.958 395.5 390.958 393.56C390.958 391.62 391.918 390.26 393.518 390.26C395.118 390.26 396.078 391.62 396.078 393.56ZM404.069 385.02C403.729 384.88 403.389 384.82 402.909 384.82C401.349 384.82 400.189 385.86 400.189 387.64V389.12H398.689V390.4H400.189V398H401.669V390.4H403.669V389.12H401.669V387.76C401.669 386.7 402.249 386.14 403.129 386.14C403.449 386.14 403.789 386.2 404.069 386.38V385.02ZM413.704 385.72L408.904 398H410.504L411.904 394.3H416.964L418.384 398H419.984L415.184 385.72H413.704ZM414.424 387.68L416.424 392.92H412.424L414.424 387.68ZM423.238 385H421.738V398H423.238V385ZM427.418 389.12H425.918V398H427.418V389.12ZM427.638 386.44C427.638 385.9 427.198 385.48 426.658 385.48C426.138 385.48 425.698 385.9 425.698 386.44C425.698 386.96 426.138 387.4 426.658 387.4C427.198 387.4 427.638 386.96 427.638 386.44ZM429.458 393.56C429.458 396.32 431.118 398.18 433.498 398.18C435.498 398.18 436.758 397.02 437.058 395.32H435.518C435.318 396.28 434.558 396.86 433.498 396.86C431.978 396.86 430.978 395.5 430.978 393.56C430.978 391.62 431.978 390.26 433.498 390.26C434.558 390.26 435.318 390.84 435.518 391.8H437.058C436.758 390.1 435.498 388.94 433.498 388.94C431.118 388.94 429.458 390.8 429.458 393.56ZM444.585 395.34C444.345 396.34 443.525 396.9 442.425 396.9C440.925 396.9 439.865 395.74 439.845 393.84H446.125V393.3C446.125 390.72 444.825 388.94 442.385 388.94C439.965 388.94 438.345 390.92 438.345 393.58C438.345 396.32 440.005 398.18 442.425 398.18C444.425 398.18 445.685 397.02 446.005 395.34H444.585ZM442.405 390.22C443.885 390.22 444.585 391.38 444.605 392.7H439.885C440.105 391.14 441.065 390.22 442.405 390.22ZM451.999 393.48H456.819V392.08H451.999V393.48ZM469.019 389.12H467.679L465.859 395.9L463.899 389.12H462.399L465.019 398H466.479L468.339 391.26L470.179 398H471.639L474.259 389.12H472.799L470.839 395.9L469.019 389.12ZM475.957 398H477.457V391.98C477.777 391.02 478.677 390.32 479.717 390.32C481.057 390.32 481.677 391.18 481.677 392.42V398H483.197V392.18C483.197 390.24 482.097 388.94 480.077 388.94C478.937 388.94 477.977 389.54 477.457 390.24V385H475.957V398ZM493.262 393.56C493.262 390.84 491.602 388.94 489.182 388.94C486.742 388.94 485.102 390.84 485.102 393.56C485.102 396.28 486.742 398.18 489.182 398.18C491.602 398.18 493.262 396.28 493.262 393.56ZM491.742 393.56C491.742 395.5 490.782 396.86 489.182 396.86C487.582 396.86 486.622 395.5 486.622 393.56C486.622 391.62 487.582 390.26 489.182 390.26C490.782 390.26 491.742 391.62 491.742 393.56ZM505.347 389.12H504.007L502.187 395.9L500.227 389.12H498.727L501.347 398H502.807L504.667 391.26L506.507 398H507.967L510.587 389.12H509.127L507.167 395.9L505.347 389.12ZM519.805 393.56C519.805 390.84 518.145 388.94 515.725 388.94C513.285 388.94 511.645 390.84 511.645 393.56C511.645 396.28 513.285 398.18 515.725 398.18C518.145 398.18 519.805 396.28 519.805 393.56ZM518.285 393.56C518.285 395.5 517.325 396.86 515.725 396.86C514.125 396.86 513.165 395.5 513.165 393.56C513.165 391.62 514.125 390.26 515.725 390.26C517.325 390.26 518.285 391.62 518.285 393.56ZM521.836 398H523.336V391.98C523.656 391.02 524.556 390.32 525.596 390.32C526.936 390.32 527.556 391.18 527.556 392.42V398H529.076V392.18C529.076 390.24 527.976 388.94 525.956 388.94C524.816 388.94 523.856 389.54 523.336 390.24V389.12H521.836V398ZM536.455 395.76C536.455 397.4 537.455 398.18 538.895 398.18C539.435 398.18 539.955 398.06 540.295 397.88V396.48C539.995 396.68 539.555 396.84 539.135 396.84C538.375 396.84 537.955 396.46 537.955 395.6V390.4H540.095V389.12H537.955V386.78H536.455V389.12H535.015V390.4H536.455V395.76ZM542.383 398H543.883V391.98C544.203 391.02 545.103 390.32 546.143 390.32C547.483 390.32 548.103 391.18 548.103 392.42V398H549.623V392.18C549.623 390.24 548.523 388.94 546.503 388.94C545.363 388.94 544.403 389.54 543.883 390.24V385H542.383V398ZM557.768 395.34C557.528 396.34 556.708 396.9 555.608 396.9C554.108 396.9 553.048 395.74 553.028 393.84H559.308V393.3C559.308 390.72 558.008 388.94 555.568 388.94C553.148 388.94 551.528 390.92 551.528 393.58C551.528 396.32 553.188 398.18 555.608 398.18C557.608 398.18 558.868 397.02 559.188 395.34H557.768ZM555.588 390.22C557.068 390.22 557.768 391.38 557.788 392.7H553.068C553.288 391.14 554.248 390.22 555.588 390.22ZM570.163 385.02C569.823 384.88 569.483 384.82 569.003 384.82C567.443 384.82 566.283 385.86 566.283 387.64V389.12H564.783V390.4H566.283V398H567.763V390.4H569.763V389.12H567.763V387.76C567.763 386.7 568.343 386.14 569.223 386.14C569.543 386.14 569.883 386.2 570.163 386.38V385.02ZM573.004 389.12H571.504V398H573.004V389.12ZM573.224 386.44C573.224 385.9 572.784 385.48 572.244 385.48C571.724 385.48 571.284 385.9 571.284 386.44C571.284 386.96 571.724 387.4 572.244 387.4C572.784 387.4 573.224 386.96 573.224 386.44ZM575.684 398H577.184V391.98C577.504 391.02 578.404 390.32 579.444 390.32C580.784 390.32 581.404 391.18 581.404 392.42V398H582.924V392.18C582.924 390.24 581.824 388.94 579.804 388.94C578.664 388.94 577.704 389.54 577.184 390.24V389.12H575.684V398ZM591.909 398V392.08C591.909 390.14 590.649 388.94 588.529 388.94C586.829 388.94 585.509 389.96 585.209 391.46H586.689C586.969 390.64 587.569 390.24 588.509 390.24C589.789 390.24 590.469 391.04 590.469 392.14V393.26C590.089 392.92 589.149 392.54 588.229 392.54C586.329 392.54 584.829 393.66 584.829 395.32C584.829 397.08 586.329 398.16 588.129 398.16C589.189 398.16 590.129 397.7 590.469 397.34V398H591.909ZM590.469 395.8C590.209 396.46 589.309 396.9 588.389 396.9C587.309 396.9 586.269 396.4 586.269 395.32C586.269 394.26 587.309 393.78 588.389 393.78C589.309 393.78 590.209 394.22 590.469 394.88V395.8ZM595.973 385H594.473V398H595.973V385ZM607.627 389.08C607.467 389 607.147 388.94 606.767 388.94C605.787 388.94 604.947 389.52 604.567 390.28V389.12H603.067V398H604.567V392.04C604.867 391 605.687 390.38 606.627 390.38C607.007 390.38 607.387 390.46 607.627 390.62V389.08ZM616.572 389.12H615.052V395.14C614.732 396.1 613.872 396.8 612.832 396.8C611.492 396.8 610.892 395.94 610.892 394.7V389.12H609.372V394.94C609.372 396.88 610.452 398.18 612.472 398.18C613.612 398.18 614.552 397.58 615.052 396.88V398H616.572V389.12ZM620.738 385H619.238V398H620.738V385ZM624.918 389.12H623.418V398H624.918V389.12ZM625.138 386.44C625.138 385.9 624.698 385.48 624.158 385.48C623.638 385.48 623.198 385.9 623.198 386.44C623.198 386.96 623.638 387.4 624.158 387.4C624.698 387.4 625.138 386.96 625.138 386.44ZM627.598 398H629.098V391.98C629.418 391.02 630.318 390.32 631.358 390.32C632.698 390.32 633.318 391.18 633.318 392.42V398H634.838V392.18C634.838 390.24 633.738 388.94 631.718 388.94C630.578 388.94 629.618 389.54 629.098 390.24V389.12H627.598V398ZM643.203 397.4C643.203 399.32 642.363 400.32 640.763 400.32C639.543 400.32 638.703 399.78 638.443 398.66H636.963C637.243 400.48 638.603 401.6 640.763 401.6C643.043 401.6 644.723 400.22 644.723 397.3V389.12H643.203V390.12C642.763 389.5 641.823 388.94 640.723 388.94C638.123 388.94 636.743 391.08 636.743 393.44C636.743 395.78 638.123 397.94 640.723 397.94C641.823 397.94 642.763 397.36 643.203 396.74V397.4ZM643.203 395.2C642.743 396.04 641.903 396.58 640.943 396.58C639.263 396.58 638.283 395.26 638.283 393.44C638.283 391.6 639.263 390.28 640.943 390.28C641.903 390.28 642.743 390.82 643.203 391.66V395.2ZM651.277 393.48H656.097V392.08H651.277V393.48ZM663.076 395.76C663.076 397.4 664.076 398.18 665.516 398.18C666.056 398.18 666.576 398.06 666.916 397.88V396.48C666.616 396.68 666.176 396.84 665.756 396.84C664.996 396.84 664.576 396.46 664.576 395.6V390.4H666.716V389.12H664.576V386.78H663.076V389.12H661.636V390.4H663.076V395.76ZM669.004 398H670.504V391.98C670.824 391.02 671.724 390.32 672.764 390.32C674.104 390.32 674.724 391.18 674.724 392.42V398H676.244V392.18C676.244 390.24 675.144 388.94 673.124 388.94C671.984 388.94 671.024 389.54 670.504 390.24V385H669.004V398ZM684.389 395.34C684.149 396.34 683.329 396.9 682.229 396.9C680.729 396.9 679.669 395.74 679.649 393.84H685.929V393.3C685.929 390.72 684.629 388.94 682.189 388.94C679.769 388.94 678.149 390.92 678.149 393.58C678.149 396.32 679.809 398.18 682.229 398.18C684.229 398.18 685.489 397.02 685.809 395.34H684.389ZM682.209 390.22C683.689 390.22 684.389 391.38 684.409 392.7H679.689C679.909 391.14 680.869 390.22 682.209 390.22ZM689.43 389.12H687.93V398H689.43V389.12ZM689.65 386.44C689.65 385.9 689.21 385.48 688.67 385.48C688.15 385.48 687.71 385.9 687.71 386.44C687.71 386.96 688.15 387.4 688.67 387.4C689.21 387.4 689.65 386.96 689.65 386.44ZM696.67 389.08C696.51 389 696.19 388.94 695.81 388.94C694.83 388.94 693.99 389.52 693.61 390.28V389.12H692.11V398H693.61V392.04C693.91 391 694.73 390.38 695.67 390.38C696.05 390.38 696.43 390.46 696.67 390.62V389.08ZM59.78 425V419.08C59.78 417.14 58.52 415.94 56.4 415.94C54.7 415.94 53.38 416.96 53.08 418.46H54.56C54.84 417.64 55.44 417.24 56.38 417.24C57.66 417.24 58.34 418.04 58.34 419.14V420.26C57.96 419.92 57.02 419.54 56.1 419.54C54.2 419.54 52.7 420.66 52.7 422.32C52.7 424.08 54.2 425.16 56 425.16C57.06 425.16 58 424.7 58.34 424.34V425H59.78ZM58.34 422.8C58.08 423.46 57.18 423.9 56.26 423.9C55.18 423.9 54.14 423.4 54.14 422.32C54.14 421.26 55.18 420.78 56.26 420.78C57.18 420.78 58.08 421.22 58.34 421.88V422.8ZM61.7039 420.56C61.7039 423.32 63.3639 425.18 65.7439 425.18C67.7439 425.18 69.0039 424.02 69.3039 422.32H67.7639C67.5639 423.28 66.8039 423.86 65.7439 423.86C64.2239 423.86 63.2239 422.5 63.2239 420.56C63.2239 418.62 64.2239 417.26 65.7439 417.26C66.8039 417.26 67.5639 417.84 67.7639 418.8H69.3039C69.0039 417.1 67.7439 415.94 65.7439 415.94C63.3639 415.94 61.7039 417.8 61.7039 420.56ZM71.7483 422.76C71.7483 424.4 72.7483 425.18 74.1883 425.18C74.7283 425.18 75.2483 425.06 75.5883 424.88V423.48C75.2883 423.68 74.8483 423.84 74.4283 423.84C73.6683 423.84 73.2483 423.46 73.2483 422.6V417.4H75.3883V416.12H73.2483V413.78H71.7483V416.12H70.3083V417.4H71.7483V422.76ZM79.1759 416.12H77.6759V425H79.1759V416.12ZM79.3959 413.44C79.3959 412.9 78.9559 412.48 78.4159 412.48C77.8959 412.48 77.4559 412.9 77.4559 413.44C77.4559 413.96 77.8959 414.4 78.4159 414.4C78.9559 414.4 79.3959 413.96 79.3959 413.44ZM85.7956 425L89.2556 416.12H87.6756L85.0956 423.1L82.4956 416.12H80.8756L84.3156 425H85.7956ZM97.1628 425V419.08C97.1628 417.14 95.9028 415.94 93.7828 415.94C92.0828 415.94 90.7628 416.96 90.4628 418.46H91.9428C92.2228 417.64 92.8228 417.24 93.7628 417.24C95.0428 417.24 95.7228 418.04 95.7228 419.14V420.26C95.3428 419.92 94.4028 419.54 93.4828 419.54C91.5828 419.54 90.0828 420.66 90.0828 422.32C90.0828 424.08 91.5828 425.16 93.3828 425.16C94.4428 425.16 95.3828 424.7 95.7228 424.34V425H97.1628ZM95.7228 422.8C95.4628 423.46 94.5628 423.9 93.6428 423.9C92.5628 423.9 91.5228 423.4 91.5228 422.32C91.5228 421.26 92.5628 420.78 93.6428 420.78C94.5628 420.78 95.4628 421.22 95.7228 421.88V422.8ZM100.088 422.76C100.088 424.4 101.088 425.18 102.528 425.18C103.068 425.18 103.588 425.06 103.928 424.88V423.48C103.628 423.68 103.188 423.84 102.768 423.84C102.008 423.84 101.588 423.46 101.588 422.6V417.4H103.728V416.12H101.588V413.78H100.088V416.12H98.6481V417.4H100.088V422.76ZM111.518 422.34C111.278 423.34 110.458 423.9 109.358 423.9C107.858 423.9 106.798 422.74 106.778 420.84H113.058V420.3C113.058 417.72 111.758 415.94 109.318 415.94C106.898 415.94 105.278 417.92 105.278 420.58C105.278 423.32 106.938 425.18 109.358 425.18C111.358 425.18 112.618 424.02 112.938 422.34H111.518ZM109.338 417.22C110.818 417.22 111.518 418.38 111.538 419.7H106.818C107.038 418.14 107.998 417.22 109.338 417.22ZM120.958 425H122.478V412H120.958V417.16C120.518 416.52 119.558 415.94 118.458 415.94C115.858 415.94 114.458 418.06 114.458 420.56C114.458 423.08 115.858 425.18 118.458 425.18C119.558 425.18 120.518 424.6 120.958 423.96V425ZM120.958 422.36C120.498 423.28 119.618 423.82 118.678 423.82C116.978 423.82 115.978 422.44 115.978 420.56C115.978 418.68 116.978 417.3 118.678 417.3C119.618 417.3 120.498 417.84 120.958 418.76V422.36ZM133.431 412.72L128.631 425H130.231L131.631 421.3H136.691L138.111 425H139.711L134.911 412.72H133.431ZM134.151 414.68L136.151 419.92H132.151L134.151 414.68ZM151.125 412.72H149.625V422.06L143.085 412.72H141.585V425H143.105V415.24L149.965 425H151.125V412.72ZM152.926 421.52C153.086 423.68 154.526 425.18 156.946 425.18C159.286 425.18 160.946 423.78 160.946 420.92V412.72H159.366V420.92C159.366 422.9 158.426 423.74 156.926 423.74C155.546 423.74 154.706 422.9 154.546 421.52H152.926ZM173.55 416.12H172.21L170.39 422.9L168.43 416.12H166.93L169.55 425H171.01L172.87 418.26L174.71 425H176.17L178.79 416.12H177.33L175.37 422.9L173.55 416.12ZM181.988 416.12H180.488V425H181.988V416.12ZM182.208 413.44C182.208 412.9 181.768 412.48 181.228 412.48C180.708 412.48 180.268 412.9 180.268 413.44C180.268 413.96 180.708 414.4 181.228 414.4C181.768 414.4 182.208 413.96 182.208 413.44ZM186.168 412H184.668V425H186.168V412ZM190.348 412H188.848V425H190.348V412ZM198.942 423.96C199.382 424.6 200.342 425.18 201.442 425.18C204.042 425.18 205.442 423.08 205.442 420.56C205.442 418.06 204.042 415.94 201.442 415.94C200.342 415.94 199.382 416.52 198.942 417.16V412H197.422V425H198.942V423.96ZM198.942 418.76C199.402 417.84 200.282 417.3 201.222 417.3C202.922 417.3 203.922 418.68 203.922 420.56C203.922 422.44 202.922 423.82 201.222 423.82C200.282 423.82 199.402 423.28 198.942 422.36V418.76ZM213.12 422.34C212.88 423.34 212.06 423.9 210.96 423.9C209.46 423.9 208.4 422.74 208.38 420.84H214.66V420.3C214.66 417.72 213.36 415.94 210.92 415.94C208.5 415.94 206.88 417.92 206.88 420.58C206.88 423.32 208.54 425.18 210.96 425.18C212.96 425.18 214.22 424.02 214.54 422.34H213.12ZM210.94 417.22C212.42 417.22 213.12 418.38 213.14 419.7H208.42C208.64 418.14 209.6 417.22 210.94 417.22ZM226.934 425H228.454V412H226.934V417.16C226.494 416.52 225.534 415.94 224.434 415.94C221.834 415.94 220.434 418.06 220.434 420.56C220.434 423.08 221.834 425.18 224.434 425.18C225.534 425.18 226.494 424.6 226.934 423.96V425ZM226.934 422.36C226.474 423.28 225.594 423.82 224.654 423.82C222.954 423.82 221.954 422.44 221.954 420.56C221.954 418.68 222.954 417.3 224.654 417.3C225.594 417.3 226.474 417.84 226.934 418.76V422.36ZM232.613 416.12H231.113V425H232.613V416.12ZM232.833 413.44C232.833 412.9 232.393 412.48 231.853 412.48C231.333 412.48 230.893 412.9 230.893 413.44C230.893 413.96 231.333 414.4 231.853 414.4C232.393 414.4 232.833 413.96 232.833 413.44ZM234.553 422.56C234.833 424.2 236.253 425.18 238.193 425.18C240.093 425.18 241.493 424.18 241.493 422.5C241.493 421.26 240.753 420.42 239.233 420.02L237.513 419.6C236.673 419.36 236.273 419.08 236.273 418.48C236.273 417.62 237.093 417.2 237.973 417.2C239.053 417.2 239.673 417.66 239.933 418.46H241.433C241.113 416.9 239.953 415.94 237.993 415.94C236.193 415.94 234.813 416.98 234.813 418.56C234.813 419.94 235.693 420.58 236.953 420.9L238.713 421.36C239.633 421.6 240.033 421.98 240.033 422.6C240.033 423.5 239.273 423.92 238.213 423.92C237.173 423.92 236.393 423.48 236.113 422.56H234.553ZM243.994 422.76C243.994 424.4 244.994 425.18 246.434 425.18C246.974 425.18 247.494 425.06 247.834 424.88V423.48C247.534 423.68 247.094 423.84 246.674 423.84C245.914 423.84 245.494 423.46 245.494 422.6V417.4H247.634V416.12H245.494V413.78H243.994V416.12H242.554V417.4H243.994V422.76ZM254.482 416.08C254.322 416 254.002 415.94 253.622 415.94C252.642 415.94 251.802 416.52 251.422 417.28V416.12H249.922V425H251.422V419.04C251.722 418 252.542 417.38 253.482 417.38C253.862 417.38 254.242 417.46 254.482 417.62V416.08ZM257.848 416.12H256.348V425H257.848V416.12ZM258.068 413.44C258.068 412.9 257.628 412.48 257.088 412.48C256.568 412.48 256.128 412.9 256.128 413.44C256.128 413.96 256.568 414.4 257.088 414.4C257.628 414.4 258.068 413.96 258.068 413.44ZM262.028 423.96C262.468 424.6 263.428 425.18 264.528 425.18C267.128 425.18 268.528 423.08 268.528 420.56C268.528 418.06 267.128 415.94 264.528 415.94C263.428 415.94 262.468 416.52 262.028 417.16V412H260.507V425H262.028V423.96ZM262.028 418.76C262.488 417.84 263.368 417.3 264.308 417.3C266.008 417.3 267.008 418.68 267.008 420.56C267.008 422.44 266.008 423.82 264.308 423.82C263.368 423.82 262.488 423.28 262.028 422.36V418.76ZM277.647 416.12H276.127V422.14C275.807 423.1 274.947 423.8 273.907 423.8C272.567 423.8 271.967 422.94 271.967 421.7V416.12H270.447V421.94C270.447 423.88 271.527 425.18 273.547 425.18C274.687 425.18 275.627 424.58 276.127 423.88V425H277.647V416.12ZM280.733 422.76C280.733 424.4 281.733 425.18 283.173 425.18C283.713 425.18 284.233 425.06 284.573 424.88V423.48C284.273 423.68 283.833 423.84 283.413 423.84C282.653 423.84 282.233 423.46 282.233 422.6V417.4H284.373V416.12H282.233V413.78H280.733V416.12H279.293V417.4H280.733V422.76ZM292.163 422.34C291.923 423.34 291.103 423.9 290.003 423.9C288.503 423.9 287.443 422.74 287.423 420.84H293.703V420.3C293.703 417.72 292.403 415.94 289.963 415.94C287.543 415.94 285.923 417.92 285.923 420.58C285.923 423.32 287.583 425.18 290.003 425.18C292.003 425.18 293.263 424.02 293.583 422.34H292.163ZM289.983 417.22C291.463 417.22 292.163 418.38 292.183 419.7H287.463C287.683 418.14 288.643 417.22 289.983 417.22ZM301.602 425H303.122V412H301.602V417.16C301.162 416.52 300.202 415.94 299.102 415.94C296.502 415.94 295.102 418.06 295.102 420.56C295.102 423.08 296.502 425.18 299.102 425.18C300.202 425.18 301.162 424.6 301.602 423.96V425ZM301.602 422.36C301.142 423.28 300.262 423.82 299.322 423.82C297.622 423.82 296.622 422.44 296.622 420.56C296.622 418.68 297.622 417.3 299.322 417.3C300.262 417.3 301.142 417.84 301.602 418.76V422.36ZM310.615 422.76C310.615 424.4 311.615 425.18 313.055 425.18C313.595 425.18 314.115 425.06 314.455 424.88V423.48C314.155 423.68 313.715 423.84 313.295 423.84C312.535 423.84 312.115 423.46 312.115 422.6V417.4H314.255V416.12H312.115V413.78H310.615V416.12H309.175V417.4H310.615V422.76ZM323.965 420.56C323.965 417.84 322.305 415.94 319.885 415.94C317.445 415.94 315.805 417.84 315.805 420.56C315.805 423.28 317.445 425.18 319.885 425.18C322.305 425.18 323.965 423.28 323.965 420.56ZM322.445 420.56C322.445 422.5 321.485 423.86 319.885 423.86C318.285 423.86 317.325 422.5 317.325 420.56C317.325 418.62 318.285 417.26 319.885 417.26C321.485 417.26 322.445 418.62 322.445 420.56ZM333.03 428.4L337.81 416.12H336.25L333.67 423.12L331.05 416.12H329.43L332.89 425.06L331.55 428.4H333.03ZM346.876 420.56C346.876 417.84 345.216 415.94 342.796 415.94C340.356 415.94 338.716 417.84 338.716 420.56C338.716 423.28 340.356 425.18 342.796 425.18C345.216 425.18 346.876 423.28 346.876 420.56ZM345.356 420.56C345.356 422.5 344.396 423.86 342.796 423.86C341.196 423.86 340.236 422.5 340.236 420.56C340.236 418.62 341.196 417.26 342.796 417.26C344.396 417.26 345.356 418.62 345.356 420.56ZM355.986 416.12H354.466V422.14C354.146 423.1 353.286 423.8 352.246 423.8C350.906 423.8 350.306 422.94 350.306 421.7V416.12H348.786V421.94C348.786 423.88 349.866 425.18 351.886 425.18C353.026 425.18 353.966 424.58 354.466 423.88V425H355.986V416.12ZM369.507 425V419.08C369.507 417.14 368.247 415.94 366.127 415.94C364.427 415.94 363.107 416.96 362.807 418.46H364.287C364.567 417.64 365.167 417.24 366.107 417.24C367.387 417.24 368.067 418.04 368.067 419.14V420.26C367.687 419.92 366.747 419.54 365.827 419.54C363.927 419.54 362.427 420.66 362.427 422.32C362.427 424.08 363.927 425.16 365.727 425.16C366.787 425.16 367.727 424.7 368.067 424.34V425H369.507ZM368.067 422.8C367.807 423.46 366.907 423.9 365.987 423.9C364.907 423.9 363.867 423.4 363.867 422.32C363.867 421.26 364.907 420.78 365.987 420.78C366.907 420.78 367.807 421.22 368.067 421.88V422.8ZM372.07 425H373.57V418.98C373.89 418.02 374.79 417.32 375.83 417.32C377.17 417.32 377.79 418.18 377.79 419.42V425H379.31V419.18C379.31 417.24 378.21 415.94 376.19 415.94C375.05 415.94 374.09 416.54 373.57 417.24V416.12H372.07V425ZM387.716 425H389.236V412H387.716V417.16C387.276 416.52 386.316 415.94 385.216 415.94C382.616 415.94 381.216 418.06 381.216 420.56C381.216 423.08 382.616 425.18 385.216 425.18C386.316 425.18 387.276 424.6 387.716 423.96V425ZM387.716 422.36C387.256 423.28 386.376 423.82 385.436 423.82C383.736 423.82 382.736 422.44 382.736 420.56C382.736 418.68 383.736 417.3 385.436 417.3C386.376 417.3 387.256 417.84 387.716 418.76V422.36ZM396.729 422.76C396.729 424.4 397.729 425.18 399.169 425.18C399.709 425.18 400.229 425.06 400.569 424.88V423.48C400.269 423.68 399.829 423.84 399.409 423.84C398.649 423.84 398.229 423.46 398.229 422.6V417.4H400.369V416.12H398.229V413.78H396.729V416.12H395.289V417.4H396.729V422.76ZM402.656 425H404.156V418.98C404.476 418.02 405.376 417.32 406.416 417.32C407.756 417.32 408.376 418.18 408.376 419.42V425H409.896V419.18C409.896 417.24 408.796 415.94 406.776 415.94C405.636 415.94 404.676 416.54 404.156 417.24V412H402.656V425ZM418.042 422.34C417.802 423.34 416.982 423.9 415.882 423.9C414.382 423.9 413.322 422.74 413.302 420.84H419.582V420.3C419.582 417.72 418.282 415.94 415.842 415.94C413.422 415.94 411.802 417.92 411.802 420.58C411.802 423.32 413.462 425.18 415.882 425.18C417.882 425.18 419.142 424.02 419.462 422.34H418.042ZM415.862 417.22C417.342 417.22 418.042 418.38 418.062 419.7H413.342C413.562 418.14 414.522 417.22 415.862 417.22ZM433.516 420.56C433.516 417.84 431.856 415.94 429.436 415.94C426.996 415.94 425.356 417.84 425.356 420.56C425.356 423.28 426.996 425.18 429.436 425.18C431.856 425.18 433.516 423.28 433.516 420.56ZM431.996 420.56C431.996 422.5 431.036 423.86 429.436 423.86C427.836 423.86 426.876 422.5 426.876 420.56C426.876 418.62 427.836 417.26 429.436 417.26C431.036 417.26 431.996 418.62 431.996 420.56ZM435.967 422.76C435.967 424.4 436.967 425.18 438.407 425.18C438.947 425.18 439.467 425.06 439.807 424.88V423.48C439.507 423.68 439.067 423.84 438.647 423.84C437.887 423.84 437.467 423.46 437.467 422.6V417.4H439.607V416.12H437.467V413.78H435.967V416.12H434.527V417.4H435.967V422.76ZM441.895 425H443.395V418.98C443.715 418.02 444.615 417.32 445.655 417.32C446.995 417.32 447.615 418.18 447.615 419.42V425H449.135V419.18C449.135 417.24 448.035 415.94 446.015 415.94C444.875 415.94 443.915 416.54 443.395 417.24V412H441.895V425ZM457.28 422.34C457.04 423.34 456.22 423.9 455.12 423.9C453.62 423.9 452.56 422.74 452.54 420.84H458.82V420.3C458.82 417.72 457.52 415.94 455.08 415.94C452.66 415.94 451.04 417.92 451.04 420.58C451.04 423.32 452.7 425.18 455.12 425.18C457.12 425.18 458.38 424.02 458.7 422.34H457.28ZM455.1 417.22C456.58 417.22 457.28 418.38 457.3 419.7H452.58C452.8 418.14 453.76 417.22 455.1 417.22ZM465.38 416.08C465.22 416 464.9 415.94 464.52 415.94C463.54 415.94 462.7 416.52 462.32 417.28V416.12H460.82V425H462.32V419.04C462.62 418 463.44 417.38 464.38 417.38C464.76 417.38 465.14 417.46 465.38 417.62V416.08ZM473.16 416.12H471.66V425.92C471.66 426.92 471.24 427.28 470.46 427.28C470.28 427.28 470.06 427.24 469.94 427.22V428.5C470.1 428.56 470.4 428.58 470.58 428.58C472.24 428.58 473.16 427.68 473.16 426.02V416.12ZM473.38 413.44C473.38 412.9 472.94 412.48 472.4 412.48C471.88 412.48 471.44 412.9 471.44 413.44C471.44 413.96 471.88 414.4 472.4 414.4C472.94 414.4 473.38 413.96 473.38 413.44ZM482.881 416.12H481.361V422.14C481.041 423.1 480.181 423.8 479.141 423.8C477.801 423.8 477.201 422.94 477.201 421.7V416.12H475.681V421.94C475.681 423.88 476.761 425.18 478.781 425.18C479.921 425.18 480.861 424.58 481.361 423.88V425H482.881V416.12ZM490.107 416.08C489.947 416 489.627 415.94 489.247 415.94C488.267 415.94 487.427 416.52 487.047 417.28V416.12H485.547V425H487.047V419.04C487.347 418 488.167 417.38 489.107 417.38C489.487 417.38 489.867 417.46 490.107 417.62V416.08ZM499.239 420.56C499.239 417.84 497.579 415.94 495.159 415.94C492.719 415.94 491.079 417.84 491.079 420.56C491.079 423.28 492.719 425.18 495.159 425.18C497.579 425.18 499.239 423.28 499.239 420.56ZM497.719 420.56C497.719 422.5 496.759 423.86 495.159 423.86C493.559 423.86 492.599 422.5 492.599 420.56C492.599 418.62 493.559 417.26 495.159 417.26C496.759 417.26 497.719 418.62 497.719 420.56ZM505.83 416.08C505.67 416 505.35 415.94 504.97 415.94C503.99 415.94 503.15 416.52 502.77 417.28V416.12H501.27V425H502.77V419.04C503.07 418 503.89 417.38 504.83 417.38C505.21 417.38 505.59 417.46 505.83 417.62V416.08ZM517.75 416.12H516.41L514.59 422.9L512.63 416.12H511.13L513.75 425H515.21L517.07 418.26L518.91 425H520.37L522.99 416.12H521.53L519.57 422.9L517.75 416.12ZM524.688 425H526.188V418.98C526.508 418.02 527.408 417.32 528.448 417.32C529.788 417.32 530.408 418.18 530.408 419.42V425H531.928V419.18C531.928 417.24 530.828 415.94 528.808 415.94C527.668 415.94 526.708 416.54 526.188 417.24V412H524.688V425ZM541.993 420.56C541.993 417.84 540.333 415.94 537.913 415.94C535.473 415.94 533.833 417.84 533.833 420.56C533.833 423.28 535.473 425.18 537.913 425.18C540.333 425.18 541.993 423.28 541.993 420.56ZM540.473 420.56C540.473 422.5 539.513 423.86 537.913 423.86C536.313 423.86 535.353 422.5 535.353 420.56C535.353 418.62 536.313 417.26 537.913 417.26C539.513 417.26 540.473 418.62 540.473 420.56ZM552.378 425L555.838 416.12H554.258L551.678 423.1L549.078 416.12H547.458L550.898 425H552.378ZM564.903 420.56C564.903 417.84 563.243 415.94 560.823 415.94C558.383 415.94 556.743 417.84 556.743 420.56C556.743 423.28 558.383 425.18 560.823 425.18C563.243 425.18 564.903 423.28 564.903 420.56ZM563.383 420.56C563.383 422.5 562.423 423.86 560.823 423.86C559.223 423.86 558.263 422.5 558.263 420.56C558.263 418.62 559.223 417.26 560.823 417.26C562.423 417.26 563.383 418.62 563.383 420.56ZM567.354 422.76C567.354 424.4 568.354 425.18 569.794 425.18C570.334 425.18 570.854 425.06 571.194 424.88V423.48C570.894 423.68 570.454 423.84 570.034 423.84C569.274 423.84 568.854 423.46 568.854 422.6V417.4H570.994V416.12H568.854V413.78H567.354V416.12H565.914V417.4H567.354V422.76ZM578.784 422.34C578.544 423.34 577.724 423.9 576.624 423.9C575.124 423.9 574.064 422.74 574.044 420.84H580.324V420.3C580.324 417.72 579.024 415.94 576.584 415.94C574.164 415.94 572.544 417.92 572.544 420.58C572.544 423.32 574.204 425.18 576.624 425.18C578.624 425.18 579.884 424.02 580.204 422.34H578.784ZM576.604 417.22C578.084 417.22 578.784 418.38 578.804 419.7H574.084C574.304 418.14 575.264 417.22 576.604 417.22ZM588.223 425H589.743V412H588.223V417.16C587.783 416.52 586.823 415.94 585.723 415.94C583.123 415.94 581.723 418.06 581.723 420.56C581.723 423.08 583.123 425.18 585.723 425.18C586.823 425.18 587.783 424.6 588.223 423.96V425ZM588.223 422.36C587.763 423.28 586.883 423.82 585.943 423.82C584.243 423.82 583.243 422.44 583.243 420.56C583.243 418.68 584.243 417.3 585.943 417.3C586.883 417.3 587.763 417.84 588.223 418.76V422.36ZM601.257 412.02C600.917 411.88 600.577 411.82 600.097 411.82C598.537 411.82 597.377 412.86 597.377 414.64V416.12H595.877V417.4H597.377V425H598.857V417.4H600.857V416.12H598.857V414.76C598.857 413.7 599.437 413.14 600.317 413.14C600.637 413.14 600.977 413.2 601.257 413.38V412.02ZM609.981 420.56C609.981 417.84 608.321 415.94 605.901 415.94C603.461 415.94 601.821 417.84 601.821 420.56C601.821 423.28 603.461 425.18 605.901 425.18C608.321 425.18 609.981 423.28 609.981 420.56ZM608.461 420.56C608.461 422.5 607.501 423.86 605.901 423.86C604.301 423.86 603.341 422.5 603.341 420.56C603.341 418.62 604.301 417.26 605.901 417.26C607.501 417.26 608.461 418.62 608.461 420.56ZM616.572 416.08C616.412 416 616.092 415.94 615.712 415.94C614.732 415.94 613.892 416.52 613.512 417.28V416.12H612.012V425H613.512V419.04C613.812 418 614.632 417.38 615.572 417.38C615.952 417.38 616.332 417.46 616.572 417.62V416.08ZM626.732 412.72L621.932 425H623.532L624.932 421.3H629.992L631.412 425H633.012L628.212 412.72H626.732ZM627.452 414.68L629.452 419.92H625.452L627.452 414.68ZM636.266 412H634.766V425H636.266V412ZM640.445 416.12H638.945V425H640.445V416.12ZM640.665 413.44C640.665 412.9 640.225 412.48 639.685 412.48C639.165 412.48 638.725 412.9 638.725 413.44C638.725 413.96 639.165 414.4 639.685 414.4C640.225 414.4 640.665 413.96 640.665 413.44ZM642.485 420.56C642.485 423.32 644.145 425.18 646.525 425.18C648.525 425.18 649.785 424.02 650.085 422.32H648.545C648.345 423.28 647.585 423.86 646.525 423.86C645.005 423.86 644.005 422.5 644.005 420.56C644.005 418.62 645.005 417.26 646.525 417.26C647.585 417.26 648.345 417.84 648.545 418.8H650.085C649.785 417.1 648.525 415.94 646.525 415.94C644.145 415.94 642.485 417.8 642.485 420.56ZM657.612 422.34C657.372 423.34 656.552 423.9 655.452 423.9C653.952 423.9 652.892 422.74 652.872 420.84H659.152V420.3C659.152 417.72 657.852 415.94 655.412 415.94C652.992 415.94 651.372 417.92 651.372 420.58C651.372 423.32 653.032 425.18 655.452 425.18C657.452 425.18 658.712 424.02 659.032 422.34H657.612ZM655.432 417.22C656.912 417.22 657.612 418.38 657.632 419.7H652.912C653.132 418.14 654.092 417.22 655.432 417.22ZM672.007 425V419.08C672.007 417.14 670.747 415.94 668.627 415.94C666.927 415.94 665.607 416.96 665.307 418.46H666.787C667.067 417.64 667.667 417.24 668.607 417.24C669.887 417.24 670.567 418.04 670.567 419.14V420.26C670.187 419.92 669.247 419.54 668.327 419.54C666.427 419.54 664.927 420.66 664.927 422.32C664.927 424.08 666.427 425.16 668.227 425.16C669.287 425.16 670.227 424.7 670.567 424.34V425H672.007ZM670.567 422.8C670.307 423.46 669.407 423.9 668.487 423.9C667.407 423.9 666.367 423.4 666.367 422.32C666.367 421.26 667.407 420.78 668.487 420.78C669.407 420.78 670.307 421.22 670.567 421.88V422.8ZM673.83 422.56C674.11 424.2 675.53 425.18 677.47 425.18C679.37 425.18 680.77 424.18 680.77 422.5C680.77 421.26 680.03 420.42 678.51 420.02L676.79 419.6C675.95 419.36 675.55 419.08 675.55 418.48C675.55 417.62 676.37 417.2 677.25 417.2C678.33 417.2 678.95 417.66 679.21 418.46H680.71C680.39 416.9 679.23 415.94 677.27 415.94C675.47 415.94 674.09 416.98 674.09 418.56C674.09 419.94 674.97 420.58 676.23 420.9L677.99 421.36C678.91 421.6 679.31 421.98 679.31 422.6C679.31 423.5 678.55 423.92 677.49 423.92C676.45 423.92 675.67 423.48 675.39 422.56H673.83ZM693.706 425V419.08C693.706 417.14 692.446 415.94 690.326 415.94C688.626 415.94 687.306 416.96 687.006 418.46H688.486C688.766 417.64 689.366 417.24 690.306 417.24C691.586 417.24 692.266 418.04 692.266 419.14V420.26C691.886 419.92 690.946 419.54 690.026 419.54C688.126 419.54 686.626 420.66 686.626 422.32C686.626 424.08 688.126 425.16 689.926 425.16C690.986 425.16 691.926 424.7 692.266 424.34V425H693.706ZM692.266 422.8C692.006 423.46 691.106 423.9 690.186 423.9C689.106 423.9 688.066 423.4 688.066 422.32C688.066 421.26 689.106 420.78 690.186 420.78C691.106 420.78 692.006 421.22 692.266 421.88V422.8ZM57.9 443.08C57.74 443 57.42 442.94 57.04 442.94C56.06 442.94 55.22 443.52 54.84 444.28V443.12H53.34V452H54.84V446.04C55.14 445 55.96 444.38 56.9 444.38C57.28 444.38 57.66 444.46 57.9 444.62V443.08ZM65.1119 449.34C64.8719 450.34 64.0519 450.9 62.9519 450.9C61.4519 450.9 60.3919 449.74 60.3719 447.84H66.6519V447.3C66.6519 444.72 65.3519 442.94 62.9119 442.94C60.4919 442.94 58.8719 444.92 58.8719 447.58C58.8719 450.32 60.5319 452.18 62.9519 452.18C64.9519 452.18 66.2119 451.02 66.5319 449.34H65.1119ZM62.9319 444.22C64.4119 444.22 65.1119 445.38 65.1319 446.7H60.4119C60.6319 445.14 61.5919 444.22 62.9319 444.22ZM74.2925 443.12H72.9525L71.1325 449.9L69.1725 443.12H67.6725L70.2925 452H71.7525L73.6125 445.26L75.4525 452H76.9125L79.5325 443.12H78.0725L76.1125 449.9L74.2925 443.12ZM87.612 452V446.08C87.612 444.14 86.352 442.94 84.232 442.94C82.532 442.94 81.212 443.96 80.912 445.46H82.392C82.672 444.64 83.272 444.24 84.212 444.24C85.492 444.24 86.172 445.04 86.172 446.14V447.26C85.792 446.92 84.852 446.54 83.932 446.54C82.032 446.54 80.532 447.66 80.532 449.32C80.532 451.08 82.032 452.16 83.832 452.16C84.892 452.16 85.832 451.7 86.172 451.34V452H87.612ZM86.172 449.8C85.912 450.46 85.012 450.9 84.092 450.9C83.012 450.9 81.972 450.4 81.972 449.32C81.972 448.26 83.012 447.78 84.092 447.78C85.012 447.78 85.912 448.22 86.172 448.88V449.8ZM94.7359 443.08C94.5759 443 94.2559 442.94 93.8759 442.94C92.8959 442.94 92.0559 443.52 91.6759 444.28V443.12H90.1759V452H91.6759V446.04C91.9759 445 92.7959 444.38 93.7359 444.38C94.1159 444.38 94.4959 444.46 94.7359 444.62V443.08ZM102.208 452H103.728V439H102.208V444.16C101.768 443.52 100.808 442.94 99.7078 442.94C97.1078 442.94 95.7078 445.06 95.7078 447.56C95.7078 450.08 97.1078 452.18 99.7078 452.18C100.808 452.18 101.768 451.6 102.208 450.96V452ZM102.208 449.36C101.748 450.28 100.868 450.82 99.9278 450.82C98.2278 450.82 97.2278 449.44 97.2278 447.56C97.2278 445.68 98.2278 444.3 99.9278 444.3C100.868 444.3 101.748 444.84 102.208 445.76V449.36ZM105.687 451.02C105.687 451.64 106.167 452.1 106.767 452.1C107.347 452.1 107.827 451.64 107.827 451.02C107.827 450.4 107.347 449.92 106.767 449.92C106.167 449.92 105.687 450.4 105.687 451.02ZM113.479 441.12H117.759V452H119.339V441.12H123.619V439.72H113.479V441.12ZM125.567 452H127.067V445.98C127.387 445.02 128.287 444.32 129.327 444.32C130.667 444.32 131.287 445.18 131.287 446.42V452H132.807V446.18C132.807 444.24 131.707 442.94 129.687 442.94C128.547 442.94 127.587 443.54 127.067 444.24V439H125.567V452ZM136.852 443.12H135.352V452H136.852V443.12ZM137.072 440.44C137.072 439.9 136.632 439.48 136.092 439.48C135.572 439.48 135.132 439.9 135.132 440.44C135.132 440.96 135.572 441.4 136.092 441.4C136.632 441.4 137.072 440.96 137.072 440.44ZM138.791 449.56C139.071 451.2 140.491 452.18 142.431 452.18C144.331 452.18 145.731 451.18 145.731 449.5C145.731 448.26 144.991 447.42 143.471 447.02L141.751 446.6C140.911 446.36 140.511 446.08 140.511 445.48C140.511 444.62 141.331 444.2 142.211 444.2C143.291 444.2 143.911 444.66 144.171 445.46H145.671C145.351 443.9 144.191 442.94 142.231 442.94C140.431 442.94 139.051 443.98 139.051 445.56C139.051 446.94 139.931 447.58 141.191 447.9L142.951 448.36C143.871 448.6 144.271 448.98 144.271 449.6C144.271 450.5 143.511 450.92 142.451 450.92C141.411 450.92 140.631 450.48 140.351 449.56H138.791ZM156.787 443.08C156.627 443 156.307 442.94 155.927 442.94C154.947 442.94 154.107 443.52 153.727 444.28V443.12H152.227V452H153.727V446.04C154.027 445 154.847 444.38 155.787 444.38C156.167 444.38 156.547 444.46 156.787 444.62V443.08ZM163.999 449.34C163.759 450.34 162.939 450.9 161.839 450.9C160.339 450.9 159.279 449.74 159.259 447.84H165.539V447.3C165.539 444.72 164.239 442.94 161.799 442.94C159.379 442.94 157.759 444.92 157.759 447.58C157.759 450.32 159.419 452.18 161.839 452.18C163.839 452.18 165.099 451.02 165.419 449.34H163.999ZM161.819 444.22C163.299 444.22 163.999 445.38 164.019 446.7H159.299C159.519 445.14 160.479 444.22 161.819 444.22ZM173.179 443.12H171.839L170.019 449.9L168.059 443.12H166.559L169.179 452H170.639L172.499 445.26L174.339 452H175.799L178.419 443.12H176.959L174.999 449.9L173.179 443.12ZM186.499 452V446.08C186.499 444.14 185.239 442.94 183.119 442.94C181.419 442.94 180.099 443.96 179.799 445.46H181.279C181.559 444.64 182.159 444.24 183.099 444.24C184.379 444.24 185.059 445.04 185.059 446.14V447.26C184.679 446.92 183.739 446.54 182.819 446.54C180.919 446.54 179.419 447.66 179.419 449.32C179.419 451.08 180.919 452.16 182.719 452.16C183.779 452.16 184.719 451.7 185.059 451.34V452H186.499ZM185.059 449.8C184.799 450.46 183.899 450.9 182.979 450.9C181.899 450.9 180.859 450.4 180.859 449.32C180.859 448.26 181.899 447.78 182.979 447.78C183.899 447.78 184.799 448.22 185.059 448.88V449.8ZM193.623 443.08C193.463 443 193.143 442.94 192.763 442.94C191.783 442.94 190.943 443.52 190.563 444.28V443.12H189.063V452H190.563V446.04C190.863 445 191.683 444.38 192.623 444.38C193.003 444.38 193.383 444.46 193.623 444.62V443.08ZM201.095 452H202.615V439H201.095V444.16C200.655 443.52 199.695 442.94 198.595 442.94C195.995 442.94 194.595 445.06 194.595 447.56C194.595 450.08 195.995 452.18 198.595 452.18C199.695 452.18 200.655 451.6 201.095 450.96V452ZM201.095 449.36C200.635 450.28 199.755 450.82 198.815 450.82C197.115 450.82 196.115 449.44 196.115 447.56C196.115 445.68 197.115 444.3 198.815 444.3C199.755 444.3 200.635 444.84 201.095 445.76V449.36ZM211.188 443.12H209.688V452H211.188V443.12ZM211.408 440.44C211.408 439.9 210.968 439.48 210.428 439.48C209.908 439.48 209.468 439.9 209.468 440.44C209.468 440.96 209.908 441.4 210.428 441.4C210.968 441.4 211.408 440.96 211.408 440.44ZM213.127 449.56C213.407 451.2 214.827 452.18 216.767 452.18C218.667 452.18 220.067 451.18 220.067 449.5C220.067 448.26 219.327 447.42 217.807 447.02L216.087 446.6C215.247 446.36 214.847 446.08 214.847 445.48C214.847 444.62 215.667 444.2 216.547 444.2C217.627 444.2 218.247 444.66 218.507 445.46H220.007C219.687 443.9 218.527 442.94 216.567 442.94C214.767 442.94 213.387 443.98 213.387 445.56C213.387 446.94 214.267 447.58 215.527 447.9L217.287 448.36C218.207 448.6 218.607 448.98 218.607 449.6C218.607 450.5 217.847 450.92 216.787 450.92C215.747 450.92 214.967 450.48 214.687 449.56H213.127ZM228.063 443.12H226.563V452H228.063V443.12ZM228.283 440.44C228.283 439.9 227.843 439.48 227.303 439.48C226.783 439.48 226.343 439.9 226.343 440.44C226.343 440.96 226.783 441.4 227.303 441.4C227.843 441.4 228.283 440.96 228.283 440.44ZM230.742 452H232.242V445.98C232.562 445.02 233.462 444.32 234.502 444.32C235.842 444.32 236.462 445.18 236.462 446.42V452H237.982V446.18C237.982 444.24 236.882 442.94 234.862 442.94C233.722 442.94 232.762 443.54 232.242 444.24V443.12H230.742V452ZM251.382 452V446.08C251.382 444.14 250.122 442.94 248.002 442.94C246.302 442.94 244.982 443.96 244.682 445.46H246.162C246.442 444.64 247.042 444.24 247.982 444.24C249.262 444.24 249.942 445.04 249.942 446.14V447.26C249.562 446.92 248.622 446.54 247.702 446.54C245.802 446.54 244.302 447.66 244.302 449.32C244.302 451.08 245.802 452.16 247.602 452.16C248.662 452.16 249.602 451.7 249.942 451.34V452H251.382ZM249.942 449.8C249.682 450.46 248.782 450.9 247.862 450.9C246.782 450.9 245.742 450.4 245.742 449.32C245.742 448.26 246.782 447.78 247.862 447.78C248.782 447.78 249.682 448.22 249.942 448.88V449.8ZM259.805 452H261.325V439H259.805V444.16C259.365 443.52 258.405 442.94 257.305 442.94C254.705 442.94 253.305 445.06 253.305 447.56C253.305 450.08 254.705 452.18 257.305 452.18C258.405 452.18 259.365 451.6 259.805 450.96V452ZM259.805 449.36C259.345 450.28 258.465 450.82 257.525 450.82C255.825 450.82 254.825 449.44 254.825 447.56C254.825 445.68 255.825 444.3 257.525 444.3C258.465 444.3 259.345 444.84 259.805 445.76V449.36ZM269.845 452H271.365V439H269.845V444.16C269.405 443.52 268.445 442.94 267.345 442.94C264.745 442.94 263.345 445.06 263.345 447.56C263.345 450.08 264.745 452.18 267.345 452.18C268.445 452.18 269.405 451.6 269.845 450.96V452ZM269.845 449.36C269.385 450.28 268.505 450.82 267.565 450.82C265.865 450.82 264.865 449.44 264.865 447.56C264.865 445.68 265.865 444.3 267.565 444.3C268.505 444.3 269.385 444.84 269.845 445.76V449.36ZM275.524 443.12H274.024V452H275.524V443.12ZM275.744 440.44C275.744 439.9 275.304 439.48 274.764 439.48C274.244 439.48 273.804 439.9 273.804 440.44C273.804 440.96 274.244 441.4 274.764 441.4C275.304 441.4 275.744 440.96 275.744 440.44ZM278.623 449.76C278.623 451.4 279.623 452.18 281.063 452.18C281.603 452.18 282.123 452.06 282.463 451.88V450.48C282.163 450.68 281.723 450.84 281.303 450.84C280.543 450.84 280.123 450.46 280.123 449.6V444.4H282.263V443.12H280.123V440.78H278.623V443.12H277.183V444.4H278.623V449.76ZM286.051 443.12H284.551V452H286.051V443.12ZM286.271 440.44C286.271 439.9 285.831 439.48 285.291 439.48C284.771 439.48 284.331 439.9 284.331 440.44C284.331 440.96 284.771 441.4 285.291 441.4C285.831 441.4 286.271 440.96 286.271 440.44ZM296.251 447.56C296.251 444.84 294.591 442.94 292.171 442.94C289.731 442.94 288.091 444.84 288.091 447.56C288.091 450.28 289.731 452.18 292.171 452.18C294.591 452.18 296.251 450.28 296.251 447.56ZM294.731 447.56C294.731 449.5 293.771 450.86 292.171 450.86C290.571 450.86 289.611 449.5 289.611 447.56C289.611 445.62 290.571 444.26 292.171 444.26C293.771 444.26 294.731 445.62 294.731 447.56ZM298.281 452H299.781V445.98C300.101 445.02 301.001 444.32 302.041 444.32C303.381 444.32 304.001 445.18 304.001 446.42V452H305.521V446.18C305.521 444.24 304.421 442.94 302.401 442.94C301.261 442.94 300.301 443.54 299.781 444.24V443.12H298.281V452ZM312.901 449.76C312.901 451.4 313.901 452.18 315.341 452.18C315.881 452.18 316.401 452.06 316.741 451.88V450.48C316.441 450.68 316.001 450.84 315.581 450.84C314.821 450.84 314.401 450.46 314.401 449.6V444.4H316.541V443.12H314.401V440.78H312.901V443.12H311.461V444.4H312.901V449.76ZM326.251 447.56C326.251 444.84 324.591 442.94 322.171 442.94C319.731 442.94 318.091 444.84 318.091 447.56C318.091 450.28 319.731 452.18 322.171 452.18C324.591 452.18 326.251 450.28 326.251 447.56ZM324.731 447.56C324.731 449.5 323.771 450.86 322.171 450.86C320.571 450.86 319.611 449.5 319.611 447.56C319.611 445.62 320.571 444.26 322.171 444.26C323.771 444.26 324.731 445.62 324.731 447.56ZM333.115 449.76C333.115 451.4 334.115 452.18 335.555 452.18C336.095 452.18 336.615 452.06 336.955 451.88V450.48C336.655 450.68 336.215 450.84 335.795 450.84C335.035 450.84 334.615 450.46 334.615 449.6V444.4H336.755V443.12H334.615V440.78H333.115V443.12H331.675V444.4H333.115V449.76ZM339.043 452H340.543V445.98C340.863 445.02 341.763 444.32 342.803 444.32C344.143 444.32 344.763 445.18 344.763 446.42V452H346.283V446.18C346.283 444.24 345.183 442.94 343.163 442.94C342.023 442.94 341.063 443.54 340.543 444.24V439H339.043V452ZM354.428 449.34C354.188 450.34 353.368 450.9 352.268 450.9C350.768 450.9 349.708 449.74 349.688 447.84H355.968V447.3C355.968 444.72 354.668 442.94 352.228 442.94C349.808 442.94 348.188 444.92 348.188 447.58C348.188 450.32 349.848 452.18 352.268 452.18C354.268 452.18 355.528 451.02 355.848 449.34H354.428ZM352.248 444.22C353.728 444.22 354.428 445.38 354.448 446.7H349.728C349.948 445.14 350.908 444.22 352.248 444.22ZM366.943 443.08C366.783 443 366.463 442.94 366.083 442.94C365.103 442.94 364.263 443.52 363.883 444.28V443.12H362.383V452H363.883V446.04C364.183 445 365.003 444.38 365.943 444.38C366.323 444.38 366.703 444.46 366.943 444.62V443.08ZM374.155 449.34C373.915 450.34 373.095 450.9 371.995 450.9C370.495 450.9 369.435 449.74 369.415 447.84H375.695V447.3C375.695 444.72 374.395 442.94 371.955 442.94C369.535 442.94 367.915 444.92 367.915 447.58C367.915 450.32 369.575 452.18 371.995 452.18C373.995 452.18 375.255 451.02 375.575 449.34H374.155ZM371.975 444.22C373.455 444.22 374.155 445.38 374.175 446.7H369.455C369.675 445.14 370.635 444.22 371.975 444.22ZM383.335 443.12H381.995L380.175 449.9L378.215 443.12H376.715L379.335 452H380.795L382.655 445.26L384.495 452H385.955L388.575 443.12H387.115L385.155 449.9L383.335 443.12ZM396.655 452V446.08C396.655 444.14 395.395 442.94 393.275 442.94C391.575 442.94 390.255 443.96 389.955 445.46H391.435C391.715 444.64 392.315 444.24 393.255 444.24C394.535 444.24 395.215 445.04 395.215 446.14V447.26C394.835 446.92 393.895 446.54 392.975 446.54C391.075 446.54 389.575 447.66 389.575 449.32C389.575 451.08 391.075 452.16 392.875 452.16C393.935 452.16 394.875 451.7 395.215 451.34V452H396.655ZM395.215 449.8C394.955 450.46 394.055 450.9 393.135 450.9C392.055 450.9 391.015 450.4 391.015 449.32C391.015 448.26 392.055 447.78 393.135 447.78C394.055 447.78 394.955 448.22 395.215 448.88V449.8ZM403.779 443.08C403.619 443 403.299 442.94 402.919 442.94C401.939 442.94 401.099 443.52 400.719 444.28V443.12H399.219V452H400.719V446.04C401.019 445 401.839 444.38 402.779 444.38C403.159 444.38 403.539 444.46 403.779 444.62V443.08ZM411.251 452H412.771V439H411.251V444.16C410.811 443.52 409.851 442.94 408.751 442.94C406.151 442.94 404.751 445.06 404.751 447.56C404.751 450.08 406.151 452.18 408.751 452.18C409.851 452.18 410.811 451.6 411.251 450.96V452ZM411.251 449.36C410.791 450.28 409.911 450.82 408.971 450.82C407.271 450.82 406.271 449.44 406.271 447.56C406.271 445.68 407.271 444.3 408.971 444.3C409.911 444.3 410.791 444.84 411.251 445.76V449.36ZM414.69 449.56C414.97 451.2 416.39 452.18 418.33 452.18C420.23 452.18 421.63 451.18 421.63 449.5C421.63 448.26 420.89 447.42 419.37 447.02L417.65 446.6C416.81 446.36 416.41 446.08 416.41 445.48C416.41 444.62 417.23 444.2 418.11 444.2C419.19 444.2 419.81 444.66 420.07 445.46H421.57C421.25 443.9 420.09 442.94 418.13 442.94C416.33 442.94 414.95 443.98 414.95 445.56C414.95 446.94 415.83 447.58 417.09 447.9L418.85 448.36C419.77 448.6 420.17 448.98 420.17 449.6C420.17 450.5 419.41 450.92 418.35 450.92C417.31 450.92 416.53 450.48 416.25 449.56H414.69ZM433.725 449.34C433.485 450.34 432.665 450.9 431.565 450.9C430.065 450.9 429.005 449.74 428.985 447.84H435.265V447.3C435.265 444.72 433.965 442.94 431.525 442.94C429.105 442.94 427.485 444.92 427.485 447.58C427.485 450.32 429.145 452.18 431.565 452.18C433.565 452.18 434.825 451.02 435.145 449.34H433.725ZM431.545 444.22C433.025 444.22 433.725 445.38 433.745 446.7H429.025C429.245 445.14 430.205 444.22 431.545 444.22ZM443.706 452V446.08C443.706 444.14 442.446 442.94 440.326 442.94C438.626 442.94 437.306 443.96 437.006 445.46H438.486C438.766 444.64 439.366 444.24 440.306 444.24C441.586 444.24 442.266 445.04 442.266 446.14V447.26C441.886 446.92 440.946 446.54 440.026 446.54C438.126 446.54 436.626 447.66 436.626 449.32C436.626 451.08 438.126 452.16 439.926 452.16C440.986 452.16 441.926 451.7 442.266 451.34V452H443.706ZM442.266 449.8C442.006 450.46 441.106 450.9 440.186 450.9C439.106 450.9 438.066 450.4 438.066 449.32C438.066 448.26 439.106 447.78 440.186 447.78C441.106 447.78 442.006 448.22 442.266 448.88V449.8ZM450.83 443.08C450.67 443 450.35 442.94 449.97 442.94C448.99 442.94 448.15 443.52 447.77 444.28V443.12H446.27V452H447.77V446.04C448.07 445 448.89 444.38 449.83 444.38C450.21 444.38 450.59 444.46 450.83 444.62V443.08ZM452.695 452H454.195V445.98C454.515 445.02 455.415 444.32 456.455 444.32C457.795 444.32 458.415 445.18 458.415 446.42V452H459.935V446.18C459.935 444.24 458.835 442.94 456.815 442.94C455.675 442.94 454.715 443.54 454.195 444.24V443.12H452.695V452ZM468.081 449.34C467.841 450.34 467.021 450.9 465.921 450.9C464.421 450.9 463.361 449.74 463.341 447.84H469.621V447.3C469.621 444.72 468.321 442.94 465.881 442.94C463.461 442.94 461.841 444.92 461.841 447.58C461.841 450.32 463.501 452.18 465.921 452.18C467.921 452.18 469.181 451.02 469.501 449.34H468.081ZM465.901 444.22C467.381 444.22 468.081 445.38 468.101 446.7H463.381C463.601 445.14 464.561 444.22 465.901 444.22ZM477.52 452H479.04V439H477.52V444.16C477.08 443.52 476.12 442.94 475.02 442.94C472.42 442.94 471.02 445.06 471.02 447.56C471.02 450.08 472.42 452.18 475.02 452.18C476.12 452.18 477.08 451.6 477.52 450.96V452ZM477.52 449.36C477.06 450.28 476.18 450.82 475.24 450.82C473.54 450.82 472.54 449.44 472.54 447.56C472.54 445.68 473.54 444.3 475.24 444.3C476.18 444.3 477.06 444.84 477.52 445.76V449.36ZM490.553 439.02C490.213 438.88 489.873 438.82 489.393 438.82C487.833 438.82 486.673 439.86 486.673 441.64V443.12H485.173V444.4H486.673V452H488.153V444.4H490.153V443.12H488.153V441.76C488.153 440.7 488.733 440.14 489.613 440.14C489.933 440.14 490.273 440.2 490.553 440.38V439.02ZM496.455 443.08C496.295 443 495.975 442.94 495.595 442.94C494.615 442.94 493.775 443.52 493.395 444.28V443.12H491.895V452H493.395V446.04C493.695 445 494.515 444.38 495.455 444.38C495.835 444.38 496.215 444.46 496.455 444.62V443.08ZM505.587 447.56C505.587 444.84 503.927 442.94 501.507 442.94C499.067 442.94 497.427 444.84 497.427 447.56C497.427 450.28 499.067 452.18 501.507 452.18C503.927 452.18 505.587 450.28 505.587 447.56ZM504.067 447.56C504.067 449.5 503.107 450.86 501.507 450.86C499.907 450.86 498.947 449.5 498.947 447.56C498.947 445.62 499.907 444.26 501.507 444.26C503.107 444.26 504.067 445.62 504.067 447.56ZM513.917 444.36C513.497 443.52 512.637 442.94 511.517 442.94C510.417 442.94 509.557 443.46 509.117 444.16V443.12H507.617V452H509.117V445.88C509.397 444.92 510.177 444.3 511.077 444.3C512.217 444.3 512.757 445.12 512.757 446.36V452H514.257V445.88C514.537 444.92 515.317 444.3 516.217 444.3C517.357 444.3 517.897 445.12 517.897 446.36V452H519.417V446.12C519.417 444.2 518.417 442.94 516.617 442.94C515.377 442.94 514.477 443.56 513.917 444.36ZM525.487 448.8C525.947 450.96 527.767 452.18 530.207 452.18C532.647 452.18 534.447 450.84 534.447 448.62C534.447 446.88 533.347 445.82 531.387 445.32L529.287 444.78C528.007 444.44 527.327 443.94 527.327 442.9C527.327 441.64 528.407 440.88 529.867 440.88C531.487 440.88 532.407 441.68 532.787 442.78H534.367C533.907 440.84 532.407 439.54 529.867 439.54C527.547 439.54 525.827 440.94 525.827 443.02C525.827 444.88 527.067 445.74 528.767 446.18L530.967 446.76C532.387 447.12 532.927 447.74 532.927 448.7C532.927 450.06 531.807 450.84 530.207 450.84C528.707 450.84 527.547 450.16 527.087 448.8H525.487ZM543.623 443.12H542.103V449.14C541.783 450.1 540.923 450.8 539.883 450.8C538.543 450.8 537.943 449.94 537.943 448.7V443.12H536.423V448.94C536.423 450.88 537.503 452.18 539.523 452.18C540.663 452.18 541.603 451.58 542.103 450.88V452H543.623V443.12ZM547.789 450.96C548.229 451.6 549.189 452.18 550.289 452.18C552.889 452.18 554.289 450.08 554.289 447.56C554.289 445.06 552.889 442.94 550.289 442.94C549.189 442.94 548.229 443.52 547.789 444.16V439H546.269V452H547.789V450.96ZM547.789 445.76C548.249 444.84 549.129 444.3 550.069 444.3C551.769 444.3 552.769 445.68 552.769 447.56C552.769 449.44 551.769 450.82 550.069 450.82C549.129 450.82 548.249 450.28 547.789 449.36V445.76ZM555.588 449.56C555.868 451.2 557.288 452.18 559.228 452.18C561.128 452.18 562.528 451.18 562.528 449.5C562.528 448.26 561.788 447.42 560.268 447.02L558.548 446.6C557.708 446.36 557.308 446.08 557.308 445.48C557.308 444.62 558.128 444.2 559.008 444.2C560.088 444.2 560.708 444.66 560.968 445.46H562.468C562.148 443.9 560.988 442.94 559.028 442.94C557.228 442.94 555.848 443.98 555.848 445.56C555.848 446.94 556.728 447.58 557.988 447.9L559.748 448.36C560.668 448.6 561.068 448.98 561.068 449.6C561.068 450.5 560.308 450.92 559.248 450.92C558.208 450.92 557.428 450.48 557.148 449.56H555.588ZM563.97 447.56C563.97 450.32 565.63 452.18 568.01 452.18C570.01 452.18 571.27 451.02 571.57 449.32H570.03C569.83 450.28 569.07 450.86 568.01 450.86C566.49 450.86 565.49 449.5 565.49 447.56C565.49 445.62 566.49 444.26 568.01 444.26C569.07 444.26 569.83 444.84 570.03 445.8H571.57C571.27 444.1 570.01 442.94 568.01 442.94C565.63 442.94 563.97 444.8 563.97 447.56ZM578.095 443.08C577.935 443 577.615 442.94 577.235 442.94C576.255 442.94 575.415 443.52 575.035 444.28V443.12H573.535V452H575.035V446.04C575.335 445 576.155 444.38 577.095 444.38C577.475 444.38 577.855 444.46 578.095 444.62V443.08ZM581.461 443.12H579.961V452H581.461V443.12ZM581.681 440.44C581.681 439.9 581.241 439.48 580.701 439.48C580.181 439.48 579.741 439.9 579.741 440.44C579.741 440.96 580.181 441.4 580.701 441.4C581.241 441.4 581.681 440.96 581.681 440.44ZM585.641 450.96C586.101 451.6 587.041 452.18 588.141 452.18C590.761 452.18 592.141 450.02 592.141 447.56C592.141 445.1 590.761 442.94 588.141 442.94C587.041 442.94 586.101 443.52 585.641 444.16V443.12H584.141V455.4H585.641V450.96ZM585.641 445.76C586.101 444.84 586.981 444.3 587.921 444.3C589.621 444.3 590.621 445.68 590.621 447.56C590.621 449.44 589.621 450.82 587.921 450.82C586.981 450.82 586.101 450.28 585.641 449.36V445.76ZM594.6 449.76C594.6 451.4 595.6 452.18 597.04 452.18C597.58 452.18 598.1 452.06 598.44 451.88V450.48C598.14 450.68 597.7 450.84 597.28 450.84C596.52 450.84 596.1 450.46 596.1 449.6V444.4H598.24V443.12H596.1V440.78H594.6V443.12H593.16V444.4H594.6V449.76ZM602.028 443.12H600.528V452H602.028V443.12ZM602.248 440.44C602.248 439.9 601.808 439.48 601.268 439.48C600.748 439.48 600.308 439.9 600.308 440.44C600.308 440.96 600.748 441.4 601.268 441.4C601.808 441.4 602.248 440.96 602.248 440.44ZM612.227 447.56C612.227 444.84 610.567 442.94 608.147 442.94C605.707 442.94 604.067 444.84 604.067 447.56C604.067 450.28 605.707 452.18 608.147 452.18C610.567 452.18 612.227 450.28 612.227 447.56ZM610.707 447.56C610.707 449.5 609.747 450.86 608.147 450.86C606.547 450.86 605.587 449.5 605.587 447.56C605.587 445.62 606.547 444.26 608.147 444.26C609.747 444.26 610.707 445.62 610.707 447.56ZM614.258 452H615.758V445.98C616.078 445.02 616.978 444.32 618.018 444.32C619.358 444.32 619.978 445.18 619.978 446.42V452H621.498V446.18C621.498 444.24 620.398 442.94 618.378 442.94C617.238 442.94 616.278 443.54 615.758 444.24V443.12H614.258V452ZM634.897 452V446.08C634.897 444.14 633.637 442.94 631.517 442.94C629.817 442.94 628.497 443.96 628.197 445.46H629.677C629.957 444.64 630.557 444.24 631.497 444.24C632.777 444.24 633.457 445.04 633.457 446.14V447.26C633.077 446.92 632.137 446.54 631.217 446.54C629.317 446.54 627.817 447.66 627.817 449.32C627.817 451.08 629.317 452.16 631.117 452.16C632.177 452.16 633.117 451.7 633.457 451.34V452H634.897ZM633.457 449.8C633.197 450.46 632.297 450.9 631.377 450.9C630.297 450.9 629.257 450.4 629.257 449.32C629.257 448.26 630.297 447.78 631.377 447.78C632.297 447.78 633.197 448.22 633.457 448.88V449.8ZM637.461 452H638.961V445.98C639.281 445.02 640.181 444.32 641.221 444.32C642.561 444.32 643.181 445.18 643.181 446.42V452H644.701V446.18C644.701 444.24 643.601 442.94 641.581 442.94C640.441 442.94 639.481 443.54 638.961 444.24V443.12H637.461V452ZM653.106 452H654.626V439H653.106V444.16C652.666 443.52 651.706 442.94 650.606 442.94C648.006 442.94 646.606 445.06 646.606 447.56C646.606 450.08 648.006 452.18 650.606 452.18C651.706 452.18 652.666 451.6 653.106 450.96V452ZM653.106 449.36C652.646 450.28 651.766 450.82 650.826 450.82C649.126 450.82 648.126 449.44 648.126 447.56C648.126 445.68 649.126 444.3 650.826 444.3C651.766 444.3 652.646 444.84 653.106 445.76V449.36ZM663.399 450.58V441.12H665.739C668.519 441.12 670.159 442.98 670.159 445.86C670.159 448.74 668.519 450.58 665.739 450.58H663.399ZM661.819 452H665.759C669.359 452 671.719 449.6 671.719 445.86C671.719 442.12 669.359 439.72 665.759 439.72H661.819V452ZM675.309 443.12H673.809V452H675.309V443.12ZM675.529 440.44C675.529 439.9 675.089 439.48 674.549 439.48C674.029 439.48 673.589 439.9 673.589 440.44C673.589 440.96 674.029 441.4 674.549 441.4C675.089 441.4 675.529 440.96 675.529 440.44ZM677.248 449.56C677.528 451.2 678.948 452.18 680.888 452.18C682.788 452.18 684.188 451.18 684.188 449.5C684.188 448.26 683.448 447.42 681.928 447.02L680.208 446.6C679.368 446.36 678.968 446.08 678.968 445.48C678.968 444.62 679.788 444.2 680.668 444.2C681.748 444.2 682.368 444.66 682.628 445.46H684.128C683.808 443.9 682.648 442.94 680.688 442.94C678.888 442.94 677.508 443.98 677.508 445.56C677.508 446.94 678.388 447.58 679.648 447.9L681.408 448.36C682.328 448.6 682.728 448.98 682.728 449.6C682.728 450.5 681.968 450.92 680.908 450.92C679.868 450.92 679.088 450.48 678.808 449.56H677.248ZM687.77 450.96C688.23 451.6 689.17 452.18 690.27 452.18C692.89 452.18 694.27 450.02 694.27 447.56C694.27 445.1 692.89 442.94 690.27 442.94C689.17 442.94 688.23 443.52 687.77 444.16V443.12H686.27V455.4H687.77V450.96ZM687.77 445.76C688.23 444.84 689.11 444.3 690.05 444.3C691.75 444.3 692.75 445.68 692.75 447.56C692.75 449.44 691.75 450.82 690.05 450.82C689.11 450.82 688.23 450.28 687.77 449.36V445.76ZM703.389 443.12H701.869V449.14C701.549 450.1 700.689 450.8 699.649 450.8C698.309 450.8 697.709 449.94 697.709 448.7V443.12H696.189V448.94C696.189 450.88 697.269 452.18 699.289 452.18C700.429 452.18 701.369 451.58 701.869 450.88V452H703.389V443.12ZM706.475 449.76C706.475 451.4 707.475 452.18 708.915 452.18C709.455 452.18 709.975 452.06 710.315 451.88V450.48C710.015 450.68 709.575 450.84 709.155 450.84C708.395 450.84 707.975 450.46 707.975 449.6V444.4H710.115V443.12H707.975V440.78H706.475V443.12H705.035V444.4H706.475V449.76ZM717.905 449.34C717.665 450.34 716.845 450.9 715.745 450.9C714.245 450.9 713.185 449.74 713.165 447.84H719.445V447.3C719.445 444.72 718.145 442.94 715.705 442.94C713.285 442.94 711.665 444.92 711.665 447.58C711.665 450.32 713.325 452.18 715.745 452.18C717.745 452.18 719.005 451.02 719.325 449.34H717.905ZM715.725 444.22C717.205 444.22 717.905 445.38 717.925 446.7H713.205C713.425 445.14 714.385 444.22 715.725 444.22ZM55.04 479V473.66H60.6V472.26H55.04V468.12H60.96V466.72H53.46V479H55.04ZM68.4127 476.34C68.1727 477.34 67.3527 477.9 66.2527 477.9C64.7527 477.9 63.6927 476.74 63.6727 474.84H69.9527V474.3C69.9527 471.72 68.6527 469.94 66.2127 469.94C63.7927 469.94 62.1727 471.92 62.1727 474.58C62.1727 477.32 63.8327 479.18 66.2527 479.18C68.2527 479.18 69.5127 478.02 69.8327 476.34H68.4127ZM66.2327 471.22C67.7127 471.22 68.4127 472.38 68.4327 473.7H63.7127C63.9327 472.14 64.8927 471.22 66.2327 471.22ZM77.5923 476.34C77.3523 477.34 76.5323 477.9 75.4323 477.9C73.9323 477.9 72.8723 476.74 72.8523 474.84H79.1323V474.3C79.1323 471.72 77.8323 469.94 75.3923 469.94C72.9723 469.94 71.3523 471.92 71.3523 474.58C71.3523 477.32 73.0123 479.18 75.4323 479.18C77.4323 479.18 78.6923 478.02 79.0123 476.34H77.5923ZM75.4123 471.22C76.8923 471.22 77.5923 472.38 77.6123 473.7H72.8923C73.1123 472.14 74.0723 471.22 75.4123 471.22ZM80.432 476.56C80.712 478.2 82.132 479.18 84.072 479.18C85.972 479.18 87.372 478.18 87.372 476.5C87.372 475.26 86.632 474.42 85.112 474.02L83.392 473.6C82.552 473.36 82.152 473.08 82.152 472.48C82.152 471.62 82.972 471.2 83.852 471.2C84.932 471.2 85.552 471.66 85.812 472.46H87.312C86.992 470.9 85.832 469.94 83.872 469.94C82.072 469.94 80.692 470.98 80.692 472.56C80.692 473.94 81.572 474.58 82.832 474.9L84.592 475.36C85.512 475.6 85.912 475.98 85.912 476.6C85.912 477.5 85.152 477.92 84.092 477.92C83.052 477.92 82.272 477.48 81.992 476.56H80.432ZM88.3733 481.14H89.3933L90.4533 479.38C90.6933 479 90.8933 478.54 90.8933 478.12C90.8933 477.38 90.4333 476.96 89.8333 476.96C89.2333 476.96 88.7533 477.4 88.7533 478.02C88.7533 478.6 89.1333 478.94 89.6333 479.02L88.3733 481.14ZM103.725 479V473.08C103.725 471.14 102.465 469.94 100.345 469.94C98.6453 469.94 97.3253 470.96 97.0253 472.46H98.5053C98.7853 471.64 99.3853 471.24 100.325 471.24C101.605 471.24 102.285 472.04 102.285 473.14V474.26C101.905 473.92 100.965 473.54 100.045 473.54C98.1453 473.54 96.6453 474.66 96.6453 476.32C96.6453 478.08 98.1453 479.16 99.9453 479.16C101.005 479.16 101.945 478.7 102.285 478.34V479H103.725ZM102.285 476.8C102.025 477.46 101.125 477.9 100.205 477.9C99.1253 477.9 98.0853 477.4 98.0853 476.32C98.0853 475.26 99.1253 474.78 100.205 474.78C101.125 474.78 102.025 475.22 102.285 475.88V476.8ZM107.789 466H106.289V479H107.789V466ZM111.969 466H110.469V479H111.969V466ZM126.583 474.56C126.583 471.84 124.923 469.94 122.503 469.94C120.063 469.94 118.423 471.84 118.423 474.56C118.423 477.28 120.063 479.18 122.503 479.18C124.923 479.18 126.583 477.28 126.583 474.56ZM125.063 474.56C125.063 476.5 124.103 477.86 122.503 477.86C120.903 477.86 119.943 476.5 119.943 474.56C119.943 472.62 120.903 471.26 122.503 471.26C124.103 471.26 125.063 472.62 125.063 474.56ZM133.053 466.02C132.713 465.88 132.373 465.82 131.893 465.82C130.333 465.82 129.173 466.86 129.173 468.64V470.12H127.673V471.4H129.173V479H130.653V471.4H132.653V470.12H130.653V468.76C130.653 467.7 131.233 467.14 132.113 467.14C132.433 467.14 132.773 467.2 133.053 467.38V466.02ZM144.449 470.12H143.109L141.289 476.9L139.329 470.12H137.829L140.449 479H141.909L143.769 472.26L145.609 479H147.069L149.689 470.12H148.229L146.269 476.9L144.449 470.12ZM151.387 479H152.887V472.98C153.207 472.02 154.107 471.32 155.147 471.32C156.487 471.32 157.107 472.18 157.107 473.42V479H158.627V473.18C158.627 471.24 157.527 469.94 155.507 469.94C154.367 469.94 153.407 470.54 152.887 471.24V466H151.387V479ZM162.672 470.12H161.172V479H162.672V470.12ZM162.892 467.44C162.892 466.9 162.452 466.48 161.912 466.48C161.392 466.48 160.952 466.9 160.952 467.44C160.952 467.96 161.392 468.4 161.912 468.4C162.452 468.4 162.892 467.96 162.892 467.44ZM164.712 474.56C164.712 477.32 166.372 479.18 168.752 479.18C170.752 479.18 172.012 478.02 172.312 476.32H170.772C170.572 477.28 169.812 477.86 168.752 477.86C167.232 477.86 166.232 476.5 166.232 474.56C166.232 472.62 167.232 471.26 168.752 471.26C169.812 471.26 170.572 471.84 170.772 472.8H172.312C172.012 471.1 170.752 469.94 168.752 469.94C166.372 469.94 164.712 471.8 164.712 474.56ZM174.278 479H175.778V472.98C176.098 472.02 176.998 471.32 178.038 471.32C179.378 471.32 179.998 472.18 179.998 473.42V479H181.518V473.18C181.518 471.24 180.418 469.94 178.398 469.94C177.258 469.94 176.298 470.54 175.778 471.24V466H174.278V479ZM194.117 470.12H192.777L190.957 476.9L188.997 470.12H187.497L190.117 479H191.577L193.437 472.26L195.277 479H196.737L199.357 470.12H197.897L195.937 476.9L194.117 470.12ZM202.555 470.12H201.055V479H202.555V470.12ZM202.775 467.44C202.775 466.9 202.335 466.48 201.795 466.48C201.275 466.48 200.835 466.9 200.835 467.44C200.835 467.96 201.275 468.4 201.795 468.4C202.335 468.4 202.775 467.96 202.775 467.44ZM206.735 466H205.235V479H206.735V466ZM210.914 466H209.414V479H210.914V466ZM224.448 479V473.08C224.448 471.14 223.188 469.94 221.068 469.94C219.368 469.94 218.048 470.96 217.748 472.46H219.228C219.508 471.64 220.108 471.24 221.048 471.24C222.328 471.24 223.008 472.04 223.008 473.14V474.26C222.628 473.92 221.688 473.54 220.768 473.54C218.868 473.54 217.368 474.66 217.368 476.32C217.368 478.08 218.868 479.16 220.668 479.16C221.728 479.16 222.668 478.7 223.008 478.34V479H224.448ZM223.008 476.8C222.748 477.46 221.848 477.9 220.928 477.9C219.848 477.9 218.808 477.4 218.808 476.32C218.808 475.26 219.848 474.78 220.928 474.78C221.848 474.78 222.748 475.22 223.008 475.88V476.8ZM234.092 470.12H232.572V476.14C232.252 477.1 231.392 477.8 230.352 477.8C229.012 477.8 228.412 476.94 228.412 475.7V470.12H226.892V475.94C226.892 477.88 227.972 479.18 229.992 479.18C231.132 479.18 232.072 478.58 232.572 477.88V479H234.092V470.12ZM237.178 476.76C237.178 478.4 238.178 479.18 239.618 479.18C240.158 479.18 240.678 479.06 241.018 478.88V477.48C240.718 477.68 240.278 477.84 239.858 477.84C239.098 477.84 238.678 477.46 238.678 476.6V471.4H240.818V470.12H238.678V467.78H237.178V470.12H235.738V471.4H237.178V476.76ZM250.528 474.56C250.528 471.84 248.868 469.94 246.448 469.94C244.008 469.94 242.368 471.84 242.368 474.56C242.368 477.28 244.008 479.18 246.448 479.18C248.868 479.18 250.528 477.28 250.528 474.56ZM249.008 474.56C249.008 476.5 248.048 477.86 246.448 477.86C244.848 477.86 243.888 476.5 243.888 474.56C243.888 472.62 244.848 471.26 246.448 471.26C248.048 471.26 249.008 472.62 249.008 474.56ZM258.859 471.36C258.439 470.52 257.579 469.94 256.459 469.94C255.359 469.94 254.499 470.46 254.059 471.16V470.12H252.559V479H254.059V472.88C254.339 471.92 255.119 471.3 256.019 471.3C257.159 471.3 257.699 472.12 257.699 473.36V479H259.199V472.88C259.479 471.92 260.259 471.3 261.159 471.3C262.299 471.3 262.839 472.12 262.839 473.36V479H264.359V473.12C264.359 471.2 263.359 469.94 261.559 469.94C260.319 469.94 259.419 470.56 258.859 471.36ZM273.335 479V473.08C273.335 471.14 272.075 469.94 269.955 469.94C268.255 469.94 266.935 470.96 266.635 472.46H268.115C268.395 471.64 268.995 471.24 269.935 471.24C271.215 471.24 271.895 472.04 271.895 473.14V474.26C271.515 473.92 270.575 473.54 269.655 473.54C267.755 473.54 266.255 474.66 266.255 476.32C266.255 478.08 267.755 479.16 269.555 479.16C270.615 479.16 271.555 478.7 271.895 478.34V479H273.335ZM271.895 476.8C271.635 477.46 270.735 477.9 269.815 477.9C268.735 477.9 267.695 477.4 267.695 476.32C267.695 475.26 268.735 474.78 269.815 474.78C270.735 474.78 271.635 475.22 271.895 475.88V476.8ZM276.26 476.76C276.26 478.4 277.26 479.18 278.7 479.18C279.24 479.18 279.76 479.06 280.1 478.88V477.48C279.8 477.68 279.36 477.84 278.94 477.84C278.18 477.84 277.76 477.46 277.76 476.6V471.4H279.9V470.12H277.76V467.78H276.26V470.12H274.82V471.4H276.26V476.76ZM283.688 470.12H282.188V479H283.688V470.12ZM283.908 467.44C283.908 466.9 283.468 466.48 282.928 466.48C282.408 466.48 281.968 466.9 281.968 467.44C281.968 467.96 282.408 468.4 282.928 468.4C283.468 468.4 283.908 467.96 283.908 467.44ZM285.727 474.56C285.727 477.32 287.387 479.18 289.767 479.18C291.767 479.18 293.027 478.02 293.327 476.32H291.787C291.587 477.28 290.827 477.86 289.767 477.86C288.247 477.86 287.247 476.5 287.247 474.56C287.247 472.62 288.247 471.26 289.767 471.26C290.827 471.26 291.587 471.84 291.787 472.8H293.327C293.027 471.1 291.767 469.94 289.767 469.94C287.387 469.94 285.727 471.8 285.727 474.56ZM301.733 479V473.08C301.733 471.14 300.473 469.94 298.353 469.94C296.653 469.94 295.333 470.96 295.033 472.46H296.513C296.793 471.64 297.393 471.24 298.333 471.24C299.613 471.24 300.293 472.04 300.293 473.14V474.26C299.913 473.92 298.973 473.54 298.053 473.54C296.153 473.54 294.653 474.66 294.653 476.32C294.653 478.08 296.153 479.16 297.953 479.16C299.013 479.16 299.953 478.7 300.293 478.34V479H301.733ZM300.293 476.8C300.033 477.46 299.133 477.9 298.213 477.9C297.133 477.9 296.093 477.4 296.093 476.32C296.093 475.26 297.133 474.78 298.213 474.78C299.133 474.78 300.033 475.22 300.293 475.88V476.8ZM305.797 466H304.297V479H305.797V466ZM309.977 466H308.477V479H309.977V466ZM315.276 482.4L320.056 470.12H318.496L315.916 477.12L313.296 470.12H311.676L315.136 479.06L313.796 482.4H315.276ZM327.672 477.96C328.112 478.6 329.072 479.18 330.172 479.18C332.772 479.18 334.172 477.08 334.172 474.56C334.172 472.06 332.772 469.94 330.172 469.94C329.072 469.94 328.112 470.52 327.672 471.16V466H326.152V479H327.672V477.96ZM327.672 472.76C328.132 471.84 329.012 471.3 329.952 471.3C331.652 471.3 332.652 472.68 332.652 474.56C332.652 476.44 331.652 477.82 329.952 477.82C329.012 477.82 328.132 477.28 327.672 476.36V472.76ZM341.85 476.34C341.61 477.34 340.79 477.9 339.69 477.9C338.19 477.9 337.13 476.74 337.11 474.84H343.39V474.3C343.39 471.72 342.09 469.94 339.65 469.94C337.23 469.94 335.61 471.92 335.61 474.58C335.61 477.32 337.27 479.18 339.69 479.18C341.69 479.18 342.95 478.02 343.27 476.34H341.85ZM339.67 471.22C341.15 471.22 341.85 472.38 341.87 473.7H337.15C337.37 472.14 338.33 471.22 339.67 471.22ZM356.245 479V473.08C356.245 471.14 354.985 469.94 352.865 469.94C351.165 469.94 349.845 470.96 349.545 472.46H351.025C351.305 471.64 351.905 471.24 352.845 471.24C354.125 471.24 354.805 472.04 354.805 473.14V474.26C354.425 473.92 353.485 473.54 352.565 473.54C350.665 473.54 349.165 474.66 349.165 476.32C349.165 478.08 350.665 479.16 352.465 479.16C353.525 479.16 354.465 478.7 354.805 478.34V479H356.245ZM354.805 476.8C354.545 477.46 353.645 477.9 352.725 477.9C351.645 477.9 350.605 477.4 350.605 476.32C350.605 475.26 351.645 474.78 352.725 474.78C353.645 474.78 354.545 475.22 354.805 475.88V476.8ZM364.669 479H366.189V466H364.669V471.16C364.229 470.52 363.269 469.94 362.169 469.94C359.569 469.94 358.169 472.06 358.169 474.56C358.169 477.08 359.569 479.18 362.169 479.18C363.269 479.18 364.229 478.6 364.669 477.96V479ZM364.669 476.36C364.209 477.28 363.329 477.82 362.389 477.82C360.689 477.82 359.689 476.44 359.689 474.56C359.689 472.68 360.689 471.3 362.389 471.3C363.329 471.3 364.209 471.84 364.669 472.76V476.36ZM374.708 479H376.228V466H374.708V471.16C374.268 470.52 373.308 469.94 372.208 469.94C369.608 469.94 368.208 472.06 368.208 474.56C368.208 477.08 369.608 479.18 372.208 479.18C373.308 479.18 374.268 478.6 374.708 477.96V479ZM374.708 476.36C374.248 477.28 373.368 477.82 372.428 477.82C370.728 477.82 369.728 476.44 369.728 474.56C369.728 472.68 370.728 471.3 372.428 471.3C373.368 471.3 374.248 471.84 374.708 472.76V476.36ZM384.487 476.34C384.247 477.34 383.427 477.9 382.327 477.9C380.827 477.9 379.767 476.74 379.747 474.84H386.027V474.3C386.027 471.72 384.727 469.94 382.287 469.94C379.867 469.94 378.247 471.92 378.247 474.58C378.247 477.32 379.907 479.18 382.327 479.18C384.327 479.18 385.587 478.02 385.907 476.34H384.487ZM382.307 471.22C383.787 471.22 384.487 472.38 384.507 473.7H379.787C380.007 472.14 380.967 471.22 382.307 471.22ZM393.927 479H395.447V466H393.927V471.16C393.487 470.52 392.527 469.94 391.427 469.94C388.827 469.94 387.427 472.06 387.427 474.56C387.427 477.08 388.827 479.18 391.427 479.18C392.527 479.18 393.487 478.6 393.927 477.96V479ZM393.927 476.36C393.467 477.28 392.587 477.82 391.647 477.82C389.947 477.82 388.947 476.44 388.947 474.56C388.947 472.68 389.947 471.3 391.647 471.3C392.587 471.3 393.467 471.84 393.927 472.76V476.36ZM402.94 476.76C402.94 478.4 403.94 479.18 405.38 479.18C405.92 479.18 406.44 479.06 406.78 478.88V477.48C406.48 477.68 406.04 477.84 405.62 477.84C404.86 477.84 404.44 477.46 404.44 476.6V471.4H406.58V470.12H404.44V467.78H402.94V470.12H401.5V471.4H402.94V476.76ZM416.29 474.56C416.29 471.84 414.63 469.94 412.21 469.94C409.77 469.94 408.13 471.84 408.13 474.56C408.13 477.28 409.77 479.18 412.21 479.18C414.63 479.18 416.29 477.28 416.29 474.56ZM414.77 474.56C414.77 476.5 413.81 477.86 412.21 477.86C410.61 477.86 409.65 476.5 409.65 474.56C409.65 472.62 410.61 471.26 412.21 471.26C413.81 471.26 414.77 472.62 414.77 474.56ZM425.355 482.4L430.135 470.12H428.575L425.995 477.12L423.375 470.12H421.755L425.215 479.06L423.875 482.4H425.355ZM439.2 474.56C439.2 471.84 437.54 469.94 435.12 469.94C432.68 469.94 431.04 471.84 431.04 474.56C431.04 477.28 432.68 479.18 435.12 479.18C437.54 479.18 439.2 477.28 439.2 474.56ZM437.68 474.56C437.68 476.5 436.72 477.86 435.12 477.86C433.52 477.86 432.56 476.5 432.56 474.56C432.56 472.62 433.52 471.26 435.12 471.26C436.72 471.26 437.68 472.62 437.68 474.56ZM448.311 470.12H446.791V476.14C446.471 477.1 445.611 477.8 444.571 477.8C443.231 477.8 442.631 476.94 442.631 475.7V470.12H441.111V475.94C441.111 477.88 442.191 479.18 444.211 479.18C445.351 479.18 446.291 478.58 446.791 477.88V479H448.311V470.12ZM455.537 470.08C455.377 470 455.057 469.94 454.677 469.94C453.697 469.94 452.857 470.52 452.477 471.28V470.12H450.977V479H452.477V473.04C452.777 472 453.597 471.38 454.537 471.38C454.917 471.38 455.297 471.46 455.537 471.62V470.08ZM461.077 476.56C461.357 478.2 462.777 479.18 464.717 479.18C466.617 479.18 468.017 478.18 468.017 476.5C468.017 475.26 467.277 474.42 465.757 474.02L464.037 473.6C463.197 473.36 462.797 473.08 462.797 472.48C462.797 471.62 463.617 471.2 464.497 471.2C465.577 471.2 466.197 471.66 466.457 472.46H467.957C467.637 470.9 466.477 469.94 464.517 469.94C462.717 469.94 461.337 470.98 461.337 472.56C461.337 473.94 462.217 474.58 463.477 474.9L465.237 475.36C466.157 475.6 466.557 475.98 466.557 476.6C466.557 477.5 465.797 477.92 464.737 477.92C463.697 477.92 462.917 477.48 462.637 476.56H461.077ZM470.518 476.76C470.518 478.4 471.518 479.18 472.958 479.18C473.498 479.18 474.018 479.06 474.358 478.88V477.48C474.058 477.68 473.618 477.84 473.198 477.84C472.438 477.84 472.018 477.46 472.018 476.6V471.4H474.158V470.12H472.018V467.78H470.518V470.12H469.078V471.4H470.518V476.76ZM482.749 479V473.08C482.749 471.14 481.489 469.94 479.369 469.94C477.669 469.94 476.349 470.96 476.049 472.46H477.529C477.809 471.64 478.409 471.24 479.349 471.24C480.629 471.24 481.309 472.04 481.309 473.14V474.26C480.929 473.92 479.989 473.54 479.069 473.54C477.169 473.54 475.669 474.66 475.669 476.32C475.669 478.08 477.169 479.16 478.969 479.16C480.029 479.16 480.969 478.7 481.309 478.34V479H482.749ZM481.309 476.8C481.049 477.46 480.149 477.9 479.229 477.9C478.149 477.9 477.109 477.4 477.109 476.32C477.109 475.26 478.149 474.78 479.229 474.78C480.149 474.78 481.049 475.22 481.309 475.88V476.8ZM491.153 479H492.993L488.853 473.96L492.853 470.12H490.873L486.813 474.06V466H485.313V479H486.813V475.82L487.773 474.9L491.153 479ZM499.936 476.34C499.696 477.34 498.876 477.9 497.776 477.9C496.276 477.9 495.216 476.74 495.196 474.84H501.476V474.3C501.476 471.72 500.176 469.94 497.736 469.94C495.316 469.94 493.696 471.92 493.696 474.58C493.696 477.32 495.356 479.18 497.776 479.18C499.776 479.18 501.036 478.02 501.356 476.34H499.936ZM497.756 471.22C499.236 471.22 499.936 472.38 499.956 473.7H495.236C495.456 472.14 496.416 471.22 497.756 471.22ZM509.376 479H510.896V466H509.376V471.16C508.936 470.52 507.976 469.94 506.876 469.94C504.276 469.94 502.876 472.06 502.876 474.56C502.876 477.08 504.276 479.18 506.876 479.18C507.976 479.18 508.936 478.6 509.376 477.96V479ZM509.376 476.36C508.916 477.28 508.036 477.82 507.096 477.82C505.396 477.82 504.396 476.44 504.396 474.56C504.396 472.68 505.396 471.3 507.096 471.3C508.036 471.3 508.916 471.84 509.376 472.76V476.36ZM524.409 479V473.08C524.409 471.14 523.149 469.94 521.029 469.94C519.329 469.94 518.009 470.96 517.709 472.46H519.189C519.469 471.64 520.069 471.24 521.009 471.24C522.289 471.24 522.969 472.04 522.969 473.14V474.26C522.589 473.92 521.649 473.54 520.729 473.54C518.829 473.54 517.329 474.66 517.329 476.32C517.329 478.08 518.829 479.16 520.629 479.16C521.689 479.16 522.629 478.7 522.969 478.34V479H524.409ZM522.969 476.8C522.709 477.46 521.809 477.9 520.889 477.9C519.809 477.9 518.769 477.4 518.769 476.32C518.769 475.26 519.809 474.78 520.889 474.78C521.809 474.78 522.709 475.22 522.969 475.88V476.8ZM526.973 479H528.473V472.98C528.793 472.02 529.693 471.32 530.733 471.32C532.073 471.32 532.693 472.18 532.693 473.42V479H534.213V473.18C534.213 471.24 533.113 469.94 531.093 469.94C529.953 469.94 528.993 470.54 528.473 471.24V470.12H526.973V479ZM542.618 479H544.138V466H542.618V471.16C542.178 470.52 541.218 469.94 540.118 469.94C537.518 469.94 536.118 472.06 536.118 474.56C536.118 477.08 537.518 479.18 540.118 479.18C541.218 479.18 542.178 478.6 542.618 477.96V479ZM542.618 476.36C542.158 477.28 541.278 477.82 540.338 477.82C538.638 477.82 537.638 476.44 537.638 474.56C537.638 472.68 538.638 471.3 540.338 471.3C541.278 471.3 542.158 471.84 542.618 472.76V476.36ZM557.651 479V473.08C557.651 471.14 556.391 469.94 554.271 469.94C552.571 469.94 551.251 470.96 550.951 472.46H552.431C552.711 471.64 553.311 471.24 554.251 471.24C555.531 471.24 556.211 472.04 556.211 473.14V474.26C555.831 473.92 554.891 473.54 553.971 473.54C552.071 473.54 550.571 474.66 550.571 476.32C550.571 478.08 552.071 479.16 553.871 479.16C554.931 479.16 555.871 478.7 556.211 478.34V479H557.651ZM556.211 476.8C555.951 477.46 555.051 477.9 554.131 477.9C553.051 477.9 552.011 477.4 552.011 476.32C552.011 475.26 553.051 474.78 554.131 474.78C555.051 474.78 555.951 475.22 556.211 475.88V476.8ZM559.575 474.56C559.575 477.32 561.235 479.18 563.615 479.18C565.615 479.18 566.875 478.02 567.175 476.32H565.635C565.435 477.28 564.675 477.86 563.615 477.86C562.095 477.86 561.095 476.5 561.095 474.56C561.095 472.62 562.095 471.26 563.615 471.26C564.675 471.26 565.435 471.84 565.635 472.8H567.175C566.875 471.1 565.615 469.94 563.615 469.94C561.235 469.94 559.575 471.8 559.575 474.56ZM569.619 476.76C569.619 478.4 570.619 479.18 572.059 479.18C572.599 479.18 573.119 479.06 573.459 478.88V477.48C573.159 477.68 572.719 477.84 572.299 477.84C571.539 477.84 571.119 477.46 571.119 476.6V471.4H573.259V470.12H571.119V467.78H569.619V470.12H568.179V471.4H569.619V476.76ZM577.047 470.12H575.547V479H577.047V470.12ZM577.267 467.44C577.267 466.9 576.827 466.48 576.287 466.48C575.767 466.48 575.327 466.9 575.327 467.44C575.327 467.96 575.767 468.4 576.287 468.4C576.827 468.4 577.267 467.96 577.267 467.44ZM583.667 479L587.127 470.12H585.547L582.967 477.1L580.367 470.12H578.747L582.187 479H583.667ZM595.034 479V473.08C595.034 471.14 593.774 469.94 591.654 469.94C589.954 469.94 588.634 470.96 588.334 472.46H589.814C590.094 471.64 590.694 471.24 591.634 471.24C592.914 471.24 593.594 472.04 593.594 473.14V474.26C593.214 473.92 592.274 473.54 591.354 473.54C589.454 473.54 587.954 474.66 587.954 476.32C587.954 478.08 589.454 479.16 591.254 479.16C592.314 479.16 593.254 478.7 593.594 478.34V479H595.034ZM593.594 476.8C593.334 477.46 592.434 477.9 591.514 477.9C590.434 477.9 589.394 477.4 589.394 476.32C589.394 475.26 590.434 474.78 591.514 474.78C592.434 474.78 593.334 475.22 593.594 475.88V476.8ZM597.959 476.76C597.959 478.4 598.959 479.18 600.399 479.18C600.939 479.18 601.459 479.06 601.799 478.88V477.48C601.499 477.68 601.059 477.84 600.639 477.84C599.879 477.84 599.459 477.46 599.459 476.6V471.4H601.599V470.12H599.459V467.78H597.959V470.12H596.519V471.4H597.959V476.76ZM609.389 476.34C609.149 477.34 608.329 477.9 607.229 477.9C605.729 477.9 604.669 476.74 604.649 474.84H610.929V474.3C610.929 471.72 609.629 469.94 607.189 469.94C604.769 469.94 603.149 471.92 603.149 474.58C603.149 477.32 604.809 479.18 607.229 479.18C609.229 479.18 610.489 478.02 610.809 476.34H609.389ZM607.209 471.22C608.689 471.22 609.389 472.38 609.409 473.7H604.689C604.909 472.14 605.869 471.22 607.209 471.22ZM618.829 479H620.349V466H618.829V471.16C618.389 470.52 617.429 469.94 616.329 469.94C613.729 469.94 612.329 472.06 612.329 474.56C612.329 477.08 613.729 479.18 616.329 479.18C617.429 479.18 618.389 478.6 618.829 477.96V479ZM618.829 476.36C618.369 477.28 617.489 477.82 616.549 477.82C614.849 477.82 613.849 476.44 613.849 474.56C613.849 472.68 614.849 471.3 616.549 471.3C617.489 471.3 618.369 471.84 618.829 472.76V476.36ZM631.302 466.72L626.502 479H628.102L629.502 475.3H634.562L635.982 479H637.582L632.782 466.72H631.302ZM632.022 468.68L634.022 473.92H630.022L632.022 468.68ZM648.996 466.72H647.496V476.06L640.956 466.72H639.456V479H640.976V469.24L647.836 479H648.996V466.72ZM650.797 475.52C650.957 477.68 652.397 479.18 654.817 479.18C657.157 479.18 658.817 477.78 658.817 474.92V466.72H657.237V474.92C657.237 476.9 656.297 477.74 654.797 477.74C653.417 477.74 652.577 476.9 652.417 475.52H650.797ZM667.281 477.96C667.721 478.6 668.681 479.18 669.781 479.18C672.381 479.18 673.781 477.08 673.781 474.56C673.781 472.06 672.381 469.94 669.781 469.94C668.681 469.94 667.721 470.52 667.281 471.16V466H665.761V479H667.281V477.96ZM667.281 472.76C667.741 471.84 668.621 471.3 669.561 471.3C671.261 471.3 672.261 472.68 672.261 474.56C672.261 476.44 671.261 477.82 669.561 477.82C668.621 477.82 667.741 477.28 667.281 476.36V472.76ZM682.26 479V473.08C682.26 471.14 681 469.94 678.88 469.94C677.18 469.94 675.86 470.96 675.56 472.46H677.04C677.32 471.64 677.92 471.24 678.86 471.24C680.14 471.24 680.82 472.04 680.82 473.14V474.26C680.44 473.92 679.5 473.54 678.58 473.54C676.68 473.54 675.18 474.66 675.18 476.32C675.18 478.08 676.68 479.16 678.48 479.16C679.54 479.16 680.48 478.7 680.82 478.34V479H682.26ZM680.82 476.8C680.56 477.46 679.66 477.9 678.74 477.9C677.66 477.9 676.62 477.4 676.62 476.32C676.62 475.26 677.66 474.78 678.74 474.78C679.66 474.78 680.56 475.22 680.82 475.88V476.8ZM686.324 466H684.824V479H686.324V466ZM695.444 479V473.08C695.444 471.14 694.184 469.94 692.064 469.94C690.364 469.94 689.044 470.96 688.744 472.46H690.224C690.504 471.64 691.104 471.24 692.044 471.24C693.324 471.24 694.004 472.04 694.004 473.14V474.26C693.624 473.92 692.684 473.54 691.764 473.54C689.864 473.54 688.364 474.66 688.364 476.32C688.364 478.08 689.864 479.16 691.664 479.16C692.724 479.16 693.664 478.7 694.004 478.34V479H695.444ZM694.004 476.8C693.744 477.46 692.844 477.9 691.924 477.9C690.844 477.9 689.804 477.4 689.804 476.32C689.804 475.26 690.844 474.78 691.924 474.78C692.844 474.78 693.744 475.22 694.004 475.88V476.8ZM698.008 479H699.508V472.98C699.828 472.02 700.728 471.32 701.768 471.32C703.108 471.32 703.728 472.18 703.728 473.42V479H705.248V473.18C705.248 471.24 704.148 469.94 702.128 469.94C700.988 469.94 700.028 470.54 699.508 471.24V470.12H698.008V479ZM707.153 474.56C707.153 477.32 708.813 479.18 711.193 479.18C713.193 479.18 714.453 478.02 714.753 476.32H713.213C713.013 477.28 712.253 477.86 711.193 477.86C709.673 477.86 708.673 476.5 708.673 474.56C708.673 472.62 709.673 471.26 711.193 471.26C712.253 471.26 713.013 471.84 713.213 472.8H714.753C714.453 471.1 713.193 469.94 711.193 469.94C708.813 469.94 707.153 471.8 707.153 474.56ZM722.28 476.34C722.04 477.34 721.22 477.9 720.12 477.9C718.62 477.9 717.56 476.74 717.54 474.84H723.82V474.3C723.82 471.72 722.52 469.94 720.08 469.94C717.66 469.94 716.04 471.92 716.04 474.58C716.04 477.32 717.7 479.18 720.12 479.18C722.12 479.18 723.38 478.02 723.7 476.34H722.28ZM720.1 471.22C721.58 471.22 722.28 472.38 722.3 473.7H717.58C717.8 472.14 718.76 471.22 720.1 471.22ZM725.12 478.02C725.12 478.64 725.6 479.1 726.2 479.1C726.78 479.1 727.26 478.64 727.26 478.02C727.26 477.4 726.78 476.92 726.2 476.92C725.6 476.92 725.12 477.4 725.12 478.02Z" fill="#1C1C1C"/>
<defs>
<filter id="filter0_d" x="0" y="0" width="782" height="534" filterUnits="userSpaceOnUse" color-interpolation-filters="sRGB">
<feFlood flood-opacity="0" result="BackgroundImageFix"/>
<feColorMatrix in="SourceAlpha" type="matrix" values="0 0 0 0 0 0 0 0 0 0 0 0 0 0 0 0 0 0 127 0"/>
<feOffset dy="3"/>
<feGaussianBlur stdDeviation="8.5"/>
<feColorMatrix type="matrix" values="0 0 0 0 0 0 0 0 0 0 0 0 0 0 0 0 0 0 0.1 0"/>
<feBlend mode="normal" in2="BackgroundImageFix" result="effect1_dropShadow"/>
<feBlend mode="normal" in="SourceGraphic" in2="effect1_dropShadow" result="shape"/>
</filter>
<linearGradient id="paint0_linear" x1="391" y1="5.99996" x2="391" y2="594" gradientUnits="userSpaceOnUse">
<stop stop-color="#FFA776"/>
<stop offset="1" stop-color="#FFA776" stop-opacity="0"/>
</linearGradient>
<linearGradient id="paint1_linear" x1="286" y1="200.171" x2="317.487" y2="181.201" gradientUnits="userSpaceOnUse">
<stop stop-color="#FFC58F"/>
<stop offset="1" stop-color="#FF7C7C"/>
</linearGradient>
<linearGradient id="paint2_linear" x1="286" y1="200.171" x2="317.487" y2="181.201" gradientUnits="userSpaceOnUse">
<stop stop-color="#FFC58F"/>
<stop offset="1" stop-color="#FF7C7C"/>
</linearGradient>
<linearGradient id="paint3_linear" x1="526" y1="202.171" x2="557.487" y2="183.201" gradientUnits="userSpaceOnUse">
<stop stop-color="#FFC58F"/>
<stop offset="1" stop-color="#FF7C7C"/>
</linearGradient>
<linearGradient id="paint4_linear" x1="526" y1="202.171" x2="557.487" y2="183.201" gradientUnits="userSpaceOnUse">
<stop stop-color="#FFC58F"/>
<stop offset="1" stop-color="#FF7C7C"/>
</linearGradient>
<linearGradient id="paint5_linear" x1="750" y1="386.38" x2="656.086" y2="676.74" gradientUnits="userSpaceOnUse">
<stop stop-color="#FFF8F0"/>
<stop offset="1" stop-color="#FFF3F1"/>
</linearGradient>
</defs>
</svg>
