<svg width="782" height="545" viewBox="0 0 782 545" fill="none" xmlns="http://www.w3.org/2000/svg">
<g filter="url(#filter0_d)">
<rect x="17" y="14" width="748" height="511" rx="6" fill="white"/>
</g>
<circle cx="391" cy="270" r="39" fill="#FFA776" fill-opacity="0.4"/>
<rect x="398.108" y="274.748" width="10.4486" height="8.40782" transform="rotate(-45.5209 398.108 274.748)" fill="#F9FAFC"/>
<rect x="394.536" y="271.455" width="10.4486" height="2.88173" transform="rotate(-45.5209 394.536 271.455)" fill="#F9FAFC"/>
<rect x="405.623" y="282.038" width="10.4486" height="2.88173" transform="rotate(-45.5209 405.623 282.038)" fill="#F9FAFC"/>
<rect x="397.542" y="278.868" width="3.58732" height="10.7917" transform="rotate(44.341 397.542 278.868)" fill="#F9FAFC"/>
<path d="M375 285.7C375 276.838 382.184 269.654 391.047 269.654" stroke="#F9FAFC" stroke-width="5"/>
<circle cx="391.047" cy="254.551" r="7.5513" fill="#F9FAFC"/>
<circle cx="270" cy="270" r="39" fill="#FFA776"/>
<rect x="277.108" y="274.748" width="10.4486" height="8.40782" transform="rotate(-45.5209 277.108 274.748)" fill="#F9FAFC"/>
<rect x="273.536" y="271.455" width="10.4486" height="2.88173" transform="rotate(-45.5209 273.536 271.455)" fill="#F9FAFC"/>
<rect x="284.623" y="282.038" width="10.4486" height="2.88173" transform="rotate(-45.5209 284.623 282.038)" fill="#F9FAFC"/>
<rect x="276.542" y="278.868" width="3.58732" height="10.7917" transform="rotate(44.341 276.542 278.868)" fill="#F9FAFC"/>
<path d="M254 285.7C254 276.838 261.184 269.654 270.047 269.654" stroke="#F9FAFC" stroke-width="5"/>
<circle cx="270.047" cy="254.551" r="7.5513" fill="#F9FAFC"/>
<circle cx="512" cy="270" r="39" fill="#FFA776"/>
<rect x="518.108" y="274.748" width="10.4486" height="8.40782" transform="rotate(-45.5209 518.108 274.748)" fill="#F9FAFC"/>
<rect x="514.536" y="271.455" width="10.4486" height="2.88173" transform="rotate(-45.5209 514.536 271.455)" fill="#F9FAFC"/>
<rect x="525.623" y="282.038" width="10.4486" height="2.88173" transform="rotate(-45.5209 525.623 282.038)" fill="#F9FAFC"/>
<rect x="517.542" y="278.868" width="3.58732" height="10.7917" transform="rotate(44.341 517.542 278.868)" fill="#F9FAFC"/>
<path d="M495 285.7C495 276.838 502.184 269.654 511.047 269.654" stroke="#F9FAFC" stroke-width="5"/>
<circle cx="511.047" cy="254.551" r="7.5513" fill="#F9FAFC"/>
<path d="M314.354 242.842L311.03 244.726L307.706 242.851L311.036 240.964L314.354 242.842ZM293.5 240.379V245.445V250.767V252.81L295.279 253.815L309.314 261.737L311.038 262.71L312.76 261.735L326.742 253.812L328.517 252.807V250.767V247.396L328.543 247.382V245.337V234.949V232.91L326.77 231.904L312.762 223.956L311.036 222.977L309.31 223.955L295.275 231.903L293.5 232.908V234.949V238.341V239.434V240.379Z" fill="url(#paint0_linear)" stroke="white" stroke-width="7"/>
<path d="M554.354 242.842L551.03 244.726L547.706 242.851L551.036 240.964L554.354 242.842ZM533.5 240.379V245.445V250.767V252.81L535.279 253.815L549.314 261.737L551.038 262.71L552.76 261.735L566.742 253.812L568.517 252.807V250.767V247.396L568.543 247.382V245.337V234.949V232.91L566.77 231.904L552.762 223.956L551.036 222.977L549.31 223.955L535.275 231.903L533.5 232.908V234.949V238.341V239.434V240.379Z" fill="url(#paint1_linear)" stroke="white" stroke-width="7"/>
<defs>
<filter id="filter0_d" x="0" y="0" width="782" height="545" filterUnits="userSpaceOnUse" color-interpolation-filters="sRGB">
<feFlood flood-opacity="0" result="BackgroundImageFix"/>
<feColorMatrix in="SourceAlpha" type="matrix" values="0 0 0 0 0 0 0 0 0 0 0 0 0 0 0 0 0 0 127 0"/>
<feOffset dy="3"/>
<feGaussianBlur stdDeviation="8.5"/>
<feColorMatrix type="matrix" values="0 0 0 0 0 0 0 0 0 0 0 0 0 0 0 0 0 0 0.1 0"/>
<feBlend mode="normal" in2="BackgroundImageFix" result="effect1_dropShadow"/>
<feBlend mode="normal" in="SourceGraphic" in2="effect1_dropShadow" result="shape"/>
</filter>
<linearGradient id="paint0_linear" x1="297" y1="254.125" x2="328.487" y2="235.154" gradientUnits="userSpaceOnUse">
<stop stop-color="#FFC58F"/>
<stop offset="1" stop-color="#FF7C7C"/>
</linearGradient>
<linearGradient id="paint1_linear" x1="537" y1="254.125" x2="568.487" y2="235.154" gradientUnits="userSpaceOnUse">
<stop stop-color="#FFC58F"/>
<stop offset="1" stop-color="#FF7C7C"/>
</linearGradient>
</defs>
</svg>
