<svg width="782" height="545" viewBox="0 0 782 545" fill="none" xmlns="http://www.w3.org/2000/svg">
<g filter="url(#filter0_d)">
<rect x="17" y="14" width="748" height="511" rx="6" fill="white"/>
</g>
<path opacity="0.6" d="M391.5 190L386.737 186.25L396.263 186.25L391.5 190Z" fill="#FFA776"/>
<path opacity="0.7" d="M391.5 198L386.737 194.25L396.263 194.25L391.5 198Z" fill="#FFA776"/>
<path opacity="0.8" d="M391.5 206L386.737 202.25L396.263 202.25L391.5 206Z" fill="#FFA776"/>
<path d="M391.5 214L386.737 210.25L396.263 210.25L391.5 214Z" fill="#FFA776"/>
<path d="M391.5 222L386.737 218.25L396.263 218.25L391.5 222Z" fill="#FFA776"/>
<path opacity="0.6" d="M324.421 356.318L325.758 362.231L318.36 356.23L324.421 356.318Z" fill="#FFA776"/>
<path opacity="0.7" d="M329.46 350.105L330.798 356.018L323.399 350.017L329.46 350.105Z" fill="#FFA776"/>
<path opacity="0.8" d="M334.5 343.891L335.837 349.804L328.438 343.804L334.5 343.891Z" fill="#FFA776"/>
<path d="M339.539 337.678L340.876 343.591L333.477 337.59L339.539 337.678Z" fill="#FFA776"/>
<path d="M344.578 331.464L345.915 337.377L338.516 331.377L344.578 331.464Z" fill="#FFA776"/>
<path opacity="0.6" d="M456.428 356.318L455.091 362.231L462.49 356.23L456.428 356.318Z" fill="#FFA776"/>
<path opacity="0.7" d="M451.389 350.105L450.052 356.018L457.451 350.017L451.389 350.105Z" fill="#FFA776"/>
<path opacity="0.8" d="M446.35 343.891L445.013 349.804L452.412 343.804L446.35 343.891Z" fill="#FFA776"/>
<path d="M441.311 337.678L439.973 343.591L447.372 337.59L441.311 337.678Z" fill="#FFA776"/>
<path d="M436.272 331.464L434.934 337.377L442.333 331.377L436.272 331.464Z" fill="#FFA776"/>
<circle cx="287" cy="403" r="39" fill="#FFA776"/>
<circle cx="495" cy="403" r="39" fill="#FFA776"/>
<circle cx="390.773" cy="281.773" r="49.7726" fill="#8987FF"/>
<path d="M413.094 259V296.953L403.66 299.004L401.609 308.438H377V259H413.094Z" fill="#BFBEFF"/>
<path opacity="0.6" d="M413.094 259V296.953L403.66 299.004L401.609 308.438H377V259H413.094Z" fill="#A6A5FF"/>
<path d="M401.609 296.953V308.438L413.094 296.953H401.609Z" fill="#EEEEFF"/>
<rect x="381" y="264" width="28" height="3" rx="1.5" fill="#8987FF" fill-opacity="0.6"/>
<rect x="381" y="271" width="28" height="3" rx="1.5" fill="#8987FF" fill-opacity="0.4"/>
<rect opacity="0.3" x="381" y="278" width="28" height="3" rx="1.5" fill="#8987FF"/>
<rect opacity="0.2" x="381" y="285" width="28" height="3" rx="1.5" fill="#8987FF"/>
<circle cx="391" cy="137" r="39" fill="#FFA776"/>
<rect x="398.108" y="141.748" width="10.4486" height="8.40782" transform="rotate(-45.5209 398.108 141.748)" fill="#F9FAFC"/>
<rect x="394.536" y="138.455" width="10.4486" height="2.88173" transform="rotate(-45.5209 394.536 138.455)" fill="#F9FAFC"/>
<rect x="405.623" y="149.038" width="10.4486" height="2.88173" transform="rotate(-45.5209 405.623 149.038)" fill="#F9FAFC"/>
<rect x="397.542" y="145.868" width="3.58732" height="10.7917" transform="rotate(44.341 397.542 145.868)" fill="#F9FAFC"/>
<path d="M375 152.7C375 143.838 382.184 136.654 391.047 136.654" stroke="#F9FAFC" stroke-width="5"/>
<circle cx="391.047" cy="121.551" r="7.5513" fill="#F9FAFC"/>
<rect x="294.108" y="407.748" width="10.4486" height="8.40782" transform="rotate(-45.5209 294.108 407.748)" fill="#F9FAFC"/>
<rect x="290.536" y="404.455" width="10.4486" height="2.88173" transform="rotate(-45.5209 290.536 404.455)" fill="#F9FAFC"/>
<rect x="301.623" y="415.038" width="10.4486" height="2.88173" transform="rotate(-45.5209 301.623 415.038)" fill="#F9FAFC"/>
<rect x="293.542" y="411.868" width="3.58732" height="10.7917" transform="rotate(44.341 293.542 411.868)" fill="#F9FAFC"/>
<path d="M271 418.7C271 409.838 278.184 402.654 287.047 402.654" stroke="#F9FAFC" stroke-width="5"/>
<circle cx="287.047" cy="387.551" r="7.5513" fill="#F9FAFC"/>
<rect x="501.108" y="407.748" width="10.4486" height="8.40782" transform="rotate(-45.5209 501.108 407.748)" fill="#F9FAFC"/>
<rect x="497.536" y="404.455" width="10.4486" height="2.88173" transform="rotate(-45.5209 497.536 404.455)" fill="#F9FAFC"/>
<rect x="508.623" y="415.038" width="10.4486" height="2.88173" transform="rotate(-45.5209 508.623 415.038)" fill="#F9FAFC"/>
<rect x="500.542" y="411.868" width="3.58732" height="10.7917" transform="rotate(44.341 500.542 411.868)" fill="#F9FAFC"/>
<path d="M478 418.7C478 409.838 485.184 402.654 494.047 402.654" stroke="#F9FAFC" stroke-width="5"/>
<circle cx="494.047" cy="387.551" r="7.5513" fill="#F9FAFC"/>
<path d="M405.094 252V289.953L395.66 292.004L393.609 301.438H369V252H405.094Z" fill="#C8C7FF"/>
<path d="M393.609 289.953V301.438L405.094 289.953H393.609Z" fill="#EEEEFF"/>
<rect x="373" y="257" width="28" height="3" rx="1.5" fill="#8987FF" fill-opacity="0.6"/>
<rect x="373" y="264" width="28" height="3" rx="1.5" fill="#8987FF" fill-opacity="0.4"/>
<rect opacity="0.3" x="373" y="271" width="28" height="3" rx="1.5" fill="#8987FF"/>
<rect opacity="0.2" x="373" y="278" width="28" height="3" rx="1.5" fill="#8987FF"/>
<defs>
<filter id="filter0_d" x="0" y="0" width="782" height="545" filterUnits="userSpaceOnUse" color-interpolation-filters="sRGB">
<feFlood flood-opacity="0" result="BackgroundImageFix"/>
<feColorMatrix in="SourceAlpha" type="matrix" values="0 0 0 0 0 0 0 0 0 0 0 0 0 0 0 0 0 0 127 0"/>
<feOffset dy="3"/>
<feGaussianBlur stdDeviation="8.5"/>
<feColorMatrix type="matrix" values="0 0 0 0 0 0 0 0 0 0 0 0 0 0 0 0 0 0 0.1 0"/>
<feBlend mode="normal" in2="BackgroundImageFix" result="effect1_dropShadow"/>
<feBlend mode="normal" in="SourceGraphic" in2="effect1_dropShadow" result="shape"/>
</filter>
</defs>
</svg>
