<svg width="782" height="545" viewBox="0 0 782 545" fill="none" xmlns="http://www.w3.org/2000/svg">
<g filter="url(#filter0_d)">
<rect x="17" y="14" width="748" height="511" rx="6" fill="white"/>
</g>
<mask id="mask0" mask-type="alpha" maskUnits="userSpaceOnUse" x="17" y="14" width="748" height="511">
<rect x="17" y="14" width="748" height="511" rx="6" fill="white"/>
</mask>
<g mask="url(#mask0)">
<circle opacity="0.5" cx="391.5" cy="269.5" r="223.216" stroke="#FFA776" stroke-width="1.5"/>
<circle opacity="0.3" cx="391.5" cy="269.5" r="255.045" stroke="#FFA776" stroke-width="1.5"/>
<circle opacity="0.15" cx="391.5" cy="269.5" r="286.098" stroke="#FFA776" stroke-width="1.5"/>
<circle opacity="0.1" cx="391.5" cy="269.5" r="317.75" stroke="#FFA776" stroke-width="1.5"/>
</g>
<path opacity="0.6" d="M328 269.5L331.75 264.737L331.75 274.263L328 269.5Z" fill="#7FDFA6"/>
<path opacity="0.7" d="M320 269.5L323.75 264.737L323.75 274.263L320 269.5Z" fill="#7FDFA6"/>
<path opacity="0.8" d="M312 269.5L315.75 264.737L315.75 274.263L312 269.5Z" fill="#7FDFA6"/>
<path d="M304 269.5L307.75 264.737L307.75 274.263L304 269.5Z" fill="#7FDFA6"/>
<path d="M296 269.5L299.75 264.737L299.75 274.263L296 269.5Z" fill="#7FDFA6"/>
<circle cx="249" cy="270" r="39" fill="#7FDFA6"/>
<path d="M264.581 286.877C264.581 278.432 257.735 271.586 249.29 271.586C240.846 271.586 234 278.432 234 286.877" stroke="#F9FAFC" stroke-width="5"/>
<circle cx="249.195" cy="257.195" r="7.19549" fill="#F9FAFC"/>
<circle cx="533" cy="270" r="39" fill="#FF7C7C"/>
<path d="M548.581 286.877C548.581 278.432 541.735 271.586 533.29 271.586C524.846 271.586 518 278.432 518 286.877" stroke="#F9FAFC" stroke-width="5"/>
<circle cx="533.195" cy="257.195" r="7.19549" fill="#F9FAFC"/>
<circle cx="390.773" cy="269.773" r="49.7726" fill="#8987FF"/>
<path d="M409.094 245V282.953L399.66 285.004L397.609 294.438H373V245H409.094Z" fill="#BFBEFF"/>
<path d="M409.094 245V282.953L399.66 285.004L397.609 294.438H373V245H409.094Z" fill="#C8C7FF"/>
<path d="M397.609 282.953V294.438L409.094 282.953H397.609Z" fill="#EEEEFF"/>
<rect x="377" y="250" width="28" height="3" rx="1.5" fill="#8987FF" fill-opacity="0.6"/>
<rect x="377" y="257" width="28" height="3" rx="1.5" fill="#8987FF" fill-opacity="0.4"/>
<rect opacity="0.3" x="377" y="264" width="28" height="3" rx="1.5" fill="#8987FF"/>
<rect opacity="0.2" x="377" y="271" width="28" height="3" rx="1.5" fill="#8987FF"/>
<defs>
<filter id="filter0_d" x="0" y="0" width="782" height="545" filterUnits="userSpaceOnUse" color-interpolation-filters="sRGB">
<feFlood flood-opacity="0" result="BackgroundImageFix"/>
<feColorMatrix in="SourceAlpha" type="matrix" values="0 0 0 0 0 0 0 0 0 0 0 0 0 0 0 0 0 0 127 0"/>
<feOffset dy="3"/>
<feGaussianBlur stdDeviation="8.5"/>
<feColorMatrix type="matrix" values="0 0 0 0 0 0 0 0 0 0 0 0 0 0 0 0 0 0 0.1 0"/>
<feBlend mode="normal" in2="BackgroundImageFix" result="effect1_dropShadow"/>
<feBlend mode="normal" in="SourceGraphic" in2="effect1_dropShadow" result="shape"/>
</filter>
</defs>
</svg>
