<svg fill="none" height="545" viewBox="0 0 782 545" width="782" xmlns="http://www.w3.org/2000/svg" xmlns:xlink="http://www.w3.org/1999/xlink"><filter id="a" color-interpolation-filters="sRGB" filterUnits="userSpaceOnUse" height="545" width="782" x="0" y="0"><feFlood flood-opacity="0" result="BackgroundImageFix"/><feColorMatrix in="SourceAlpha" type="matrix" values="0 0 0 0 0 0 0 0 0 0 0 0 0 0 0 0 0 0 127 0"/><feOffset dy="3"/><feGaussianBlur stdDeviation="8.5"/><feColorMatrix type="matrix" values="0 0 0 0 0 0 0 0 0 0 0 0 0 0 0 0 0 0 0.1 0"/><feBlend in2="BackgroundImageFix" mode="normal" result="effect1_dropShadow"/><feBlend in="SourceGraphic" in2="effect1_dropShadow" mode="normal" result="shape"/></filter><linearGradient id="b"><stop offset="0" stop-color="#ffc58f"/><stop offset="1" stop-color="#ff7c7c"/></linearGradient><linearGradient id="c" gradientUnits="userSpaceOnUse" x1="297" x2="328.487" xlink:href="#b" y1="254.125" y2="235.154"/><linearGradient id="d" gradientUnits="userSpaceOnUse" x1="537" x2="568.487" xlink:href="#b" y1="254.125" y2="235.154"/><g filter="url(#a)"><rect fill="#fff" height="511" rx="6" width="748" x="17" y="14"/></g><circle cx="391" cy="270" fill="#ffa776" fill-opacity=".4" r="39"/><g fill="#f9fafc"><path d="m398.108 274.748h10.4486v8.40782h-10.4486z" transform="matrix(.70064904 -.71350608 .71350608 .70064904 -76.860356 366.298553)"/><path d="m394.536 271.455h10.4486v2.88173h-10.4486z" transform="matrix(.70064904 -.71350608 .71350608 .70064904 -75.580062 362.764147)"/><path d="m405.623 282.038h10.4486v2.88173h-10.4486z" transform="matrix(.70064904 -.71350608 .71350608 .70064904 -79.812193 373.84282)"/><path d="m397.542 278.868h3.58732v10.7917h-3.58732z" transform="matrix(.71519278 .69892725 -.69892725 .71519278 308.131277 -198.429314)"/></g><path d="m375 285.7c0-8.862 7.184-16.046 16.047-16.046" stroke="#f9fafc" stroke-width="5"/><circle cx="391.047" cy="254.551" fill="#f9fafc" r="7.5513"/><circle cx="270" cy="270" fill="#ffa776" r="39"/><path d="m277.108 274.748h10.4486v8.40782h-10.4486z" fill="#f9fafc" transform="matrix(.70064904 -.71350608 .71350608 .70064904 -113.081822 279.964318)"/><path d="m273.536 271.455h10.4486v2.88173h-10.4486z" fill="#f9fafc" transform="matrix(.70064904 -.71350608 .71350608 .70064904 -111.801528 276.429912)"/><path d="m284.623 282.038h10.4486v2.88173h-10.4486z" fill="#f9fafc" transform="matrix(.70064904 -.71350608 .71350608 .70064904 -116.033659 287.508585)"/><path d="m276.542 278.868h3.58732v10.7917h-3.58732z" fill="#f9fafc" transform="matrix(.71519278 .69892725 -.69892725 .71519278 273.669603 -113.859117)"/><path d="m254 285.7c0-8.862 7.184-16.046 16.047-16.046" stroke="#f9fafc" stroke-width="5"/><circle cx="270.047" cy="254.551" fill="#f9fafc" r="7.5513"/><circle cx="512" cy="270" fill="#ffa776" r="39"/><path d="m518.108 274.748h10.4486v8.40782h-10.4486z" fill="#f9fafc" transform="matrix(.70064904 -.71350608 .71350608 .70064904 -40.938241 451.919282)"/><path d="m514.536 271.455h10.4486v2.88173h-10.4486z" fill="#f9fafc" transform="matrix(.70064904 -.71350608 .71350608 .70064904 -39.657947 448.384876)"/><path d="m525.623 282.038h10.4486v2.88173h-10.4486z" fill="#f9fafc" transform="matrix(.70064904 -.71350608 .71350608 .70064904 -43.890078 459.463549)"/><path d="m517.542 278.868h3.58732v10.7917h-3.58732z" fill="#f9fafc" transform="matrix(.71519278 .69892725 -.69892725 .71519278 342.308144 -282.300583)"/><path d="m495 285.7c0-8.862 7.184-16.046 16.047-16.046" stroke="#f9fafc" stroke-width="5"/><circle cx="511.047" cy="254.551" fill="#f9fafc" r="7.5513"/><path d="m320.216 237.651v4.485l-9.181-5.194-10.048 5.693v5.876l10.048 5.666 13.982-7.922v4.512l-13.982 7.922-14.035-7.922v-10.388l14.008-7.949z" fill="url(#c)"/><path d="m301.827 243.553v4.512l9.208 5.168 14.008-7.896v-10.388l-14.008-7.949-14.035 7.949v4.485l14.008-7.948 10.021 5.692v5.903l-9.994 5.666z" fill="url(#c)"/><path clip-rule="evenodd" d="m311.035 253.233-9.208-5.168v-4.512l9.208 5.194 9.994-5.666v-5.903l-10.021-5.692-14.008 7.948v-4.485l14.035-7.949 14.008 7.949v10.388zm0 .944-10.048-5.666v-5.876l10.048-5.693 9.181 5.194v-4.485l-9.208-5.221-14.008 7.949v10.388l14.035 7.922 13.982-7.922v-4.512zm-21.035-23.309 21.038-11.915 21.005 11.919v18.555l-.026.014v5.405l-20.976 11.885-21.041-11.877z" fill="#fff" fill-rule="evenodd"/><path d="m560.216 237.651v4.485l-9.181-5.194-10.048 5.693v5.876l10.048 5.666 13.982-7.922v4.512l-13.982 7.922-14.035-7.922v-10.388l14.008-7.949z" fill="url(#d)"/><path d="m541.827 243.553v4.512l9.208 5.168 14.008-7.896v-10.388l-14.008-7.949-14.035 7.949v4.485l14.008-7.948 10.021 5.692v5.903l-9.994 5.666z" fill="url(#d)"/><path clip-rule="evenodd" d="m551.035 253.233-9.208-5.168v-4.512l9.208 5.194 9.994-5.666v-5.903l-10.021-5.692-14.008 7.948v-4.485l14.035-7.949 14.008 7.949v10.388zm0 .944-10.048-5.666v-5.876l10.048-5.693 9.181 5.194v-4.485l-9.208-5.221-14.008 7.949v10.388l14.035 7.922 13.982-7.922v-4.512zm-21.035-23.309 21.038-11.915 21.005 11.919v18.555l-.026.014v5.405l-20.976 11.885-21.041-11.877z" fill="#fff" fill-rule="evenodd"/></svg>