<svg width="705" height="276" viewBox="0 0 705 276" fill="none" xmlns="http://www.w3.org/2000/svg">
<path d="M260.486 127.563L275.127 166.608C279.291 167.325 281.854 168.303 281.854 169.382L281.854 169.402L281.847 169.381L281.871 169.475C281.959 169.927 281.945 170.418 281.829 170.95L281.854 170.951L281.775 171.172C281.661 171.599 281.484 172.05 281.244 172.526C277.363 181.699 268.786 188.17 258.232 188.17C247.84 188.17 238.967 181.897 234.95 172.949L235.186 173.367C234.71 172.551 234.387 171.807 234.216 171.136C234.195 171.076 234.173 171.014 234.151 170.951L234.172 170.95C234.072 170.489 234.047 170.064 234.097 169.674L234.151 169.382L234.162 169.26C234.354 168.188 237.077 167.223 241.367 166.526L255.978 127.563C256.681 125.673 259.778 125.673 260.486 127.563ZM337.72 127.558L352.359 166.594C356.324 167.27 358.857 168.182 359.14 169.192L359.1 169.11C359.332 169.555 359.399 170.069 359.302 170.651L359.241 170.946C359.157 171.276 359.028 171.621 358.851 171.985C355.071 181.446 346.225 188.165 335.466 188.165C324.821 188.165 315.769 181.582 311.899 172.285C311.67 171.833 311.489 171.4 311.396 170.993L311.387 170.95C311.386 170.949 311.386 170.948 311.385 170.946L311.386 170.945L311.356 170.76C311.318 170.431 311.339 170.034 311.417 169.569L311.476 169.256L311.471 169.283C311.473 169.265 311.477 169.247 311.481 169.229L311.486 169.208L311.489 169.209C311.754 168.165 314.422 167.225 318.592 166.54L333.212 127.558C333.915 125.668 337.012 125.668 337.72 127.558ZM258.232 135.283L246.762 165.866C250.111 165.566 253.938 165.396 258.002 165.396L258.732 165.398C262.716 165.418 266.455 165.601 269.716 165.909L258.232 135.283ZM335.466 135.283L323.993 165.873C327.361 165.569 331.218 165.396 335.315 165.396L336.044 165.398C339.996 165.418 343.707 165.598 346.95 165.902L335.466 135.283ZM297.188 82.2737C297.188 82.2737 302.9 100.195 302.9 103.369C302.9 105.555 301.638 107.401 299.841 108.371C301.32 108.851 302.62 109.694 303.636 110.823C305.905 108.846 309.247 107.009 314.044 107.009C319.53 107.009 324.245 109.408 328.406 111.526C329.731 112.199 331.017 112.844 332.206 113.348C333.093 112.408 334.33 111.807 335.717 111.807C338.405 111.807 340.582 113.997 340.582 116.701C340.582 119.406 338.405 121.596 335.717 121.596C333.536 121.596 331.758 120.128 331.142 118.136C329.548 117.525 327.915 116.701 326.234 115.848C322.555 113.978 318.379 111.855 314.044 111.855C309.878 111.855 307.278 113.799 305.794 115.441C305.852 115.858 305.919 116.27 305.919 116.701C305.919 121.552 302.009 125.488 297.188 125.488C292.366 125.488 288.456 121.552 288.456 116.701C288.456 116.27 288.523 115.853 288.581 115.437C287.093 113.789 284.492 111.855 280.331 111.855C275.996 111.855 271.82 113.983 268.136 115.853C266.46 116.706 264.827 117.53 263.233 118.141C262.617 120.133 260.839 121.601 258.658 121.601C255.97 121.601 253.793 119.406 253.793 116.701C253.793 113.997 255.97 111.807 258.658 111.807C260.045 111.807 261.283 112.412 262.169 113.348C263.358 112.849 264.639 112.204 265.964 111.526C270.125 109.408 274.845 107.009 280.331 107.009C285.128 107.009 288.47 108.846 290.739 110.823C291.755 109.694 293.055 108.846 294.534 108.371C292.737 107.401 291.475 105.56 291.475 103.369C291.475 100.195 297.188 82.2737 297.188 82.2737Z" fill="url(#paint0_linear)"/>
<path d="M365.456 76.3041C365.456 76.3041 359.53 76.8134 355.605 78.9347C355.605 78.9347 371.219 78.8504 378.486 84.9552C378.486 84.9552 360.813 79.5252 340.215 93.0097C340.215 93.0097 372.976 86.733 388.507 100.049C388.507 100.049 383.495 90.7727 372.954 88.7762C372.954 88.7762 384.947 88.2982 389.054 90.2947C389.054 90.2947 385.507 82.6527 381.486 80.8312V75.3836C381.486 74.2805 375.48 68.6705 365.456 67.7239V76.3041Z" fill="url(#paint1_linear)"/>
<path d="M362.791 100.664C362.791 100.664 365.318 102.868 366.388 104.905C366.388 104.905 364.078 107.188 361.87 108.312C361.87 108.312 368.559 110.419 370.32 112.91C366.754 111.789 360.664 112.209 359.197 115.238C363.269 114.799 365.762 115.85 366.286 117.41C366.286 117.41 365.318 118.805 362.354 119.425C359.197 120.085 358.391 121.398 358.391 123.23C358.391 125.063 360.788 126.739 365.142 126.603C369.489 126.464 381.347 124.67 382.243 102.237C381.347 100.127 370.515 95.8197 362.763 95.867L362.791 100.664Z" fill="white"/>
<path d="M385.971 125.49C391.294 117.207 394.207 109.989 394.709 103.837C402.589 112.594 402.115 122.847 400.776 130.694C399.873 128.169 398.708 125.572 397.282 122.902C398.224 135 394.643 141.55 386.537 142.552C385.589 136.964 385.4 131.276 385.971 125.49Z" fill="white"/>
<path d="M287.615 50.3538C286.136 52.629 283.967 58.9553 281.11 69.3324C274.689 76.6799 268.409 86.7639 262.268 99.5845C259.236 100.527 256.019 101.858 252.618 103.577C261.34 87.5402 269.874 75.4344 278.218 67.258C280.146 60.85 283.278 55.2152 287.615 50.3538Z" fill="white"/>
<path d="M305.197 68.2441L283.617 78.4256C289.766 78.5291 294.65 77.4111 298.268 75.0716C301.886 72.7322 304.196 70.4563 305.197 68.2441Z" fill="white"/>
<path d="M297.235 64.5302C297.113 60.0805 296.533 57.5794 295.497 57.0272C294.345 56.5125 293.675 55.4041 294.345 53.38C294.758 52.0936 294.633 50.6614 293.971 49.0835L299.825 45.1729L306.413 49.3257C306.644 50.7911 306.165 52.1425 304.977 53.38C306.413 54.9339 306.413 56.9394 304.749 59.2558C304.796 59.8296 304.828 60.3923 304.846 60.9437C304.873 61.7794 304.841 62.9749 304.749 64.5302H297.235Z" fill="white"/>
<path d="M378.518 133.084C377.485 151.896 381.49 162.586 390.533 165.155C404.097 169.009 422.239 170.134 427.172 198.7C428.398 202.564 427.802 206.114 428.816 209.595C424.839 213.806 420.526 217.694 415.92 221.216C411.412 210.316 405.776 203.584 397.852 198.7C366.623 179.247 360.178 157.375 378.518 133.084Z" fill="white"/>
<path d="M299.898 192.951C323 224.5 342.428 207.699 362.65 217.315C371.896 221.712 376.939 229.784 377.781 241.53C369.897 243.366 361.683 244.335 353.243 244.335C336.877 244.335 321.361 240.692 307.456 234.17C307.405 221.812 304.885 208.072 299.898 192.951Z" fill="white"/>
<path d="M387.21 70.1204C393.806 80.6084 396.882 88.3662 396.439 93.3939C396.271 95.2107 395.472 97.2376 394.043 99.4748C399.062 99.0268 401.572 95.9403 401.572 90.2153C401.572 84.4903 396.785 77.792 387.21 70.1204Z" fill="white"/>
<path d="M329.894 81.9397C334.136 80.7678 337.603 78.1215 340.295 74.0009C340.124 76.4542 339.51 78.5659 338.452 80.3361C350.712 78.1309 360.227 70.7022 366.997 58.0501C354.514 51.2628 341.646 55.8929 334.749 64.3366C330.151 69.9657 328.533 75.8334 329.894 81.9397Z" fill="white"/>
<path d="M23.9799 138.66C24.8799 138.34 25.5799 137.38 25.5799 136.06C25.5799 133.86 23.9799 132.72 21.4199 132.72H17.1199V145H21.8199C24.3799 145 25.9799 143.78 25.9799 141.48C25.9799 140.18 25.1399 139.04 23.9799 138.66ZM19.1399 137.88V134.52H21.3999C22.8199 134.52 23.5799 135.02 23.5799 136.18C23.5799 137.34 22.8199 137.88 21.3999 137.88H19.1399ZM19.1399 139.6H21.7799C23.1799 139.6 23.9399 140.28 23.9399 141.4C23.9399 142.5 23.1799 143.2 21.7799 143.2H19.1399V139.6ZM29.1355 132.72V145H37.1555V143.14H31.1755V139.62H36.5955V137.8H31.1755V134.56H37.1555V132.72H29.1355ZM39.749 138.86C39.749 142.64 42.169 145.2 45.329 145.2C48.089 145.2 49.869 143.6 50.329 141.12H48.289C47.809 142.44 46.969 143.32 45.329 143.32C43.149 143.32 41.849 141.42 41.849 138.86C41.849 136.28 43.169 134.4 45.329 134.4C46.969 134.4 47.809 135.28 48.289 136.58H50.329C49.869 134.12 48.109 132.52 45.329 132.52C42.169 132.52 39.749 135.08 39.749 138.86ZM64.0226 138.86C64.0226 135.18 61.6626 132.52 58.3426 132.52C55.0226 132.52 52.6826 135.18 52.6826 138.86C52.6826 142.52 55.0226 145.2 58.3426 145.2C61.6626 145.2 64.0226 142.52 64.0226 138.86ZM61.9226 138.86C61.9226 141.46 60.5026 143.34 58.3426 143.34C56.1826 143.34 54.7826 141.46 54.7826 138.86C54.7826 136.26 56.1826 134.38 58.3426 134.38C60.5026 134.38 61.9226 136.26 61.9226 138.86ZM73.9169 145L77.2169 136.46V145H79.2169V132.72H76.8969L73.1969 142.16L69.4569 132.72H67.0769V145H69.0569V136.46L72.4369 145H73.9169ZM82.9402 132.72V145H90.9602V143.14H84.9802V139.62H90.4002V137.8H84.9802V134.56H90.9602V132.72H82.9402ZM103.388 132.72L98.6677 145H100.768L102.028 141.6H106.728L107.988 145H110.108L105.388 132.72H103.388ZM104.368 135.26L106.048 139.8H102.688L104.368 135.26ZM117.228 141.42C117.408 143.6 118.748 145.2 121.388 145.2C123.908 145.2 125.508 143.68 125.508 140.76V132.72H123.428V140.76C123.428 142.5 122.748 143.3 121.348 143.3C120.168 143.3 119.528 142.6 119.388 141.42H117.228ZM133.715 145.2C136.655 145.2 138.635 143.48 138.635 140.12V132.72H136.555V139.88C136.555 142.24 135.555 143.34 133.715 143.34C131.875 143.34 130.875 142.24 130.875 139.88V132.72H128.795V140.1C128.795 143.48 130.795 145.2 133.715 145.2ZM145.723 140.02L149.143 145H151.503L147.943 139.94C149.883 139.64 151.083 138.46 151.083 136.4C151.083 134 149.443 132.72 146.903 132.72H142.163V145H144.243V140.02H145.723ZM144.243 134.52H146.863C148.243 134.52 149.023 135.26 149.023 136.4C149.023 137.54 148.243 138.28 146.863 138.28H144.243V134.52ZM164.937 138.86C164.937 135.18 162.577 132.52 159.257 132.52C155.937 132.52 153.597 135.18 153.597 138.86C153.597 142.52 155.937 145.2 159.257 145.2C162.577 145.2 164.937 142.52 164.937 138.86ZM162.837 138.86C162.837 141.46 161.417 143.34 159.257 143.34C157.097 143.34 155.697 141.46 155.697 138.86C155.697 136.26 157.097 134.38 159.257 134.38C161.417 134.38 162.837 136.26 162.837 138.86ZM171.551 140.02L174.971 145H177.331L173.771 139.94C175.711 139.64 176.911 138.46 176.911 136.4C176.911 134 175.271 132.72 172.731 132.72H167.991V145H170.071V140.02H171.551ZM170.071 134.52H172.691C174.071 134.52 174.851 135.26 174.851 136.4C174.851 137.54 174.071 138.28 172.691 138.28H170.071V134.52Z" fill="white"/>
<path d="M499.971 145V140.02H505.351V138.2H499.971V134.56H505.731V132.72H497.891V145H499.971ZM519.473 138.86C519.473 135.18 517.113 132.52 513.793 132.52C510.473 132.52 508.133 135.18 508.133 138.86C508.133 142.52 510.473 145.2 513.793 145.2C517.113 145.2 519.473 142.52 519.473 138.86ZM517.373 138.86C517.373 141.46 515.953 143.34 513.793 143.34C511.633 143.34 510.233 141.46 510.233 138.86C510.233 136.26 511.633 134.38 513.793 134.38C515.953 134.38 517.373 136.26 517.373 138.86ZM526.087 140.02L529.507 145H531.867L528.307 139.94C530.247 139.64 531.447 138.46 531.447 136.4C531.447 134 529.807 132.72 527.267 132.72H522.527V145H524.607V140.02H526.087ZM524.607 134.52H527.227C528.607 134.52 529.387 135.26 529.387 136.4C529.387 137.54 528.607 138.28 527.227 138.28H524.607V134.52ZM543.795 132.72L539.075 145H541.175L542.435 141.6H547.135L548.395 145H550.515L545.795 132.72H543.795ZM544.775 135.26L546.455 139.8H543.095L544.775 135.26ZM556.841 140.02L560.261 145H562.621L559.061 139.94C561.001 139.64 562.201 138.46 562.201 136.4C562.201 134 560.561 132.72 558.021 132.72H553.281V145H555.361V140.02H556.841ZM555.361 134.52H557.981C559.361 134.52 560.141 135.26 560.141 136.4C560.141 137.54 559.361 138.28 557.981 138.28H555.361V134.52ZM569.135 132.72L564.415 145H566.515L567.775 141.6H572.475L573.735 145H575.855L571.135 132.72H569.135ZM570.115 135.26L571.795 139.8H568.435L570.115 135.26ZM586.473 140.44C586.213 142.16 585.093 143.36 583.233 143.36C580.953 143.36 579.553 141.46 579.553 138.86C579.553 136.26 580.973 134.4 583.153 134.4C584.793 134.4 585.613 135.24 586.113 136.56H588.193C587.713 134.12 585.973 132.52 583.153 132.52C579.953 132.52 577.453 135.08 577.453 138.86C577.453 142.64 579.933 145.2 583.233 145.2C586.233 145.2 588.453 143.02 588.453 139.62V138.66H583.793V140.44H586.473ZM602.196 138.86C602.196 135.18 599.836 132.52 596.516 132.52C593.196 132.52 590.856 135.18 590.856 138.86C590.856 142.52 593.196 145.2 596.516 145.2C599.836 145.2 602.196 142.52 602.196 138.86ZM600.096 138.86C600.096 141.46 598.676 143.34 596.516 143.34C594.356 143.34 592.956 141.46 592.956 138.86C592.956 136.26 594.356 134.38 596.516 134.38C598.676 134.38 600.096 136.26 600.096 138.86ZM615.13 132.72H613.13V141.24L607.21 132.72H605.25V145H607.25V136.06L613.53 145H615.13V132.72ZM623.602 138.86C623.602 142.64 626.022 145.2 629.182 145.2C631.942 145.2 633.722 143.6 634.182 141.12H632.142C631.662 142.44 630.822 143.32 629.182 143.32C627.002 143.32 625.702 141.42 625.702 138.86C625.702 136.28 627.022 134.4 629.182 134.4C630.822 134.4 631.662 135.28 632.142 136.58H634.182C633.722 134.12 631.962 132.52 629.182 132.52C626.022 132.52 623.602 135.08 623.602 138.86ZM647.875 138.86C647.875 135.18 645.515 132.52 642.195 132.52C638.875 132.52 636.535 135.18 636.535 138.86C636.535 142.52 638.875 145.2 642.195 145.2C645.515 145.2 647.875 142.52 647.875 138.86ZM645.775 138.86C645.775 141.46 644.355 143.34 642.195 143.34C640.035 143.34 638.635 141.46 638.635 138.86C638.635 136.26 640.035 134.38 642.195 134.38C644.355 134.38 645.775 136.26 645.775 138.86ZM655.65 145.2C658.59 145.2 660.57 143.48 660.57 140.12V132.72H658.49V139.88C658.49 142.24 657.49 143.34 655.65 143.34C653.81 143.34 652.81 142.24 652.81 139.88V132.72H650.73V140.1C650.73 143.48 652.73 145.2 655.65 145.2ZM667.658 140.02L671.078 145H673.438L669.878 139.94C671.818 139.64 673.018 138.46 673.018 136.4C673.018 134 671.378 132.72 668.838 132.72H664.098V145H666.178V140.02H667.658ZM666.178 134.52H668.798C670.178 134.52 670.958 135.26 670.958 136.4C670.958 137.54 670.178 138.28 668.798 138.28H666.178V134.52ZM675.236 134.56H679.316V145H681.396V134.56H685.476V132.72H675.236V134.56Z" fill="url(#paint2_linear)"/>
<g clip-path="url(#clip0)">
<path d="M248.335 64.9859L240.096 59.2359L243.782 54.0283L244.974 54.8962L242.264 58.6934L244.649 60.4293L247.143 56.8491L248.335 57.717L245.842 61.2972L249.203 63.5755L248.335 64.9859Z" fill="#515151"/>
<path d="M257.984 52.7264C256.25 54.7877 253.322 54.7877 251.046 52.8349C248.769 50.8821 248.335 48.0613 250.178 46C251.913 43.9387 254.84 43.9387 257.117 45.8915C259.285 47.8443 259.719 50.6651 257.984 52.7264ZM251.262 46.9764C250.07 48.2783 250.504 50.1227 252.13 51.533C253.756 52.9434 255.599 53.0519 256.792 51.75C257.984 50.4481 257.551 48.4953 255.924 47.1934C254.298 45.783 252.455 45.6745 251.262 46.9764Z" fill="#515151"/>
<path d="M262.863 41.335L265.682 44.2642L264.489 45.4576L257.659 38.1887L260.478 35.585C261.996 34.1746 263.622 34.0661 265.031 35.4765C266.224 36.6699 266.116 38.0802 265.14 39.2736L270.019 40.2501L268.609 41.5519L263.839 40.467L262.863 41.335ZM261.996 40.3586L263.514 38.9482C264.381 38.1887 264.381 37.3208 263.73 36.6699C263.08 36.0189 262.213 36.0189 261.454 36.7784L259.936 38.1887L261.996 40.3586Z" fill="#515151"/>
<path d="M273.379 24.8444L280.318 20.1793L281.185 21.3727L278.367 23.217L283.137 30.2689L281.728 31.2453L276.957 24.1934L274.247 26.0378L273.379 24.8444Z" fill="#515151"/>
<path d="M289.859 21.4811L291.81 25.0613L290.292 25.9293L285.631 17.1415L288.991 15.2972C290.835 14.3208 292.461 14.6462 293.437 16.3821C294.195 17.901 293.762 19.2028 292.569 20.0708L297.014 22.3491L295.28 23.217L290.943 20.9387L289.859 21.4811ZM289.208 20.2877L291.051 19.3113C292.027 18.7689 292.352 18.0094 291.919 17.1415C291.485 16.2736 290.618 16.0566 289.642 16.5991L287.799 17.5755L289.208 20.2877Z" fill="#515151"/>
<path d="M299.725 16.5991L297.448 11.0661L298.966 10.4151L301.134 15.8396C301.893 17.5755 302.977 18.1179 304.278 17.5755C305.579 17.033 306.121 15.8396 305.362 14.1038L303.194 8.67926L304.712 8.02832L306.989 13.5613C307.964 16.0566 306.989 18.0095 304.82 18.8774C302.76 19.8538 300.809 19.2028 299.725 16.5991Z" fill="#515151"/>
<path d="M310.566 6.07548L318.589 3.79718L319.023 5.20756L315.879 6.07548L318.155 14.2123L316.529 14.6462L314.144 6.61793L311 7.59435L310.566 6.07548Z" fill="#515151"/>
<path d="M332.9 1.08496L334.526 10.9576L332.9 11.2831L332.141 6.94345L327.154 7.81138L327.913 12.151L326.287 12.4765L324.66 2.60383L326.287 2.27836L326.937 6.29251L331.924 5.42458L331.274 1.41043L332.9 1.08496Z" fill="#515151"/>
<path d="M352.198 3.10914e-05L355.884 10.0897H354.15L353.174 7.2689L349.379 7.16041L348.295 9.87267H346.561L350.572 -0.108459L352.198 3.10914e-05ZM349.922 5.75003H352.632L351.331 2.06135L349.922 5.75003Z" fill="#515151"/>
<path d="M368.678 11.283L367.377 11.1746L363.148 3.25475L362.281 10.5236L360.763 10.3066L361.847 0.3255L363.474 0.542482L367.485 8.02833L368.244 1.08493L369.87 1.30192L368.678 11.283Z" fill="#515151"/>
<path d="M376.592 2.4953L379.845 3.25473C382.663 3.90568 384.181 6.29247 383.422 9.22172C382.772 12.151 380.495 13.6698 377.568 13.0189L374.315 12.2595L376.592 2.4953ZM377.893 11.5C379.953 11.934 381.362 10.8491 381.796 8.78775C382.23 6.72643 381.471 5.09907 379.411 4.66511L377.893 4.33964L376.375 11.1745L377.893 11.5Z" fill="#515151"/>
<path d="M395.999 15.5142C395.782 16.4906 395.999 17.1415 396.866 17.5755C397.95 18.0094 398.709 17.5755 399.251 16.2736L401.745 10.1981L403.262 10.8491L400.769 16.9245C399.902 19.0943 398.167 19.7453 396.324 18.9859C394.372 18.2264 393.83 16.5991 394.372 14.8632L395.999 15.5142Z" fill="#515151"/>
<path d="M406.19 18.7689L409.009 13.4529L410.526 14.2123L407.816 19.3114C406.949 21.0472 407.165 22.1321 408.575 22.8916C409.876 23.5425 411.068 23.217 411.936 21.4812L414.646 16.3821L416.164 17.1416L413.345 22.4576C412.044 24.8444 409.984 25.3868 407.924 24.1934C405.756 23.217 404.889 21.1557 406.19 18.7689Z" fill="#515151"/>
<path d="M418.441 27.1227C418.116 28.2076 418.549 28.967 419.525 29.6179C420.501 30.2689 421.476 30.2689 421.91 29.5094C422.344 28.967 422.235 28.3161 421.476 27.5566L420.284 26.2547C419.308 25.1698 418.766 23.9764 419.742 22.6745C420.718 21.2642 422.561 20.9387 424.187 22.1321C426.03 23.3255 426.464 24.9528 425.813 26.5802L424.404 25.6038C424.621 24.8444 424.404 23.9764 423.428 23.3255C422.561 22.6745 421.585 22.783 421.151 23.434C420.826 23.9764 420.934 24.6274 421.476 25.2783L422.669 26.5802C423.753 27.7736 424.078 29.0755 423.32 30.2689C422.235 31.7877 420.392 32.0047 418.658 30.8113C416.923 29.6179 416.272 27.8821 416.923 26.1462L418.441 27.1227Z" fill="#515151"/>
<path d="M431.668 27.5566L438.064 32.8727L437.088 34.0661L434.486 32.0048L429.066 38.5142L427.765 37.4293L433.185 30.9198L430.583 28.8585L431.668 27.5566Z" fill="#515151"/>
<path d="M436.655 45.2406L435.462 44.0472L442.401 36.8868L443.593 38.0802L436.655 45.2406Z" fill="#515151"/>
<path d="M450.966 45.6746C452.484 47.4104 452.375 49.3633 451.183 50.8821L450.098 49.5803C450.641 48.6038 450.749 47.6274 449.882 46.651C448.689 45.3491 446.846 45.5661 445.328 46.868C443.81 48.2784 443.268 50.0142 444.461 51.4246C445.328 52.401 446.304 52.5095 447.388 52.0755L448.472 53.3774C446.738 54.4623 444.786 54.1369 443.268 52.5095C441.534 50.5567 441.859 47.7359 444.136 45.6746C446.412 43.6133 449.34 43.7218 450.966 45.6746Z" fill="#515151"/>
<path d="M461.048 59.0189L459.856 59.8868L457.037 55.8727L454.869 57.3916L457.362 60.9717L456.17 61.8397L453.676 58.2595L451.291 59.8868L454.11 63.901L452.917 64.7689L449.123 59.4529L457.254 53.7029L461.048 59.0189Z" fill="#515151"/>
<path d="M246.275 215.896L240.746 225.118L239.662 223.816L241.18 221.321L238.795 218.283L236.084 219.042L235 217.741L245.191 214.594L246.275 215.896ZM240.312 217.741L242.047 219.91L244.107 216.547L240.312 217.741Z" fill="#515151"/>
<path d="M248.66 227.83L245.733 230.651L244.541 229.458L251.805 222.514L254.515 225.335C255.924 226.854 256.141 228.481 254.732 229.892C253.539 231.085 252.13 230.976 250.937 230L249.961 234.882L248.66 233.472L249.636 228.698L248.66 227.83ZM249.745 226.854L251.262 228.373C252.021 229.132 252.889 229.241 253.539 228.59C254.19 227.939 254.19 227.071 253.431 226.311L251.913 224.792L249.745 226.854Z" fill="#515151"/>
<path d="M264.164 234.34L260.586 244.429L259.285 243.344L260.261 240.632L257.334 238.137L254.732 239.547L253.431 238.462L262.863 233.363L264.164 234.34ZM258.743 237.269L260.803 239.005L262.213 235.316L258.743 237.269Z" fill="#515151"/>
<path d="M270.777 247.359L271.645 246.165L274.789 248.335L274.355 248.986C272.729 251.264 270.235 251.698 268.284 250.288C266.116 248.769 265.682 245.84 267.417 243.344C269.151 240.849 272.078 240.307 274.138 241.825C275.981 243.127 276.415 245.08 275.548 246.925L274.138 245.948C274.464 244.863 274.247 243.887 273.163 243.127C271.753 242.151 269.91 242.693 268.718 244.429C267.525 246.165 267.525 248.118 269.043 249.094C270.235 249.962 271.536 249.745 272.512 248.66L270.777 247.359Z" fill="#515151"/>
<path d="M280.318 257.991C277.933 256.689 277.391 253.868 278.8 251.264C280.318 248.66 283.029 247.684 285.305 248.986C287.69 250.288 288.233 253.109 286.823 255.712C285.414 258.316 282.703 259.292 280.318 257.991ZM284.655 250.288C283.137 249.42 281.402 250.179 280.318 252.024C279.234 253.868 279.559 255.712 281.077 256.58C282.595 257.448 284.33 256.689 285.414 254.844C286.389 253.109 286.173 251.156 284.655 250.288Z" fill="#515151"/>
<path d="M297.34 266.019L296.147 265.476L294.304 256.797L291.377 263.524L289.859 262.873L293.87 253.651L295.28 254.302L296.906 262.547L299.616 256.146L301.134 256.797L297.34 266.019Z" fill="#515151"/>
<path d="M318.698 272.637L317.397 272.311L314.252 263.958L312.409 271.009L310.783 270.575L313.277 260.92L314.795 261.354L317.722 269.274L319.565 262.547L321.191 262.981L318.698 272.637Z" fill="#515151"/>
<path d="M333.117 265.042L332.9 266.561L328.13 265.802L327.696 268.406L332.033 269.057L331.816 270.467L327.479 269.816L327.046 272.637L331.816 273.396L331.599 274.915L325.203 273.939L326.72 264.066L333.117 265.042Z" fill="#515151"/>
<path d="M337.67 265.476L346.019 266.019L345.91 267.538L342.549 267.321L342.007 275.783L340.272 275.675L340.815 267.212L337.454 266.995L337.67 265.476Z" fill="#515151"/>
<path d="M356.86 265.91L359.029 273.179L360.546 265.802L362.173 265.693L360.004 275.783L358.486 275.891L356.318 268.84L354.692 276.108L353.174 276.217L350.138 266.344L351.765 266.236L353.933 273.505L355.451 266.019L356.86 265.91Z" fill="#515151"/>
<path d="M372.364 274.481C369.653 274.915 367.485 273.071 367.051 270.142C366.618 267.212 368.136 264.717 370.846 264.283C373.556 263.849 375.725 265.693 376.158 268.623C376.592 271.552 375.074 274.047 372.364 274.481ZM371.063 265.802C369.328 266.127 368.461 267.755 368.786 269.816C369.111 271.877 370.521 273.288 372.255 272.962C373.99 272.745 374.857 271.009 374.532 268.948C374.098 266.778 372.797 265.476 371.063 265.802Z" fill="#515151"/>
<path d="M383.531 267.972L384.506 271.877L382.88 272.311L380.387 262.656L384.073 261.679C386.024 261.137 387.65 261.788 388.084 263.741C388.518 265.368 387.759 266.561 386.35 267.212L390.144 270.467L388.301 270.901L384.615 267.646L383.531 267.972ZM383.097 266.561L385.157 266.019C386.241 265.693 386.675 265.042 386.458 264.066C386.241 263.09 385.482 262.764 384.398 262.981L382.338 263.524L383.097 266.561Z" fill="#515151"/>
<path d="M395.565 263.198L397.842 257.231L399.793 256.472L397.516 262.113L403.262 265.802L401.311 266.561L396.757 263.632L396.215 265.042L397.3 267.972L395.673 268.514L392.204 259.184L393.83 258.641L395.565 263.198Z" fill="#515151"/>
<path d="M414.971 257.231C415.514 257.991 416.272 258.316 417.14 257.774C418.116 257.231 418.332 256.363 417.682 255.17L414.538 249.42L416.056 248.66L419.2 254.41C420.284 256.472 419.742 258.208 418.007 259.184C416.164 260.16 414.538 259.618 413.562 258.099L414.971 257.231Z" fill="#515151"/>
<path d="M423.862 250.939L420.501 245.948L421.91 244.972L425.163 249.854C426.247 251.481 427.439 251.698 428.632 250.939C429.825 250.071 430.041 248.877 428.957 247.358L425.705 242.476L427.114 241.5L430.475 246.491C431.993 248.769 431.451 250.83 429.391 252.132C427.439 253.542 425.379 253.217 423.862 250.939Z" fill="#515151"/>
<path d="M436.546 241.825L439.148 244.972L437.847 246.057L431.559 238.354L434.595 235.967C436.221 234.665 437.847 234.665 439.148 236.184C440.233 237.486 440.016 238.896 439.04 239.981L443.919 241.283L442.401 242.476L437.739 241.066L436.546 241.825ZM435.679 240.632L437.305 239.33C438.173 238.571 438.281 237.703 437.739 237.052C437.197 236.292 436.33 236.292 435.462 236.943L433.836 238.245L435.679 240.632Z" fill="#515151"/>
<path d="M451.074 234.557C449.123 236.509 446.304 236.292 444.136 234.123C442.076 231.953 441.859 229.132 443.81 227.179C445.762 225.226 448.581 225.443 450.749 227.613C452.809 229.674 452.917 232.604 451.074 234.557ZM444.786 228.264C443.593 229.458 443.81 231.41 445.328 232.929C446.846 234.448 448.689 234.665 449.99 233.472C451.291 232.278 450.966 230.325 449.448 228.807C447.93 227.288 446.087 227.071 444.786 228.264Z" fill="#515151"/>
<path d="M456.17 222.731L459.314 225.335L458.23 226.637L450.532 220.236L453.026 217.307C454.327 215.679 455.953 215.354 457.471 216.547C458.772 217.632 458.88 218.934 458.121 220.344L463.108 220.778L461.916 222.297L457.037 221.863L456.17 222.731ZM455.086 221.863L456.387 220.236C457.145 219.368 457.037 218.5 456.278 217.958C455.519 217.415 454.652 217.524 454.001 218.392L452.7 220.019L455.086 221.863Z" fill="#515151"/>
</g>
<defs>
<linearGradient id="paint0_linear" x1="234.072" y1="172.917" x2="350.357" y2="79.2612" gradientUnits="userSpaceOnUse">
<stop stop-color="#FFC58F"/>
<stop offset="1" stop-color="#FF7C7C"/>
</linearGradient>
<linearGradient id="paint1_linear" x1="340.215" y1="90.9401" x2="383.12" y2="63.8841" gradientUnits="userSpaceOnUse">
<stop stop-color="#FFC58F"/>
<stop offset="1" stop-color="#FF7C7C"/>
</linearGradient>
<linearGradient id="paint2_linear" x1="478" y1="153.945" x2="492.864" y2="83.7042" gradientUnits="userSpaceOnUse">
<stop stop-color="#FFC58F"/>
<stop offset="1" stop-color="#FF7C7C"/>
</linearGradient>
<clipPath id="clip0">
<rect width="228" height="276" fill="white" transform="translate(235)"/>
</clipPath>
</defs>
</svg>
