<svg width="68" height="68" viewBox="0 0 68 68" fill="none" xmlns="http://www.w3.org/2000/svg">
<path d="M18.6669 55.1983L18.6907 55.3071C18.8017 55.8293 18.8943 56.3307 18.9684 56.8115C16.1484 54.9908 13.6859 52.6684 11.7081 49.9713C12.1877 49.9236 12.6231 49.8549 13.0147 49.7654C14.6139 51.845 16.5206 53.6782 18.6669 55.1983ZM33.8789 6.58911C49.0274 6.58911 61.3092 18.8121 61.3092 33.8916C61.3092 39.9408 59.3328 45.5303 55.9877 50.0554L55.4772 48.7644C58.4185 44.5428 60.1419 39.4174 60.1419 33.8916C60.1419 19.4587 48.3843 7.75713 33.8789 7.75713C30.6862 7.75713 27.6266 8.32402 24.7962 9.36214L23.5057 8.60889C26.7058 7.30679 30.2082 6.58911 33.8789 6.58911Z" fill="#333333" stroke="#333333"/>
<path d="M10.4761 31.6537L14.2378 41.6665C15.3076 41.8505 15.9661 42.1014 15.9661 42.378L15.9661 42.3814C15.9935 42.5028 15.9913 42.6358 15.9596 42.7803L15.9661 42.7804L15.9451 42.8393C15.9161 42.9473 15.8712 43.0615 15.8106 43.1819C14.8139 45.5355 12.6097 47.1961 9.89702 47.1961C7.2242 47.1961 4.94244 45.5839 3.91216 43.2854C3.82388 43.1198 3.76205 42.9669 3.72639 42.8263C3.72103 42.8113 3.71552 42.7959 3.71006 42.7804L3.71554 42.7802C3.68759 42.6513 3.68253 42.5333 3.70035 42.4261L3.71006 42.378L3.71117 42.3583C3.74275 42.0789 4.44671 41.8269 5.56448 41.6455L9.31792 31.6537C9.49858 31.169 10.2942 31.169 10.4761 31.6537ZM30.3193 31.6525L34.0801 41.663C35.1 41.8367 35.7513 42.0708 35.8229 42.3302L35.8161 42.3167L35.8315 42.3494C35.8834 42.4734 35.889 42.6166 35.8483 42.7789L35.8484 42.7792C35.8269 42.864 35.7935 42.9528 35.7478 43.0467C34.7765 45.4721 32.5041 47.1948 29.7402 47.1948C27.0061 47.1948 24.6811 45.5079 23.6864 43.1249C23.6272 43.0083 23.58 42.8963 23.556 42.7912L23.5537 42.7805C23.5535 42.7801 23.5534 42.7796 23.5532 42.7792L23.5534 42.779L23.5486 42.752C23.5343 42.6572 23.5404 42.5384 23.5668 42.3959L23.5747 42.3562L23.5758 42.3493L23.5783 42.3365C23.6427 42.0676 24.3299 41.8254 25.4059 41.6491L29.1611 31.6525C29.3418 31.1678 30.1374 31.1678 30.3193 31.6525ZM23.5787 42.3364L23.5758 42.3493H23.5761L23.5787 42.3364ZM9.89702 33.6335L6.95062 41.4763C7.81098 41.3995 8.79405 41.3559 9.8381 41.3559L9.95589 41.3561C11.0057 41.3594 11.991 41.4068 12.848 41.4875L9.89702 33.6335ZM29.7402 33.6335L26.7929 41.4782C27.6582 41.4002 28.6488 41.3559 29.7014 41.3559L29.8192 41.3561C30.8605 41.3594 31.8383 41.406 32.6904 41.4856L29.7402 33.6335ZM19.9056 20.0396C19.9056 20.0396 21.3731 24.6354 21.3731 25.4495C21.3731 26.0099 21.0489 26.4835 20.5874 26.732C20.9673 26.855 21.3014 27.0713 21.5625 27.3609C22.1453 26.8538 23.004 26.3828 24.2365 26.3828C25.6459 26.3828 26.8573 26.998 27.9264 27.5411C28.2667 27.7138 28.597 27.8791 28.9027 28.0084C29.1304 27.7673 29.4484 27.6131 29.8047 27.6131C30.4952 27.6131 31.0545 28.1749 31.0545 28.8684C31.0545 29.5618 30.4952 30.1236 29.8047 30.1236C29.2442 30.1236 28.7876 29.747 28.6292 29.2362C28.2196 29.0796 27.8002 28.8684 27.3683 28.6496C26.4229 28.1699 25.3501 27.6256 24.2365 27.6256C23.1661 27.6256 22.4979 28.1239 22.1168 28.5452C22.1317 28.6521 22.149 28.7578 22.149 28.8684C22.149 30.1124 21.1442 31.1215 19.9056 31.1215C18.667 31.1215 17.6622 30.1124 17.6622 28.8684C17.6622 28.7578 17.6795 28.6509 17.6944 28.544C17.312 28.1214 16.6438 27.6256 15.5747 27.6256C14.4611 27.6256 13.3882 28.1712 12.4416 28.6509C12.011 28.8696 11.5915 29.0809 11.182 29.2375C11.0236 29.7483 10.567 30.1248 10.0064 30.1248C9.31598 30.1248 8.75668 29.5618 8.75668 28.8684C8.75668 28.1749 9.31598 27.6131 10.0064 27.6131C10.3628 27.6131 10.6808 27.7685 10.9085 28.0084C11.2141 27.8803 11.5433 27.7151 11.8836 27.5411C12.9527 26.998 14.1653 26.3828 15.5747 26.3828C16.8072 26.3828 17.6659 26.8538 18.2487 27.3609C18.5098 27.0713 18.8439 26.8538 19.2238 26.732C18.7622 26.4835 18.438 26.0112 18.438 25.4495C18.438 24.6354 19.9056 20.0396 19.9056 20.0396Z" fill="url(#paint0_linear)"/>
<path d="M37.4458 18.5089C37.4458 18.5089 35.9233 18.6395 34.9147 19.1836C34.9147 19.1836 38.9263 19.1619 40.7934 20.7275C40.7934 20.7275 36.2529 19.335 30.9608 22.793C30.9608 22.793 39.3777 21.1834 43.3679 24.5981C43.3679 24.5981 42.0803 22.2193 39.3721 21.7074C39.3721 21.7074 42.4534 21.5848 43.5086 22.0968C43.5086 22.0968 42.5972 20.137 41.5641 19.6699V18.2729C41.5641 17.99 40.0211 16.5514 37.4458 16.3086V18.5089Z" fill="url(#paint1_linear)"/>
<path d="M36.7602 24.7556C36.7602 24.7556 37.4095 25.3209 37.6844 25.8432C37.6844 25.8432 37.0909 26.4287 36.5236 26.717C36.5236 26.717 38.2421 27.2572 38.6946 27.8961C37.7784 27.6087 36.2137 27.7164 35.8369 28.493C36.8829 28.3804 37.5235 28.6501 37.6581 29.0501C37.6581 29.0501 37.4094 29.4079 36.6479 29.5668C35.8369 29.7361 35.6298 30.0727 35.6298 30.5427C35.6298 31.0127 36.2456 31.4424 37.3641 31.4076C38.4811 31.3719 41.5275 30.9119 41.7578 25.1589C41.5275 24.6179 38.7448 23.5133 36.7531 23.5255L36.7602 24.7556Z" fill="#454545"/>
<path d="M42.1354 31.1224C43.503 28.9981 44.2512 27.1472 44.3802 25.5696C46.4048 27.8153 46.2831 30.4446 45.9391 32.4568C45.7071 31.8093 45.4078 31.1433 45.0413 30.4587C45.2835 33.5612 44.3633 35.2409 42.2807 35.4978C42.0371 34.0646 41.9887 32.6062 42.1354 31.1224Z" fill="#454545"/>
<path d="M17.4462 11.854C17.0661 12.4375 16.5091 14.0598 15.775 16.721C14.0227 18.7225 12.3109 21.516 10.6397 25.1013C9.82969 25.3745 8.97008 25.7519 8.06085 26.2338C10.439 21.7568 12.7628 18.4084 15.032 16.189C15.5274 14.5457 16.3321 13.1007 17.4462 11.854Z" fill="#454545"/>
<path d="M21.9637 16.4417L16.4193 19.0527C17.9991 19.0792 19.2538 18.7925 20.1833 18.1925C21.1128 17.5926 21.7063 17.009 21.9637 16.4417Z" fill="#454545"/>
<path d="M19.9178 15.4895C19.8865 14.3484 19.7376 13.707 19.4713 13.5654C19.1753 13.4334 19.0032 13.1491 19.1753 12.6301C19.2814 12.3002 19.2494 11.9329 19.0793 11.5283L20.5834 10.5254L22.2759 11.5904C22.3352 11.9662 22.2122 12.3127 21.907 12.6301C22.2759 13.0286 22.2759 13.5429 21.8485 14.1369C21.8604 14.2841 21.8687 14.4283 21.8733 14.5697C21.8803 14.7841 21.872 15.0906 21.8485 15.4895H19.9178Z" fill="#454545"/>
<path d="M40.8007 33.0698C40.5354 37.8939 41.5644 40.6354 43.8876 41.2942C47.3724 42.2824 53.5681 42.4137 53.1716 49.8967C53.4865 50.8874 53.7743 51.8289 54.0349 52.7213C53.0135 53.8014 51.9055 54.7985 50.722 55.7019C49.5634 52.9067 47.8038 51.1491 45.768 49.8967C37.7446 44.9079 36.0889 39.2989 40.8007 33.0698Z" fill="#454545"/>
<path d="M20.3384 48.4221C24.5398 58.9498 31.2653 52.2043 36.4607 54.6704C38.8363 55.798 40.1322 57.8679 40.3483 60.8803C38.3229 61.3509 36.2124 61.5994 34.044 61.5994C29.8393 61.5994 25.8528 60.6651 22.2804 58.9926C22.2671 55.8231 21.6196 52.2999 20.3384 48.4221Z" fill="#454545"/>
<path d="M28.3084 19.9539C29.3983 19.6534 30.289 18.9748 30.9805 17.918C30.9367 18.5472 30.7788 19.0887 30.5069 19.5427C33.6568 18.9772 36.1014 17.0721 37.8408 13.8276C34.6337 12.087 31.3277 13.2743 29.5557 15.4397C28.3744 16.8832 27.9586 18.388 28.3084 19.9539Z" fill="#454545"/>
<defs>
<linearGradient id="paint0_linear" x1="51" y1="6.26312" x2="5.81581" y2="46.0789" gradientUnits="userSpaceOnUse">
<stop stop-color="#FFB36D"/>
<stop offset="1" stop-color="#FF8888"/>
</linearGradient>
<linearGradient id="paint1_linear" x1="49.4053" y1="12.1033" x2="35.5989" y2="27.6418" gradientUnits="userSpaceOnUse">
<stop stop-color="#FFB36D"/>
<stop offset="1" stop-color="#FF8888"/>
</linearGradient>
</defs>
</svg>
