<svg width="126" height="110" viewBox="0 0 126 110" fill="none" xmlns="http://www.w3.org/2000/svg">
<circle cx="63" cy="55" r="54.25" stroke="#FF8989" stroke-width="1.5"/>
<circle cx="117.5" cy="55.5" r="6.5" fill="#7381FF" stroke="white" stroke-width="3"/>
<circle cx="8.5" cy="55.5" r="6.5" fill="url(#paint0_linear)" stroke="white" stroke-width="3"/>
<path fill-rule="evenodd" clip-rule="evenodd" d="M72.0713 59.7027C72.0741 59.701 72.0773 59.6993 72.0802 59.6976C72.0807 59.6973 72.081 59.6971 72.0815 59.6968C72.0826 59.6963 72.0835 59.6957 72.0843 59.6953C72.0791 59.6982 72.0749 59.7005 72.0713 59.7027Z" fill="#2B2C2A"/>
<path fill-rule="evenodd" clip-rule="evenodd" d="M72.0713 59.7027C72.0741 59.701 72.0773 59.6993 72.0802 59.6976C72.0807 59.6973 72.081 59.6971 72.0815 59.6968C72.0826 59.6963 72.0835 59.6957 72.0843 59.6953C72.0791 59.6982 72.0749 59.7005 72.0713 59.7027Z" stroke="#F8F2E6" stroke-width="0.8" stroke-linecap="round" stroke-linejoin="round"/>
<path fill-rule="evenodd" clip-rule="evenodd" d="M72.0889 59.6928C72.0893 59.6925 72.0898 59.6923 72.0903 59.692C72.0997 59.6865 72.1049 59.6837 72.1066 59.6826C72.1071 59.6824 72.1073 59.6823 72.1074 59.6823C72.1005 59.6862 72.0941 59.6898 72.0889 59.6928Z" fill="#2B2C2A"/>
<path fill-rule="evenodd" clip-rule="evenodd" d="M72.0889 59.6928C72.0893 59.6925 72.0898 59.6923 72.0903 59.692C72.0997 59.6865 72.1049 59.6837 72.1066 59.6826C72.1071 59.6824 72.1073 59.6823 72.1074 59.6823C72.1005 59.6862 72.0941 59.6898 72.0889 59.6928Z" stroke="#F8F2E6" stroke-width="0.8" stroke-linecap="round" stroke-linejoin="round"/>
<path fill-rule="evenodd" clip-rule="evenodd" d="M80.9537 54.6844C73.9162 58.6608 72.3857 59.5255 72.1088 59.6821C72.109 59.6819 72.1087 59.6823 72.1076 59.6826C72.105 59.6841 72.098 59.6882 72.0898 59.6929C72.0875 59.6941 72.0849 59.6956 72.0822 59.697C72.0817 59.6972 72.0814 59.6975 72.0808 59.6978C72.0752 59.7011 72.0682 59.705 72.0602 59.7095C72.0595 59.7098 72.059 59.7102 72.0586 59.7105C72.0579 59.7109 72.0574 59.7112 72.0569 59.7114C72.053 59.7136 72.0537 59.7132 72.0569 59.7114C72.0572 59.7112 72.0579 59.7109 72.0586 59.7105C72.0588 59.7103 72.059 59.7102 72.0591 59.71C71.7965 59.8585 70.2981 60.705 63.2715 64.6753C52.3876 58.5219 56.0218 60.5759 45.5914 54.6839C48.9719 52.7739 59.8986 46.5999 63.2736 44.6931C74.1969 50.8687 70.0318 48.5147 80.9537 54.6844ZM36.7502 39.6984C36.7489 63.6277 36.7541 47.6621 36.7513 69.67C57.2036 81.2232 42.9031 73.1496 63.2726 84.6557C65.9614 83.137 86.7122 71.4121 89.795 69.67C89.7963 45.7407 89.791 61.7063 89.7938 39.6984C69.1748 28.0515 83.5104 36.1445 63.2726 24.7126C45.1364 34.9598 51.8648 31.1581 36.7502 39.6984Z" fill="#2B2C2A"/>
<path fill-rule="evenodd" clip-rule="evenodd" d="M80.9537 54.6844C73.9162 58.6608 72.3857 59.5255 72.1088 59.6821C72.109 59.6819 72.1087 59.6823 72.1076 59.6826C72.105 59.6841 72.098 59.6882 72.0898 59.6929C72.0875 59.6941 72.0849 59.6956 72.0822 59.697C72.0817 59.6972 72.0814 59.6975 72.0808 59.6978C72.0752 59.7011 72.0682 59.705 72.0602 59.7095C72.0595 59.7098 72.059 59.7102 72.0586 59.7105C72.0579 59.7109 72.0574 59.7112 72.0569 59.7114C72.053 59.7136 72.0537 59.7132 72.0569 59.7114C72.0572 59.7112 72.0579 59.7109 72.0586 59.7105C72.0588 59.7103 72.059 59.7102 72.0591 59.71C71.7965 59.8585 70.2981 60.705 63.2715 64.6753C52.3876 58.5219 56.0218 60.5759 45.5914 54.6839C48.9719 52.7739 59.8986 46.5999 63.2736 44.693C74.1969 50.8687 70.0318 48.5147 80.9537 54.6844ZM36.7502 39.6984C36.7489 63.6277 36.7541 47.6621 36.7513 69.67C57.2036 81.2232 42.9031 73.1496 63.2726 84.6557C65.9614 83.137 86.7122 71.4121 89.795 69.67C89.7963 45.7407 89.791 61.7063 89.7938 39.6984C69.1748 28.0515 83.5104 36.1445 63.2726 24.7126C45.1364 34.9598 51.8648 31.1581 36.7502 39.6984Z" stroke="#F8F2E6" stroke-width="0.8" stroke-linecap="round" stroke-linejoin="round"/>
<path fill-rule="evenodd" clip-rule="evenodd" d="M63.2733 84.6557C65.9615 83.137 86.7128 71.4117 89.7948 69.6703L89.796 59.679C86.5258 61.5268 66.5432 72.8177 63.2746 74.6644C60.7166 73.2196 48.1589 66.126 45.5906 64.6752L45.5919 54.6839C48.978 52.7708 59.8934 46.6032 63.274 44.6931C74.1408 50.8367 70.0689 48.5356 80.9541 54.6844L80.9553 44.6932C78.3972 43.2483 65.8397 36.1548 63.2714 34.7038C60.4371 36.3053 39.5036 48.1334 36.75 49.6892C36.7533 61.9683 36.753 57.4388 36.7516 69.6696C57.204 81.2229 42.9037 73.1492 63.2733 84.6557Z" fill="url(#paint1_linear)"/>
<path fill-rule="evenodd" clip-rule="evenodd" d="M63.2733 84.6557C65.9615 83.137 86.7128 71.4117 89.7948 69.6703L89.796 59.679C86.5258 61.5268 66.5432 72.8177 63.2746 74.6644C60.7166 73.2196 48.1589 66.126 45.5906 64.6752L45.5919 54.6839C48.9779 52.7708 59.8934 46.6032 63.274 44.6931C74.1408 50.8367 70.0689 48.5356 80.9541 54.6844L80.9553 44.6932C78.3972 43.2483 65.8397 36.1548 63.2714 34.7038C60.4371 36.3053 39.5036 48.1334 36.75 49.6892C36.7533 61.9683 36.753 57.4388 36.7516 69.6696C57.204 81.2229 42.9037 73.1492 63.2733 84.6557Z" stroke="white" stroke-width="1.5" stroke-linecap="round" stroke-linejoin="round"/>
<path fill-rule="evenodd" clip-rule="evenodd" d="M63.2714 34.7038C65.8294 36.1488 78.387 43.2424 80.9553 44.6932L80.9541 54.6844C62.7961 64.9442 81.4352 54.4126 63.2719 64.6753C52.4078 58.5331 56.4156 60.7982 45.5919 54.6839L45.5906 64.6752C48.1488 66.1201 60.7063 73.2136 63.2746 74.6644C66.5437 72.8173 86.5272 61.5261 89.796 59.679C89.7927 47.4001 89.793 51.9294 89.7944 39.6988C69.175 28.0511 83.5109 36.1448 63.2726 24.7126C45.1367 34.96 51.8653 31.1581 36.7512 39.6981L36.75 49.6892C39.4789 48.1473 60.6494 36.1854 63.2714 34.7038Z" fill="url(#paint2_linear)"/>
<path fill-rule="evenodd" clip-rule="evenodd" d="M63.2714 34.7038C65.8294 36.1488 78.387 43.2424 80.9553 44.6932L80.9541 54.6844C62.7961 64.9442 81.4352 54.4126 63.2719 64.6753C52.4078 58.5331 56.4156 60.7982 45.5919 54.6839L45.5906 64.6752C48.1488 66.1201 60.7063 73.2136 63.2746 74.6644C66.5437 72.8173 86.5272 61.5261 89.796 59.679C89.7927 47.4001 89.793 51.9294 89.7944 39.6988C69.175 28.0511 83.5109 36.1448 63.2726 24.7126C45.1367 34.96 51.8653 31.1581 36.7512 39.6981L36.75 49.6892C39.4789 48.1473 60.6494 36.1854 63.2714 34.7038Z" stroke="white" stroke-width="1.5" stroke-linecap="round" stroke-linejoin="round"/>
<defs>
<linearGradient id="paint0_linear" x1="8.5" y1="49" x2="8.5" y2="62" gradientUnits="userSpaceOnUse">
<stop stop-color="#01F8EB"/>
<stop offset="1" stop-color="#01C8DE"/>
</linearGradient>
<linearGradient id="paint1_linear" x1="84.7402" y1="44.2691" x2="44.2836" y2="82.9665" gradientUnits="userSpaceOnUse">
<stop stop-color="#FF8989"/>
<stop offset="1" stop-color="#FFB170"/>
</linearGradient>
<linearGradient id="paint2_linear" x1="84.7402" y1="34.2779" x2="44.2837" y2="72.9753" gradientUnits="userSpaceOnUse">
<stop stop-color="#FF8989"/>
<stop offset="1" stop-color="#FFB170"/>
</linearGradient>
</defs>
</svg>
