<svg width="132" height="98" viewBox="0 0 132 98" fill="none" xmlns="http://www.w3.org/2000/svg">
<path d="M28.7823 30.8493C11.985 37.4207 1 48.3193 1 60.6526C1 80.7267 30.1015 97 66 97C101.899 97 131 80.7267 131 60.6526C131 47.0782 117.693 35.2419 97.9758 29" stroke="url(#paint0_linear)" stroke-width="1.5"/>
<ellipse cx="117" cy="83" rx="6" ry="4" fill="#01F89F" stroke="white" stroke-width="3"/>
<ellipse cx="16" cy="83" rx="6" ry="4" fill="#01F89F" stroke="white" stroke-width="3"/>
<path fill-rule="evenodd" clip-rule="evenodd" d="M73.5537 40.6807C73.5568 40.6789 73.5602 40.677 73.5634 40.6752C73.564 40.6749 73.5643 40.6747 73.5648 40.6744C73.566 40.6738 73.567 40.6732 73.5679 40.6727C73.5623 40.6759 73.5576 40.6784 73.5537 40.6807Z" fill="#2B2C2A"/>
<path fill-rule="evenodd" clip-rule="evenodd" d="M73.5537 40.6807C73.5568 40.6789 73.5602 40.677 73.5634 40.6752C73.564 40.6749 73.5643 40.6747 73.5648 40.6744C73.566 40.6738 73.567 40.6732 73.5679 40.6727C73.5623 40.6759 73.5576 40.6784 73.5537 40.6807Z" stroke="#F8F2E6" stroke-width="0.8" stroke-linecap="round" stroke-linejoin="round"/>
<path fill-rule="evenodd" clip-rule="evenodd" d="M73.5732 40.6694C73.5737 40.669 73.5743 40.6689 73.5748 40.6685C73.5847 40.6627 73.5902 40.6597 73.592 40.6585C73.5925 40.6584 73.5927 40.6582 73.5929 40.6582C73.5856 40.6624 73.5788 40.6662 73.5732 40.6694Z" fill="#2B2C2A"/>
<path fill-rule="evenodd" clip-rule="evenodd" d="M73.5732 40.6694C73.5737 40.669 73.5743 40.6689 73.5748 40.6685C73.5847 40.6627 73.5902 40.6597 73.592 40.6585C73.5925 40.6584 73.5927 40.6582 73.5929 40.6582C73.5856 40.6624 73.5788 40.6662 73.5732 40.6694Z" stroke="#F8F2E6" stroke-width="0.8" stroke-linecap="round" stroke-linejoin="round"/>
<path fill-rule="evenodd" clip-rule="evenodd" d="M83.3991 35.1186C75.5989 39.5261 73.9025 40.4845 73.5956 40.658C73.5958 40.6578 73.5954 40.6582 73.5942 40.6586C73.5913 40.6603 73.5836 40.6649 73.5745 40.67C73.5719 40.6713 73.569 40.673 73.5661 40.6745C73.5655 40.6747 73.5652 40.6751 73.5646 40.6755C73.5584 40.6791 73.5506 40.6835 73.5417 40.6884C73.5409 40.6888 73.5403 40.6892 73.5399 40.6895C73.5392 40.6899 73.5386 40.6903 73.538 40.6905C73.5337 40.693 73.5345 40.6926 73.538 40.6905C73.5384 40.6903 73.5392 40.6899 73.5399 40.6895C73.5401 40.6894 73.5403 40.6892 73.5405 40.689C73.2494 40.8535 71.5886 41.7919 63.8004 46.1925C51.7368 39.3721 55.7649 41.6487 44.204 35.118C47.9509 33.0011 60.0619 26.1579 63.8027 24.0444C75.91 30.8894 71.2934 28.2802 83.3991 35.1186ZM34.4046 18.5084C34.403 45.0313 34.4088 27.3352 34.4057 51.7285C57.0748 64.534 41.2243 55.5853 63.8016 68.3385C66.7819 66.6551 89.7818 53.6594 93.1987 51.7285C93.2001 25.2055 93.1943 42.9016 93.1974 18.5084C70.3435 5.59904 86.233 14.5692 63.8016 1.89832C43.6997 13.2562 51.1574 9.04235 34.4046 18.5084Z" fill="#2B2C2A"/>
<path fill-rule="evenodd" clip-rule="evenodd" d="M83.3991 35.1186C75.5989 39.5261 73.9025 40.4845 73.5956 40.658C73.5958 40.6578 73.5954 40.6582 73.5942 40.6586C73.5913 40.6603 73.5836 40.6649 73.5745 40.67C73.5719 40.6713 73.569 40.673 73.5661 40.6745C73.5655 40.6747 73.5652 40.6751 73.5646 40.6755C73.5584 40.6791 73.5506 40.6835 73.5417 40.6884C73.5409 40.6888 73.5403 40.6892 73.5399 40.6895C73.5392 40.6899 73.5386 40.6903 73.538 40.6905C73.5337 40.693 73.5345 40.6926 73.538 40.6905C73.5384 40.6903 73.5392 40.6899 73.5399 40.6895C73.5401 40.6894 73.5403 40.6892 73.5405 40.689C73.2494 40.8536 71.5886 41.7919 63.8004 46.1925C51.7368 39.3721 55.7649 41.6487 44.204 35.1181C47.9509 33.0011 60.0619 26.1579 63.8027 24.0444C75.91 30.8894 71.2934 28.2802 83.3991 35.1186ZM34.4046 18.5084C34.403 45.0313 34.4088 27.3352 34.4057 51.7285C57.0748 64.534 41.2243 55.5853 63.8016 68.3385C66.7819 66.6551 89.7818 53.6594 93.1987 51.7285C93.2001 25.2055 93.1943 42.9016 93.1974 18.5084C70.3435 5.59904 86.233 14.5692 63.8016 1.89832C43.6997 13.2562 51.1574 9.04235 34.4046 18.5084Z" stroke="#F8F2E6" stroke-width="0.8" stroke-linecap="round" stroke-linejoin="round"/>
<path fill-rule="evenodd" clip-rule="evenodd" d="M63.8025 68.3386C66.782 66.6552 89.7825 53.6591 93.1985 51.7289L93.1999 40.6546C89.5752 42.7027 67.4268 55.2174 63.8038 57.2643C60.9686 55.6629 47.0498 47.8004 44.2032 46.1923L44.2045 35.1181C47.9576 32.9977 60.0562 26.1616 63.8032 24.0444C75.8479 30.8539 71.3346 28.3034 83.3996 35.1186L83.401 24.0446C80.5656 22.443 66.647 14.5806 63.8003 12.9724C60.6588 14.7475 37.4564 27.8577 34.4043 29.5821C34.408 43.1921 34.4076 38.1717 34.406 51.7281C57.0753 64.5336 41.225 55.5849 63.8025 68.3386Z" fill="url(#paint1_linear)"/>
<path fill-rule="evenodd" clip-rule="evenodd" d="M63.8025 68.3386C66.782 66.6552 89.7825 53.6591 93.1985 51.7289L93.1999 40.6546C89.5752 42.7027 67.4268 55.2174 63.8038 57.2643C60.9686 55.6629 47.0498 47.8004 44.2032 46.1923L44.2045 35.1181C47.9576 32.9977 60.0562 26.1616 63.8032 24.0444C75.8479 30.8539 71.3346 28.3034 83.3996 35.1186L83.401 24.0446C80.5656 22.443 66.647 14.5806 63.8003 12.9724C60.6588 14.7475 37.4564 27.8577 34.4043 29.5821C34.408 43.1921 34.4076 38.1717 34.406 51.7281C57.0753 64.5336 41.225 55.5849 63.8025 68.3386Z" stroke="white" stroke-width="1.5" stroke-linecap="round" stroke-linejoin="round"/>
<path fill-rule="evenodd" clip-rule="evenodd" d="M63.8003 12.9724C66.6356 14.574 80.5543 22.4365 83.401 24.0446L83.3996 35.1186C63.2735 46.4905 83.9328 34.8174 63.8009 46.1925C51.7592 39.3845 56.2014 41.8951 44.2045 35.118L44.2032 46.1923C47.0386 47.7939 60.9572 55.6562 63.8038 57.2643C67.4273 55.217 89.5767 42.7019 93.1999 40.6546C93.1962 27.0448 93.1966 32.065 93.1981 18.5088C70.3438 5.59866 86.2335 14.5696 63.8017 1.89832C43.7 13.2564 51.1579 9.04235 34.4057 18.508L34.4043 29.5821C37.429 27.873 60.8941 14.6146 63.8003 12.9724Z" fill="url(#paint2_linear)"/>
<path fill-rule="evenodd" clip-rule="evenodd" d="M63.8003 12.9724C66.6356 14.574 80.5543 22.4365 83.401 24.0446L83.3996 35.1186C63.2735 46.4905 83.9328 34.8174 63.8009 46.1925C51.7592 39.3845 56.2014 41.8951 44.2045 35.1181L44.2032 46.1923C47.0386 47.7939 60.9572 55.6562 63.8038 57.2643C67.4273 55.217 89.5767 42.7019 93.1999 40.6546C93.1962 27.0448 93.1966 32.065 93.1981 18.5088C70.3438 5.59866 86.2335 14.5696 63.8017 1.89832C43.7 13.2564 51.1579 9.04235 34.4057 18.508L34.4043 29.5821C37.429 27.873 60.8941 14.6146 63.8003 12.9724Z" stroke="white" stroke-width="1.5" stroke-linecap="round" stroke-linejoin="round"/>
<defs>
<linearGradient id="paint0_linear" x1="106" y1="82.5" x2="35" y2="6.49999" gradientUnits="userSpaceOnUse">
<stop stop-color="#FF8989"/>
<stop offset="1" stop-color="#FF9172"/>
</linearGradient>
<linearGradient id="paint1_linear" x1="87.5961" y1="23.5744" x2="42.7544" y2="66.4663" gradientUnits="userSpaceOnUse">
<stop stop-color="#FF8989"/>
<stop offset="1" stop-color="#FFB170"/>
</linearGradient>
<linearGradient id="paint2_linear" x1="87.5961" y1="12.5003" x2="42.7546" y2="55.3921" gradientUnits="userSpaceOnUse">
<stop stop-color="#FF8989"/>
<stop offset="1" stop-color="#FFB170"/>
</linearGradient>
</defs>
</svg>
