<svg width="114" height="115" viewBox="0 0 114 115" fill="none" xmlns="http://www.w3.org/2000/svg">
<path fill-rule="evenodd" clip-rule="evenodd" d="M37.0712 86.7027C37.074 86.701 37.0771 86.6993 37.0801 86.6976C37.0806 86.6973 37.0809 86.6971 37.0814 86.6968C37.0825 86.6963 37.0834 86.6957 37.0842 86.6953C37.079 86.6982 37.0748 86.7005 37.0712 86.7027Z" fill="#2B2C2A"/>
<path fill-rule="evenodd" clip-rule="evenodd" d="M37.0712 86.7027C37.074 86.701 37.0771 86.6993 37.0801 86.6976C37.0806 86.6973 37.0809 86.6971 37.0814 86.6968C37.0825 86.6963 37.0834 86.6957 37.0842 86.6953C37.079 86.6982 37.0748 86.7005 37.0712 86.7027Z" stroke="#F8F2E6" stroke-width="0.8" stroke-linecap="round" stroke-linejoin="round"/>
<path fill-rule="evenodd" clip-rule="evenodd" d="M37.0885 86.6928C37.0889 86.6925 37.0894 86.6923 37.0899 86.692C37.0993 86.6865 37.1044 86.6837 37.1062 86.6826C37.1067 86.6824 37.1069 86.6823 37.107 86.6823C37.1001 86.6862 37.0937 86.6898 37.0885 86.6928Z" fill="#2B2C2A"/>
<path fill-rule="evenodd" clip-rule="evenodd" d="M37.0885 86.6928C37.0889 86.6925 37.0894 86.6923 37.0899 86.692C37.0993 86.6865 37.1044 86.6837 37.1062 86.6826C37.1067 86.6824 37.1069 86.6823 37.107 86.6823C37.1001 86.6862 37.0937 86.6898 37.0885 86.6928Z" stroke="#F8F2E6" stroke-width="0.8" stroke-linecap="round" stroke-linejoin="round"/>
<path fill-rule="evenodd" clip-rule="evenodd" d="M45.9539 81.6844C38.9165 85.6608 37.3859 86.5255 37.1091 86.6821C37.1093 86.6819 37.1089 86.6823 37.1079 86.6826C37.1052 86.6841 37.0982 86.6882 37.09 86.6929C37.0877 86.6941 37.0851 86.6956 37.0825 86.697C37.082 86.6972 37.0816 86.6975 37.0811 86.6978C37.0755 86.7011 37.0685 86.705 37.0604 86.7095C37.0597 86.7098 37.0592 86.7102 37.0589 86.7105C37.0582 86.7109 37.0576 86.7112 37.0571 86.7114C37.0533 86.7136 37.054 86.7132 37.0571 86.7114C37.0575 86.7112 37.0582 86.7109 37.0589 86.7105C37.059 86.7103 37.0592 86.7102 37.0594 86.71C36.7967 86.8585 35.2984 87.705 28.2718 91.6753C17.3878 85.5219 21.022 87.5759 10.5917 81.6839C13.9722 79.7739 24.8988 73.5999 28.2739 71.693C39.1972 77.8687 35.032 75.5147 45.9539 81.6844ZM1.75049 66.6984C1.74911 90.6277 1.75436 74.6621 1.75156 96.67C22.2038 108.223 7.90333 100.15 28.2728 111.656C30.9617 110.137 51.7125 98.4121 54.7952 96.67C54.7965 72.7407 54.7913 88.7063 54.7941 66.6984C34.175 55.0515 48.5107 63.1445 28.2728 51.7126C10.1367 61.9598 16.8651 58.1581 1.75049 66.6984Z" stroke="#F8F2E6" stroke-width="0.8" stroke-linecap="round" stroke-linejoin="round"/>
<path fill-rule="evenodd" clip-rule="evenodd" d="M28.2733 111.656C30.9615 110.137 51.7128 98.4117 54.7948 96.6703L54.796 86.679C51.5258 88.5268 31.5432 99.8177 28.2746 101.664C25.7166 100.22 13.1589 93.126 10.5906 91.6752L10.5919 81.6839C13.978 79.7708 24.8934 73.6032 28.274 71.6931C39.1408 77.8367 35.0689 75.5356 45.9541 81.6844L45.9553 71.6932C43.3972 70.2483 30.8397 63.1548 28.2714 61.7038C25.4371 63.3053 4.50362 75.1334 1.75 76.6892C1.75332 88.9683 1.75297 84.4388 1.75157 96.6696C22.204 108.223 7.9037 100.149 28.2733 111.656Z" fill="url(#paint0_linear)" fill-opacity="0.1"/>
<path fill-rule="evenodd" clip-rule="evenodd" d="M28.2733 111.656C30.9615 110.137 51.7128 98.4117 54.7948 96.6703L54.796 86.679C51.5258 88.5268 31.5432 99.8177 28.2746 101.664C25.7166 100.22 13.1589 93.126 10.5906 91.6752L10.5919 81.6839C13.9779 79.7708 24.8934 73.6032 28.274 71.6931C39.1408 77.8367 35.0689 75.5356 45.9541 81.6844L45.9553 71.6932C43.3972 70.2483 30.8397 63.1548 28.2714 61.7038C25.4371 63.3053 4.50362 75.1334 1.75 76.6892C1.75332 88.9683 1.75297 84.4388 1.75157 96.6696C22.204 108.223 7.9037 100.149 28.2733 111.656Z" stroke="#FF8A8A"/>
<path fill-rule="evenodd" clip-rule="evenodd" d="M28.2714 61.7038C30.8294 63.1488 43.387 70.2424 45.9553 71.6932L45.9541 81.6844C27.7961 91.9442 46.4352 81.4126 28.2719 91.6753C17.4078 85.5331 21.4156 87.7982 10.5919 81.6839L10.5906 91.6752C13.1488 93.1201 25.7063 100.214 28.2746 101.664C31.5437 99.8173 51.5272 88.5261 54.796 86.679C54.7927 74.4001 54.793 78.9294 54.7944 66.6988C34.175 55.0511 48.5109 63.1448 28.2726 51.7126C10.1367 61.96 16.8653 58.1581 1.75123 66.6981L1.75 76.6892C4.47895 75.1473 25.6494 63.1854 28.2714 61.7038Z" fill="url(#paint1_linear)" fill-opacity="0.2"/>
<path fill-rule="evenodd" clip-rule="evenodd" d="M28.2714 61.7038C30.8294 63.1488 43.387 70.2424 45.9553 71.6932L45.9541 81.6844C27.7961 91.9442 46.4352 81.4126 28.2719 91.6753C17.4078 85.5331 21.4156 87.7982 10.5919 81.6839L10.5906 91.6752C13.1488 93.1201 25.7063 100.214 28.2746 101.664C31.5437 99.8173 51.5272 88.5261 54.796 86.679C54.7927 74.4001 54.793 78.9294 54.7944 66.6988C34.175 55.0511 48.5109 63.1448 28.2726 51.7126C10.1367 61.96 16.8653 58.1581 1.75122 66.6981L1.75 76.6892C4.47895 75.1473 25.6494 63.1854 28.2714 61.7038Z" stroke="#FF8A8A"/>
<path fill-rule="evenodd" clip-rule="evenodd" d="M66.0712 36.7027C66.074 36.701 66.0771 36.6993 66.0801 36.6976C66.0806 36.6973 66.0809 36.6971 66.0814 36.6968C66.0825 36.6963 66.0834 36.6957 66.0842 36.6953C66.079 36.6982 66.0748 36.7005 66.0712 36.7027Z" fill="#2B2C2A"/>
<path fill-rule="evenodd" clip-rule="evenodd" d="M66.0712 36.7027C66.074 36.701 66.0771 36.6993 66.0801 36.6976C66.0806 36.6973 66.0809 36.6971 66.0814 36.6968C66.0825 36.6963 66.0834 36.6957 66.0842 36.6953C66.079 36.6982 66.0748 36.7005 66.0712 36.7027Z" stroke="#F8F2E6" stroke-width="0.8" stroke-linecap="round" stroke-linejoin="round"/>
<path fill-rule="evenodd" clip-rule="evenodd" d="M66.0885 36.6928C66.0889 36.6925 66.0894 36.6923 66.0899 36.692C66.0993 36.6865 66.1044 36.6837 66.1062 36.6826C66.1067 36.6824 66.1069 36.6823 66.107 36.6823C66.1001 36.6862 66.0937 36.6898 66.0885 36.6928Z" fill="#2B2C2A"/>
<path fill-rule="evenodd" clip-rule="evenodd" d="M66.0885 36.6928C66.0889 36.6925 66.0894 36.6923 66.0899 36.692C66.0993 36.6865 66.1044 36.6837 66.1062 36.6826C66.1067 36.6824 66.1069 36.6823 66.107 36.6823C66.1001 36.6862 66.0937 36.6898 66.0885 36.6928Z" stroke="#F8F2E6" stroke-width="0.8" stroke-linecap="round" stroke-linejoin="round"/>
<path fill-rule="evenodd" clip-rule="evenodd" d="M74.9539 31.6844C67.9165 35.6608 66.3859 36.5255 66.1091 36.6821C66.1093 36.6819 66.1089 36.6823 66.1079 36.6826C66.1052 36.6841 66.0982 36.6882 66.09 36.6929C66.0877 36.6941 66.0851 36.6956 66.0825 36.697C66.082 36.6972 66.0816 36.6975 66.0811 36.6978C66.0755 36.7011 66.0685 36.705 66.0604 36.7095C66.0597 36.7098 66.0592 36.7102 66.0589 36.7105C66.0582 36.7109 66.0576 36.7112 66.0571 36.7114C66.0533 36.7136 66.054 36.7132 66.0571 36.7114C66.0575 36.7112 66.0582 36.7109 66.0589 36.7105C66.059 36.7103 66.0592 36.7102 66.0594 36.71C65.7967 36.8585 64.2984 37.705 57.2718 41.6753C46.3878 35.5219 50.022 37.5759 39.5917 31.6839C42.9722 29.7739 53.8988 23.5999 57.2739 21.693C68.1972 27.8687 64.032 25.5147 74.9539 31.6844ZM30.7505 16.6984C30.7491 40.6277 30.7544 24.6621 30.7516 46.67C51.2038 58.2232 36.9033 50.1496 57.2728 61.6557C59.9617 60.137 80.7125 48.4121 83.7952 46.67C83.7965 22.7407 83.7913 38.7063 83.7941 16.6984C63.175 5.05148 77.5107 13.1445 57.2728 1.71265C39.1367 11.9598 45.8651 8.15807 30.7505 16.6984Z" stroke="#F8F2E6" stroke-width="0.8" stroke-linecap="round" stroke-linejoin="round"/>
<path fill-rule="evenodd" clip-rule="evenodd" d="M57.2733 61.6557C59.9615 60.137 80.7128 48.4117 83.7948 46.6703L83.796 36.679C80.5258 38.5268 60.5432 49.8177 57.2746 51.6644C54.7166 50.2196 42.1589 43.126 39.5906 41.6752L39.5919 31.6839C42.978 29.7708 53.8934 23.6032 57.274 21.6931C68.1408 27.8367 64.0689 25.5356 74.9541 31.6844L74.9553 21.6932C72.3972 20.2483 59.8397 13.1548 57.2714 11.7038C54.4371 13.3053 33.5036 25.1334 30.75 26.6892C30.7533 38.9683 30.753 34.4388 30.7516 46.6696C51.204 58.2229 36.9037 50.1492 57.2733 61.6557Z" fill="url(#paint2_linear)" fill-opacity="0.7"/>
<path fill-rule="evenodd" clip-rule="evenodd" d="M57.2733 61.6557C59.9615 60.137 80.7128 48.4117 83.7948 46.6703L83.796 36.679C80.5258 38.5268 60.5432 49.8177 57.2746 51.6644C54.7166 50.2196 42.1589 43.126 39.5906 41.6752L39.5919 31.6839C42.9779 29.7708 53.8934 23.6032 57.274 21.6931C68.1408 27.8367 64.0689 25.5356 74.9541 31.6844L74.9553 21.6932C72.3972 20.2483 59.8397 13.1548 57.2714 11.7038C54.4371 13.3053 33.5036 25.1334 30.75 26.6892C30.7533 38.9683 30.753 34.4388 30.7516 46.6696C51.204 58.2229 36.9037 50.1492 57.2733 61.6557Z" stroke="#FF8A8A"/>
<path fill-rule="evenodd" clip-rule="evenodd" d="M57.2714 11.7038C59.8294 13.1488 72.387 20.2424 74.9553 21.6932L74.9541 31.6844C56.7961 41.9442 75.4352 31.4126 57.2719 41.6753C46.4078 35.5331 50.4156 37.7982 39.5919 31.6839L39.5906 41.6752C42.1488 43.1201 54.7063 50.2136 57.2746 51.6644C60.5437 49.8173 80.5272 38.5261 83.796 36.679C83.7927 24.4001 83.793 28.9294 83.7944 16.6988C63.175 5.05114 77.5109 13.1448 57.2726 1.71265C39.1367 11.96 45.8653 8.15807 30.7512 16.6981L30.75 26.6892C33.4789 25.1473 54.6494 13.1854 57.2714 11.7038Z" fill="url(#paint3_linear)" fill-opacity="0.4"/>
<path fill-rule="evenodd" clip-rule="evenodd" d="M57.2714 11.7038C59.8294 13.1488 72.387 20.2424 74.9553 21.6932L74.9541 31.6844C56.7961 41.9442 75.4352 31.4126 57.2719 41.6753C46.4078 35.5331 50.4156 37.7982 39.5919 31.6839L39.5906 41.6752C42.1488 43.1201 54.7063 50.2136 57.2746 51.6644C60.5437 49.8173 80.5272 38.5261 83.796 36.679C83.7927 24.4001 83.793 28.9294 83.7944 16.6988C63.175 5.05114 77.5109 13.1448 57.2726 1.71265C39.1367 11.96 45.8653 8.15807 30.7512 16.6981L30.75 26.6892C33.4789 25.1473 54.6494 13.1854 57.2714 11.7038Z" stroke="#FF8A8A"/>
<path fill-rule="evenodd" clip-rule="evenodd" d="M94.3952 86.8816C94.398 86.8799 94.4011 86.8782 94.4041 86.8765C94.4046 86.8762 94.4049 86.8761 94.4054 86.8758C94.4065 86.8753 94.4074 86.8747 94.4082 86.8742C94.403 86.8771 94.3988 86.8795 94.3952 86.8816Z" fill="#2B2C2A"/>
<path fill-rule="evenodd" clip-rule="evenodd" d="M94.3952 86.8816C94.398 86.8799 94.4011 86.8782 94.4041 86.8765C94.4046 86.8762 94.4049 86.8761 94.4054 86.8758C94.4065 86.8753 94.4074 86.8747 94.4082 86.8742C94.403 86.8771 94.3988 86.8795 94.3952 86.8816Z" stroke="#F8F2E6" stroke-width="0.8" stroke-linecap="round" stroke-linejoin="round"/>
<path fill-rule="evenodd" clip-rule="evenodd" d="M94.4131 86.8713C94.4135 86.871 94.414 86.8708 94.4145 86.8705C94.4239 86.865 94.429 86.8621 94.4308 86.861C94.4313 86.8609 94.4315 86.8607 94.4316 86.8607C94.4247 86.8647 94.4183 86.8683 94.4131 86.8713Z" fill="#2B2C2A"/>
<path fill-rule="evenodd" clip-rule="evenodd" d="M94.4131 86.8713C94.4135 86.871 94.414 86.8708 94.4145 86.8705C94.4239 86.865 94.429 86.8621 94.4308 86.861C94.4313 86.8609 94.4315 86.8607 94.4316 86.8607C94.4247 86.8647 94.4183 86.8683 94.4131 86.8713Z" stroke="#F8F2E6" stroke-width="0.8" stroke-linecap="round" stroke-linejoin="round"/>
<path fill-rule="evenodd" clip-rule="evenodd" d="M103.595 81.6844C96.3064 85.8028 94.7211 86.6984 94.4344 86.8605C94.4346 86.8604 94.4342 86.8607 94.4331 86.8611C94.4304 86.8627 94.4232 86.8669 94.4146 86.8717C94.4123 86.873 94.4096 86.8746 94.4068 86.876C94.4063 86.8762 94.4059 86.8765 94.4054 86.8769C94.3996 86.8802 94.3923 86.8843 94.384 86.8889C94.3833 86.8893 94.3827 86.8896 94.3824 86.89C94.3817 86.8904 94.3811 86.8907 94.3806 86.8909C94.3766 86.8932 94.3773 86.8928 94.3806 86.8909C94.3809 86.8907 94.3817 86.8904 94.3824 86.89C94.3826 86.8898 94.3827 86.8896 94.3829 86.8895C94.1109 87.0433 92.559 87.9201 85.2815 92.0321C74.0088 85.659 77.7728 87.7863 66.9699 81.6838C70.4712 79.7056 81.788 73.3112 85.2836 71.3362C96.5971 77.7324 92.2831 75.2943 103.595 81.6844ZM57.813 66.1632C57.8116 90.9471 57.817 74.4113 57.8141 97.2052C78.9968 109.171 64.1856 100.809 85.2825 112.726C88.0674 111.153 109.559 99.0095 112.752 97.2052C112.754 72.4212 112.748 88.957 112.751 66.1632C91.3956 54.1003 106.243 62.4823 85.2825 50.6422C66.4987 61.2554 73.4674 57.3178 57.813 66.1632Z" fill="#2B2C2A"/>
<path fill-rule="evenodd" clip-rule="evenodd" d="M103.595 81.6844C96.3063 85.8028 94.7211 86.6984 94.4344 86.8606C94.4346 86.8604 94.4342 86.8607 94.4331 86.8611C94.4304 86.8627 94.4232 86.8669 94.4146 86.8717C94.4123 86.873 94.4096 86.8746 94.4068 86.876C94.4063 86.8762 94.4059 86.8765 94.4054 86.8769C94.3996 86.8802 94.3923 86.8843 94.384 86.8889C94.3833 86.8893 94.3827 86.8896 94.3824 86.89C94.3817 86.8904 94.3811 86.8907 94.3806 86.8909C94.3766 86.8932 94.3773 86.8928 94.3806 86.8909C94.3809 86.8907 94.3817 86.8904 94.3824 86.89C94.3826 86.8898 94.3827 86.8896 94.3829 86.8895C94.1109 87.0433 92.559 87.9201 85.2815 92.0321C74.0088 85.659 77.7728 87.7863 66.9699 81.6838C70.4712 79.7056 81.788 73.3112 85.2836 71.3362C96.5971 77.7324 92.2831 75.2943 103.595 81.6844ZM57.813 66.1632C57.8116 90.9471 57.817 74.4113 57.8141 97.2052C78.9968 109.171 64.1856 100.809 85.2825 112.726C88.0674 111.153 109.559 99.0095 112.752 97.2052C112.754 72.4213 112.748 88.957 112.751 66.1632C91.3956 54.1003 106.243 62.4823 85.2825 50.6422C66.4987 61.2554 73.4674 57.3178 57.813 66.1632Z" stroke="#F8F2E6" stroke-width="0.8" stroke-linecap="round" stroke-linejoin="round"/>
<path fill-rule="evenodd" clip-rule="evenodd" d="M85.2831 112.726C88.0673 111.153 109.56 99.0091 112.752 97.2055L112.753 86.8574C109.366 88.7711 88.6698 100.465 85.2844 102.378C82.635 100.882 69.6289 93.5346 66.9689 92.032L66.9702 81.6838C70.4772 79.7024 81.7824 73.3145 85.2838 71.3362C96.5387 77.6993 92.3214 75.316 103.595 81.6843L103.597 71.3364C100.947 69.8398 87.9411 62.493 85.2811 60.9902C82.3456 62.6489 60.6645 74.8995 57.8125 76.5108C57.8159 89.2284 57.8156 84.5372 57.8141 97.2048C78.997 109.171 64.186 100.809 85.2831 112.726Z" fill="url(#paint4_linear)"/>
<path fill-rule="evenodd" clip-rule="evenodd" d="M85.2831 112.726C88.0673 111.153 109.56 99.0091 112.752 97.2055L112.753 86.8574C109.366 88.7711 88.6698 100.465 85.2844 102.378C82.635 100.882 69.6289 93.5346 66.9689 92.032L66.9702 81.6838C70.4772 79.7024 81.7824 73.3145 85.2838 71.3362C96.5387 77.6993 92.3214 75.316 103.595 81.6843L103.597 71.3364C100.947 69.8398 87.9411 62.493 85.2811 60.9902C82.3456 62.6489 60.6645 74.8995 57.8125 76.5108C57.8159 89.2284 57.8156 84.5372 57.8141 97.2048C78.997 109.171 64.186 100.809 85.2831 112.726Z" stroke="#F9FAFC" stroke-width="1.5" stroke-linecap="round" stroke-linejoin="round"/>
<path fill-rule="evenodd" clip-rule="evenodd" d="M85.2811 60.9902C87.9304 62.4868 100.937 69.8338 103.597 71.3364L103.595 81.6844C84.7888 92.3106 104.094 81.4028 85.2817 92.0321C74.0295 85.6705 78.1805 88.0166 66.9702 81.6838L66.9689 92.032C69.6184 93.5285 82.6244 100.875 85.2844 102.378C88.6703 100.465 109.367 88.7704 112.753 86.8574C112.75 74.1399 112.75 78.831 112.751 66.1635C91.3956 54.0999 106.243 62.4827 85.2824 50.6422C66.4987 61.2555 73.4676 57.3178 57.8138 66.1628L57.8125 76.5108C60.6389 74.9138 82.5654 62.5247 85.2811 60.9902Z" fill="url(#paint5_linear)"/>
<path fill-rule="evenodd" clip-rule="evenodd" d="M85.2811 60.9902C87.9304 62.4868 100.937 69.8338 103.597 71.3364L103.595 81.6844C84.7888 92.3106 104.094 81.4028 85.2817 92.0321C74.0295 85.6705 78.1805 88.0166 66.9702 81.6838L66.9689 92.032C69.6184 93.5285 82.6244 100.875 85.2844 102.378C88.6703 100.465 109.367 88.7704 112.753 86.8574C112.75 74.1399 112.75 78.831 112.751 66.1635C91.3956 54.0999 106.243 62.4827 85.2824 50.6422C66.4987 61.2555 73.4676 57.3178 57.8138 66.1628L57.8125 76.5108C60.6389 74.9138 82.5654 62.5247 85.2811 60.9902Z" stroke="#F9FAFC" stroke-width="1.5" stroke-linecap="round" stroke-linejoin="round"/>
<defs>
<linearGradient id="paint0_linear" x1="49.7402" y1="71.2691" x2="9.28357" y2="109.967" gradientUnits="userSpaceOnUse">
<stop stop-color="#FF8989"/>
<stop offset="1" stop-color="#FFB170"/>
</linearGradient>
<linearGradient id="paint1_linear" x1="49.7402" y1="61.2779" x2="9.2837" y2="99.9753" gradientUnits="userSpaceOnUse">
<stop stop-color="#FF8989"/>
<stop offset="1" stop-color="#FFB170"/>
</linearGradient>
<linearGradient id="paint2_linear" x1="78.7402" y1="21.2691" x2="38.2836" y2="59.9665" gradientUnits="userSpaceOnUse">
<stop stop-color="#FF8989"/>
<stop offset="1" stop-color="#FFB170"/>
</linearGradient>
<linearGradient id="paint3_linear" x1="78.7402" y1="11.2779" x2="38.2837" y2="49.9753" gradientUnits="userSpaceOnUse">
<stop stop-color="#FF8989"/>
<stop offset="1" stop-color="#FFB170"/>
</linearGradient>
<linearGradient id="paint4_linear" x1="107.517" y1="70.8971" x2="65.6151" y2="110.977" gradientUnits="userSpaceOnUse">
<stop stop-color="#FF8989"/>
<stop offset="1" stop-color="#FFB170"/>
</linearGradient>
<linearGradient id="paint5_linear" x1="107.517" y1="60.5491" x2="65.6153" y2="100.629" gradientUnits="userSpaceOnUse">
<stop stop-color="#FF8989"/>
<stop offset="1" stop-color="#FFB170"/>
</linearGradient>
</defs>
</svg>
