<svg width="1440" height="463" viewBox="0 0 1440 463" fill="none" xmlns="http://www.w3.org/2000/svg">
<rect width="1440" height="463" fill="url(#paint0_linear)"/>
<mask id="mask0" mask-type="alpha" maskUnits="userSpaceOnUse" x="0" y="0" width="1440" height="463">
<rect width="1440" height="463" fill="url(#paint1_linear)"/>
</mask>
<g mask="url(#mask0)">
<g opacity="0.7">
<path d="M465.356 538.105L465.71 539.727C467.366 547.514 468.747 554.991 469.852 562.16C427.801 535.011 391.081 500.379 361.588 460.162C368.74 459.449 375.231 458.425 381.071 457.091C404.918 488.101 433.351 515.438 465.356 538.105ZM692.193 -186.744C918.085 -186.744 1101.23 -4.4781 1101.23 220.384C1101.23 310.588 1071.76 393.937 1021.88 461.415L1014.26 442.164C1058.12 379.212 1083.82 302.783 1083.82 220.384C1083.82 5.16449 908.495 -169.327 692.193 -169.327C644.584 -169.327 598.961 -160.874 556.755 -145.393L537.511 -156.626C585.23 -176.042 637.456 -186.744 692.193 -186.744Z" fill="url(#paint2_linear)" fill-opacity="0.21"/>
<path d="M333.217 207.014L389.31 356.322C405.263 359.066 415.083 362.807 415.083 366.931L415.083 366.982C415.491 368.792 415.458 370.775 414.985 372.93L415.083 372.932L414.77 373.81C414.337 375.421 413.668 377.124 412.763 378.919C397.901 414.015 365.033 438.777 324.582 438.777C284.726 438.777 250.7 414.737 235.337 380.462C234.021 377.993 233.099 375.712 232.567 373.616C232.487 373.392 232.405 373.162 232.323 372.932L232.405 372.929C231.988 371.007 231.913 369.247 232.179 367.648L232.323 366.931L232.34 366.638C232.811 362.471 243.308 358.714 259.976 356.008L315.947 207.014C318.64 199.786 330.505 199.786 333.217 207.014ZM629.114 206.995L685.194 356.269C700.403 358.859 710.115 362.351 711.182 366.219L711.081 366.017L711.311 366.504C712.085 368.354 712.169 370.489 711.562 372.91L711.563 372.914C711.242 374.178 710.744 375.503 710.063 376.903C695.579 413.07 661.693 438.759 620.479 438.759C579.708 438.759 545.039 413.603 530.206 378.069C529.323 376.33 528.62 374.66 528.261 373.094L528.227 372.933C528.225 372.927 528.222 372.92 528.22 372.914L528.223 372.91L528.151 372.509C527.938 371.094 528.028 369.324 528.423 367.198L528.54 366.607L528.557 366.504L528.594 366.312C529.554 362.303 539.802 358.692 555.847 356.062L611.843 206.995C614.537 199.768 626.402 199.768 629.114 206.995ZM528.6 366.312L528.557 366.504H528.561L528.6 366.312ZM324.582 236.535L280.646 353.485C293.475 352.34 308.135 351.691 323.703 351.691L325.46 351.694C341.115 351.743 355.807 352.449 368.587 353.653L324.582 236.535ZM620.479 236.535L576.529 353.513C589.433 352.351 604.204 351.691 619.9 351.691L621.657 351.694C637.184 351.742 651.765 352.437 664.472 353.623L620.479 236.535ZM473.827 33.8257C473.827 33.8257 495.711 102.358 495.711 114.497C495.711 122.855 490.877 129.916 483.994 133.622C489.659 135.457 494.641 138.681 498.534 142.999C507.225 135.438 520.03 128.415 538.408 128.415C559.425 128.415 577.489 137.588 593.431 145.687C598.506 148.262 603.432 150.727 607.99 152.655C611.385 149.059 616.127 146.761 621.441 146.761C631.737 146.761 640.077 155.138 640.077 165.479C640.077 175.82 631.737 184.196 621.441 184.196C613.082 184.196 606.274 178.581 603.912 170.964C597.804 168.629 591.549 165.479 585.11 162.217C571.013 155.064 555.015 146.947 538.408 146.947C522.448 146.947 512.484 154.378 506.801 160.661C507.022 162.254 507.28 163.83 507.28 165.479C507.28 184.03 492.298 199.078 473.827 199.078C455.357 199.078 440.374 184.03 440.374 165.479C440.374 163.83 440.633 162.236 440.854 160.642C435.153 154.341 425.189 146.947 409.246 146.947C392.64 146.947 376.642 155.082 362.527 162.236C356.105 165.497 349.85 168.648 343.743 170.983C341.381 178.6 334.572 184.215 326.214 184.215C315.918 184.215 307.577 175.82 307.577 165.479C307.577 155.138 315.918 146.761 326.214 146.761C331.528 146.761 336.27 149.078 339.665 152.655C344.223 150.746 349.131 148.281 354.205 145.687C370.147 137.588 388.23 128.415 409.246 128.415C427.624 128.415 440.43 135.438 449.121 142.999C453.014 138.681 457.996 135.438 463.66 133.622C456.778 129.916 451.944 122.873 451.944 114.497C451.944 102.358 473.827 33.8257 473.827 33.8257Z" fill="white" fill-opacity="0.15"/>
<path d="M745.383 -9.00036C745.383 -9.00036 722.68 -7.05293 707.64 1.05936C707.64 1.05936 767.46 0.73679 795.302 24.082C795.302 24.082 727.596 3.31743 648.68 54.8825C648.68 54.8825 774.191 30.8801 833.693 81.8C833.693 81.8 814.491 46.3281 774.108 38.6937C774.108 38.6937 820.055 36.8658 835.791 44.5002C835.791 44.5002 822.2 15.2768 806.794 8.31145V-12.5205C806.794 -16.7388 783.785 -38.1915 745.383 -41.8115V-9.00036Z" fill="white" fill-opacity="0.4"/>
<path d="M735.161 84.1516C735.161 84.1516 744.843 92.5806 748.942 100.37C748.942 100.37 740.091 109.101 731.633 113.4C731.633 113.4 757.258 121.454 764.005 130.982C750.344 126.695 727.012 128.301 721.392 139.882C736.991 138.204 746.542 142.225 748.55 148.191C748.55 148.191 744.842 153.525 733.486 155.895C721.392 158.42 718.304 163.438 718.304 170.447C718.304 177.455 727.487 183.863 744.166 183.344C760.822 182.812 806.25 175.953 809.683 90.1654C806.25 82.0986 764.754 65.627 735.054 65.8081L735.161 84.1516Z" fill="white" fill-opacity="0.3"/>
<path d="M815.313 179.089C835.706 147.412 846.864 119.811 848.786 96.2866C878.977 129.774 877.163 168.982 872.033 198.987C868.573 189.332 864.111 179.4 858.645 169.192C862.256 215.455 848.534 240.502 817.48 244.333C813.847 222.963 813.125 201.215 815.313 179.089Z" fill="white" fill-opacity="0.21"/>
<path d="M447.155 -108.237C441.488 -99.536 433.181 -75.3443 422.235 -35.6615C396.105 -5.81496 370.579 35.84 345.658 89.3033C333.58 93.3774 320.761 99.0055 307.203 106.191C342.666 39.4311 377.317 -10.4988 411.155 -43.5941C418.542 -68.0989 430.542 -89.6464 447.155 -108.237Z" fill="white" fill-opacity="0.21"/>
<path d="M795.411 208.129C791.455 280.065 806.799 320.944 841.442 330.769C893.407 345.505 985.795 347.463 979.883 459.047C984.579 473.82 988.87 487.86 992.756 501.167C977.526 517.273 961.002 532.142 943.355 545.613C926.079 503.931 899.84 477.722 869.482 459.047C749.839 384.655 725.149 301.015 795.411 208.129Z" fill="white" fill-opacity="0.21"/>
<path d="M490.282 437.061C552.932 594.048 653.221 493.46 730.694 530.233C766.118 547.047 785.441 577.914 788.665 622.833C758.462 629.852 726.991 633.558 694.656 633.558C631.957 633.558 572.511 619.625 519.24 594.685C519.042 547.423 509.387 494.885 490.282 437.061Z" fill="white" fill-opacity="0.21"/>
<path d="M609.129 12.5495C625.381 8.06796 638.663 -2.05157 648.975 -17.8091C648.322 -8.42755 645.968 -0.352119 641.913 6.41719C688.884 -2.01592 725.337 -30.4235 751.273 -78.8056C703.45 -104.761 654.153 -87.0549 627.729 -54.7659C610.113 -33.2399 603.913 -10.8014 609.129 12.5495Z" fill="white" fill-opacity="0.21"/>
</g>
</g>
<defs>
<linearGradient id="paint0_linear" x1="1440" y1="76.1899" x2="979.358" y2="915.198" gradientUnits="userSpaceOnUse">
<stop stop-color="#FFB36D"/>
<stop offset="1" stop-color="#FF8888"/>
</linearGradient>
<linearGradient id="paint1_linear" x1="1440" y1="76.1899" x2="979.358" y2="915.198" gradientUnits="userSpaceOnUse">
<stop stop-color="#FFB36D"/>
<stop offset="1" stop-color="#FF8888"/>
</linearGradient>
<linearGradient id="paint2_linear" x1="731.407" y1="142" x2="731.407" y2="562.16" gradientUnits="userSpaceOnUse">
<stop stop-color="white"/>
<stop offset="1" stop-color="white" stop-opacity="0"/>
</linearGradient>
</defs>
</svg>
